<?xml version="1.0" encoding="UTF-8"?><svg id="go_back_button" xmlns="http://www.w3.org/2000/svg" width="430" height="230" viewBox="0 0 430 230"><defs><style>.cls-1{fill:#fff;}.cls-2{fill:#3b9410;}.cls-3,.cls-4,.cls-5{opacity:.2;}.cls-3,.cls-6{fill:#104825;}.cls-4{fill:#80e54a;}.cls-5{fill:#86d359;}.cls-7{fill:#66bc39;}</style></defs><rect class="cls-2" x="5.09" y="5" width="416.41" height="212" rx="106" ry="106"/><rect class="cls-7" x="14.65" y="9.87" width="397.29" height="202.26" rx="101.13" ry="101.13"/><path class="cls-5" d="m383.22,160.15c-10.07,13.66-21.03,20.43-24.13,22.26-15.31,9.02-29.64,9.87-36.62,10.2-127.81,6.06-164.85-.05-198.91,0-5.77,0-23,.21-44.09-6.49-3.25-1.03-7.46-2.13-12.48-4.64-5.34-2.67-14.87-8.4-23.3-19.48-.93-1.22-4.35-5.8-8.32-13.91-1.74-3.56-10.06-20.56-11.65-38.96-3.58-41.45,28.51-72.82,29.96-74.2,4.57-4.34,21.14-19.65,44.11-21.33,4.06-.3,7.12-.08,8.32,0,40.16,2.68,179.77-1.76,218.91,0,1.45.07,4.79.23,9.11.93,5.04.81,16.27,2.74,28.29,10.2,2.68,1.66,14.2,9.07,24.13,24.12,15.87,24.04,15.88,49.74,15.81,54.72-.44,30.59-14.88,50.8-19.14,56.58Z"/><path class="cls-3" d="m28.7,159.22c1.15,3.21,3.79,7.48,6.66,12.06,1.13,1.8,5.42,8.43,13.32,14.84,4.53,3.67,10.51,6.47,22.47,12.06,9.6,4.49,13.41,5.69,16.64,6.49,5.71,1.41,10.36,1.73,13.32,1.86,27.39,1.11,148.49.93,156.45.93,25.58-.02,38.37-.03,39.11,0,8.94.4,15.12.96,24.13,0,12.33-1.32,26.63-6.49,26.63-6.49,0,0,1.75-2,1.66-2.78-.31-2.96-16.64-1.86-16.64-1.86-30.75,2.08-121.29,8.21-186.41,0-32.67-4.12-49.75-10.68-57.42-13.91-21.96-9.25-37.43-15.76-53.26-30.61-3.72-3.49-10.94-10.71-12.48-9.28-1.44,1.33,1.87,9.58,5.83,16.7Z"/><path class="cls-4" d="m373.23,40.5c-3.4-2.84-6.25-5.52-14.15-10.2-13.05-7.74-20.65-9.75-22.47-10.2-6.18-1.54-11.03-1.76-13.32-1.86-51.09-2.02-66.58-.93-66.58-.93-26.95,1.9-99.97,5.4-131.49,1.86-4.52-.51-19.75-2.46-38.28,2.78-3.4.96-6.73.26-8.32,2.78-1.95,3.08-.19,7.83,0,8.35,3.86,10.44,25.16,11.03,30.79,11.13,41.69.74,112.53.91,117.34.93,39.46.14,98.73,6.1,114.84,8.35,6.66.93,7.49.93,11.65,1.86,3.11.69,7.52,2.1,13.44,4.8,0,0,6.53,4.47,14.86,7.26h0c10.61,3.69,7.54.32,8.32-.93.73-1.15.26-3.9-6.66-13.91-5.25-7.6-6.66-9.28-9.99-12.06Z"/><path class="cls-1" d="m364.08,37.72c-4.76-3.37-9.07-4.46-17.48-6.49-9.92-2.4-21.23-5.13-23.3-.93-1.32,2.69,1.67,7.13,2.5,8.35,4.85,7.18,11.85,7.81,28.29,12.06,16.97,4.38,21.28,6.74,22.47,4.64,1.74-3.07-5.03-12.34-12.48-17.62Z"/><path class="cls-1" d="m314.98,22.88c-3.2-.79-5.76-.94-7.49-.93-1.06,0-2.23.08-3.33.93-.13.1-1.89,1.49-1.66,2.78.23,1.28,2.24,1.44,6.66,2.78,5.34,1.62,6.73,2.69,7.49,1.86,1.24-1.36-.89-5.88-1.66-7.42Z"/><path class="cls-6" d="m90.8,98.33c-1.78-.1-3.35.09-4.72.56-1.89.68-3.27,1.78-4.13,3.28-.86,1.5-1.19,3.03-1,4.58.2,1.55.92,2.94,2.17,4.16,1.25,1.22,3.05,1.89,5.39,2.01,1.7.02,2.65-.52,2.84-1.63.2-1.1.37-2.21.53-3.33-.08-.74.64-1.38,2.17-1.9s3.23-.88,5.11-1.05c1.88-.18,3.64-.14,5.27.1,1.63.24,2.5.76,2.62,1.54.2,1.46.35,3.33.45,5.58.11,2.26.15,4.48.13,6.67-.02,2.19-.11,4.12-.28,5.8-.17,1.68-.42,2.67-.75,2.96-.31.41-1.88.65-4.7.73-2.82.08-4.83-.06-6.02-.41-.18-.02-.35-.18-.53-.47-3.52.84-6.97,1.14-10.37.91-6.02-.47-11.05-2.82-15.12-7.06-4.06-4.24-5.75-9.47-5.07-15.7.76-6.8,3.24-12.1,7.43-15.91s9.48-5.88,15.86-6.21c4.22-.2,8.05.66,11.5,2.58,3.45,1.91,5.21,5.37,5.29,10.37.08.76-.4,1.4-1.44,1.92-1.04.52-2.26.93-3.68,1.23-1.42.3-2.82.5-4.2.6-1.39.1-2.38.1-2.99,0-.84-.12-1.25-.45-1.22-1s-.16-.85-.57-.91Z"/><path class="cls-6" d="m155.81,109.26c-1.02,6.15-4,11.11-8.95,14.88s-10.71,5.11-17.27,4.01-11.31-4.07-14.94-9.05-4.96-10.5-3.98-16.55c.92-5.62,3.64-10.35,8.16-14.17,4.52-3.82,9.78-5.46,15.78-4.94,7.23.62,12.85,3.37,16.86,8.23s5.46,10.72,4.35,17.58Zm-16.82-2.49c.27-1.68-.04-3.11-.95-4.29s-2.23-1.92-3.97-2.21c-1.64-.27-3.09.08-4.34,1.07s-1.99,2.23-2.23,3.74c-.31,1.82.2,3.42,1.52,4.82s2.97,1.98,4.92,1.74c1.35-.14,2.47-.66,3.37-1.58s1.46-2.01,1.67-3.28Z"/><path class="cls-6" d="m206.46,128.25c-.7.08-2.08.14-4.12.19-2.04.05-4.23.07-6.56.06-2.33,0-4.54-.08-6.61-.21-2.07-.13-3.47-.35-4.19-.66-.68-.27-1.21-2.27-1.58-5.98-.37-3.71-.62-7.88-.73-12.5s-.13-9.07-.03-13.36.28-7.15.56-8.6c.18-.92,1.16-1.73,2.94-2.43s3.95-1.19,6.49-1.45c2.54-.26,5.24-.26,8.1.01,2.86.27,5.46.92,7.81,1.93,3.42,1.52,5.7,4.02,6.86,7.5,1.15,3.48.75,6.74-1.2,9.79l.09.06c2.58,1.56,4.28,3.59,5.11,6.09.83,2.5.91,5.14.25,7.91-.72,3.05-2.27,5.67-4.63,7.87-2.36,2.2-5.21,3.45-8.55,3.76Zm-9.26-34.04c-.23.82-.27,1.92-.1,3.3.17,1.38.53,2.15,1.1,2.33,1.07.35,2.18.15,3.33-.62s1.71-1.72,1.71-2.87c0-.76-.33-1.46-.98-2.08-.65-.62-1.66-.95-3-.97-1.21,0-1.89.3-2.05.91Zm.62,22.24c.47,1.05,1.88,1.25,4.25.6,2.36-.65,3.37-1.98,3.02-3.97-.25-1.45-1.15-2.56-2.7-3.35-1.54-.79-2.96-.89-4.25-.31-.66.31-1,1.31-1.01,3-.01,1.69.22,3.03.69,4.03Z"/><path class="cls-6" d="m224.33,127.51c-.37-.39-.57-.87-.59-1.44-.04-1.89.29-4.75,1-8.55s1.58-7.77,2.64-11.88,2.17-7.96,3.35-11.56c1.18-3.59,2.21-6.12,3.09-7.59.35-.57,1.38-1.08,3.09-1.54,1.71-.46,3.6-.78,5.67-.95,2.07-.18,4.06-.17,5.98.01,1.91.19,3.25.63,4.01,1.33,1.09,1.05,2.39,3.37,3.88,6.94s2.95,7.47,4.38,11.67c1.43,4.21,2.71,8.25,3.84,12.11,1.13,3.87,1.88,6.6,2.26,8.2.25,1.17.18,1.99-.23,2.45s-1.12.78-2.14.95c-1.72.29-3.85.51-6.4.66s-4.15.18-4.79.1c-.25-.04-.49-.13-.7-.26-.7-.43-1.38-1.67-2.04-3.71-.65-2.04-1.29-3.44-1.92-4.2-.37-.45-.86-.71-1.46-.79l-4.8-.03c-1.5.04-2.48.54-2.93,1.49-.59,1.23-1.25,2.6-1.99,4.1-.74,1.5-1.29,2.43-1.64,2.78-.18.21-.44.36-.79.44-.8.18-2.69.22-5.67.13-2.98-.09-4.67-.39-5.08-.89Zm18.98-25.84c-.64.68-1.28,1.83-1.92,3.44-.63,1.61-.86,2.67-.69,3.18.29.86,1.56,1.25,3.79,1.16,2.24-.09,3.45-.63,3.65-1.63.12-.61-.47-1.99-1.76-4.15s-2.31-2.83-3.08-2.01Z"/><path class="cls-6" d="m298.42,98.92c-.86.04-1.71.09-2.56.15s-1.68.16-2.48.29c-2.05.41-3.91,1.38-5.58,2.92s-2.28,3.43-1.83,5.7c.21,1.04.7,1.85,1.46,2.43,1.21.96,2.82,1.41,4.83,1.36,2.01-.05,3.75-.24,5.21-.57.82-.27,1.62-.23,2.4.12.72.35,1.38.96,1.96,1.82.92,1.41,1.55,3.28,1.89,5.62.34,2.34.21,4.28-.4,5.8-.49,1.25-1.23,1.99-2.23,2.23-3.2,1.17-6.73,1.74-10.58,1.71-3.85-.03-7.29-.74-10.34-2.12-4.12-1.86-7.28-4.59-9.46-8.2-2.19-3.61-3.06-7.73-2.61-12.36.76-7.32,3.66-13.05,8.7-17.17s11.31-5.78,18.81-4.98c1.25.14,2.35.79,3.31,1.96.94,1.17,1.71,3.21,2.33,6.12s.25,5.04-1.1,6.39c-.51.51-1.09.77-1.76.79Z"/><path class="cls-6" d="m345.91,94.61c.06.76-.9,2.31-2.87,4.66s-4.27,4.86-6.88,7.56c4.16,2.15,7.48,4.07,9.96,5.77.62.45.78,1.56.45,3.34s-.89,3.62-1.71,5.54-1.78,3.59-2.89,5.04-2.11,2.08-3.03,1.9c-1-.21-2.75-.93-5.27-2.14s-5.2-2.56-8.03-4.04c-.35,2.64-.72,4.21-1.11,4.72-.45.78-2.5,1.27-6.14,1.46s-6.21-.03-7.69-.67c-.66-.29-1.25-2.31-1.74-6.05s-.89-7.94-1.17-12.61-.45-9.16-.51-13.48,0-7.21.21-8.67c.16-.92,1.22-1.64,3.18-2.15s4.1-.83,6.4-.92,4.42,0,6.34.32,2.93.84,3.03,1.58c.08.82.15,1.67.22,2.56s.12,1.88.16,2.97c2.29-1.91,4.37-3.46,6.25-4.63s3.12-1.64,3.71-1.41c1.52.7,3.44,2.25,5.76,4.63s3.44,3.96,3.38,4.72Z"/><path class="cls-1" d="m94.8,94.33c-1.78-.1-3.35.09-4.72.56-1.89.68-3.27,1.78-4.13,3.28-.86,1.5-1.19,3.03-1,4.58.2,1.55.92,2.94,2.17,4.16,1.25,1.22,3.05,1.89,5.39,2.01,1.7.02,2.65-.52,2.84-1.63.2-1.1.37-2.21.53-3.33-.08-.74.64-1.38,2.17-1.9s3.23-.88,5.11-1.05c1.88-.18,3.64-.14,5.27.1,1.63.24,2.5.76,2.62,1.54.2,1.46.35,3.33.45,5.58.11,2.26.15,4.48.13,6.67-.02,2.19-.11,4.12-.28,5.8-.17,1.68-.42,2.67-.75,2.96-.31.41-1.88.65-4.7.73-2.82.08-4.83-.06-6.02-.41-.18-.02-.35-.18-.53-.47-3.52.84-6.97,1.14-10.37.91-6.02-.47-11.05-2.82-15.12-7.06-4.06-4.24-5.75-9.47-5.07-15.7.76-6.8,3.24-12.1,7.43-15.91s9.48-5.88,15.86-6.21c4.22-.2,8.05.66,11.5,2.58,3.45,1.91,5.21,5.37,5.29,10.37.08.76-.4,1.4-1.44,1.92-1.04.52-2.26.93-3.68,1.23-1.42.3-2.82.5-4.2.6-1.39.1-2.38.1-2.99,0-.84-.12-1.25-.45-1.22-1s-.16-.85-.57-.91Z"/><path class="cls-1" d="m159.81,105.26c-1.02,6.15-4,11.11-8.95,14.88s-10.71,5.11-17.27,4.01-11.31-4.07-14.94-9.05-4.96-10.5-3.98-16.55c.92-5.62,3.64-10.35,8.16-14.17,4.52-3.82,9.78-5.46,15.78-4.94,7.23.62,12.85,3.37,16.86,8.23s5.46,10.72,4.35,17.58Zm-16.82-2.49c.27-1.68-.04-3.11-.95-4.29s-2.23-1.92-3.97-2.21c-1.64-.27-3.09.08-4.34,1.07s-1.99,2.23-2.23,3.74c-.31,1.82.2,3.42,1.52,4.82s2.97,1.98,4.92,1.74c1.35-.14,2.47-.66,3.37-1.58s1.46-2.01,1.67-3.28Z"/><path class="cls-1" d="m210.46,124.25c-.7.08-2.08.14-4.12.19-2.04.05-4.23.07-6.56.06-2.33,0-4.54-.08-6.61-.21-2.07-.13-3.47-.35-4.19-.66-.68-.27-1.21-2.27-1.58-5.98-.37-3.71-.62-7.88-.73-12.5s-.13-9.07-.03-13.36.28-7.15.56-8.6c.18-.92,1.16-1.73,2.94-2.43s3.95-1.19,6.49-1.45c2.54-.26,5.24-.26,8.1.01,2.86.27,5.46.92,7.81,1.93,3.42,1.52,5.7,4.02,6.86,7.5,1.15,3.48.75,6.74-1.2,9.79l.09.06c2.58,1.56,4.28,3.59,5.11,6.09.83,2.5.91,5.14.25,7.91-.72,3.05-2.27,5.67-4.63,7.87-2.36,2.2-5.21,3.45-8.55,3.76Zm-9.26-34.04c-.23.82-.27,1.92-.1,3.3.17,1.38.53,2.15,1.1,2.33,1.07.35,2.18.15,3.33-.62s1.71-1.72,1.71-2.87c0-.76-.33-1.46-.98-2.08-.65-.62-1.66-.95-3-.97-1.21,0-1.89.3-2.05.91Zm.62,22.24c.47,1.05,1.88,1.25,4.25.6,2.36-.65,3.37-1.98,3.02-3.97-.25-1.45-1.15-2.56-2.7-3.35-1.54-.79-2.96-.89-4.25-.31-.66.31-1,1.31-1.01,3-.01,1.69.22,3.03.69,4.03Z"/><path class="cls-1" d="m228.33,123.51c-.37-.39-.57-.87-.59-1.44-.04-1.89.29-4.75,1-8.55s1.58-7.77,2.64-11.88,2.17-7.96,3.35-11.56c1.18-3.59,2.21-6.12,3.09-7.59.35-.57,1.38-1.08,3.09-1.54,1.71-.46,3.6-.78,5.67-.95,2.07-.18,4.06-.17,5.98.01,1.91.19,3.25.63,4.01,1.33,1.09,1.05,2.39,3.37,3.88,6.94s2.95,7.47,4.38,11.67c1.43,4.21,2.71,8.25,3.84,12.11,1.13,3.87,1.88,6.6,2.26,8.2.25,1.17.18,1.99-.23,2.45s-1.12.78-2.14.95c-1.72.29-3.85.51-6.4.66s-4.15.18-4.79.1c-.25-.04-.49-.13-.7-.26-.7-.43-1.38-1.67-2.04-3.71-.65-2.04-1.29-3.44-1.92-4.2-.37-.45-.86-.71-1.46-.79l-4.8-.03c-1.5.04-2.48.54-2.93,1.49-.59,1.23-1.25,2.6-1.99,4.1-.74,1.5-1.29,2.43-1.64,2.78-.18.21-.44.36-.79.44-.8.18-2.69.22-5.67.13-2.98-.09-4.67-.39-5.08-.89Zm18.98-25.84c-.64.68-1.28,1.83-1.92,3.44-.63,1.61-.86,2.67-.69,3.18.29.86,1.56,1.25,3.79,1.16,2.24-.09,3.45-.63,3.65-1.63.12-.61-.47-1.99-1.76-4.15s-2.31-2.83-3.08-2.01Z"/><path class="cls-1" d="m302.42,94.92c-.86.04-1.71.09-2.56.15s-1.68.16-2.48.29c-2.05.41-3.91,1.38-5.58,2.92s-2.28,3.43-1.83,5.7c.21,1.04.7,1.85,1.46,2.43,1.21.96,2.82,1.41,4.83,1.36,2.01-.05,3.75-.24,5.21-.57.82-.27,1.62-.23,2.4.12.72.35,1.38.96,1.96,1.82.92,1.41,1.55,3.28,1.89,5.62.34,2.34.21,4.28-.4,5.8-.49,1.25-1.23,1.99-2.23,2.23-3.2,1.17-6.73,1.74-10.58,1.71-3.85-.03-7.29-.74-10.34-2.12-4.12-1.86-7.28-4.59-9.46-8.2-2.19-3.61-3.06-7.73-2.61-12.36.76-7.32,3.66-13.05,8.7-17.17s11.31-5.78,18.81-4.98c1.25.14,2.35.79,3.31,1.96.94,1.17,1.71,3.21,2.33,6.12s.25,5.04-1.1,6.39c-.51.51-1.09.77-1.76.79Z"/><path class="cls-1" d="m349.91,90.61c.06.76-.9,2.31-2.87,4.66s-4.27,4.86-6.88,7.56c4.16,2.15,7.48,4.07,9.96,5.77.62.45.78,1.56.45,3.34s-.89,3.62-1.71,5.54-1.78,3.59-2.89,5.04-2.11,2.08-3.03,1.9c-1-.21-2.75-.93-5.27-2.14s-5.2-2.56-8.03-4.04c-.35,2.64-.72,4.21-1.11,4.72-.45.78-2.5,1.27-6.14,1.46s-6.21-.03-7.69-.67c-.66-.29-1.25-2.31-1.74-6.05s-.89-7.94-1.17-12.61-.45-9.16-.51-13.48,0-7.21.21-8.67c.16-.92,1.22-1.64,3.18-2.15s4.1-.83,6.4-.92,4.42,0,6.34.32,2.93.84,3.03,1.58c.08.82.15,1.67.22,2.56s.12,1.88.16,2.97c2.29-1.91,4.37-3.46,6.25-4.63s3.12-1.64,3.71-1.41c1.52.7,3.44,2.25,5.76,4.63s3.44,3.96,3.38,4.72Z"/></svg>