<?xml version="1.0" encoding="UTF-8"?><svg xmlns="http://www.w3.org/2000/svg" width="260" height="320" viewBox="0 0 260 320"><defs><style>.cls-1{fill:#b7b7b7;}.cls-2{fill:#8c8c8c;}.cls-3{opacity:.8;}.cls-3,.cls-4{fill:#efefef;}.cls-5{fill:#afafaf;}.cls-6{fill:#636363;}.cls-7{fill:#474747;}.cls-8{fill:#515151;}.cls-9{fill:#686868;}</style></defs><g id="bad_rock_1"><polygon class="cls-1" points="224.05 51.86 208.92 60 208 60.5 160.29 60.5 99.11 55.67 97 55.5 55 46.5 42.99 39.55 43 39.5 97 6.5 197.5 19.17 224 51.5 224.05 51.86"/><path class="cls-9" d="m99.11,55.67l-36.3,115.25c-1.8-.27-2.81-.42-2.81-.42L2.6,143.94l30.4-58.44,9.99-45.95,12.01,6.95,42,9,2.11.17Z"/><path class="cls-8" d="m69.74,262.57l-49.12-17.04h-.01l-.61-1.03L2.31,144.5l.29-.56,57.4,26.56s1.01.15,2.81.42l-.81,2.58,7.74,89.07Z"/><polygon class="cls-5" points="257 216.02 257 242.5 250 273.5 224 307.5 218.55 308.06 235 274.98 247 221.26 241.06 169.87 220 124.5 214 82.5 208.92 60 224.05 51.86 234 124.5 253.45 168.26 254 169.5 257 216.02"/><polygon class="cls-7" points="235 274.98 218.55 308.06 166 313.5 159.81 312.84 80.39 304.33 54 301.5 20.62 245.53 69.74 262.57 107 275.5 149.97 278.48 179 280.5 235 274.98"/><path class="cls-6" d="m247,221.26l-12,53.72-56,5.52-29.03-2.02-42.97-2.98-37.26-12.93-7.74-89.07.81-2.58c14.2,2.13,77.41,11.58,79.19,11.58,1.41,0,62.86-7.94,99.06-12.63l5.94,51.39Z"/><path class="cls-2" d="m241.06,169.87c-36.2,4.69-97.65,12.63-99.06,12.63-1.78,0-64.99-9.45-79.19-11.58l36.3-115.25,61.18,4.83h47.71l.92-.5,5.08,22.5,6,42,21.06,45.37Z"/><polyline class="cls-4" points="74.02 50.57 99.11 55.67 112.47 56.72 98.89 56.38 97.86 59.64 98.5 56"/><polygon class="cls-3" points="42.98 162.63 59.87 170.92 62 173.5 62.81 172.28 66.5 171.47 63.06 170.12 60.5 170 42.98 162.63"/><polyline class="cls-4" points="50.18 255.79 69.74 263.64 79.63 266 69.74 262.36"/></g><g id="rocksample"><g id="bad_rock_1_copy_2"><polygon class="cls-1" points="224.05 51.86 208.92 60 208 60.5 160.29 60.5 99.11 55.67 97 55.5 55 46.5 42.99 39.55 43 39.5 97 6.5 197.5 19.17 224 51.5 224.05 51.86"/><path class="cls-9" d="m99.11,55.67l-36.3,115.25c-1.8-.27-2.81-.42-2.81-.42L2.6,143.94l30.4-58.44,9.99-45.95,12.01,6.95,42,9,2.11.17Z"/><path class="cls-8" d="m69.74,262.57l-49.12-17.04h-.01l-.61-1.03L2.31,144.5l.29-.56,57.4,26.56s1.01.15,2.81.42l-.81,2.58,7.74,89.07Z"/><polygon class="cls-5" points="257 216.02 257 242.5 250 273.5 224 307.5 218.55 308.06 235 274.98 247 221.26 241.06 169.87 220 124.5 214 82.5 208.92 60 224.05 51.86 234 124.5 253.45 168.26 254 169.5 257 216.02"/><polygon class="cls-7" points="235 274.98 218.55 308.06 166 313.5 159.81 312.84 80.39 304.33 54 301.5 20.62 245.53 69.74 262.57 107 275.5 149.97 278.48 179 280.5 235 274.98"/><path class="cls-6" d="m247,221.26l-12,53.72-56,5.52-29.03-2.02-42.97-2.98-37.26-12.93-7.74-89.07.81-2.58c14.2,2.13,77.41,11.58,79.19,11.58,1.41,0,62.86-7.94,99.06-12.63l5.94,51.39Z"/><path class="cls-2" d="m241.06,169.87c-36.2,4.69-97.65,12.63-99.06,12.63-1.78,0-64.99-9.45-79.19-11.58l36.3-115.25,61.18,4.83h47.71l.92-.5,5.08,22.5,6,42,21.06,45.37Z"/><polyline class="cls-4" points="74.02 50.57 99.11 55.67 112.47 56.72 98.89 56.38 97.86 59.64 98.5 56"/><polygon class="cls-3" points="42.98 162.63 59.87 170.92 62 173.5 62.81 172.28 66.5 171.47 63.06 170.12 60.5 170 42.98 162.63"/><polyline class="cls-4" points="50.18 255.79 69.74 263.64 79.63 266 69.74 262.36"/></g></g></svg>