<?xml version="1.0" encoding="UTF-8"?><svg id="bad_1" xmlns="http://www.w3.org/2000/svg" width="220" height="110" viewBox="0 0 220 110"><defs><style>.cls-1,.cls-2{opacity:.2;}.cls-3{opacity:.15;}.cls-4{fill:#314142;}.cls-2{fill:#fff;}</style></defs><path class="cls-4" d="m184.5,97.5c-61.87-2.68-104.92,12.43-156-4-6.09-1.96-16.65-5.77-19-14-1.83-6.41,2.32-12.02,9-24,13.79-24.73,9.96-26.05,16-33C50.92,3.63,83.46,6.83,100.5,8.5c14.24,1.4,28.49,6.93,57,18,37.76,14.66,45.36,22.05,50,30,5.64,9.66,9.86,25.23,3,34-6.29,8.04-19.46,7.28-26,7Z"/><path class="cls-1" d="m193.5,89.5c-61.87-2.68-104.92,12.43-156-4-6.09-1.96-16.65-5.77-19-14-1.83-6.41,2.32-12.02,9-24,13.01-23.34,10.34-25.83,15.07-31.88-2.96,1.88-5.69,4.14-8.07,6.88-6.04,6.95-2.21,8.27-16,33-6.68,11.98-10.83,17.59-9,24,2.35,8.23,12.91,12.04,19,14,51.08,16.43,94.13,1.32,156,4,6.54.28,19.71,1.04,26-7,.69-.89,1.27-1.84,1.74-2.86-6.42,2.47-14.19,2.05-18.74,1.86Z"/><path class="cls-4" d="m43.5,99.5c-.88.33-4.24,1.47-8,0-2.62-1.02-6.38-3.68-6-6,.6-3.62,11.44-7.42,17-3,3.39,2.69,4.82,8.44,3,10-1.42,1.21-4.61-.28-6-1Z"/><path class="cls-3" d="m44.5,96.5c-.88.33-4.24,1.47-8,0-2.19-.85-5.16-2.85-5.87-4.83-.62.59-1.03,1.21-1.13,1.83-.38,2.32,3.38,4.98,6,6,3.76,1.47,7.12.33,8,0,1.39.72,4.58,2.21,6,1,.63-.54.87-1.59.77-2.84-1.51.9-4.45-.47-5.77-1.16Z"/><path class="cls-4" d="m184.5,102.5c-17.97-.91-26.97-1.43-28-5-1.15-4.01,6.59-9.63,11-12,7.21-3.87,19.11-6.35,28,0,5.32,3.8,10.12,11.17,8,15-.94,1.71-3.3,2.79-19,2Z"/><path class="cls-1" d="m185.5,98.5c-17.81-.9-26.8-1.43-27.96-4.91-.92,1.36-1.39,2.71-1.04,3.91,1.03,3.57,10.03,4.09,28,5,15.7.79,18.06-.29,19-2,.51-.91.61-2.03.41-3.25-1.41,1.25-5.16,1.92-18.41,1.25Z"/><path class="cls-2" d="m196.5,82.5c-8.89-6.35-20.79-3.87-28,0-4.41,2.37-12.15,7.99-11,12,0,.03.03.06.04.09,2.16-3.18,6.87-6.43,9.96-8.09,7.21-3.87,19.11-6.35,28,0,4.05,2.89,7.79,7.85,8.41,11.75.26-.23.44-.48.59-.75,2.12-3.83-2.68-11.2-8-15Z"/></svg>