<?xml version="1.0" encoding="UTF-8"?><svg id="bad_log_1" xmlns="http://www.w3.org/2000/svg" width="260" height="320" viewBox="0 0 260 320"><defs><style>.cls-1{fill:#329b2d;}.cls-2{fill:#af6731;}.cls-3{fill:#7f4c21;}.cls-4{fill:#35bc2e;}.cls-5{fill:#8c5829;}.cls-6{fill:#fff;opacity:.2;}.cls-7{fill:#915223;}.cls-8{fill:#a56637;}.cls-9{fill:#9e5e2a;}.cls-10{fill:#39a833;}</style></defs><path class="cls-9" d="m93.06,285.23c-.44-2.6-.97-5.22-1.59-7.84-2.22,3.87-4.13,7.81-5.95,11.74,2.73-1.12,5.26-2.48,7.54-3.9Z"/><path class="cls-9" d="m19.61,209.67c-1.96,1.87-4.63,4.95-6.11,9.33-4.13,12.26,4.29,25.37,10,34,10.87,16.44,26.74,40.42,50,39,4.29-.26,8.33-1.36,12.02-2.88,1.82-3.92,3.74-7.87,5.95-11.74-8.35-35.6-32.72-71.59-71.86-67.72Z"/><path class="cls-9" d="m91.47,277.39c.61,2.62,1.15,5.24,1.59,7.84,1.5-.94,2.91-1.9,4.18-2.85.11-4.24-.15-8.44-.75-12.56-.33.4-.66.79-.99,1.19-1.46,2.09-2.79,4.23-4.03,6.39Z"/><path class="cls-9" d="m22.23,207.36c-.25.22-.49.44-.73.64-.43.36-1.1.92-1.89,1.67,39.14-3.87,63.51,32.11,71.86,67.72,1.24-2.16,2.56-4.3,4.03-6.39.33-.4.66-.79.99-1.19-5.25-36.17-36.73-65.97-74.25-62.45Z"/><path class="cls-5" d="m207.5,98c-11.67-29.62-37.83-47.95-66.21-60.08-.26.03-.54.04-.79.08-20.54,3.25-19.39,26.42-58,85-32.52,49.34-49.12,74.53-60.27,84.36,37.52-3.51,69,26.29,74.26,62.45,4.67-5.6,9.28-11.21,13.01-16.81,30.46-45.69,57.31-94.07,104.66-118.46-.64-12.18-2.36-24.36-6.66-36.54Z"/><path class="cls-3" d="m109.5,253c-3.74,5.6-8.35,11.21-13.01,16.81.6,4.12.86,8.32.75,12.56,4.71-3.51,7.72-6.77,8.26-7.37,3.36-3.73,5.07-6.79,7-10,7.53-12.54,31.79-46.05,47-65,29.64-36.93,45.29-51.33,52.86-62.46.67-.98,1.26-1.93,1.81-2.88,0-.04,0-.08,0-.13-47.35,24.39-74.2,72.78-104.66,118.46Z"/><path class="cls-9" d="m218.5,117c-.03-32.57-6.63-35.9-10-39-.84-.77-2.09-1.89-3.63-3.22-12.75-11.03-47.03-38.45-63.58-36.86,28.37,12.12,54.54,30.46,66.21,60.08,4.3,12.18,6.02,24.36,6.66,36.54.03-.02.07-.04.1-.05,3.07-5.38,4.24-10.39,4.24-17.48Z"/><path class="cls-9" d="m214.26,134.48s-.07.04-.1.05c0,.04,0,.08,0,.13.03-.06.06-.12.1-.18Z"/><path class="cls-8" d="m17.13,234.16c4.7-4.78,11.35-6.97,17.96-7.04,7.43-.08,14.62,2.53,21.1,6,5.94,3.18,12.55,7.02,16.29,12.81,2.04,3.15,2.72,6.72,3.26,10.39s1,7.19,1.13,10.81-.09,7.24-1.13,10.71c-.49,1.64-1.16,3.25-2.07,4.71-1.05,1.69-2.84,1.95-4.7,2.12-7.05.62-13.93-2.55-19.01-7.28s-9.06-11.24-11.83-17.73c-1.47-3.45-1.69-6.96.29-10.26,1.86-3.11,5.1-5.09,8.52-6.08s7.25-1.3,9.99,1.21c2.59,2.38,3.51,5.92,3.72,9.31.12,1.91.06,3.83-.01,5.74-.06,1.64-.31,3.13-1.78,4.06-1.18.75-2.66,1.04-4.03,1.21-.68.08-1.38.15-2.06.16-.98.01-1.28-.65-1.67-1.48-.78-1.68-.99-3.5-.81-5.33.18-1.92-2.82-1.91-3,0-.31,3.34.72,9.47,4.93,9.8,1.68.13,3.58-.18,5.21-.59s3.2-1.09,4.34-2.29c1.45-1.53,1.79-3.5,1.86-5.54.09-2.29.15-4.6-.08-6.88-.39-3.84-1.67-7.77-4.64-10.41-3.24-2.88-7.5-3.1-11.57-2.18s-7.83,2.92-10.38,6.15-3.68,7.49-2.62,11.6,3.33,7.97,5.47,11.51c4.25,7.01,10,13.24,17.71,16.39,3.71,1.52,7.83,2.28,11.84,1.85,2-.21,4.2-.52,5.7-2,1.41-1.39,2.27-3.43,2.97-5.25,3.08-7.96,1.76-16.89.56-25.08-.62-4.25-1.62-8.31-4.18-11.83-2.32-3.19-5.34-5.74-8.57-7.98-13.05-9.04-31.51-16.4-46.38-7.03-1.62,1.02-3.12,2.23-4.46,3.6s.76,3.5,2.12,2.12h0Z"/><path class="cls-9" d="m121.5,126c-4.35,3.48-10.21,6.22-11.64,11.5-6.7-10.28-12.21-28.69-22.98-31.88-1.75-1.08-3.55-1.68-5.38-1.62-7.16.24-12.73,10.36-17,8-1.33-.73-2.28-2.54-2-4,.75-3.91,9.88-3.11,11-7,.99-3.44-5.66-5.78-6-12-.19-3.46,1.63-7.37,4.15-8.66,17.56,11.49,26.78,33.93,49.85,40.66.26,0,.67.15,1.11.4.15,1.54-.09,3.07-1.11,4.6Z"/><path class="cls-2" d="m124.5,123s-.01.05-.02.08c-.37,4.16-9.55,5.44-11.98,13.92-.46,1.6-.46,2.69-.58,3.33-.7-.85-1.39-1.8-2.06-2.83,1.43-5.28,7.29-8.02,11.64-11.5,1.02-1.53,1.26-3.06,1.11-4.6-.44-.25-.85-.4-1.11-.4-23.07-6.73-32.29-29.17-49.85-40.66.28-.15.56-.27.85-.34,3.15-.81,6.18,2.76,12,9,10.81,11.59,16.21,17.39,21,21,7.39,5.57,13.69,7.7,16.84,9.8,1.45.97,2.24,1.92,2.16,3.2Z"/><path class="cls-7" d="m111.92,140.33c-.07.36-.17.58-.42.67-.52.19-1.18-.36-1.97-1.43-4.36-5.89-12.68-27.8-22.65-33.95,10.77,3.19,16.28,21.6,22.98,31.88.67,1.03,1.36,1.98,2.06,2.83Z"/><g id="leaf_1"><path class="cls-4" d="m64.28,105.44c-.9-.57-.54-.24-.9-.57,0,0-.9-.57-2.77-1.15-2.97-.91-6.47-.23-8.44.43-5.09,1.69-8.63,4.85-10.93,7.92,6.29-6.46,17.09-10.53,24.08-4.93-.14-.49-.53-1.38-1.03-1.71Z"/><path class="cls-4" d="m41.25,122.67c.23-4.23.55-7.78,3.39-10.98-2.93,2.51-7.99,7.42-3.39,10.98Z"/><path class="cls-10" d="m66.37,108.18c0-.06-1.03-.93-1.05-1.03-6.99-5.6-17.78-1.53-24.08,4.93-1.89,2.53-2.94,5.01-3.29,6.57,0,0-.56,2.45.42,5.08.2.55.52,1.17,1.21,1.57.23.13.87.44,2.01.33,1.97-.18,3.81-.6,5.4-1.09,5.06-4.66,11.62-8.84,18.14-11.16.58-.86.37-1.75.72-2.55.48-1.07.71-1.27.51-2.65Zm-25.12,14.5c-4.6-3.56.45-8.47,3.39-10.98-2.83,3.2-3.16,6.75-3.39,10.98Zm18.39-15.18c1.61-.23,1.8,1.15,1.09,1.95-6.15,2.96-11.3,7.19-17.65,8.78.65-7.09,10.02-10.51,16.55-10.72Zm-14.17,15.99c1.64-5.83,10.82-10.62,17.97-12.32-5.06,4.91-14.01,5.46-17.97,12.32Z"/><path class="cls-4" d="m45.47,123.48c3.96-6.86,12.91-7.41,17.97-12.32-7.15,1.7-16.33,6.49-17.97,12.32Z"/><path class="cls-4" d="m59.64,107.49c-6.54.22-15.91,3.63-16.55,10.72,6.34-1.59,11.5-5.81,17.65-8.78.71-.8.52-2.17-1.09-1.95Z"/><path class="cls-1" d="m46.99,124.53c3.51-1.08,5.84-2.52,5.84-2.52,2.73-1.68,9.94-5.17,12.29-8.64-6.52,2.32-13.08,6.51-18.14,11.16Z"/><path class="cls-6" d="m56,110.8c-2.27,1.75-3.9,1.48-6.96,3.08-1.99,1.04-2.85,1.97-3.03,1.82-.26-.21,1.23-2.37,3.54-4,3.22-2.26,7.5-3.1,7.86-2.5.21.35-.87,1.18-1.42,1.6Z"/><path class="cls-4" d="m70.15,104c-.14-.51-.12-.27-.14-.51,0,0-.14-.51-.63-1.35-.79-1.34-2.3-2.27-3.25-2.7-2.44-1.11-4.8-1.16-6.68-.82,4.48-.22,9.82,1.95,10.5,6.35.11-.23.27-.68.19-.97Z"/><path class="cls-4" d="m55.9,102.47c1.51-1.46,2.82-2.64,4.93-2.84-1.92-.08-5.43,0-4.93,2.84Z"/><path class="cls-10" d="m70,105.7s-.06-.69-.04-.73c-.68-4.4-6.02-6.57-10.5-6.35-1.55.28-2.76.83-3.42,1.27,0,0-1.03.7-1.55,1.99-.11.27-.21.6-.08.98.04.13.17.45.63.8.79.6,1.6,1.07,2.35,1.43,3.42.02,7.24.72,10.41,2.08.5-.11.72-.51,1.12-.68.54-.23.69-.22,1.08-.79Zm-14.1-3.23c-.49-2.85,3.01-2.92,4.93-2.84-2.12.2-3.43,1.38-4.93,2.84Zm11.86.7c.67.46.28,1.03-.25,1.08-3.26-1-6.57-1.21-9.43-2.78,2.62-2.36,7.21-.43,9.68,1.7Zm-10.58,1.02c2.57-1.56,7.55-.2,10.74,1.6-3.51.07-6.98-2.75-10.74-1.6Z"/><path class="cls-4" d="m57.18,104.19c3.76-1.15,7.23,1.67,10.74,1.6-3.2-1.8-8.18-3.16-10.74-1.6Z"/><path class="cls-4" d="m67.76,103.18c-2.47-2.13-7.06-4.06-9.68-1.7,2.86,1.57,6.18,1.78,9.43,2.78.53-.05.92-.62.25-1.08Z"/><path class="cls-1" d="m57.39,105.09c1.66.8,2.99,1.06,2.99,1.06,1.57.31,5.39,1.48,7.42,1.02-3.17-1.36-6.99-2.06-10.41-2.08Z"/><path class="cls-6" d="m65.31,103.15c-1.42-.13-1.93-.78-3.59-1.23-1.08-.3-1.71-.25-1.73-.36-.03-.16,1.25-.45,2.65-.25,1.94.27,3.8,1.41,3.73,1.75-.04.2-.72.13-1.06.1Z"/><path class="cls-4" d="m74.93,80.54c-.18-1.05-.19-.56-.18-1.05,0,0-.18-1.05-1.01-2.82-1.32-2.82-4.17-4.94-5.99-5.97-4.67-2.64-9.39-3.14-13.21-2.78,9.01.33,19.28,5.6,19.81,14.54.27-.43.67-1.32.57-1.91Z"/><path class="cls-4" d="m46.7,75.04c3.29-2.67,6.14-4.81,10.41-4.86-3.83-.49-10.86-.94-10.41,4.86Z"/><path class="cls-10" d="m74.3,83.92s0-1.39.05-1.47c-.54-8.94-10.8-14.21-19.81-14.54-3.15.3-5.69,1.19-7.08,1.97,0,0-2.19,1.23-3.48,3.72-.27.52-.52,1.17-.35,1.95.06.26.26.93,1.11,1.71,1.46,1.34,3,2.42,4.43,3.28,6.85.63,14.35,2.68,20.45,5.95,1.03-.14,1.54-.9,2.37-1.18,1.12-.37,1.42-.33,2.31-1.39Zm-27.61-8.88c-.45-5.8,6.58-5.35,10.41-4.86-4.27.05-7.12,2.19-10.41,4.86Zm23.6,3.44c1.25,1.04.36,2.11-.71,2.12-6.32-2.57-12.91-3.55-18.35-7.19,5.69-4.28,14.51.37,19.06,5.07Zm-21.37.23c5.43-2.7,15.14.89,21.2,5.05-7.03-.45-13.45-6.71-21.2-5.05Z"/><path class="cls-4" d="m48.93,78.71c7.74-1.67,14.16,4.6,21.2,5.05-6.06-4.16-15.77-7.74-21.2-5.05Z"/><path class="cls-4" d="m70.29,78.48c-4.55-4.7-13.37-9.35-19.06-5.07,5.44,3.63,12.03,4.62,18.35,7.19,1.07-.01,1.96-1.08.71-2.12Z"/><path class="cls-1" d="m49.17,80.55c3.16,1.88,5.79,2.64,5.79,2.64,3.08.89,10.5,3.9,14.66,3.31-6.1-3.27-13.6-5.32-20.45-5.95Z"/><path class="cls-6" d="m65.4,78c-2.82-.51-3.72-1.9-6.95-3.09-2.11-.78-3.37-.79-3.38-1.02-.02-.33,2.58-.68,5.34-.06,3.84.87,7.33,3.47,7.13,4.14-.12.38-1.46.14-2.14.02Z"/><path class="cls-4" d="m79.94,83.93c.29-.45.12-.27.29-.45,0,0,.29-.45.58-1.38.46-1.48.14-3.23-.18-4.22-.81-2.55-2.36-4.33-3.88-5.5,3.17,3.18,5.14,8.59,2.34,12.05.24-.07.69-.26.85-.51Z"/><path class="cls-4" d="m71.5,72.34c2.09.14,3.85.32,5.42,1.75-1.23-1.48-3.64-4.03-5.42-1.75Z"/><path class="cls-10" d="m78.58,84.96s.47-.51.51-.52c2.8-3.46.83-8.87-2.34-12.05-1.25-.96-2.47-1.49-3.24-1.68,0,0-1.21-.29-2.51.18-.27.1-.58.25-.78.6-.07.12-.22.43-.17,1,.08.99.28,1.91.52,2.7,2.28,2.55,4.33,5.85,5.45,9.11.42.3.86.19,1.26.37.53.24.63.36,1.31.27Zm-7.07-12.62c1.78-2.28,4.19.27,5.42,1.75-1.57-1.43-3.33-1.61-5.42-1.75Zm7.44,9.26c.11.8-.58.89-.97.54-1.44-3.09-3.51-5.68-4.27-8.86,3.51.36,5.16,5.06,5.24,8.32Zm-7.86-7.16c2.88.85,5.21,5.46,6.03,9.04-2.41-2.55-2.65-7.02-6.03-9.04Z"/><path class="cls-4" d="m71.09,74.44c3.38,2.01,3.62,6.49,6.03,9.04-.81-3.58-3.15-8.19-6.03-9.04Z"/><path class="cls-4" d="m78.94,81.6c-.08-3.26-1.73-7.96-5.24-8.32.76,3.18,2.83,5.77,4.27,8.86.39.36,1.07.27.97-.54Z"/><path class="cls-1" d="m70.56,75.2c.52,1.76,1.22,2.93,1.22,2.93.82,1.37,2.52,4.99,4.23,6.18-1.12-3.27-3.17-6.56-5.45-9.11Z"/><path class="cls-6" d="m77.32,79.77c-.86-1.14-.72-1.96-1.49-3.49-.51-1-.96-1.43-.89-1.52.1-.13,1.17.63,1.96,1.79,1.11,1.62,1.51,3.76,1.21,3.94-.17.1-.58-.44-.79-.72Z"/></g><g id="leaf_2"><path class="cls-4" d="m70.49,83.24c-.02-.28.01-.54-.14-.86,0,0-.1-.23-.38-.5-2.68-2.66-6.26-3.08-6.26-3.08-1.48-.17-2.91.04-4.23.47,4.23-.43,7.57,2.2,11.01,3.98Z"/><path class="cls-1" d="m53.5,83.26c-.99,1.14-1.55,2.22-1.48,2.85.07.61.26,1.37.26,1.37.19.78.47,1.54.64,1.87.59,1.16,2.25,1.61,3.76,1.85.7.11,1.4.16,2.08.19-3.3-1.52-5.91-4.97-5.26-8.13Z"/><path class="cls-10" d="m72.43,84.66c-.17-.14-.36-.26-.57-.29-.32-.05-.57.07-.87-.12-.22-.14-.31-.35-.38-.5-.09-.19-.11-.35-.12-.51-3.44-1.78-6.78-4.41-11.01-3.98-2.52.82-4.65,2.46-5.98,4-.66,3.16,1.95,6.61,5.26,8.13,3.39.14,6.51-.6,8.68-1.51,2.02-1.7,2.56-4.12,5-5.22Z"/><path class="cls-4" d="m70.51,87.74c.02-.11.13-.75.62-1.25.08-.08.24-.25.5-.38.69-.36,1.22-.02,1.37-.26.15-.22-.12-.83-.56-1.2-2.44,1.1-2.98,3.52-5,5.22,1.8-.75,2.96-1.6,3.07-2.13Z"/><path class="cls-4" d="m67.33,83.69c.14-.5-1.72-1.41-2.61-1.78-.47-.19-3.55-1.42-6.4-.16-.77.34-.8.54-.8.6,0,.76,3.85,1.25,4.81,1.37,1.43.18,4.82.62,5-.03Z"/><path class="cls-6" d="m66.54,84.3c-.22-.46-.59-1.06-1.21-1.59-3.01-2.58-8.63-.53-8.6.25.02.45,1.91.97,9.81,1.34Z"/><path class="cls-4" d="m67.11,106.31c-.15-.1-.26-.21-.48-.26,0,0-.15-.03-.39,0-2.33.33-3.88,1.94-3.88,1.94-.64.67-1.08,1.45-1.36,2.27,1.38-2.26,3.94-2.92,6.11-3.96Z"/><path class="cls-1" d="m60.73,114.73c.19.92.52,1.6.86,1.8.33.2.78.39.78.39.46.2.94.35,1.16.39.8.14,1.65-.51,2.33-1.16.32-.31.61-.63.88-.96-2,1.06-4.69,1.06-6-.45Z"/><path class="cls-10" d="m68.55,105.88c-.14.03-.26.08-.36.17-.15.14-.18.31-.39.39-.15.05-.29.02-.39,0-.13-.03-.22-.08-.3-.13-2.17,1.03-4.73,1.7-6.11,3.96-.54,1.55-.53,3.23-.27,4.47,1.32,1.51,4.01,1.52,6,.45,1.35-1.62,2.15-3.45,2.52-4.87-.08-1.64-1.08-2.82-.7-4.44Z"/><path class="cls-4" d="m69.35,107.99c-.04-.05-.32-.34-.39-.78-.01-.07-.03-.21,0-.39.09-.48.45-.61.39-.78-.05-.16-.45-.25-.8-.17-.37,1.62.62,2.8.7,4.44.3-1.17.32-2.07.1-2.32Z"/><path class="cls-4" d="m66.15,108.04c-.2-.26-1.35.32-1.87.62-.27.16-2.04,1.22-2.49,3.11-.12.51-.03.6,0,.62.38.28,2.07-1.44,2.49-1.87.63-.64,2.12-2.16,1.87-2.49Z"/><path class="cls-6" d="m66.15,108.66c-.31-.06-.75-.11-1.24,0-2.41.52-3.51,4.08-3.11,4.35.23.16,1.2-.58,4.35-4.35Z"/><path class="cls-1" d="m68.64,110.53c-.13-.11-1.09,1.16-3.11,2.49-1.74,1.15-3.19,1.62-3.11,1.87.06.17.8.09,1.24,0,.48-.09,1.6-.39,3.11-1.87,1.11-1.08,1.99-2.37,1.87-2.49Z"/><path class="cls-1" d="m66.57,89.3c.02-.27-2.54-.26-6.21-1.56-3.16-1.12-5.18-2.51-5.41-2.17-.17.24.67,1.11,1.21,1.59.59.52,2.06,1.67,5.41,2.17,2.46.37,4.98.24,5-.03Z"/></g></svg>