<?xml version="1.0" encoding="UTF-8"?><svg id="color_palette" xmlns="http://www.w3.org/2000/svg" width="316" height="1085" viewBox="0 0 316 1085"><defs><style>.cls-1{fill:#fff;}.cls-2{fill:#1c6266;}.cls-3{fill:#428a7c;}.cls-4{fill:#13161d;}.cls-5{fill:#3b9410;}.cls-6{fill:#d07b2a;}.cls-7{fill:#dee5a9;}.cls-8{fill:#92c0aa;}.cls-9{fill:#104825;}.cls-10{fill:#314142;}.cls-11{fill:#6d3c2e;}.cls-12{fill:#aeca04;}</style></defs><rect class="cls-4" x="-1.02" y="994" width="320" height="100"/><rect class="cls-10" x="-1.02" y="900" width="320" height="100"/><rect class="cls-9" x="-1.02" y="501" width="320" height="100"/><rect class="cls-12" x="-1.02" y="401" width="320" height="100"/><rect class="cls-5" x="-1.02" y="301" width="320" height="100"/><rect class="cls-3" x="-1.02" y="700" width="320" height="100"/><rect class="cls-8" x="-1.02" y="601" width="320" height="100"/><rect class="cls-2" x="-1.02" y="801" width="320" height="100"/><rect class="cls-6" x="-1.02" y="201" width="320" height="100"/><rect class="cls-11" x="-1.11" y="101" width="320.18" height="100"/><rect class="cls-7" x="-1.02" y="1" width="320" height="100"/><path d="m47.15,45.78c-.17.11-.51.15-1.04.1-.53-.04-1.19-.04-1.98,0-.01.71-.03,1.54-.04,2.49-.01.95-.03,1.78-.04,2.49.93.03,1.79.05,2.57.06.47.01.84.47,1.12,1.37.27.9.41,1.89.41,2.98s-.14,2.11-.43,3.06c-.29.95-.75,1.47-1.39,1.59-.29.04-.68.07-1.16.08-.48.01-1.03.03-1.64.04-.24,2.27-.5,3.48-.79,3.65-.83.46-2.18.64-4.03.53-1.85-.1-2.88-.43-3.09-.99-.19-.31-.35-1.37-.48-3.19-.7,0-1.49,0-2.38-.02-.89-.01-1.68-.03-2.38-.06-.14,1.88-.3,2.97-.48,3.27-.24.56-1.33.89-3.27.99-1.95.1-3.34-.07-4.17-.53-.33-.19-.63-1.58-.88-4.17-2.57.07-3.97-.09-4.19-.48-.47-.82-.66-2.24-.55-4.25.1-2.02.43-3.14.97-3.38.18-.1.56-.16,1.14-.18.58-.02,1.3-.06,2.18-.11-.03-.71-.05-1.55-.07-2.52-.02-.97-.03-1.81-.03-2.52-1.11-.01-2.06-.03-2.84-.06-.49-.01-.85-.47-1.08-1.36-.24-.89-.35-1.88-.33-2.97.01-1.09.18-2.11.49-3.04s.79-1.47,1.43-1.6c.63-.04,1.41-.08,2.36-.1.01-1.1.05-1.82.1-2.17.11-.64.65-1.12,1.63-1.43.97-.31,2.02-.48,3.13-.5,1.11-.02,2.13.09,3.05.34.92.25,1.38.61,1.4,1.08.01.4.02.83.03,1.27,0,.45.02.91.03,1.4.63.03,1.38.05,2.26.06.88.01,1.64.03,2.26.04.01-1.08.03-2.01.06-2.77,0-.47.45-.84,1.35-1.12.9-.27,1.89-.41,2.99-.41s2.12.15,3.08.44c.95.29,1.49.76,1.62,1.4.04.72.08,1.72.1,3,.99.11,1.79.17,2.41.18.62,0,.98.09,1.07.24.49.83.67,2.29.54,4.36s-.46,3.21-1,3.42Zm-11.93,5.03c0-.64,0-1.41-.01-2.3,0-.9-.01-1.68-.01-2.35-.6.01-1.44.02-2.52.02h-2.54c0,.67,0,1.45-.01,2.35,0,.9-.01,1.67-.01,2.3.6,0,1.44,0,2.53-.01,1.09,0,1.95-.01,2.58-.01Z"/><path d="m77.56,54.9c-1.54,3.63-3.98,6.11-7.3,7.46-3.32,1.34-6.82,1.98-10.49,1.93-1.25-.03-2.46-.11-3.62-.26-1.16-.15-2-.33-2.51-.55-.81-.33-1.45-1.99-1.94-4.97-.49-2.98-.78-6.25-.88-9.79-.1-3.55,0-6.85.29-9.91.29-3.06.83-4.83,1.63-5.32.79-.5,2-.87,3.63-1.1,2.6-.36,5.41-.33,8.44.1,3.02.43,5.59,1.48,7.69,3.15,2.75,2.22,4.63,5.18,5.64,8.85,1.01,3.68.82,7.15-.57,10.42Zm-15.77-9.34c-.24.76-.29,1.89-.16,3.37.13,1.48.44,2.35.93,2.62.22.14.67.19,1.33.17,1.08-.03,2-.27,2.75-.74.75-.47,1.17-1.16,1.25-2.08.1-1.13-.31-2.09-1.22-2.88-.91-.79-1.87-1.24-2.87-1.33-.4-.03-.81,0-1.22.09-.41.09-.68.35-.8.78Z"/><path d="m95.27,53.19c2.43-.03,4.63-.1,6.59-.21s3.11.02,3.46.4c.38.31.65,1.63.82,3.98.17,2.35.11,4.05-.2,5.11-.14.45-1.23.81-3.27,1.11s-4.34.49-6.88.59c-2.54.1-4.98.12-7.32.05s-3.86-.26-4.57-.56c-.42-.17-.76-1.29-1.03-3.37-.27-2.08-.48-4.51-.64-7.3-.15-2.79-.24-5.63-.27-8.53-.03-2.9,0-5.26.08-7.08,0-1,.08-1.92.25-2.74.17-.83.42-1.35.77-1.55.35-.21,1.57-.39,3.67-.54,2.1-.15,4.37-.25,6.8-.28,2.43-.03,4.69,0,6.76.12,2.07.12,3.26.33,3.57.64.38.31.59,1.51.64,3.62.05,2.11-.08,3.69-.39,4.77-.15.5-1.13.81-2.93.93-1.8.12-3.9.22-6.31.3,0,.17,0,.36.02.58.01.22.03.42.04.58,1.57.03,2.85.15,3.84.35.24.07.47.48.7,1.24.23.76.39,1.59.48,2.48.09.9.09,1.73-.01,2.49-.1.76-.34,1.17-.73,1.23-.28.08-.78.16-1.51.22s-1.54.11-2.43.14v1.23Z"/><path d="m121.79,53.19c2.43-.03,4.63-.1,6.59-.21s3.11.02,3.46.4c.38.31.65,1.63.82,3.98.17,2.35.11,4.05-.2,5.11-.14.45-1.23.81-3.27,1.11s-4.34.49-6.88.59c-2.54.1-4.98.12-7.32.05s-3.86-.26-4.57-.56c-.42-.17-.76-1.29-1.03-3.37-.27-2.08-.48-4.51-.64-7.3-.15-2.79-.24-5.63-.27-8.53-.03-2.9,0-5.26.08-7.08,0-1,.08-1.92.25-2.74.17-.83.42-1.35.77-1.55.35-.21,1.57-.39,3.67-.54,2.1-.15,4.37-.25,6.8-.28,2.43-.03,4.69,0,6.76.12,2.07.12,3.26.33,3.57.64.38.31.59,1.51.64,3.62.05,2.11-.08,3.69-.39,4.77-.15.5-1.13.81-2.93.93-1.8.12-3.9.22-6.31.3,0,.17,0,.36.02.58.01.22.03.42.04.58,1.57.03,2.85.15,3.84.35.24.07.47.48.7,1.24.23.76.39,1.59.48,2.48.09.9.09,1.73-.01,2.49-.1.76-.34,1.17-.73,1.23-.28.08-.78.16-1.51.22s-1.54.11-2.43.14v1.23Z"/><path d="m156.79,33.19c.36.24.51,1.44.45,3.62-.06,2.18-.23,3.72-.51,4.64-.08.25-.8.43-2.15.53-1.35.1-2.79.17-4.34.2,1.84.17,3.78,1.27,5.84,3.31,2.06,2.04,3.03,4.47,2.92,7.31.04,3.1-.99,5.68-3.1,7.73-2.11,2.05-4.56,3.26-7.35,3.64-3.02.39-5.86-.18-8.52-1.72-2.66-1.54-4.32-3.83-4.97-6.89-.25-1.21.32-2.17,1.71-2.88.95-.49,2.55-.79,4.83-.91,2.27-.12,3.53.39,3.76,1.53.01.1.05.19.1.29.15.4.43.67.83.81.65.26,1.18.2,1.59-.2.4-.4.59-.88.57-1.45-.02-.57-.3-1.11-.83-1.63-.54-.51-1.41-.77-2.62-.77-.83.04-1.78.03-2.84-.04-1.67-.08-2.76-.39-3.27-.93-.51-.54-.88-1.3-1.08-2.3-.47-2.22-.76-4.94-.87-8.13-.1-3.2.19-5.13.89-5.8.25-.25,1.32-.44,3.21-.58,1.89-.14,3.95-.21,6.17-.22,2.22,0,4.3.06,6.22.2,1.92.14,3.04.35,3.36.65Z"/><path d="m161.63,63.57c-.26-.28-.4-.62-.42-1.02-.03-1.35.21-3.38.71-6.09s1.13-5.53,1.88-8.46c.75-2.93,1.55-5.67,2.39-8.23.84-2.56,1.57-4.36,2.2-5.4.25-.4.98-.77,2.2-1.09,1.22-.33,2.56-.55,4.04-.68,1.47-.12,2.89-.12,4.25.01,1.36.13,2.32.45,2.86.95.78.75,1.7,2.4,2.76,4.94,1.06,2.54,2.1,5.32,3.12,8.31,1.01,3,1.93,5.87,2.73,8.62.81,2.75,1.34,4.7,1.61,5.84.18.83.13,1.42-.17,1.74s-.8.55-1.52.68c-1.22.21-2.74.37-4.56.47-1.81.1-2.95.13-3.41.07-.18-.03-.35-.09-.5-.19-.5-.31-.98-1.19-1.45-2.64-.47-1.45-.92-2.45-1.37-2.99-.26-.32-.61-.51-1.04-.56l-3.42-.02c-1.07.03-1.77.38-2.09,1.06-.42.88-.89,1.85-1.42,2.92-.53,1.07-.92,1.73-1.17,1.98-.13.15-.31.26-.56.31-.57.13-1.92.16-4.04.09-2.12-.06-3.33-.27-3.62-.64Zm13.52-18.4c-.46.49-.91,1.3-1.37,2.45-.45,1.15-.62,1.9-.49,2.26.21.61,1.11.89,2.7.82,1.59-.06,2.46-.45,2.6-1.16.08-.43-.33-1.41-1.25-2.95-.92-1.54-1.65-2.01-2.19-1.43Z"/><path d="m216.02,38.77c1.18,2.38,1.71,4.89,1.6,7.54-.12,2.65-.78,5.17-1.97,7.56-1.2,2.39-2.88,4.52-5.06,6.38-2.18,1.86-4.73,3.2-7.66,4-.92.08-1.78-.25-2.58-.99-.8-.74-1.45-1.6-1.94-2.58-.49-.97-.78-1.89-.86-2.75-.08-.86.15-1.37.68-1.52.36-.1,1.03-.29,1.99-.56.97-.28,1.58-.63,1.85-1.06-2.88-.42-5.22-1.79-7.02-4.12-1.8-2.33-2.55-4.97-2.26-7.92.32-3.09,1.65-5.55,4-7.39,2.35-1.84,4.95-2.81,7.8-2.91,2.38-.08,4.61.42,6.68,1.5,2.08,1.08,3.66,2.69,4.74,4.82Zm-10.57,7.13c.9-.25,1.27-.93,1.11-2.03-.17-1.11-.73-1.66-1.69-1.66s-1.47.56-1.54,1.67c-.04.61.14,1.15.53,1.62.4.47.93.6,1.6.41Z"/><path class="cls-1" d="m47.71,142.02c-.17.11-.51.15-1.04.1-.53-.04-1.19-.04-1.98,0-.01.71-.03,1.54-.04,2.49-.01.95-.03,1.78-.04,2.49.93.03,1.79.05,2.57.06.47.01.84.47,1.12,1.37.27.9.41,1.89.41,2.98s-.14,2.11-.43,3.06c-.29.95-.75,1.47-1.39,1.59-.29.04-.68.07-1.16.08-.48.01-1.03.03-1.64.04-.24,2.27-.5,3.48-.79,3.65-.83.46-2.18.64-4.03.53-1.85-.1-2.88-.43-3.09-.99-.19-.31-.35-1.37-.48-3.19-.7,0-1.49,0-2.38-.02-.89-.01-1.68-.03-2.38-.06-.14,1.88-.3,2.97-.48,3.27-.24.56-1.33.89-3.27.99-1.95.1-3.34-.07-4.17-.53-.33-.19-.63-1.58-.88-4.17-2.57.07-3.97-.09-4.19-.48-.47-.82-.66-2.24-.55-4.25.1-2.02.43-3.14.97-3.38.18-.1.56-.16,1.14-.18.58-.02,1.3-.06,2.18-.11-.03-.71-.05-1.55-.07-2.52-.02-.97-.03-1.81-.03-2.52-1.11-.01-2.06-.03-2.84-.06-.49-.01-.85-.47-1.08-1.36-.24-.89-.35-1.88-.33-2.97.01-1.09.18-2.11.49-3.04s.79-1.47,1.43-1.6c.63-.04,1.41-.08,2.36-.1.01-1.1.05-1.82.1-2.17.11-.64.65-1.12,1.63-1.43.97-.31,2.02-.48,3.13-.5,1.11-.02,2.13.09,3.05.34.92.25,1.38.61,1.4,1.08.01.4.02.83.03,1.27,0,.45.02.91.03,1.4.63.03,1.38.05,2.26.06.88.01,1.64.03,2.26.04.01-1.08.03-2.01.06-2.77,0-.47.45-.84,1.35-1.12.9-.27,1.89-.41,2.99-.41s2.12.15,3.08.44c.95.29,1.49.76,1.62,1.4.04.72.08,1.72.1,3,.99.11,1.79.17,2.41.18.62,0,.98.09,1.07.24.49.83.67,2.29.54,4.36s-.46,3.21-1,3.42Zm-11.93,5.03c0-.64,0-1.41-.01-2.3,0-.9-.01-1.68-.01-2.35-.6.01-1.44.02-2.52.02h-2.54c0,.67,0,1.45-.01,2.35,0,.9-.01,1.67-.01,2.3.6,0,1.44,0,2.53-.01,1.09,0,1.95-.01,2.58-.01Z"/><path class="cls-1" d="m52.22,152.68c-.68-1.97-.96-4.18-.84-6.61.12-2.43.77-4.8,1.95-7.1,1.18-2.3,2.95-4.39,5.31-6.28,2.36-1.88,5.43-3.28,9.23-4.18.88-.18,1.64.16,2.29,1.01.65.85,1.16,1.84,1.53,2.96.37,1.12.59,2.18.66,3.18.07,1-.04,1.55-.33,1.65-.6.21-1.22.41-1.86.62-.64.2-1.29.52-1.96.95,1.96.61,3.7,1.89,5.22,3.84,1.52,1.95,2.33,4.05,2.41,6.3.11,3.11-.86,5.7-2.91,7.75-2.05,2.05-4.47,3.26-7.27,3.64-1.65.21-3.3.13-4.94-.23-1.64-.36-3.13-1.04-4.46-2.02-1.96-1.45-3.3-3.27-4.03-5.46Zm10.7-5.51c-.88.35-1.15,1.06-.83,2.13.32,1.07.96,1.56,1.92,1.46.93-.08,1.36-.69,1.29-1.81-.06-.58-.31-1.09-.77-1.51-.46-.42-.99-.51-1.61-.26Z"/><path class="cls-1" d="m104.88,151.14c-1.54,3.63-3.98,6.11-7.3,7.46-3.32,1.34-6.82,1.98-10.49,1.93-1.25-.03-2.46-.11-3.62-.26-1.16-.15-2-.33-2.51-.55-.81-.33-1.45-1.99-1.94-4.97-.49-2.98-.78-6.25-.88-9.79-.1-3.55,0-6.85.29-9.91.29-3.06.83-4.83,1.63-5.32.79-.5,2-.87,3.63-1.1,2.6-.36,5.41-.33,8.44.1,3.02.43,5.59,1.48,7.69,3.15,2.75,2.22,4.63,5.18,5.64,8.85,1.01,3.68.82,7.15-.57,10.42Zm-15.77-9.34c-.24.76-.29,1.89-.16,3.37.13,1.48.44,2.35.93,2.62.22.14.67.19,1.33.17,1.08-.03,2-.27,2.75-.74.75-.47,1.17-1.16,1.25-2.08.1-1.13-.31-2.09-1.22-2.88-.91-.79-1.87-1.24-2.87-1.33-.4-.03-.81,0-1.22.09-.41.09-.68.35-.8.78Z"/><path class="cls-1" d="m129.68,141.73c3.77,2.5,5.08,5.98,3.94,10.43-.39,1.54-1.09,2.9-2.1,4.07-1.01,1.17-2.2,2.1-3.58,2.79-1.38.71-2.98,1.17-4.8,1.38-1.82.21-3.52.12-5.09-.25-4.1-1.04-7-3.57-8.7-7.57-.29-.71-.03-1.36.78-1.96.81-.6,1.79-1.1,2.93-1.49,1.14-.4,2.25-.66,3.34-.78s1.74-.08,1.98.15c.21.22.33.49.35.81.06,1.08.75,1.44,2.1,1.07,1.34-.37,1.9-.89,1.68-1.57-.25-.75-1.22-1.6-2.92-2.54-1.7-.95-2.57-2.11-2.61-3.5-.01-.32.07-.85.25-1.59.18-.74.71-1.57,1.59-2.5-2.64-.04-4.48-.12-5.51-.23-.67-.07-1.23-.5-1.68-1.3-.45-.8-.77-1.71-.96-2.72-.19-1.01-.23-2.01-.11-2.97.11-.97.4-1.67.86-2.1.36-.33,1.6-.58,3.7-.74,2.11-.16,4.39-.22,6.85-.19,2.46.03,4.75.16,6.87.38,2.12.22,3.38.52,3.79.93.88.92.82,2.77-.17,5.57-.99,2.79-1.92,4.94-2.79,6.44Z"/><path class="cls-1" d="m159.13,139.46c-.61.03-1.22.06-1.82.1-.6.04-1.19.11-1.76.21-1.46.29-2.78.98-3.97,2.08-1.19,1.09-1.62,2.44-1.3,4.06.15.74.5,1.31,1.04,1.73.86.68,2.01,1,3.44.97,1.43-.03,2.67-.17,3.71-.41.58-.19,1.15-.17,1.71.08.51.25.98.68,1.4,1.29.65,1,1.1,2.34,1.35,4,.24,1.67.15,3.04-.28,4.13-.35.89-.88,1.42-1.59,1.58-2.28.83-4.79,1.24-7.53,1.22-2.74-.02-5.19-.52-7.36-1.51-2.93-1.32-5.18-3.27-6.74-5.84-1.56-2.57-2.18-5.51-1.86-8.8.54-5.21,2.61-9.29,6.19-12.22,3.59-2.93,8.05-4.12,13.39-3.55.89.1,1.68.56,2.36,1.4.67.83,1.22,2.29,1.66,4.36s.18,3.59-.78,4.55c-.36.36-.78.55-1.25.56Z"/><path class="cls-1" d="m166.07,159.98c-.47-.26-.69-1.45-.66-3.55.03-2.1.11-3.38.22-3.84.78-3.27,2.22-5.72,4.34-7.35,2.11-1.63,4.61-3.02,7.49-4.16,1.17-.46,1.71-.94,1.62-1.44-.09-.5-.43-.87-1.01-1.12-.58-.24-1.22-.29-1.91-.14-.69.15-1.05.64-1.07,1.46-.03.31-.14.57-.33.79-.39.42-1.1.62-2.14.6-1.04-.01-2.05-.12-3.06-.33-.68-.14-1.32-.32-1.91-.54-.59-.22-1.12-.6-1.57-1.15-.54-.63-.42-1.74.35-3.36.78-1.61,1.48-2.75,2.11-3.4,2-2.07,4.44-3.31,7.3-3.71,2.86-.4,5.53.05,7.99,1.36,2.34,1.25,4.07,3.29,5.19,6.11,1.13,2.82,1,5.46-.38,7.9-1.18,2.1-2.89,3.49-5.13,4.18-2.24.69-3.92,1.6-5.05,2.72,1.77-.04,3.53-.1,5.3-.17,1.77-.07,2.93-.07,3.5,0,.54.03,1,.46,1.37,1.28.37.83.63,1.76.77,2.81.15,1.04.17,2.05.08,3.03-.09.98-.32,1.64-.7,1.97-.21.19-1.43.33-3.67.42-2.24.08-4.7.12-7.38.12s-5.19-.04-7.53-.12-3.71-.22-4.13-.4Z"/><path class="cls-1" d="m206.14,149.43c2.43-.03,4.63-.1,6.59-.21s3.11.02,3.46.4c.38.31.65,1.63.82,3.98.17,2.35.11,4.05-.2,5.11-.14.45-1.23.81-3.27,1.11s-4.34.49-6.88.59c-2.54.1-4.98.12-7.32.05s-3.86-.26-4.57-.56c-.42-.17-.76-1.29-1.03-3.37-.27-2.08-.48-4.51-.64-7.3-.15-2.79-.24-5.63-.27-8.53-.03-2.9,0-5.26.08-7.08,0-1,.08-1.92.25-2.74.17-.83.42-1.35.77-1.55.35-.21,1.57-.39,3.67-.54,2.1-.15,4.37-.25,6.8-.28,2.43-.03,4.69,0,6.76.12,2.07.12,3.26.33,3.57.64.38.31.59,1.51.64,3.62.05,2.11-.08,3.69-.39,4.77-.15.5-1.13.81-2.93.93-1.8.12-3.9.22-6.31.3,0,.17,0,.36.02.58.01.22.03.42.04.58,1.57.03,2.85.15,3.84.35.24.07.47.48.7,1.24.23.76.39,1.59.48,2.48.09.9.09,1.73-.01,2.49-.1.76-.34,1.17-.73,1.23-.28.08-.78.16-1.51.22s-1.54.11-2.43.14v1.23Z"/><path d="m43.94,246.02c-.17.11-.51.15-1.04.1-.53-.04-1.19-.04-1.98,0-.01.71-.03,1.54-.04,2.49-.01.95-.03,1.78-.04,2.49.93.03,1.79.05,2.57.06.47.01.84.47,1.12,1.37.27.9.41,1.89.41,2.98s-.14,2.11-.43,3.06c-.29.95-.75,1.47-1.39,1.59-.29.04-.68.07-1.16.08-.48.01-1.03.03-1.64.04-.24,2.27-.5,3.48-.79,3.65-.83.46-2.18.64-4.03.53-1.85-.1-2.88-.43-3.09-.99-.19-.31-.35-1.37-.48-3.19-.7,0-1.49,0-2.38-.02-.89-.01-1.68-.03-2.38-.06-.14,1.88-.3,2.97-.48,3.27-.24.56-1.33.89-3.27.99-1.95.1-3.34-.07-4.17-.53-.33-.19-.63-1.58-.88-4.17-2.57.07-3.97-.09-4.19-.48-.47-.82-.66-2.24-.55-4.25.1-2.02.43-3.14.97-3.38.18-.1.56-.16,1.14-.18.58-.02,1.3-.06,2.18-.11-.03-.71-.05-1.55-.07-2.52-.02-.97-.03-1.81-.03-2.52-1.11-.01-2.06-.03-2.84-.06-.49-.01-.85-.47-1.08-1.36-.24-.89-.35-1.88-.33-2.97.01-1.09.18-2.11.49-3.04s.79-1.47,1.43-1.6c.63-.04,1.41-.08,2.36-.1.01-1.1.05-1.82.1-2.17.11-.64.65-1.12,1.63-1.43.97-.31,2.02-.48,3.13-.5,1.11-.02,2.13.09,3.05.34.92.25,1.38.61,1.4,1.08.01.4.02.83.03,1.27,0,.45.02.91.03,1.4.63.03,1.38.05,2.26.06.88.01,1.64.03,2.26.04.01-1.08.03-2.01.06-2.77,0-.47.45-.84,1.35-1.12.9-.27,1.89-.41,2.99-.41s2.12.15,3.08.44c.95.29,1.49.76,1.62,1.4.04.72.08,1.72.1,3,.99.11,1.79.17,2.41.18.62,0,.98.09,1.07.24.49.83.67,2.29.54,4.36s-.46,3.21-1,3.42Zm-11.93,5.03c0-.64,0-1.41-.01-2.3,0-.9-.01-1.68-.01-2.35-.6.01-1.44.02-2.52.02h-2.54c0,.67,0,1.45-.01,2.35,0,.9-.01,1.67-.01,2.3.6,0,1.44,0,2.53-.01,1.09,0,1.95-.01,2.58-.01Z"/><path d="m74.35,255.14c-1.54,3.63-3.98,6.11-7.3,7.46-3.32,1.34-6.82,1.98-10.49,1.93-1.25-.03-2.46-.11-3.62-.26-1.16-.15-2-.33-2.51-.55-.81-.33-1.45-1.99-1.94-4.97-.49-2.98-.78-6.25-.88-9.79-.1-3.55,0-6.85.29-9.91.29-3.06.83-4.83,1.63-5.32.79-.5,2-.87,3.63-1.1,2.6-.36,5.41-.33,8.44.1,3.02.43,5.59,1.48,7.69,3.15,2.75,2.22,4.63,5.18,5.64,8.85,1.01,3.68.82,7.15-.57,10.42Zm-15.77-9.34c-.24.76-.29,1.89-.16,3.37.13,1.48.44,2.35.93,2.62.22.14.67.19,1.33.17,1.08-.03,2-.27,2.75-.74.75-.47,1.17-1.16,1.25-2.08.1-1.13-.31-2.09-1.22-2.88-.91-.79-1.87-1.24-2.87-1.33-.4-.03-.81,0-1.22.09-.41.09-.68.35-.8.78Z"/><path d="m105.65,250.09c-.24,3.92-1.26,7.25-3.07,10-1.81,2.75-4.99,4.22-9.55,4.41-4.84.19-8.5-1.31-10.98-4.5-2.48-3.2-3.58-7.45-3.28-12.74.24-3.75,1.21-7,2.91-9.73,1.7-2.73,4.84-4.29,9.42-4.66,4.87-.38,8.59,1.1,11.17,4.41,2.58,3.32,3.71,7.59,3.39,12.82Zm-9.49-1c.08-1.54-.25-2.8-1.01-3.78-.76-.97-1.85-1.4-3.26-1.29-1.33.12-2.26.59-2.76,1.39-.51.8-.79,1.75-.84,2.85-.1,1.56.22,2.81.95,3.75.73.95,1.8,1.38,3.22,1.31,1.33-.06,2.27-.49,2.79-1.29.53-.81.83-1.79.92-2.94Z"/><path d="m125.65,264c-.18.15-.75.27-1.7.37-.95.09-2.02.14-3.19.15-1.18,0-2.32-.02-3.44-.08-1.12-.06-1.94-.17-2.45-.32-.54-.17-.49-2.2.15-6.1.64-3.9,1.34-7.92,2.11-12.04-2.04-.01-3.8-.09-5.27-.24-1.47-.15-2.36-.34-2.68-.59-.29-.15-.5-.72-.64-1.7-.13-.98-.2-2.08-.2-3.3s.05-2.41.16-3.58c.1-1.17.25-2.03.45-2.59.17-.47,1.32-.82,3.45-1.03,2.13-.22,4.52-.33,7.14-.34,2.63-.01,5.14.05,7.53.2,2.39.15,3.93.33,4.61.55.75.26.91,1.96.48,5.09-.43,3.13-1.08,6.54-1.96,10.24-.88,3.7-1.79,7.11-2.73,10.24-.95,3.13-1.55,4.83-1.81,5.09Z"/><path d="m151.89,264.34c-.5.06-1.48.1-2.93.14-1.45.04-3.01.05-4.67.04-1.66,0-3.23-.06-4.7-.15-1.47-.09-2.47-.25-2.98-.47-.49-.19-.86-1.61-1.13-4.25-.26-2.64-.44-5.61-.52-8.9-.08-3.29-.09-6.46-.02-9.51s.2-5.09.4-6.12c.13-.65.82-1.23,2.1-1.73,1.27-.5,2.81-.84,4.62-1.03,1.81-.19,3.73-.18,5.77.01,2.04.19,3.89.65,5.56,1.38,2.43,1.08,4.06,2.86,4.88,5.34.82,2.48.54,4.8-.86,6.97l.06.04c1.84,1.11,3.05,2.56,3.64,4.34.59,1.78.65,3.66.18,5.63-.51,2.17-1.61,4.04-3.3,5.6-1.68,1.56-3.71,2.46-6.09,2.68Zm-6.59-24.24c-.17.58-.19,1.37-.07,2.35.12.98.38,1.53.78,1.66.76.25,1.55.1,2.37-.44s1.22-1.22,1.22-2.04c0-.54-.23-1.04-.7-1.48-.47-.44-1.18-.67-2.14-.69-.86,0-1.35.22-1.46.65Zm.44,15.83c.33.75,1.34.89,3.02.43,1.68-.47,2.4-1.41,2.15-2.83-.18-1.03-.82-1.83-1.92-2.39-1.1-.56-2.11-.64-3.02-.22-.47.22-.71.94-.72,2.14,0,1.2.16,2.16.49,2.87Z"/><path d="m164.86,263.98c-.47-.26-.69-1.45-.66-3.55.03-2.1.11-3.38.22-3.84.78-3.27,2.22-5.72,4.34-7.35,2.11-1.63,4.61-3.02,7.49-4.16,1.17-.46,1.71-.94,1.62-1.44-.09-.5-.43-.87-1.01-1.12-.58-.24-1.22-.29-1.91-.14-.69.15-1.05.64-1.07,1.46-.03.31-.14.57-.33.79-.39.42-1.1.62-2.14.6-1.04-.01-2.05-.12-3.06-.33-.68-.14-1.32-.32-1.91-.54-.59-.22-1.12-.6-1.57-1.15-.54-.63-.42-1.74.35-3.36.78-1.61,1.48-2.75,2.11-3.4,2-2.07,4.44-3.31,7.3-3.71,2.86-.4,5.53.05,7.99,1.36,2.34,1.25,4.07,3.29,5.19,6.11,1.13,2.82,1,5.46-.38,7.9-1.18,2.1-2.89,3.49-5.13,4.18-2.24.69-3.92,1.6-5.05,2.72,1.77-.04,3.53-.1,5.3-.17,1.77-.07,2.93-.07,3.5,0,.54.03,1,.46,1.37,1.28.37.83.63,1.76.77,2.81.15,1.04.17,2.05.08,3.03-.09.98-.32,1.64-.7,1.97-.21.19-1.43.33-3.67.42-2.24.08-4.7.12-7.38.12s-5.19-.04-7.53-.12-3.71-.22-4.13-.4Z"/><path d="m192.02,263.81c-.26-.28-.4-.62-.42-1.02-.03-1.35.21-3.38.71-6.09s1.13-5.53,1.88-8.46c.75-2.93,1.55-5.67,2.39-8.23.84-2.56,1.57-4.36,2.2-5.4.25-.4.98-.77,2.2-1.09,1.22-.33,2.56-.55,4.04-.68,1.47-.12,2.89-.12,4.25.01,1.36.13,2.32.45,2.86.95.78.75,1.7,2.4,2.76,4.94,1.06,2.54,2.1,5.32,3.12,8.31,1.01,3,1.93,5.87,2.73,8.62.81,2.75,1.34,4.7,1.61,5.84.18.83.13,1.42-.17,1.74s-.8.55-1.52.68c-1.22.21-2.74.37-4.56.47-1.81.1-2.95.13-3.41.07-.18-.03-.35-.09-.5-.19-.5-.31-.98-1.19-1.45-2.64-.47-1.45-.92-2.45-1.37-2.99-.26-.32-.61-.51-1.04-.56l-3.42-.02c-1.07.03-1.77.38-2.09,1.06-.42.88-.89,1.85-1.42,2.92-.53,1.07-.92,1.73-1.17,1.98-.13.15-.31.26-.56.31-.57.13-1.92.16-4.04.09-2.12-.06-3.33-.27-3.62-.64Zm13.52-18.4c-.46.49-.91,1.3-1.37,2.45-.45,1.15-.62,1.9-.49,2.26.21.61,1.11.89,2.7.82,1.59-.06,2.46-.45,2.6-1.16.08-.43-.33-1.41-1.25-2.95-.92-1.54-1.65-2.01-2.19-1.43Z"/><path d="m47.75,347.66c-.17.11-.51.15-1.04.1-.53-.04-1.19-.04-1.98,0-.01.71-.03,1.54-.04,2.49-.01.95-.03,1.78-.04,2.49.93.03,1.79.05,2.57.06.47.01.84.47,1.12,1.37.27.9.41,1.89.41,2.98s-.14,2.11-.43,3.06c-.29.95-.75,1.47-1.39,1.59-.29.04-.68.07-1.16.08-.48.01-1.03.03-1.64.04-.24,2.27-.5,3.48-.79,3.65-.83.46-2.18.64-4.03.53-1.85-.1-2.88-.43-3.09-.99-.19-.31-.35-1.37-.48-3.19-.7,0-1.49,0-2.38-.02-.89-.01-1.68-.03-2.38-.06-.14,1.88-.3,2.97-.48,3.27-.24.56-1.33.89-3.27.99-1.95.1-3.34-.07-4.17-.53-.33-.19-.63-1.58-.88-4.17-2.57.07-3.97-.09-4.19-.48-.47-.82-.66-2.24-.55-4.25.1-2.02.43-3.14.97-3.38.18-.1.56-.16,1.14-.18.58-.02,1.3-.06,2.18-.11-.03-.71-.05-1.55-.07-2.52-.02-.97-.03-1.81-.03-2.52-1.11-.01-2.06-.03-2.84-.06-.49-.01-.85-.47-1.08-1.36-.24-.89-.35-1.88-.33-2.97.01-1.09.18-2.11.49-3.04s.79-1.47,1.43-1.6c.63-.04,1.41-.08,2.36-.1.01-1.1.05-1.82.1-2.17.11-.64.65-1.12,1.63-1.43.97-.31,2.02-.48,3.13-.5,1.11-.02,2.13.09,3.05.34.92.25,1.38.61,1.4,1.08.01.4.02.83.03,1.27,0,.45.02.91.03,1.4.63.03,1.38.05,2.26.06.88.01,1.64.03,2.26.04.01-1.08.03-2.01.06-2.77,0-.47.45-.84,1.35-1.12.9-.27,1.89-.41,2.99-.41s2.12.15,3.08.44c.95.29,1.49.76,1.62,1.4.04.72.08,1.72.1,3,.99.11,1.79.17,2.41.18.62,0,.98.09,1.07.24.49.83.67,2.29.54,4.36s-.46,3.21-1,3.42Zm-11.93,5.03c0-.64,0-1.41-.01-2.3,0-.9-.01-1.68-.01-2.35-.6.01-1.44.02-2.52.02h-2.54c0,.67,0,1.45-.01,2.35,0,.9-.01,1.67-.01,2.3.6,0,1.44,0,2.53-.01,1.09,0,1.95-.01,2.58-.01Z"/><path d="m71.77,347.37c3.77,2.5,5.08,5.98,3.94,10.43-.39,1.54-1.09,2.9-2.1,4.07-1.01,1.17-2.2,2.1-3.58,2.79-1.38.71-2.98,1.17-4.8,1.38-1.82.21-3.52.12-5.09-.25-4.1-1.04-7-3.57-8.7-7.57-.29-.71-.03-1.36.78-1.96.81-.6,1.79-1.1,2.93-1.49,1.14-.4,2.25-.66,3.34-.78s1.74-.08,1.98.15c.21.22.33.49.35.81.06,1.08.75,1.44,2.1,1.07,1.34-.37,1.9-.89,1.68-1.57-.25-.75-1.22-1.6-2.92-2.54-1.7-.95-2.57-2.11-2.61-3.5-.01-.32.07-.85.25-1.59.18-.74.71-1.57,1.59-2.5-2.64-.04-4.48-.12-5.51-.23-.67-.07-1.23-.5-1.68-1.3-.45-.8-.77-1.71-.96-2.72-.19-1.01-.23-2.01-.11-2.97.11-.97.4-1.67.86-2.1.36-.33,1.6-.58,3.7-.74,2.11-.16,4.39-.22,6.85-.19,2.46.03,4.75.16,6.87.38,2.12.22,3.38.52,3.79.93.88.92.82,2.77-.17,5.57-.99,2.79-1.92,4.94-2.79,6.44Z"/><path d="m96.59,365.97c-.5.06-1.48.1-2.93.14-1.45.04-3.01.05-4.67.04-1.66,0-3.23-.06-4.7-.15-1.47-.09-2.47-.25-2.98-.47-.49-.19-.86-1.61-1.13-4.25-.26-2.64-.44-5.61-.52-8.9-.08-3.29-.09-6.46-.02-9.51s.2-5.09.4-6.12c.13-.65.82-1.23,2.1-1.73,1.27-.5,2.81-.84,4.62-1.03,1.81-.19,3.73-.18,5.77.01,2.04.19,3.89.65,5.56,1.38,2.43,1.08,4.06,2.86,4.88,5.34.82,2.48.54,4.8-.86,6.97l.06.04c1.84,1.11,3.05,2.56,3.64,4.34.59,1.78.65,3.66.18,5.63-.51,2.17-1.61,4.04-3.3,5.6-1.68,1.56-3.71,2.46-6.09,2.68Zm-6.59-24.24c-.17.58-.19,1.37-.07,2.35.12.98.38,1.53.78,1.66.76.25,1.55.1,2.37-.44s1.22-1.22,1.22-2.04c0-.54-.23-1.04-.7-1.48-.47-.44-1.18-.67-2.14-.69-.86,0-1.35.22-1.46.65Zm.44,15.83c.33.75,1.34.89,3.02.43,1.68-.47,2.4-1.41,2.15-2.83-.18-1.03-.82-1.83-1.92-2.39-1.1-.56-2.11-.64-3.02-.22-.47.22-.71.94-.72,2.14,0,1.2.16,2.16.49,2.87Z"/><path d="m132.19,340.65c1.18,2.38,1.71,4.89,1.6,7.54-.12,2.65-.78,5.17-1.97,7.56-1.2,2.39-2.88,4.52-5.06,6.38-2.18,1.86-4.73,3.2-7.66,4-.92.08-1.78-.25-2.58-.99-.8-.74-1.45-1.6-1.94-2.58-.49-.97-.78-1.89-.86-2.75-.08-.86.15-1.37.68-1.52.36-.1,1.03-.29,1.99-.56.97-.28,1.58-.63,1.85-1.06-2.88-.42-5.22-1.79-7.02-4.12-1.8-2.33-2.55-4.97-2.26-7.92.32-3.09,1.65-5.55,4-7.39,2.35-1.84,4.95-2.81,7.8-2.91,2.38-.08,4.61.42,6.68,1.5,2.08,1.08,3.66,2.69,4.74,4.82Zm-10.57,7.13c.9-.25,1.27-.93,1.11-2.03-.17-1.11-.73-1.66-1.69-1.66s-1.47.56-1.54,1.67c-.04.61.14,1.15.53,1.62.4.47.93.6,1.6.41Z"/><path d="m163.1,348.83c.46.28.64,1.6.53,3.95s-.36,4.01-.78,4.97c-.19.43-1.72.73-4.57.9-.13,1.71-.27,3.15-.44,4.32-.17,1.17-.35,1.89-.54,2.17-.28.54-1.6.87-3.97.97-2.37.1-4.05-.07-5.04-.53-.29-.12-.54-.81-.73-2.06-.19-1.25-.35-2.82-.48-4.69-2.5-.04-4.69-.06-6.56-.05-1.87,0-2.89-.07-3.06-.24-.54-.46-.96-1.84-1.24-4.15-.28-2.31-.21-3.99.24-5.05.97-2.25,2.63-4.67,4.98-7.24,2.35-2.57,4.32-4.63,5.92-6.17.56-.54,1.43-.95,2.63-1.23,1.2-.28,2.4-.41,3.62-.4,1.22.01,2.3.18,3.25.51.95.33,1.46.82,1.53,1.47.14,1.46.23,3.24.28,5.35.05,2.11.06,4.3.03,6.58,2.54.11,4,.32,4.38.63Zm-12.81,1.65c.13-.21.14-.85.03-1.93-.1-1.08-.24-1.56-.41-1.45-.36.11-.93.57-1.71,1.37-.78.8-1.17,1.37-1.17,1.72,0,.25.53.38,1.6.4,1.06.01,1.62-.02,1.66-.1Z"/><path d="m186.15,365.12c-.29.56-1.75.89-4.36.99-2.61.1-4.46-.07-5.55-.53-.53-.22-.84-2.09-.94-5.6-.1-3.51-.22-7.12-.35-10.83-.9.38-1.82.72-2.74,1.04-.92.32-1.51.46-1.74.42-.63.01-1.5-.98-2.62-2.98-1.12-2-1.73-3.6-1.82-4.8-.04-.54.76-1.48,2.41-2.81,1.65-1.33,3.97-2.92,6.98-4.79.54-.35,1.46-.62,2.74-.81,1.29-.19,2.6-.27,3.93-.23,1.33.04,2.53.23,3.58.56,1.05.33,1.62.85,1.7,1.56.21,2,.33,4.55.35,7.64.03,3.09-.02,6.14-.15,9.14s-.31,5.65-.56,7.95c-.25,2.3-.54,3.66-.86,4.08Z"/><path d="m216.62,351.73c-.24,3.92-1.26,7.25-3.07,10-1.81,2.75-4.99,4.22-9.55,4.41-4.84.19-8.5-1.31-10.98-4.5-2.48-3.2-3.58-7.45-3.28-12.74.24-3.75,1.21-7,2.91-9.73,1.7-2.73,4.84-4.29,9.42-4.66,4.87-.38,8.59,1.1,11.17,4.41,2.58,3.32,3.71,7.59,3.39,12.82Zm-9.49-1c.08-1.54-.25-2.8-1.01-3.78-.76-.97-1.85-1.4-3.26-1.29-1.33.12-2.26.59-2.76,1.39-.51.8-.79,1.75-.84,2.85-.1,1.56.22,2.81.95,3.75.73.95,1.8,1.38,3.22,1.31,1.33-.06,2.27-.49,2.79-1.29.53-.81.83-1.79.92-2.94Z"/><path d="m43.2,444.66c-.17.11-.51.15-1.04.1-.53-.04-1.19-.04-1.98,0-.01.71-.03,1.54-.04,2.49-.01.95-.03,1.78-.04,2.49.93.03,1.79.05,2.57.06.47.01.84.47,1.12,1.37.27.9.41,1.89.41,2.98s-.14,2.11-.43,3.06c-.29.95-.75,1.47-1.39,1.59-.29.04-.68.07-1.16.08-.48.01-1.03.03-1.64.04-.24,2.27-.5,3.48-.79,3.65-.83.46-2.18.64-4.03.53-1.85-.1-2.88-.43-3.09-.99-.19-.31-.35-1.37-.48-3.19-.7,0-1.49,0-2.38-.02-.89-.01-1.68-.03-2.38-.06-.14,1.88-.3,2.97-.48,3.27-.24.56-1.33.89-3.27.99-1.95.1-3.34-.07-4.17-.53-.33-.19-.63-1.58-.88-4.17-2.57.07-3.97-.09-4.19-.48-.47-.82-.66-2.24-.55-4.25.1-2.02.43-3.14.97-3.38.18-.1.56-.16,1.14-.18.58-.02,1.3-.06,2.18-.11-.03-.71-.05-1.55-.07-2.52-.02-.97-.03-1.81-.03-2.52-1.11-.01-2.06-.03-2.84-.06-.49-.01-.85-.47-1.08-1.36-.24-.89-.35-1.88-.33-2.97.01-1.09.18-2.11.49-3.04s.79-1.47,1.43-1.6c.63-.04,1.41-.08,2.36-.1.01-1.1.05-1.82.1-2.17.11-.64.65-1.12,1.63-1.43.97-.31,2.02-.48,3.13-.5,1.11-.02,2.13.09,3.05.34.92.25,1.38.61,1.4,1.08.01.4.02.83.03,1.27,0,.45.02.91.03,1.4.63.03,1.38.05,2.26.06.88.01,1.64.03,2.26.04.01-1.08.03-2.01.06-2.77,0-.47.45-.84,1.35-1.12.9-.27,1.89-.41,2.99-.41s2.12.15,3.08.44c.95.29,1.49.76,1.62,1.4.04.72.08,1.72.1,3,.99.11,1.79.17,2.41.18.62,0,.98.09,1.07.24.49.83.67,2.29.54,4.36s-.46,3.21-1,3.42Zm-11.93,5.03c0-.64,0-1.41-.01-2.3,0-.9-.01-1.68-.01-2.35-.6.01-1.44.02-2.52.02h-2.54c0,.67,0,1.45-.01,2.35,0,.9-.01,1.67-.01,2.3.6,0,1.44,0,2.53-.01,1.09,0,1.95-.01,2.58-.01Z"/><path d="m47.22,462.45c-.26-.28-.4-.62-.42-1.02-.03-1.35.21-3.38.71-6.09.5-2.71,1.13-5.53,1.88-8.46.75-2.93,1.55-5.67,2.39-8.23.84-2.56,1.57-4.36,2.2-5.4.25-.4.98-.77,2.2-1.09,1.22-.33,2.56-.55,4.04-.68,1.47-.12,2.89-.12,4.25.01,1.36.13,2.32.45,2.86.95.78.75,1.7,2.4,2.76,4.94,1.06,2.54,2.1,5.32,3.12,8.31,1.01,3,1.93,5.87,2.73,8.62.81,2.75,1.34,4.7,1.61,5.84.18.83.13,1.42-.17,1.74s-.8.55-1.52.68c-1.22.21-2.74.37-4.56.47-1.81.1-2.95.13-3.41.07-.18-.03-.35-.09-.5-.19-.5-.31-.98-1.19-1.45-2.64-.47-1.45-.92-2.45-1.37-2.99-.26-.32-.61-.51-1.04-.56l-3.42-.02c-1.07.03-1.77.38-2.09,1.06-.42.88-.89,1.85-1.42,2.92-.53,1.07-.92,1.73-1.17,1.98-.13.15-.31.26-.56.31-.57.13-1.92.16-4.04.09-2.12-.06-3.33-.27-3.62-.64Zm13.52-18.4c-.46.49-.91,1.3-1.37,2.45-.45,1.15-.62,1.9-.49,2.26.21.61,1.11.89,2.7.82,1.59-.06,2.46-.45,2.6-1.16.08-.43-.33-1.41-1.25-2.95-.92-1.54-1.65-2.01-2.19-1.43Z"/><path d="m91.65,452.07c2.43-.03,4.63-.1,6.59-.21,1.96-.11,3.11.02,3.46.4.38.31.65,1.63.82,3.98.17,2.35.11,4.05-.2,5.11-.14.45-1.23.81-3.27,1.11s-4.34.49-6.88.59c-2.54.1-4.98.12-7.32.05s-3.86-.26-4.57-.56c-.42-.17-.76-1.29-1.03-3.37-.27-2.08-.48-4.51-.64-7.3-.15-2.79-.24-5.63-.27-8.53-.03-2.9,0-5.26.08-7.08,0-1,.08-1.92.25-2.74.17-.83.42-1.35.77-1.55.35-.21,1.57-.39,3.67-.54,2.1-.15,4.37-.25,6.8-.28,2.43-.03,4.69,0,6.76.12,2.07.12,3.26.33,3.57.64.38.31.59,1.51.64,3.62.05,2.11-.08,3.69-.39,4.77-.15.5-1.13.81-2.93.93-1.8.12-3.9.22-6.31.3,0,.17,0,.36.02.58.01.22.03.42.04.58,1.57.03,2.85.15,3.84.35.24.07.47.48.7,1.24.23.76.39,1.59.48,2.48.09.9.09,1.73-.01,2.49-.1.76-.34,1.17-.73,1.23-.28.08-.78.16-1.51.22s-1.54.11-2.43.14v1.23Z"/><path d="m126.5,442.1c-.61.03-1.22.06-1.82.1-.6.04-1.19.11-1.76.21-1.46.29-2.78.98-3.97,2.08-1.19,1.09-1.62,2.44-1.3,4.06.15.74.5,1.31,1.04,1.73.86.68,2.01,1,3.44.97,1.43-.03,2.67-.17,3.71-.41.58-.19,1.15-.17,1.71.08.51.25.98.68,1.4,1.29.65,1,1.1,2.34,1.35,4,.24,1.67.15,3.04-.28,4.13-.35.89-.88,1.42-1.59,1.58-2.28.83-4.79,1.24-7.53,1.22-2.74-.02-5.19-.52-7.36-1.51-2.93-1.32-5.18-3.27-6.74-5.84-1.56-2.57-2.18-5.51-1.86-8.8.54-5.21,2.61-9.29,6.19-12.22,3.59-2.93,8.05-4.12,13.39-3.55.89.1,1.68.56,2.36,1.4.67.83,1.22,2.29,1.66,4.36s.18,3.59-.78,4.55c-.36.36-.78.55-1.25.56Z"/><path d="m133.19,462.45c-.26-.28-.4-.62-.42-1.02-.03-1.35.21-3.38.71-6.09.5-2.71,1.13-5.53,1.88-8.46s1.55-5.67,2.39-8.23c.84-2.56,1.57-4.36,2.2-5.4.25-.4.98-.77,2.2-1.09,1.22-.33,2.56-.55,4.04-.68,1.47-.12,2.89-.12,4.25.01,1.36.13,2.32.45,2.86.95.78.75,1.7,2.4,2.76,4.94,1.06,2.54,2.1,5.32,3.12,8.31,1.01,3,1.93,5.87,2.73,8.62.81,2.75,1.34,4.7,1.61,5.84.18.83.13,1.42-.17,1.74s-.8.55-1.52.68c-1.22.21-2.74.37-4.56.47-1.81.1-2.95.13-3.41.07-.18-.03-.35-.09-.5-.19-.5-.31-.98-1.19-1.45-2.64-.47-1.45-.92-2.45-1.37-2.99-.26-.32-.61-.51-1.04-.56l-3.42-.02c-1.07.03-1.77.38-2.09,1.06-.42.88-.89,1.85-1.42,2.92-.53,1.07-.92,1.73-1.17,1.98-.13.15-.31.26-.56.31-.57.13-1.92.16-4.04.09-2.12-.06-3.33-.27-3.62-.64Zm13.52-18.4c-.46.49-.91,1.3-1.37,2.45-.45,1.15-.62,1.9-.49,2.26.21.61,1.11.89,2.7.82,1.59-.06,2.46-.45,2.6-1.16.08-.43-.33-1.41-1.25-2.95-.92-1.54-1.65-2.01-2.19-1.43Z"/><path d="m191.21,448.73c-.24,3.92-1.26,7.25-3.07,10-1.81,2.75-4.99,4.22-9.55,4.41-4.84.19-8.5-1.31-10.98-4.5-2.48-3.2-3.58-7.45-3.28-12.74.24-3.75,1.21-7,2.91-9.73,1.7-2.73,4.84-4.29,9.42-4.66,4.87-.38,8.59,1.1,11.17,4.41,2.58,3.32,3.71,7.59,3.39,12.82Zm-9.49-1c.08-1.54-.25-2.8-1.01-3.78-.76-.97-1.85-1.4-3.26-1.29-1.33.12-2.26.59-2.76,1.39-.51.8-.79,1.75-.84,2.85-.1,1.56.22,2.81.95,3.75.73.95,1.8,1.38,3.22,1.31,1.33-.06,2.27-.49,2.79-1.29.53-.81.83-1.79.92-2.94Z"/><path d="m220.93,445.83c.46.28.64,1.6.53,3.95-.1,2.36-.36,4.01-.78,4.97-.19.43-1.72.73-4.57.9-.13,1.71-.27,3.15-.44,4.32-.17,1.17-.35,1.89-.54,2.17-.28.54-1.6.87-3.97.97-2.37.1-4.05-.07-5.04-.53-.29-.12-.54-.81-.73-2.06-.19-1.25-.35-2.82-.48-4.69-2.5-.04-4.69-.06-6.56-.05-1.87,0-2.89-.07-3.06-.24-.54-.46-.96-1.84-1.24-4.15s-.2-3.99.24-5.05c.97-2.25,2.63-4.67,4.98-7.24,2.35-2.57,4.32-4.63,5.92-6.17.56-.54,1.43-.95,2.63-1.23,1.2-.28,2.4-.41,3.62-.4,1.22.01,2.3.18,3.25.51.95.33,1.46.82,1.53,1.47.14,1.46.23,3.24.28,5.35.05,2.11.06,4.3.03,6.58,2.54.11,4,.32,4.38.63Zm-12.81,1.65c.13-.21.14-.85.03-1.93-.1-1.08-.24-1.56-.41-1.45-.36.11-.93.57-1.71,1.37-.78.8-1.17,1.37-1.17,1.72,0,.25.53.38,1.6.4,1.06.01,1.62-.02,1.66-.1Z"/><path class="cls-1" d="m48.95,546.05c-.17.11-.51.15-1.04.1-.53-.04-1.19-.04-1.98,0-.01.71-.03,1.54-.04,2.49-.01.95-.03,1.78-.04,2.49.93.03,1.79.05,2.57.06.47.01.84.47,1.12,1.37.27.9.41,1.89.41,2.98s-.14,2.11-.43,3.06c-.29.95-.75,1.47-1.39,1.59-.29.04-.68.07-1.16.08-.48.01-1.03.03-1.64.04-.24,2.27-.5,3.48-.79,3.65-.83.46-2.18.64-4.03.53-1.85-.1-2.88-.43-3.09-.99-.19-.31-.35-1.37-.48-3.19-.7,0-1.49,0-2.38-.02-.89-.01-1.68-.03-2.38-.06-.14,1.88-.3,2.97-.48,3.27-.24.56-1.33.89-3.27.99-1.95.1-3.34-.07-4.17-.53-.33-.19-.63-1.58-.88-4.17-2.57.07-3.97-.09-4.19-.48-.47-.82-.66-2.24-.55-4.25.1-2.02.43-3.14.97-3.38.18-.1.56-.16,1.14-.18.58-.02,1.3-.06,2.18-.11-.03-.71-.05-1.55-.07-2.52-.02-.97-.03-1.81-.03-2.52-1.11-.01-2.06-.03-2.84-.06-.49-.01-.85-.47-1.08-1.36-.24-.89-.35-1.88-.33-2.97.01-1.09.18-2.11.49-3.04s.79-1.47,1.43-1.6c.63-.04,1.41-.08,2.36-.1.01-1.1.05-1.82.1-2.17.11-.64.65-1.12,1.63-1.43.97-.31,2.02-.48,3.13-.5,1.11-.02,2.13.09,3.05.34.92.25,1.38.61,1.4,1.08.01.4.02.83.03,1.27,0,.45.02.91.03,1.4.63.03,1.38.05,2.26.06.88.01,1.64.03,2.26.04.01-1.08.03-2.01.06-2.77,0-.47.45-.84,1.35-1.12.9-.27,1.89-.41,2.99-.41s2.12.15,3.08.44c.95.29,1.49.76,1.62,1.4.04.72.08,1.72.1,3,.99.11,1.79.17,2.41.18.62,0,.98.09,1.07.24.49.83.67,2.29.54,4.36s-.46,3.21-1,3.42Zm-11.93,5.03c0-.64,0-1.41-.01-2.3,0-.9-.01-1.68-.01-2.35-.6.01-1.44.02-2.52.02h-2.54c0,.67,0,1.45-.01,2.35,0,.9-.01,1.67-.01,2.3.6,0,1.44,0,2.53-.01,1.09,0,1.95-.01,2.58-.01Z"/><path class="cls-1" d="m72.68,563.5c-.29.56-1.75.89-4.36.99-2.61.1-4.46-.07-5.55-.53-.53-.22-.84-2.09-.94-5.6-.1-3.51-.22-7.12-.35-10.83-.9.38-1.82.72-2.74,1.04-.92.32-1.51.46-1.74.42-.63.01-1.5-.98-2.62-2.98-1.12-2-1.73-3.6-1.82-4.8-.04-.54.76-1.48,2.41-2.81,1.65-1.33,3.97-2.92,6.98-4.79.54-.35,1.46-.62,2.74-.81,1.29-.19,2.6-.27,3.93-.23,1.33.04,2.53.23,3.58.56,1.05.33,1.62.85,1.7,1.56.21,2,.33,4.55.35,7.64.03,3.09-.02,6.14-.15,9.14s-.31,5.65-.56,7.95c-.25,2.3-.54,3.66-.86,4.08Z"/><path class="cls-1" d="m103.15,550.11c-.24,3.92-1.26,7.25-3.07,10-1.81,2.75-4.99,4.22-9.55,4.41-4.84.19-8.5-1.31-10.98-4.5-2.48-3.2-3.58-7.45-3.28-12.74.24-3.75,1.21-7,2.91-9.73,1.7-2.73,4.84-4.29,9.42-4.66,4.87-.38,8.59,1.1,11.17,4.41,2.58,3.32,3.71,7.59,3.39,12.82Zm-9.49-1c.08-1.54-.25-2.8-1.01-3.78-.76-.97-1.85-1.4-3.26-1.29-1.33.12-2.26.59-2.76,1.39-.51.8-.79,1.75-.84,2.85-.1,1.56.22,2.81.95,3.75.73.95,1.8,1.38,3.22,1.31,1.33-.06,2.27-.49,2.79-1.29.53-.81.83-1.79.92-2.94Z"/><path class="cls-1" d="m132.87,547.21c.46.28.64,1.6.53,3.95s-.36,4.01-.78,4.97c-.19.43-1.72.73-4.57.9-.13,1.71-.27,3.15-.44,4.32-.17,1.17-.35,1.89-.54,2.17-.28.54-1.6.87-3.97.97-2.37.1-4.05-.07-5.04-.53-.29-.12-.54-.81-.73-2.06-.19-1.25-.35-2.82-.48-4.69-2.5-.04-4.69-.06-6.56-.05-1.87,0-2.89-.07-3.06-.24-.54-.46-.96-1.84-1.24-4.15-.28-2.31-.21-3.99.24-5.05.97-2.25,2.63-4.67,4.98-7.24,2.35-2.57,4.32-4.63,5.92-6.17.56-.54,1.43-.95,2.63-1.23,1.2-.28,2.4-.41,3.62-.4,1.22.01,2.3.18,3.25.51.95.33,1.46.82,1.53,1.47.14,1.46.23,3.24.28,5.35.05,2.11.06,4.3.03,6.58,2.54.11,4,.32,4.38.63Zm-12.81,1.65c.13-.21.14-.85.03-1.93-.1-1.08-.24-1.56-.41-1.45-.36.11-.93.57-1.71,1.37-.78.8-1.17,1.37-1.17,1.72,0,.25.53.38,1.6.4,1.06.01,1.62-.02,1.66-.1Z"/><path class="cls-1" d="m150.83,564.4c-4.45.54-8.25-.45-11.39-2.97-3.14-2.52-4.28-5.91-3.4-10.17.32-1.52.91-2.91,1.77-4.19-.99-1.89-1.24-3.99-.75-6.3.57-2.71,2.19-5.01,4.87-6.88,2.68-1.88,6.37-2.23,11.09-1.06,1.97.57,3.73,1.75,5.26,3.55,1.53,1.79,2.34,3.73,2.42,5.82.06,1.63-.27,3.13-.98,4.5,1.53,1.95,2.34,3.99,2.42,6.13.13,3.17-.96,5.8-3.24,7.88-2.29,2.09-4.97,3.32-8.06,3.69Zm-3.05-12.74c-.78.4-1.04,1.08-.77,2.03.26.95.92,1.37,1.98,1.26,1.06-.08,1.54-.7,1.44-1.84-.06-.6-.35-1.07-.88-1.42-.53-.35-1.12-.36-1.77-.04Zm.1-10.28c-.71.29-.95.88-.71,1.77.24.89.83,1.29,1.79,1.19.96-.08,1.39-.64,1.29-1.67-.04-.54-.3-.95-.76-1.23-.47-.28-1-.3-1.62-.06Z"/><path class="cls-1" d="m165.15,564c-.47-.26-.69-1.45-.66-3.55.03-2.1.11-3.38.22-3.84.78-3.27,2.22-5.72,4.34-7.35,2.11-1.63,4.61-3.02,7.49-4.16,1.17-.46,1.71-.94,1.62-1.44-.09-.5-.43-.87-1.01-1.12-.58-.24-1.22-.29-1.91-.14-.69.15-1.05.64-1.07,1.46-.03.31-.14.57-.33.79-.39.42-1.1.62-2.14.6-1.04-.01-2.05-.12-3.06-.33-.68-.14-1.32-.32-1.91-.54-.59-.22-1.12-.6-1.57-1.15-.54-.63-.42-1.74.35-3.36.78-1.61,1.48-2.75,2.11-3.4,2-2.07,4.44-3.31,7.3-3.71,2.86-.4,5.53.05,7.99,1.36,2.34,1.25,4.07,3.29,5.19,6.11,1.13,2.82,1,5.46-.38,7.9-1.18,2.1-2.89,3.49-5.13,4.18-2.24.69-3.92,1.6-5.05,2.72,1.77-.04,3.53-.1,5.3-.17,1.77-.07,2.93-.07,3.5,0,.54.03,1,.46,1.37,1.28.37.83.63,1.76.77,2.81.15,1.04.17,2.05.08,3.03-.09.98-.32,1.64-.7,1.97-.21.19-1.43.33-3.67.42-2.24.08-4.7.12-7.38.12s-5.19-.04-7.53-.12-3.71-.22-4.13-.4Z"/><path class="cls-1" d="m213.69,533.45c.36.24.51,1.44.45,3.62-.06,2.18-.23,3.72-.51,4.64-.08.25-.8.43-2.15.53-1.35.1-2.79.17-4.34.2,1.84.17,3.78,1.27,5.84,3.31,2.06,2.04,3.03,4.47,2.92,7.31.04,3.1-.99,5.68-3.1,7.73-2.11,2.05-4.56,3.26-7.35,3.64-3.02.39-5.86-.18-8.52-1.72-2.66-1.54-4.32-3.83-4.97-6.89-.25-1.21.32-2.17,1.71-2.88.95-.49,2.55-.79,4.83-.91,2.27-.12,3.53.39,3.76,1.53.01.1.05.19.1.29.15.4.43.67.83.81.65.26,1.18.2,1.59-.2.4-.4.59-.88.57-1.45-.02-.57-.3-1.11-.83-1.63-.54-.51-1.41-.77-2.62-.77-.83.04-1.78.03-2.84-.04-1.67-.08-2.76-.39-3.27-.93-.51-.54-.88-1.3-1.08-2.3-.47-2.22-.76-4.94-.87-8.13-.1-3.2.19-5.13.89-5.8.25-.25,1.32-.44,3.21-.58,1.89-.14,3.95-.21,6.17-.22,2.22,0,4.3.06,6.22.2,1.92.14,3.04.35,3.36.65Z"/><path d="m44.15,648.34c-.17.11-.51.15-1.04.1-.53-.04-1.19-.04-1.98,0-.01.71-.03,1.54-.04,2.49-.01.95-.03,1.78-.04,2.49.93.03,1.79.05,2.57.06.47.01.84.47,1.12,1.37.27.9.41,1.89.41,2.98s-.14,2.11-.43,3.05c-.29.95-.75,1.47-1.39,1.59-.29.04-.68.07-1.16.08-.48.01-1.03.03-1.64.04-.24,2.27-.5,3.48-.79,3.65-.83.46-2.18.64-4.03.53-1.85-.1-2.88-.43-3.09-.99-.19-.31-.35-1.37-.48-3.19-.7,0-1.49,0-2.38-.02-.89-.01-1.68-.03-2.38-.06-.14,1.88-.3,2.97-.48,3.27-.24.56-1.33.89-3.27.99-1.95.1-3.34-.07-4.17-.53-.33-.19-.63-1.58-.88-4.17-2.57.07-3.97-.09-4.19-.48-.47-.82-.66-2.24-.55-4.25.1-2.02.43-3.14.97-3.38.18-.1.56-.16,1.14-.18.58-.02,1.3-.06,2.18-.11-.03-.71-.05-1.55-.07-2.52-.02-.97-.03-1.81-.03-2.52-1.11-.01-2.06-.04-2.84-.06-.49-.01-.85-.46-1.08-1.36-.24-.89-.35-1.88-.33-2.97.01-1.09.18-2.11.49-3.04s.79-1.47,1.43-1.6c.63-.04,1.41-.08,2.36-.1.01-1.1.05-1.82.1-2.17.11-.64.65-1.12,1.63-1.43.97-.31,2.02-.48,3.13-.5,1.11-.02,2.13.09,3.05.34.92.25,1.38.61,1.4,1.08.01.4.02.83.03,1.27,0,.45.02.91.03,1.4.63.03,1.38.05,2.26.06.88.01,1.64.03,2.26.04.01-1.08.03-2.01.06-2.77,0-.47.45-.84,1.35-1.12.9-.27,1.89-.41,2.99-.41s2.12.15,3.08.44c.95.29,1.49.76,1.62,1.4.04.72.08,1.72.1,3,.99.11,1.79.17,2.41.18.62,0,.98.09,1.07.24.49.83.67,2.29.54,4.36-.13,2.07-.46,3.21-1,3.42Zm-11.93,5.03c0-.64,0-1.41-.01-2.3,0-.9-.01-1.68-.01-2.35-.6.01-1.44.02-2.52.02h-2.54c0,.67,0,1.45-.01,2.35,0,.9-.01,1.67-.01,2.3.6,0,1.44,0,2.53-.01,1.09,0,1.95,0,2.58,0Z"/><path d="m71.05,641.34c1.18,2.38,1.71,4.89,1.6,7.54-.12,2.65-.78,5.17-1.97,7.56-1.2,2.39-2.88,4.52-5.06,6.38-2.18,1.86-4.73,3.2-7.66,4-.92.08-1.78-.25-2.58-.99-.8-.74-1.45-1.6-1.94-2.58-.49-.97-.78-1.89-.86-2.75-.08-.86.15-1.37.68-1.52.36-.1,1.03-.29,1.99-.56.97-.28,1.58-.63,1.85-1.06-2.88-.42-5.22-1.79-7.02-4.12-1.8-2.33-2.55-4.97-2.26-7.92.32-3.09,1.65-5.55,4-7.39,2.35-1.84,4.95-2.81,7.8-2.91,2.38-.08,4.61.42,6.68,1.5,2.08,1.08,3.66,2.69,4.74,4.82Zm-10.57,7.13c.9-.25,1.27-.93,1.11-2.03-.17-1.11-.73-1.66-1.69-1.66s-1.47.56-1.54,1.67c-.04.61.14,1.15.53,1.62.4.47.93.6,1.6.41Z"/><path d="m75.6,666.3c-.47-.26-.69-1.45-.66-3.55.03-2.1.11-3.38.22-3.84.78-3.27,2.22-5.72,4.34-7.35,2.11-1.63,4.61-3.02,7.49-4.16,1.17-.46,1.71-.94,1.62-1.44-.09-.5-.43-.87-1.01-1.12-.58-.24-1.22-.29-1.91-.14-.69.15-1.05.64-1.07,1.46-.03.31-.14.57-.33.79-.39.42-1.1.62-2.14.6-1.04-.01-2.05-.12-3.06-.33-.68-.14-1.32-.32-1.91-.54-.59-.22-1.12-.6-1.57-1.15-.54-.63-.42-1.75.35-3.36.78-1.61,1.48-2.75,2.11-3.4,2-2.07,4.44-3.31,7.3-3.71,2.86-.4,5.53.05,7.99,1.36,2.34,1.25,4.07,3.29,5.19,6.11,1.13,2.82,1,5.46-.38,7.91-1.18,2.1-2.89,3.49-5.13,4.18-2.24.69-3.92,1.6-5.05,2.72,1.77-.04,3.53-.1,5.3-.17,1.77-.07,2.93-.07,3.5,0,.54.03,1,.46,1.37,1.28.37.83.63,1.76.77,2.81s.17,2.05.08,3.03c-.09.98-.32,1.64-.7,1.97-.21.19-1.43.33-3.67.42-2.24.08-4.7.12-7.38.12s-5.19-.04-7.53-.12c-2.34-.08-3.71-.22-4.13-.4Z"/><path d="m123.98,645.78c-.61.03-1.22.06-1.82.1-.6.04-1.19.11-1.76.21-1.46.29-2.78.98-3.97,2.08-1.19,1.09-1.62,2.44-1.3,4.06.15.74.5,1.31,1.04,1.73.86.68,2.01,1,3.44.97,1.43-.04,2.67-.17,3.71-.41.58-.19,1.15-.17,1.71.08.51.25.98.68,1.4,1.29.65,1,1.1,2.34,1.35,4,.24,1.67.15,3.04-.28,4.13-.35.89-.88,1.42-1.59,1.58-2.28.83-4.79,1.24-7.53,1.22-2.74-.02-5.19-.53-7.36-1.51-2.93-1.32-5.18-3.27-6.74-5.84-1.56-2.57-2.18-5.51-1.86-8.8.54-5.21,2.61-9.29,6.19-12.22,3.59-2.93,8.05-4.12,13.39-3.54.89.1,1.68.56,2.36,1.4.67.83,1.22,2.29,1.66,4.36.44,2.07.18,3.59-.78,4.55-.36.36-.78.55-1.25.56Z"/><path d="m157.19,652.41c-.24,3.92-1.26,7.25-3.07,10-1.81,2.75-4.99,4.22-9.55,4.41-4.84.19-8.5-1.31-10.98-4.5s-3.58-7.45-3.28-12.74c.24-3.75,1.21-7,2.91-9.73,1.7-2.73,4.84-4.29,9.42-4.66,4.87-.38,8.59,1.1,11.17,4.41,2.58,3.32,3.71,7.59,3.39,12.82Zm-9.49-1c.08-1.54-.25-2.8-1.01-3.78-.76-.97-1.85-1.4-3.26-1.29-1.33.12-2.26.59-2.76,1.39-.51.8-.79,1.75-.84,2.85-.1,1.56.22,2.81.95,3.75s1.8,1.38,3.22,1.31c1.33-.06,2.27-.49,2.79-1.29.53-.81.83-1.79.92-2.94Z"/><path d="m160.29,666.13c-.26-.28-.4-.62-.42-1.02-.03-1.35.21-3.38.71-6.09.5-2.71,1.13-5.53,1.88-8.46.75-2.93,1.55-5.67,2.39-8.23.84-2.56,1.57-4.36,2.2-5.4.25-.4.98-.77,2.2-1.09,1.22-.33,2.56-.55,4.04-.68,1.47-.12,2.89-.12,4.25.01,1.36.13,2.32.45,2.86.95.78.75,1.7,2.4,2.76,4.94s2.1,5.32,3.12,8.31c1.01,3,1.93,5.87,2.73,8.62.81,2.75,1.34,4.7,1.61,5.84.18.83.13,1.42-.17,1.74-.29.33-.8.55-1.52.68-1.22.21-2.74.37-4.56.47s-2.95.13-3.41.07c-.18-.03-.35-.09-.5-.19-.5-.31-.98-1.18-1.45-2.64-.47-1.45-.92-2.45-1.37-2.99-.26-.32-.61-.51-1.04-.56l-3.42-.02c-1.07.03-1.77.38-2.09,1.06-.42.88-.89,1.85-1.42,2.92-.53,1.07-.92,1.73-1.17,1.98-.13.15-.31.26-.56.31-.57.13-1.92.16-4.04.09-2.12-.06-3.33-.27-3.62-.64Zm13.52-18.4c-.46.49-.91,1.3-1.37,2.45-.45,1.15-.62,1.9-.49,2.26.21.61,1.11.89,2.7.82,1.59-.06,2.46-.45,2.6-1.16.08-.43-.33-1.41-1.25-2.95-.92-1.54-1.65-2.01-2.19-1.43Z"/><path d="m191.81,666.13c-.26-.28-.4-.62-.42-1.02-.03-1.35.21-3.38.71-6.09.5-2.71,1.13-5.53,1.88-8.46.75-2.93,1.55-5.67,2.39-8.23.84-2.56,1.57-4.36,2.2-5.4.25-.4.98-.77,2.2-1.09,1.22-.33,2.56-.55,4.04-.68,1.47-.12,2.89-.12,4.25.01,1.36.13,2.32.45,2.86.95.78.75,1.7,2.4,2.76,4.94s2.1,5.32,3.12,8.31c1.01,3,1.93,5.87,2.73,8.62.81,2.75,1.34,4.7,1.61,5.84.18.83.13,1.42-.17,1.74-.29.33-.8.55-1.52.68-1.22.21-2.74.37-4.56.47s-2.95.13-3.41.07c-.18-.03-.35-.09-.5-.19-.5-.31-.98-1.18-1.45-2.64-.47-1.45-.92-2.45-1.37-2.99-.26-.32-.61-.51-1.04-.56l-3.42-.02c-1.07.03-1.77.38-2.09,1.06-.42.88-.89,1.85-1.42,2.92-.53,1.07-.92,1.73-1.17,1.98-.13.15-.31.26-.56.31-.57.13-1.92.16-4.04.09-2.12-.06-3.33-.27-3.62-.64Zm13.52-18.4c-.46.49-.91,1.3-1.37,2.45-.45,1.15-.62,1.9-.49,2.26.21.61,1.11.89,2.7.82,1.59-.06,2.46-.45,2.6-1.16.08-.43-.33-1.41-1.25-2.95-.92-1.54-1.65-2.01-2.19-1.43Z"/><path d="m45.71,748.34c-.17.11-.51.15-1.04.1-.53-.04-1.19-.04-1.98,0-.01.71-.03,1.54-.04,2.49-.01.95-.03,1.78-.04,2.49.93.03,1.79.05,2.57.06.47.01.84.47,1.12,1.37.27.9.41,1.89.41,2.98s-.14,2.11-.43,3.05c-.29.95-.75,1.47-1.39,1.59-.29.04-.68.07-1.16.08-.48.01-1.03.03-1.64.04-.24,2.27-.5,3.48-.79,3.65-.83.46-2.18.64-4.03.53-1.85-.1-2.88-.43-3.09-.99-.19-.31-.35-1.37-.48-3.19-.7,0-1.49,0-2.38-.02-.89-.01-1.68-.03-2.38-.06-.14,1.88-.3,2.97-.48,3.27-.24.56-1.33.89-3.27.99-1.95.1-3.34-.07-4.17-.53-.33-.19-.63-1.58-.88-4.17-2.57.07-3.97-.09-4.19-.48-.47-.82-.66-2.24-.55-4.25.1-2.02.43-3.14.97-3.38.18-.1.56-.16,1.14-.18.58-.02,1.3-.06,2.18-.11-.03-.71-.05-1.55-.07-2.52-.02-.97-.03-1.81-.03-2.52-1.11-.01-2.06-.04-2.84-.06-.49-.01-.85-.46-1.08-1.36-.24-.89-.35-1.88-.33-2.97.01-1.09.18-2.11.49-3.04s.79-1.47,1.43-1.6c.63-.04,1.41-.08,2.36-.1.01-1.1.05-1.82.1-2.17.11-.64.65-1.12,1.63-1.43.97-.31,2.02-.48,3.13-.5,1.11-.02,2.13.09,3.05.34.92.25,1.38.61,1.4,1.08.01.4.02.83.03,1.27,0,.45.02.91.03,1.4.63.03,1.38.05,2.26.06.88.01,1.64.03,2.26.04.01-1.08.03-2.01.06-2.77,0-.47.45-.84,1.35-1.12.9-.27,1.89-.41,2.99-.41s2.12.15,3.08.44c.95.29,1.49.76,1.62,1.4.04.72.08,1.72.1,3,.99.11,1.79.17,2.41.18.62,0,.98.09,1.07.24.49.83.67,2.29.54,4.36-.13,2.07-.46,3.21-1,3.42Zm-11.93,5.03c0-.64,0-1.41-.01-2.3,0-.9-.01-1.68-.01-2.35-.6.01-1.44.02-2.52.02h-2.54c0,.67,0,1.45-.01,2.35,0,.9-.01,1.67-.01,2.3.6,0,1.44,0,2.53-.01,1.09,0,1.95,0,2.58,0Z"/><path d="m76.35,749.51c.46.28.64,1.59.53,3.95-.1,2.36-.36,4.01-.78,4.97-.19.43-1.72.73-4.57.9-.13,1.71-.27,3.15-.44,4.32-.17,1.17-.35,1.89-.54,2.17-.28.54-1.6.87-3.97.97-2.37.1-4.05-.07-5.04-.53-.29-.12-.54-.81-.73-2.06-.19-1.25-.35-2.82-.48-4.69-2.5-.04-4.69-.06-6.56-.05-1.87,0-2.89-.07-3.06-.24-.54-.46-.96-1.84-1.24-4.15-.28-2.31-.21-3.99.24-5.05.97-2.25,2.63-4.67,4.98-7.24,2.35-2.57,4.32-4.63,5.92-6.17.56-.54,1.43-.95,2.63-1.23,1.2-.28,2.4-.41,3.62-.4,1.22.01,2.3.18,3.25.51.95.33,1.46.82,1.53,1.47.14,1.46.23,3.24.28,5.35.05,2.11.06,4.3.03,6.58,2.54.11,4,.32,4.38.63Zm-12.81,1.65c.13-.21.14-.85.03-1.93-.1-1.08-.24-1.56-.41-1.45-.36.11-.93.57-1.71,1.37-.78.8-1.17,1.37-1.17,1.72,0,.25.53.38,1.6.4,1.06.01,1.62-.02,1.66-.1Z"/><path d="m79.94,766.3c-.47-.26-.69-1.45-.66-3.55.03-2.1.11-3.38.22-3.84.78-3.27,2.22-5.72,4.34-7.35,2.11-1.63,4.61-3.02,7.49-4.16,1.17-.46,1.71-.94,1.62-1.44-.09-.5-.43-.87-1.01-1.12-.58-.24-1.22-.29-1.91-.14-.69.15-1.05.64-1.07,1.46-.03.31-.14.57-.33.79-.39.42-1.1.62-2.14.6-1.04-.01-2.05-.12-3.06-.33-.68-.14-1.32-.32-1.91-.54-.59-.22-1.12-.6-1.57-1.15-.54-.63-.42-1.75.35-3.36.78-1.61,1.48-2.75,2.11-3.4,2-2.07,4.44-3.31,7.3-3.71,2.86-.4,5.53.05,7.99,1.36,2.34,1.25,4.07,3.29,5.19,6.11,1.13,2.82,1,5.46-.38,7.91-1.18,2.1-2.89,3.49-5.13,4.18-2.24.69-3.92,1.6-5.05,2.72,1.77-.04,3.53-.1,5.3-.17,1.77-.07,2.93-.07,3.5,0,.54.03,1,.46,1.37,1.28.37.83.63,1.76.77,2.81s.17,2.05.08,3.03c-.09.98-.32,1.64-.7,1.97-.21.19-1.43.33-3.67.42-2.24.08-4.7.12-7.38.12s-5.19-.04-7.53-.12c-2.34-.08-3.71-.22-4.13-.4Z"/><path d="m121.71,766.7c-4.45.54-8.25-.45-11.39-2.97-3.14-2.52-4.28-5.91-3.4-10.17.32-1.52.91-2.91,1.77-4.19-.99-1.89-1.24-3.99-.75-6.3.57-2.71,2.19-5,4.87-6.88,2.68-1.88,6.37-2.23,11.09-1.06,1.97.57,3.73,1.75,5.26,3.55,1.53,1.79,2.34,3.73,2.42,5.82.06,1.63-.27,3.13-.98,4.5,1.53,1.95,2.34,3.99,2.42,6.13.13,3.17-.96,5.8-3.24,7.88-2.29,2.08-4.97,3.32-8.06,3.69Zm-3.05-12.74c-.78.4-1.04,1.08-.77,2.03.26.95.92,1.37,1.98,1.26,1.06-.08,1.54-.7,1.44-1.83-.06-.6-.35-1.07-.88-1.42-.53-.35-1.12-.36-1.77-.04Zm.1-10.28c-.71.29-.95.88-.71,1.77.24.89.83,1.29,1.79,1.19.96-.08,1.39-.64,1.29-1.67-.04-.54-.3-.95-.76-1.23-.47-.28-1-.3-1.62-.06Z"/><path d="m135.79,766.13c-.26-.28-.4-.62-.42-1.02-.03-1.35.21-3.38.71-6.09.5-2.71,1.13-5.53,1.88-8.46.75-2.93,1.55-5.67,2.39-8.23.84-2.56,1.57-4.36,2.2-5.4.25-.4.98-.77,2.2-1.09,1.22-.33,2.56-.55,4.04-.68,1.47-.12,2.89-.12,4.25.01,1.36.13,2.32.45,2.86.95.78.75,1.7,2.4,2.76,4.94s2.1,5.32,3.12,8.31c1.01,3,1.93,5.87,2.73,8.62.81,2.75,1.34,4.7,1.61,5.84.18.83.13,1.42-.17,1.74-.29.33-.8.55-1.52.68-1.22.21-2.74.37-4.56.47s-2.95.13-3.41.07c-.18-.03-.35-.09-.5-.19-.5-.31-.98-1.18-1.45-2.64-.47-1.45-.92-2.45-1.37-2.99-.26-.32-.61-.51-1.04-.56l-3.42-.02c-1.07.03-1.77.38-2.09,1.06-.42.88-.89,1.85-1.42,2.92-.53,1.07-.92,1.73-1.17,1.98-.13.15-.31.26-.56.31-.57.13-1.92.16-4.04.09-2.12-.06-3.33-.27-3.62-.64Zm13.52-18.4c-.46.49-.91,1.3-1.37,2.45-.45,1.15-.62,1.9-.49,2.26.21.61,1.11.89,2.7.82,1.59-.06,2.46-.45,2.6-1.16.08-.43-.33-1.41-1.25-2.95-.92-1.54-1.65-2.01-2.19-1.43Z"/><path d="m184.2,766.32c-.18.15-.75.28-1.7.37-.95.09-2.02.14-3.19.15-1.18,0-2.32-.02-3.44-.08-1.12-.06-1.94-.17-2.45-.32-.54-.17-.49-2.2.15-6.1.64-3.9,1.34-7.92,2.11-12.04-2.04-.01-3.8-.09-5.27-.24-1.47-.15-2.36-.34-2.68-.59-.29-.15-.5-.72-.64-1.7-.13-.98-.2-2.08-.2-3.3s.05-2.41.16-3.58c.1-1.17.25-2.03.45-2.59.17-.47,1.32-.82,3.45-1.03,2.13-.22,4.52-.33,7.14-.34,2.63-.01,5.14.05,7.53.2,2.39.15,3.93.33,4.61.55.75.26.91,1.96.48,5.09-.43,3.13-1.08,6.54-1.96,10.24s-1.79,7.11-2.73,10.24c-.95,3.13-1.55,4.83-1.81,5.09Z"/><path d="m215.06,745.78c-.61.03-1.22.06-1.82.1-.6.04-1.19.11-1.76.21-1.46.29-2.78.98-3.97,2.08-1.19,1.09-1.62,2.44-1.3,4.06.15.74.5,1.31,1.04,1.73.86.68,2.01,1,3.44.97,1.43-.04,2.67-.17,3.71-.41.58-.19,1.15-.17,1.71.08.51.25.98.68,1.4,1.29.65,1,1.1,2.34,1.35,4,.24,1.67.15,3.04-.28,4.13-.35.89-.88,1.42-1.59,1.58-2.28.83-4.79,1.24-7.53,1.22-2.74-.02-5.19-.53-7.36-1.51-2.93-1.32-5.18-3.27-6.74-5.84-1.56-2.57-2.18-5.51-1.86-8.8.54-5.21,2.61-9.29,6.19-12.22,3.59-2.93,8.05-4.12,13.39-3.54.89.1,1.68.56,2.36,1.4.67.83,1.22,2.29,1.66,4.36.44,2.07.18,3.59-.78,4.55-.36.36-.78.55-1.25.56Z"/><path d="m52.08,846.34c-.17.11-.51.15-1.04.1-.53-.04-1.19-.04-1.98,0-.01.71-.03,1.54-.04,2.49-.01.95-.03,1.78-.04,2.49.93.03,1.79.05,2.57.06.47.01.84.47,1.12,1.37.27.9.41,1.89.41,2.98s-.14,2.11-.43,3.05c-.29.95-.75,1.47-1.39,1.59-.29.04-.68.07-1.16.08-.48.01-1.03.03-1.64.04-.24,2.27-.5,3.48-.79,3.65-.83.46-2.18.64-4.03.53-1.85-.1-2.88-.43-3.09-.99-.19-.31-.35-1.37-.48-3.19-.7,0-1.49,0-2.38-.02-.89-.01-1.68-.03-2.38-.06-.14,1.88-.3,2.97-.48,3.27-.24.56-1.33.89-3.27.99-1.95.1-3.34-.07-4.17-.53-.33-.19-.63-1.58-.88-4.17-2.57.07-3.97-.09-4.19-.48-.47-.82-.66-2.24-.55-4.25.1-2.02.43-3.14.97-3.38.18-.1.56-.16,1.14-.18.58-.02,1.3-.06,2.18-.11-.03-.71-.05-1.55-.07-2.52-.02-.97-.03-1.81-.03-2.52-1.11-.01-2.06-.04-2.84-.06-.49-.01-.85-.46-1.08-1.36-.24-.89-.35-1.88-.33-2.97.01-1.09.18-2.11.49-3.04s.79-1.47,1.43-1.6c.63-.04,1.41-.08,2.36-.1.01-1.1.05-1.82.1-2.17.11-.64.65-1.12,1.63-1.43.97-.31,2.02-.48,3.13-.5,1.11-.02,2.13.09,3.05.34.92.25,1.38.61,1.4,1.08.01.4.02.83.03,1.27,0,.45.02.91.03,1.4.63.03,1.38.05,2.26.06.88.01,1.64.03,2.26.04.01-1.08.03-2.01.06-2.77,0-.47.45-.84,1.35-1.12.9-.27,1.89-.41,2.99-.41s2.12.15,3.08.44c.95.29,1.49.76,1.62,1.4.04.72.08,1.72.1,3,.99.11,1.79.17,2.41.18.62,0,.98.09,1.07.24.49.83.67,2.29.54,4.36-.13,2.07-.46,3.21-1,3.42Zm-11.93,5.03c0-.64,0-1.41-.01-2.3,0-.9-.01-1.68-.01-2.35-.6.01-1.44.02-2.52.02h-2.54c0,.67,0,1.45-.01,2.35,0,.9-.01,1.67-.01,2.3.6,0,1.44,0,2.53-.01,1.09,0,1.95,0,2.58,0Z"/><path d="m75.82,863.8c-.29.56-1.75.89-4.36.99-2.61.1-4.46-.07-5.55-.53-.53-.22-.84-2.09-.94-5.6-.1-3.51-.22-7.12-.35-10.83-.9.38-1.82.72-2.74,1.04-.92.32-1.51.46-1.74.42-.63.01-1.5-.98-2.62-2.98-1.12-2-1.73-3.6-1.82-4.8-.04-.54.76-1.48,2.41-2.81,1.65-1.33,3.97-2.92,6.98-4.79.54-.35,1.46-.62,2.74-.81,1.29-.19,2.6-.27,3.93-.23,1.33.04,2.53.23,3.58.56,1.05.33,1.62.85,1.7,1.56.21,2,.33,4.55.35,7.64.03,3.09-.02,6.14-.15,9.13s-.31,5.65-.56,7.95c-.25,2.3-.54,3.66-.86,4.08Z"/><path d="m101.01,843.78c-.61.03-1.22.06-1.82.1-.6.04-1.19.11-1.76.21-1.46.29-2.78.98-3.97,2.08-1.19,1.09-1.62,2.44-1.3,4.06.15.74.5,1.31,1.04,1.73.86.68,2.01,1,3.44.97,1.43-.04,2.67-.17,3.71-.41.58-.19,1.15-.17,1.71.08.51.25.98.68,1.4,1.29.65,1,1.1,2.34,1.35,4,.24,1.67.15,3.04-.28,4.13-.35.89-.88,1.42-1.59,1.58-2.28.83-4.79,1.24-7.53,1.22-2.74-.02-5.19-.53-7.36-1.51-2.93-1.32-5.18-3.27-6.74-5.84-1.56-2.57-2.18-5.51-1.86-8.8.54-5.21,2.61-9.29,6.19-12.22,3.59-2.93,8.05-4.12,13.39-3.54.89.1,1.68.56,2.36,1.4.67.83,1.22,2.29,1.66,4.36.44,2.07.18,3.59-.78,4.55-.36.36-.78.55-1.25.56Z"/><path d="m108.19,857c-.68-1.97-.96-4.18-.84-6.61s.77-4.8,1.95-7.1c1.18-2.3,2.95-4.39,5.31-6.28,2.36-1.88,5.43-3.28,9.23-4.18.88-.18,1.64.16,2.29,1.01.65.86,1.16,1.84,1.53,2.96.37,1.12.59,2.18.66,3.18.07,1-.04,1.55-.33,1.65-.6.21-1.22.41-1.86.62-.64.2-1.29.52-1.96.95,1.96.61,3.7,1.89,5.22,3.84,1.52,1.95,2.33,4.05,2.41,6.3.11,3.12-.86,5.7-2.91,7.75-2.05,2.05-4.47,3.26-7.27,3.64-1.65.21-3.3.13-4.94-.23-1.64-.36-3.13-1.04-4.46-2.02-1.96-1.45-3.3-3.27-4.03-5.46Zm10.7-5.51c-.88.35-1.15,1.06-.83,2.13.32,1.07.96,1.56,1.92,1.46.93-.08,1.36-.69,1.29-1.81-.06-.58-.31-1.09-.77-1.51s-.99-.51-1.61-.26Z"/><path d="m134.71,864.3c-.47-.26-.69-1.45-.66-3.55.03-2.1.11-3.38.22-3.84.78-3.27,2.22-5.72,4.34-7.35,2.11-1.63,4.61-3.02,7.49-4.16,1.17-.46,1.71-.94,1.62-1.44-.09-.5-.43-.87-1.01-1.12-.58-.24-1.22-.29-1.91-.14-.69.15-1.05.64-1.07,1.46-.03.31-.14.57-.33.79-.39.42-1.1.62-2.14.6-1.04-.01-2.05-.12-3.06-.33-.68-.14-1.32-.32-1.91-.54-.59-.22-1.12-.6-1.57-1.15-.54-.63-.42-1.75.35-3.36.78-1.61,1.48-2.75,2.11-3.4,2-2.07,4.44-3.31,7.3-3.71,2.86-.4,5.53.05,7.99,1.36,2.34,1.25,4.07,3.29,5.19,6.11,1.13,2.82,1,5.46-.38,7.91-1.18,2.1-2.89,3.49-5.13,4.18-2.24.69-3.92,1.6-5.05,2.72,1.77-.04,3.53-.1,5.3-.17,1.77-.07,2.93-.07,3.5,0,.54.03,1,.46,1.37,1.28.37.83.63,1.76.77,2.81s.17,2.05.08,3.03c-.09.98-.32,1.64-.7,1.97-.21.19-1.43.33-3.67.42-2.24.08-4.7.12-7.38.12s-5.19-.04-7.53-.12c-2.34-.08-3.71-.22-4.13-.4Z"/><path d="m162.35,857c-.68-1.97-.96-4.18-.84-6.61s.77-4.8,1.95-7.1c1.18-2.3,2.95-4.39,5.31-6.28,2.36-1.88,5.43-3.28,9.23-4.18.88-.18,1.64.16,2.29,1.01.65.86,1.16,1.84,1.53,2.96.37,1.12.59,2.18.66,3.18.07,1-.04,1.55-.33,1.65-.6.21-1.22.41-1.86.62-.64.2-1.29.52-1.96.95,1.96.61,3.7,1.89,5.22,3.84,1.52,1.95,2.33,4.05,2.41,6.3.11,3.12-.86,5.7-2.91,7.75-2.05,2.05-4.47,3.26-7.27,3.64-1.65.21-3.3.13-4.94-.23-1.64-.36-3.13-1.04-4.46-2.02-1.96-1.45-3.3-3.27-4.03-5.46Zm10.7-5.51c-.88.35-1.15,1.06-.83,2.13.32,1.07.96,1.56,1.92,1.46.93-.08,1.36-.69,1.29-1.81-.06-.58-.31-1.09-.77-1.51s-.99-.51-1.61-.26Z"/><path d="m189.11,857c-.68-1.97-.96-4.18-.84-6.61s.77-4.8,1.95-7.1c1.18-2.3,2.95-4.39,5.31-6.28,2.36-1.88,5.43-3.28,9.23-4.18.88-.18,1.64.16,2.29,1.01.65.86,1.16,1.84,1.53,2.96.37,1.12.59,2.18.66,3.18.07,1-.04,1.55-.33,1.65-.6.21-1.22.41-1.86.62-.64.2-1.29.52-1.96.95,1.96.61,3.7,1.89,5.22,3.84,1.52,1.95,2.33,4.05,2.41,6.3.11,3.12-.86,5.7-2.91,7.75-2.05,2.05-4.47,3.26-7.27,3.64-1.65.21-3.3.13-4.94-.23-1.64-.36-3.13-1.04-4.46-2.02-1.96-1.45-3.3-3.27-4.03-5.46Zm10.7-5.51c-.88.35-1.15,1.06-.83,2.13.32,1.07.96,1.56,1.92,1.46.93-.08,1.36-.69,1.29-1.81-.06-.58-.31-1.09-.77-1.51s-.99-.51-1.61-.26Z"/><path class="cls-1" d="m50.29,951.15c-.17.11-.51.15-1.04.1-.53-.04-1.19-.04-1.98,0-.01.71-.03,1.54-.04,2.49-.01.95-.03,1.78-.04,2.49.93.03,1.79.05,2.57.06.47.01.84.47,1.12,1.37.27.9.41,1.89.41,2.98s-.14,2.11-.43,3.06c-.29.95-.75,1.47-1.39,1.59-.29.04-.68.07-1.16.08-.48.01-1.03.03-1.64.04-.24,2.27-.5,3.48-.79,3.65-.83.46-2.18.64-4.03.53-1.85-.1-2.88-.43-3.09-.99-.19-.31-.35-1.37-.48-3.19-.7,0-1.49,0-2.38-.02-.89-.01-1.68-.03-2.38-.06-.14,1.88-.3,2.97-.48,3.27-.24.56-1.33.89-3.27.99-1.95.1-3.34-.07-4.17-.53-.33-.19-.63-1.58-.88-4.17-2.57.07-3.97-.09-4.19-.48-.47-.82-.66-2.24-.55-4.25.1-2.02.43-3.14.97-3.38.18-.1.56-.16,1.14-.18.58-.02,1.3-.06,2.18-.11-.03-.71-.05-1.55-.07-2.52-.02-.97-.03-1.81-.03-2.52-1.11-.01-2.06-.03-2.84-.06-.49-.01-.85-.47-1.08-1.36-.24-.89-.35-1.88-.33-2.97.01-1.09.18-2.11.49-3.04s.79-1.47,1.43-1.6c.63-.04,1.41-.08,2.36-.1.01-1.1.05-1.82.1-2.17.11-.64.65-1.12,1.63-1.43.97-.31,2.02-.48,3.13-.5,1.11-.02,2.13.09,3.05.34.92.25,1.38.61,1.4,1.08.01.4.02.83.03,1.27,0,.45.02.91.03,1.4.63.03,1.38.05,2.26.06.88.01,1.64.03,2.26.04.01-1.08.03-2.01.06-2.77,0-.47.45-.84,1.35-1.12.9-.27,1.89-.41,2.99-.41s2.12.15,3.08.44c.95.29,1.49.76,1.62,1.4.04.72.08,1.72.1,3,.99.11,1.79.17,2.41.18.62,0,.98.09,1.07.24.49.83.67,2.29.54,4.36s-.46,3.21-1,3.42Zm-11.93,5.03c0-.64,0-1.41-.01-2.3,0-.9-.01-1.68-.01-2.35-.6.01-1.44.02-2.52.02h-2.54c0,.67,0,1.45-.01,2.35,0,.9-.01,1.67-.01,2.3.6,0,1.44,0,2.53-.01,1.09,0,1.95-.01,2.58-.01Z"/><path class="cls-1" d="m74.32,950.86c3.77,2.5,5.08,5.98,3.94,10.43-.39,1.54-1.09,2.9-2.1,4.07-1.01,1.17-2.2,2.1-3.58,2.79-1.38.71-2.98,1.17-4.8,1.38-1.82.21-3.52.12-5.09-.25-4.1-1.04-7-3.57-8.7-7.57-.29-.71-.03-1.36.78-1.96.81-.6,1.79-1.1,2.93-1.49,1.14-.4,2.25-.66,3.34-.78s1.74-.08,1.98.15c.21.22.33.49.35.81.06,1.08.75,1.44,2.1,1.07,1.34-.37,1.9-.89,1.68-1.57-.25-.75-1.22-1.6-2.92-2.54-1.7-.95-2.57-2.11-2.61-3.5-.01-.32.07-.85.25-1.59.18-.74.71-1.57,1.59-2.5-2.64-.04-4.48-.12-5.51-.23-.67-.07-1.23-.5-1.68-1.3-.45-.8-.77-1.71-.96-2.72-.19-1.01-.23-2.01-.11-2.97.11-.97.4-1.67.86-2.1.36-.33,1.6-.58,3.7-.74,2.11-.16,4.39-.22,6.85-.19,2.46.03,4.75.16,6.87.38,2.12.22,3.38.52,3.79.93.88.92.82,2.77-.17,5.57-.99,2.79-1.92,4.94-2.79,6.44Z"/><path class="cls-1" d="m102.24,968.61c-.29.56-1.75.89-4.36.99-2.61.1-4.46-.07-5.55-.53-.53-.22-.84-2.09-.94-5.6-.1-3.51-.22-7.12-.35-10.83-.9.38-1.82.72-2.74,1.04-.92.32-1.51.46-1.74.42-.63.01-1.5-.98-2.62-2.98-1.12-2-1.73-3.6-1.82-4.8-.04-.54.76-1.48,2.41-2.81,1.65-1.33,3.97-2.92,6.98-4.79.54-.35,1.46-.62,2.74-.81,1.29-.19,2.6-.27,3.93-.23,1.33.04,2.53.23,3.58.56,1.05.33,1.62.85,1.7,1.56.21,2,.33,4.55.35,7.64.03,3.09-.02,6.14-.15,9.14s-.31,5.65-.56,7.95c-.25,2.3-.54,3.66-.86,4.08Z"/><path class="cls-1" d="m132.82,952.32c.46.28.64,1.6.53,3.95s-.36,4.01-.78,4.97c-.19.43-1.72.73-4.57.9-.13,1.71-.27,3.15-.44,4.32-.17,1.17-.35,1.89-.54,2.17-.28.54-1.6.87-3.97.97-2.37.1-4.05-.07-5.04-.53-.29-.12-.54-.81-.73-2.06-.19-1.25-.35-2.82-.48-4.69-2.5-.04-4.69-.06-6.56-.05-1.87,0-2.89-.07-3.06-.24-.54-.46-.96-1.84-1.24-4.15-.28-2.31-.21-3.99.24-5.05.97-2.25,2.63-4.67,4.98-7.24,2.35-2.57,4.32-4.63,5.92-6.17.56-.54,1.43-.95,2.63-1.23,1.2-.28,2.4-.41,3.62-.4,1.22.01,2.3.18,3.25.51.95.33,1.46.82,1.53,1.47.14,1.46.23,3.24.28,5.35.05,2.11.06,4.3.03,6.58,2.54.11,4,.32,4.38.63Zm-12.81,1.65c.13-.21.14-.85.03-1.93-.1-1.08-.24-1.56-.41-1.45-.36.11-.93.57-1.71,1.37-.78.8-1.17,1.37-1.17,1.72,0,.25.53.38,1.6.4,1.06.01,1.62-.02,1.66-.1Z"/><path class="cls-1" d="m155.86,968.61c-.29.56-1.75.89-4.36.99-2.61.1-4.46-.07-5.55-.53-.53-.22-.84-2.09-.94-5.6-.1-3.51-.22-7.12-.35-10.83-.9.38-1.82.72-2.74,1.04-.92.32-1.51.46-1.74.42-.63.01-1.5-.98-2.62-2.98-1.12-2-1.73-3.6-1.82-4.8-.04-.54.76-1.48,2.41-2.81,1.65-1.33,3.97-2.92,6.98-4.79.54-.35,1.46-.62,2.74-.81,1.29-.19,2.6-.27,3.93-.23,1.33.04,2.53.23,3.58.56,1.05.33,1.62.85,1.7,1.56.21,2,.33,4.55.35,7.64.03,3.09-.02,6.14-.15,9.14s-.31,5.65-.56,7.95c-.25,2.3-.54,3.66-.86,4.08Z"/><path class="cls-1" d="m186.44,952.32c.46.28.64,1.6.53,3.95s-.36,4.01-.78,4.97c-.19.43-1.72.73-4.57.9-.13,1.71-.27,3.15-.44,4.32-.17,1.17-.35,1.89-.54,2.17-.28.54-1.6.87-3.97.97-2.37.1-4.05-.07-5.04-.53-.29-.12-.54-.81-.73-2.06-.19-1.25-.35-2.82-.48-4.69-2.5-.04-4.69-.06-6.56-.05-1.87,0-2.89-.07-3.06-.24-.54-.46-.96-1.84-1.24-4.15-.28-2.31-.21-3.99.24-5.05.97-2.25,2.63-4.67,4.98-7.24,2.35-2.57,4.32-4.63,5.92-6.17.56-.54,1.43-.95,2.63-1.23,1.2-.28,2.4-.41,3.62-.4,1.22.01,2.3.18,3.25.51.95.33,1.46.82,1.53,1.47.14,1.46.23,3.24.28,5.35.05,2.11.06,4.3.03,6.58,2.54.11,4,.32,4.38.63Zm-12.81,1.65c.13-.21.14-.85.03-1.93-.1-1.08-.24-1.56-.41-1.45-.36.11-.93.57-1.71,1.37-.78.8-1.17,1.37-1.17,1.72,0,.25.53.38,1.6.4,1.06.01,1.62-.02,1.66-.1Z"/><path class="cls-1" d="m190.02,969.11c-.47-.26-.69-1.45-.66-3.55.03-2.1.11-3.38.22-3.84.78-3.27,2.22-5.72,4.34-7.35,2.11-1.63,4.61-3.02,7.49-4.16,1.17-.46,1.71-.94,1.62-1.44-.09-.5-.43-.87-1.01-1.12-.58-.24-1.22-.29-1.91-.14-.69.15-1.05.64-1.07,1.46-.03.31-.14.57-.33.79-.39.42-1.1.62-2.14.6-1.04-.01-2.05-.12-3.06-.33-.68-.14-1.32-.32-1.91-.54-.59-.22-1.12-.6-1.57-1.15-.54-.63-.42-1.74.35-3.36.78-1.61,1.48-2.75,2.11-3.4,2-2.07,4.44-3.31,7.3-3.71,2.86-.4,5.53.05,7.99,1.36,2.34,1.25,4.07,3.29,5.19,6.11,1.13,2.82,1,5.46-.38,7.9-1.18,2.1-2.89,3.49-5.13,4.18-2.24.69-3.92,1.6-5.05,2.72,1.77-.04,3.53-.1,5.3-.17,1.77-.07,2.93-.07,3.5,0,.54.03,1,.46,1.37,1.28.37.83.63,1.76.77,2.81.15,1.04.17,2.05.08,3.03-.09.98-.32,1.64-.7,1.97-.21.19-1.43.33-3.67.42-2.24.08-4.7.12-7.38.12s-5.19-.04-7.53-.12-3.71-.22-4.13-.4Z"/><path class="cls-1" d="m53.14,1040.15c-.17.11-.51.15-1.04.1-.53-.04-1.19-.04-1.98,0-.01.71-.03,1.54-.04,2.49-.01.95-.03,1.78-.04,2.49.93.03,1.79.05,2.57.06.47.01.84.47,1.12,1.37.27.9.41,1.89.41,2.98s-.14,2.11-.43,3.06c-.29.95-.75,1.47-1.39,1.59-.29.04-.68.07-1.16.08-.48.01-1.03.03-1.64.04-.24,2.27-.5,3.48-.79,3.65-.83.46-2.18.64-4.03.53-1.85-.1-2.88-.43-3.09-.99-.19-.31-.35-1.37-.48-3.19-.7,0-1.49,0-2.38-.02-.89-.01-1.68-.03-2.38-.06-.14,1.88-.3,2.97-.48,3.27-.24.56-1.33.89-3.27.99-1.95.1-3.34-.07-4.17-.53-.33-.19-.63-1.58-.88-4.17-2.57.07-3.97-.09-4.19-.48-.47-.82-.66-2.24-.55-4.25.1-2.02.43-3.14.97-3.38.18-.1.56-.16,1.14-.18.58-.02,1.3-.06,2.18-.11-.03-.71-.05-1.55-.07-2.52-.02-.97-.03-1.81-.03-2.52-1.11-.01-2.06-.03-2.84-.06-.49-.01-.85-.47-1.08-1.36-.24-.89-.35-1.88-.33-2.97.01-1.09.18-2.11.49-3.04s.79-1.47,1.43-1.6c.63-.04,1.41-.08,2.36-.1.01-1.1.05-1.82.1-2.17.11-.64.65-1.12,1.63-1.43.97-.31,2.02-.48,3.13-.5,1.11-.02,2.13.09,3.05.34.92.25,1.38.61,1.4,1.08.01.4.02.83.03,1.27,0,.45.02.91.03,1.4.63.03,1.38.05,2.26.06.88.01,1.64.03,2.26.04.01-1.08.03-2.01.06-2.77,0-.47.45-.84,1.35-1.12.9-.27,1.89-.41,2.99-.41s2.12.15,3.08.44c.95.29,1.49.76,1.62,1.4.04.72.08,1.72.1,3,.99.11,1.79.17,2.41.18.62,0,.98.09,1.07.24.49.83.67,2.29.54,4.36s-.46,3.21-1,3.42Zm-11.93,5.03c0-.64,0-1.41-.01-2.3,0-.9-.01-1.68-.01-2.35-.6.01-1.44.02-2.52.02h-2.54c0,.67,0,1.45-.01,2.35,0,.9-.01,1.67-.01,2.3.6,0,1.44,0,2.53-.01,1.09,0,1.95-.01,2.58-.01Z"/><path class="cls-1" d="m76.87,1057.61c-.29.56-1.75.89-4.36.99-2.61.1-4.46-.07-5.55-.53-.53-.22-.84-2.09-.94-5.6-.1-3.51-.22-7.12-.35-10.83-.9.38-1.82.72-2.74,1.04-.92.32-1.51.46-1.74.42-.63.01-1.5-.98-2.62-2.98-1.12-2-1.73-3.6-1.82-4.8-.04-.54.76-1.48,2.41-2.81,1.65-1.33,3.97-2.92,6.98-4.79.54-.35,1.46-.62,2.74-.81,1.29-.19,2.6-.27,3.93-.23,1.33.04,2.53.23,3.58.56,1.05.33,1.62.85,1.7,1.56.21,2,.33,4.55.35,7.64.03,3.09-.02,6.14-.15,9.14s-.31,5.65-.56,7.95c-.25,2.3-.54,3.66-.86,4.08Z"/><path class="cls-1" d="m100.83,1039.86c3.77,2.5,5.08,5.98,3.94,10.43-.39,1.54-1.09,2.9-2.1,4.07-1.01,1.17-2.2,2.1-3.58,2.79-1.38.71-2.98,1.17-4.8,1.38-1.82.21-3.52.12-5.09-.25-4.1-1.04-7-3.57-8.7-7.57-.29-.71-.03-1.36.78-1.96.81-.6,1.79-1.1,2.93-1.49,1.14-.4,2.25-.66,3.34-.78s1.74-.08,1.98.15c.21.22.33.49.35.81.06,1.08.75,1.44,2.1,1.07,1.34-.37,1.9-.89,1.68-1.57-.25-.75-1.22-1.6-2.92-2.54-1.7-.95-2.57-2.11-2.61-3.5-.01-.32.07-.85.25-1.59.18-.74.71-1.57,1.59-2.5-2.64-.04-4.48-.12-5.51-.23-.67-.07-1.23-.5-1.68-1.3-.45-.8-.77-1.71-.96-2.72-.19-1.01-.23-2.01-.11-2.97.11-.97.4-1.67.86-2.1.36-.33,1.6-.58,3.7-.74,2.11-.16,4.39-.22,6.85-.19,2.46.03,4.75.16,6.87.38,2.12.22,3.38.52,3.79.93.88.92.82,2.77-.17,5.57-.99,2.79-1.92,4.94-2.79,6.44Z"/><path class="cls-1" d="m128.76,1057.61c-.29.56-1.75.89-4.36.99-2.61.1-4.46-.07-5.55-.53-.53-.22-.84-2.09-.94-5.6-.1-3.51-.22-7.12-.35-10.83-.9.38-1.82.72-2.74,1.04-.92.32-1.51.46-1.74.42-.63.01-1.5-.98-2.62-2.98-1.12-2-1.73-3.6-1.82-4.8-.04-.54.76-1.48,2.41-2.81,1.65-1.33,3.97-2.92,6.98-4.79.54-.35,1.46-.62,2.74-.81,1.29-.19,2.6-.27,3.93-.23,1.33.04,2.53.23,3.58.56,1.05.33,1.62.85,1.7,1.56.21,2,.33,4.55.35,7.64.03,3.09-.02,6.14-.15,9.14s-.31,5.65-.56,7.95c-.25,2.3-.54,3.66-.86,4.08Z"/><path class="cls-1" d="m133.2,1050.81c-.68-1.97-.96-4.18-.84-6.61.12-2.43.77-4.8,1.95-7.1,1.18-2.3,2.95-4.39,5.31-6.28,2.36-1.88,5.43-3.28,9.23-4.18.88-.18,1.64.16,2.29,1.01.65.85,1.16,1.84,1.53,2.96.37,1.12.59,2.18.66,3.18.07,1-.04,1.55-.33,1.65-.6.21-1.22.41-1.86.62-.64.2-1.29.52-1.96.95,1.96.61,3.7,1.89,5.22,3.84,1.52,1.95,2.33,4.05,2.41,6.3.11,3.11-.86,5.7-2.91,7.75-2.05,2.05-4.47,3.26-7.27,3.64-1.65.21-3.3.13-4.94-.23-1.64-.36-3.13-1.04-4.46-2.02-1.96-1.45-3.3-3.27-4.03-5.46Zm10.7-5.51c-.88.35-1.15,1.06-.83,2.13.32,1.07.96,1.56,1.92,1.46.93-.08,1.36-.69,1.29-1.81-.06-.58-.31-1.09-.77-1.51-.46-.42-.99-.51-1.61-.26Z"/><path class="cls-1" d="m179.19,1057.61c-.29.56-1.75.89-4.36.99-2.61.1-4.46-.07-5.55-.53-.53-.22-.84-2.09-.94-5.6-.1-3.51-.22-7.12-.35-10.83-.9.38-1.82.72-2.74,1.04-.92.32-1.51.46-1.74.42-.63.01-1.5-.98-2.62-2.98-1.12-2-1.73-3.6-1.82-4.8-.04-.54.76-1.48,2.41-2.81,1.65-1.33,3.97-2.92,6.98-4.79.54-.35,1.46-.62,2.74-.81,1.29-.19,2.6-.27,3.93-.23,1.33.04,2.53.23,3.58.56,1.05.33,1.62.85,1.7,1.56.21,2,.33,4.55.35,7.64.03,3.09-.02,6.14-.15,9.14s-.31,5.65-.56,7.95c-.25,2.3-.54,3.66-.86,4.08Z"/><path class="cls-1" d="m209.54,1049.27c-1.54,3.63-3.98,6.11-7.3,7.46-3.32,1.34-6.82,1.98-10.49,1.93-1.25-.03-2.46-.11-3.62-.26-1.16-.15-2-.33-2.51-.55-.81-.33-1.45-1.99-1.94-4.97-.49-2.98-.78-6.25-.88-9.79-.1-3.55,0-6.85.29-9.91.29-3.06.83-4.83,1.63-5.32.79-.5,2-.87,3.63-1.1,2.6-.36,5.41-.33,8.44.1,3.02.43,5.59,1.48,7.69,3.15,2.75,2.22,4.63,5.18,5.64,8.85,1.01,3.68.82,7.15-.57,10.42Zm-15.77-9.34c-.24.76-.29,1.89-.16,3.37.13,1.48.44,2.35.93,2.62.22.14.67.19,1.33.17,1.08-.03,2-.27,2.75-.74.75-.47,1.17-1.16,1.25-2.08.1-1.13-.31-2.09-1.22-2.88-.91-.79-1.87-1.24-2.87-1.33-.4-.03-.81,0-1.22.09-.41.09-.68.35-.8.78Z"/></svg>