<?xml version="1.0" encoding="UTF-8"?><svg id="favicon" xmlns="http://www.w3.org/2000/svg" width="32" height="32" viewBox="0 0 32 32"><defs><style>.cls-1{fill:#fff;}.cls-2{fill:#3b9410;}.cls-3{fill:#104825;}</style></defs><circle class="cls-3" cx="16.25" cy="16" r="15.5"/><path class="cls-2" d="m11.34,5.75c-.03.66-.02,1.32.05,1.96,1.81-.59,3.75-.97,5.75-1.1,1.29-.09,2.44.33,2.54,1.21.09.76-.88,1.7-2.17,1.79-1.96.12-3.78.5-5.49,1.2.37,1.14.88,2.27,1.52,3.35,1.04,1.76-3.42,3.12-4.46,1.36-2-3.41-2.73-7.07-2.32-10.87.07-.71,1.18-1.27,2.22-1.39,2.81-.97,5.79-1.42,8.82-1.48,1.3-.03,2.11.88,1.88,1.64-.26.9-1.48,1.38-2.77,1.41-1.92.04-3.79.38-5.57.93Z"/><path class="cls-2" d="m24.04,19.26c-1.66-.02-3.33.08-4.97.27-.48,2.96.08,5.85,1.61,8.51,1.02,1.77-3.44,3.13-4.46,1.36-1.63-2.84-2.27-5.89-1.95-9.01-1.01.24-1.99.51-2.97.82-2.85.92-4.44-1.82-1.6-2.73,4.86-1.57,10.06-2.31,15.24-2.26,3.03.02,2.11,3.07-.9,3.04Z"/><path class="cls-1" d="m12.78,5.56c-.03.66-.02,1.32.05,1.96,1.81-.59,3.75-.97,5.75-1.1,1.29-.09,2.44.33,2.54,1.21.09.76-.88,1.7-2.17,1.79-1.96.12-3.78.5-5.49,1.2.37,1.14.88,2.27,1.52,3.35,1.04,1.76-3.42,3.12-4.46,1.36-2-3.41-2.73-7.07-2.32-10.87.07-.71,1.18-1.27,2.22-1.39,2.81-.97,5.79-1.42,8.82-1.48,1.3-.03,2.11.88,1.88,1.64-.26.9-1.48,1.38-2.77,1.41-1.92.04-3.79.38-5.57.93Z"/><path class="cls-1" d="m25.48,19.06c-1.66-.02-3.33.08-4.97.27-.48,2.96.08,5.85,1.61,8.51,1.02,1.77-3.44,3.13-4.46,1.36-1.63-2.84-2.27-5.89-1.95-9.01-1.01.24-1.99.51-2.97.82-2.85.92-4.44-1.82-1.6-2.73,4.86-1.57,10.06-2.31,15.24-2.26,3.03.02,2.11,3.07-.9,3.04Z"/></svg>