<?xml version="1.0" encoding="UTF-8"?><svg id="win_screen" xmlns="http://www.w3.org/2000/svg" width="1251" height="261" viewBox="0 0 1251 261"><defs><style>.cls-1{fill:#fff;}.cls-2{fill:#104825;}</style></defs><path class="cls-2" d="m98.67,47.77c-.27,1.8-2.88,5.73-7.82,11.81-4.94,6.07-10.87,12.45-17.78,19.13-.39,8.2-1.1,15.57-2.14,22.09-1.04,6.52-1.98,10.35-2.84,11.48-.47.55-2.06.98-4.78,1.29-2.72.31-5.68.51-8.91.59-3.22.08-6.25.08-9.08,0-2.83-.08-4.54-.29-5.13-.64-1.29-.7-2.63-4.31-4.01-10.81-1.39-6.5-2.45-13.84-3.19-22-7.23-6.8-13.47-13.32-18.72-19.57-5.25-6.25-8-10.31-8.23-12.19-.27-1.09.39-2.93,1.99-5.51,1.6-2.58,3.53-5.19,5.8-7.82,2.27-2.64,4.54-4.97,6.83-7,2.29-2.03,3.93-3.08,4.95-3.16,2.27-.12,5.87,1.83,10.81,5.83,4.94,4,10.22,8.7,15.85,14.09,5.66-5.39,10.97-10.12,15.91-14.18,4.94-4.06,8.58-6.01,10.93-5.86.98.08,2.61,1.08,4.89,3.02s4.57,4.15,6.86,6.65c2.29,2.5,4.24,4.98,5.86,7.44,1.62,2.46,2.28,4.24,1.96,5.33Z"/><path class="cls-2" d="m195.76,75.78c-2.03,12.3-8,22.23-17.9,29.77-9.9,7.54-21.42,10.21-34.54,8.03s-22.62-8.14-29.88-18.11-9.92-21-7.97-33.11c1.84-11.25,7.27-20.69,16.32-28.33,9.04-7.64,19.56-10.93,31.55-9.87,14.45,1.25,25.69,6.74,33.72,16.46s10.93,21.45,8.7,35.16Zm-33.63-4.98c.55-3.36-.09-6.22-1.9-8.58-1.82-2.36-4.46-3.84-7.94-4.42-3.28-.55-6.17.17-8.67,2.14-2.5,1.97-3.98,4.46-4.45,7.47-.63,3.63.39,6.85,3.05,9.64,2.66,2.79,5.94,3.96,9.84,3.49,2.7-.27,4.94-1.33,6.74-3.16,1.8-1.84,2.91-4.02,3.34-6.56Z"/><path class="cls-2" d="m262.26,29.43c.04-1.05,1.62-1.88,4.75-2.49,3.12-.61,6.59-.92,10.4-.94,3.81-.02,7.38.28,10.72.91,3.34.62,5.3,1.64,5.89,3.05.82,2.07,1.4,5.66,1.73,10.78.33,5.12.39,10.68.18,16.7-.22,6.02-.74,11.92-1.58,17.7-.84,5.78-2.02,10.35-3.54,13.71-3.28,7.19-8.08,13.05-14.38,17.58-6.31,4.53-13.53,7.11-21.65,7.73-10.23.7-19.77-1.81-28.59-7.53-8.83-5.72-14.94-13.33-18.34-22.82-1.13-3.08-1.94-7.52-2.43-13.3-.49-5.78-.71-11.64-.67-17.58.04-5.94.39-11.34,1.05-16.2.66-4.86,1.64-7.94,2.93-9.23,1.09-1.05,3.38-1.76,6.86-2.11,3.48-.35,7.08-.43,10.81-.23,3.73.2,7.05.64,9.96,1.32,2.91.68,4.37,1.55,4.37,2.61-.08,3.05-.33,7.32-.76,12.8-.43,5.49-.54,10.96-.32,16.41.21,5.45,1.03,10.25,2.46,14.41,1.43,4.16,3.97,6.44,7.65,6.83,3.98.47,6.85-1.36,8.58-5.48,1.74-4.12,2.87-9.02,3.4-14.71s.7-11.4.53-17.14-.17-10,.03-12.77Z"/><path class="cls-2" d="m387,59.08v5.74c4.45.08,8.55.26,12.3.56s6.33.62,7.73.97c1.33.39,2.18,1.96,2.55,4.72.37,2.75.41,5.74.12,8.96s-.85,6.19-1.67,8.91c-.82,2.72-1.74,4.19-2.75,4.42-2.34.59-5.21,1-8.58,1.23-3.38.23-6.87.33-10.46.29-.63,9.65-1.54,15.23-2.75,16.76-.86,1.52-4.75,2.37-11.66,2.55s-11.88-.42-14.88-1.79c-.98-.43-2.08-4.15-3.31-11.16-1.23-7.01-2.34-15.04-3.34-24.08-1-9.04-1.72-17.99-2.17-26.84s-.42-15.32.09-19.42c.31-2.26,3.57-3.88,9.79-4.83,6.21-.96,13.1-1.5,20.68-1.64,7.58-.14,14.73-.02,21.45.35,6.72.37,10.76.73,12.13,1.08,1.76.47,2.88,2.43,3.37,5.89.49,3.46.55,7.18.18,11.16-.37,3.98-1.07,7.61-2.11,10.87-1.04,3.26-2.18,4.95-3.43,5.07-2.93.31-6.45.47-10.55.47s-8.34-.08-12.71-.23Z"/><path class="cls-2" d="m459.6,83.1c6.84-.08,13.01-.27,18.52-.59,5.51-.31,8.75.06,9.73,1.11,1.05.86,1.83,4.59,2.31,11.19.49,6.6.3,11.39-.56,14.36-.39,1.25-3.46,2.29-9.2,3.11s-12.19,1.38-19.34,1.67-14,.34-20.57.15-10.84-.72-12.83-1.58c-1.17-.47-2.14-3.62-2.9-9.46-.76-5.84-1.36-12.68-1.79-20.51-.43-7.83-.68-15.82-.76-23.96s0-14.77.23-19.89c0-2.81.23-5.38.7-7.71.47-2.32,1.19-3.78,2.17-4.37.98-.59,4.41-1.09,10.31-1.52,5.9-.43,12.27-.69,19.1-.79,6.84-.1,13.16.02,18.98.35,5.82.33,9.16.93,10.02,1.79,1.05.86,1.65,4.25,1.79,10.17.14,5.92-.23,10.38-1.08,13.39-.43,1.41-3.17,2.28-8.23,2.61-5.06.33-10.97.62-17.72.85,0,.47.02,1.02.06,1.64.04.62.08,1.17.12,1.64,4.41.08,8.01.41,10.78,1,.66.2,1.32,1.36,1.96,3.49.64,2.13,1.09,4.45,1.35,6.97.25,2.52.24,4.85-.03,7-.27,2.15-.96,3.3-2.05,3.46-.78.23-2.2.44-4.25.62s-4.33.3-6.83.38v3.46Z"/><path class="cls-2" d="m571.98,87.91c-4.34,10.2-11.17,17.18-20.51,20.95-9.34,3.77-19.16,5.58-29.47,5.42-3.52-.08-6.9-.32-10.17-.73-3.26-.41-5.62-.93-7.06-1.55-2.27-.94-4.08-5.6-5.45-13.97-1.37-8.38-2.19-17.55-2.46-27.51s0-19.24.82-27.83c.82-8.59,2.34-13.57,4.57-14.94,2.23-1.41,5.62-2.44,10.2-3.11,7.3-1.02,15.21-.92,23.7.29,8.5,1.21,15.69,4.16,21.59,8.85,7.73,6.25,13.02,14.54,15.85,24.87,2.83,10.33,2.29,20.09-1.61,29.27Zm-44.3-26.25c-.66,2.15-.81,5.3-.44,9.46.37,4.16,1.24,6.61,2.61,7.35.62.39,1.88.55,3.75.47,3.05-.08,5.62-.77,7.73-2.08,2.11-1.31,3.28-3.25,3.52-5.83.27-3.16-.87-5.86-3.43-8.09-2.56-2.23-5.24-3.48-8.06-3.75-1.13-.08-2.28,0-3.43.26-1.15.25-1.9.99-2.26,2.2Z"/><path class="cls-2" d="m689.1,111.41c-.43.78-1.86,1.41-4.28,1.88-2.42.47-5.15.76-8.17.88-3.03.12-6.03.06-8.99-.18-2.97-.23-5.21-.68-6.74-1.35-1.6-.7-3.04-6.45-4.31-17.26-1.27-10.8-2.24-21.73-2.9-32.78-5.78-.12-10.76-.42-14.94-.91-4.18-.49-6.48-1.2-6.91-2.14-.74-1.48-1.37-3.88-1.88-7.18-.51-3.3-.84-6.68-1-10.14s-.13-6.58.09-9.38c.21-2.79.71-4.4,1.49-4.83,1.13-.9,4.96-1.62,11.48-2.17,6.52-.55,14.02-.93,22.5-1.14,8.48-.21,17.09-.27,25.84-.18,8.75.1,15.94.32,21.56.67,2.23.16,3.75,2.07,4.57,5.74.82,3.67,1.11,7.7.88,12.07-.23,4.38-.91,8.4-2.02,12.07-1.11,3.67-2.47,5.57-4.07,5.68-1.48.23-3.87.46-7.15.67-3.28.21-6.97.4-11.07.56-.12,11.02-.53,21.63-1.23,31.85-.7,10.22-1.62,16.06-2.75,17.55Z"/><path class="cls-2" d="m814.14,75.78c-2.03,12.3-8,22.23-17.9,29.77-9.9,7.54-21.42,10.21-34.54,8.03s-22.62-8.14-29.88-18.11-9.92-21-7.97-33.11c1.84-11.25,7.27-20.69,16.32-28.33,9.04-7.64,19.56-10.93,31.55-9.87,14.45,1.25,25.69,6.74,33.72,16.46s10.93,21.45,8.7,35.16Zm-33.63-4.98c.55-3.36-.09-6.22-1.9-8.58-1.82-2.36-4.46-3.84-7.94-4.42-3.28-.55-6.17.17-8.67,2.14-2.5,1.97-3.98,4.46-4.45,7.47-.63,3.63.39,6.85,3.05,9.64,2.66,2.79,5.94,3.96,9.84,3.49,2.7-.27,4.94-1.33,6.74-3.16,1.8-1.84,2.91-4.02,3.34-6.56Z"/><path class="cls-2" d="m912.64,75.78c-2.03,12.3-8,22.23-17.9,29.77-9.9,7.54-21.42,10.21-34.54,8.03s-22.62-8.14-29.88-18.11-9.92-21-7.97-33.11c1.84-11.25,7.27-20.69,16.32-28.33,9.04-7.64,19.56-10.93,31.55-9.87,14.45,1.25,25.69,6.74,33.72,16.46s10.93,21.45,8.7,35.16Zm-33.63-4.98c.55-3.36-.09-6.22-1.9-8.58-1.82-2.36-4.46-3.84-7.94-4.42-3.28-.55-6.17.17-8.67,2.14-2.5,1.97-3.98,4.46-4.45,7.47-.63,3.63.39,6.85,3.05,9.64,2.66,2.79,5.94,3.96,9.84,3.49,2.7-.27,4.94-1.33,6.74-3.16,1.8-1.84,2.91-4.02,3.34-6.56Z"/><path class="cls-2" d="m981.77,111.41c-.43.78-1.86,1.41-4.28,1.88-2.42.47-5.15.76-8.17.88-3.03.12-6.03.06-8.99-.18-2.97-.23-5.21-.68-6.74-1.35-1.6-.7-3.04-6.45-4.31-17.26-1.27-10.8-2.24-21.73-2.9-32.78-5.78-.12-10.76-.42-14.94-.91-4.18-.49-6.48-1.2-6.91-2.14-.74-1.48-1.37-3.88-1.88-7.18-.51-3.3-.84-6.68-1-10.14s-.13-6.58.09-9.38c.21-2.79.71-4.4,1.49-4.83,1.13-.9,4.96-1.62,11.48-2.17,6.52-.55,14.02-.93,22.5-1.14,8.48-.21,17.09-.27,25.84-.18,8.75.1,15.94.32,21.56.67,2.23.16,3.75,2.07,4.57,5.74.82,3.67,1.11,7.7.88,12.07-.23,4.38-.91,8.4-2.02,12.07-1.11,3.67-2.47,5.57-4.07,5.68-1.48.23-3.87.46-7.15.67-3.28.21-6.97.4-11.07.56-.12,11.02-.53,21.63-1.23,31.85-.7,10.22-1.62,16.06-2.75,17.55Z"/><path class="cls-2" d="m1051.61,111.35c-.74,1.52-4.42,2.45-11.04,2.78s-11.34-.15-14.15-1.44c-1.25-.59-2.47-4.6-3.66-12.04-1.19-7.44-2.23-15.79-3.11-25.05s-1.54-18.17-1.99-26.75c-.45-8.57-.56-14.31-.32-17.2.23-2.38,2.21-4.2,5.92-5.45,3.71-1.25,7.77-1.94,12.19-2.08,4.41-.14,8.48.26,12.19,1.2,3.71.94,5.68,2.38,5.92,4.34.35,3.32.63,7.26.85,11.81.21,4.55.36,9.35.44,14.38,3.32-.16,6.8-.27,10.43-.35-.16-5-.23-9.74-.21-14.21.02-4.47.15-8.35.38-11.63.12-1.99,2.01-3.47,5.68-4.42,3.67-.96,7.71-1.38,12.13-1.26,4.41.12,8.51.79,12.28,2.02,3.77,1.23,5.83,3.04,6.18,5.42.39,2.89.54,8.62.44,17.2-.1,8.58-.39,17.5-.88,26.78-.49,9.28-1.17,17.63-2.05,25.05-.88,7.42-1.9,11.43-3.08,12.01-2.73,1.33-7.41,1.85-14.03,1.55s-10.34-1.2-11.16-2.72c-.63-.82-1.25-3.19-1.88-7.12-.63-3.93-1.19-8.7-1.7-14.33-2.19.43-4.4.81-6.65,1.14-2.25.33-4.44.64-6.59.91-.31,5.12-.68,9.43-1.11,12.95-.43,3.52-.9,5.68-1.41,6.5Z"/><path class="cls-2" d="m1201.61,47.77c-.27,1.8-2.88,5.73-7.82,11.81-4.94,6.07-10.87,12.45-17.78,19.13-.39,8.2-1.1,15.57-2.14,22.09-1.04,6.52-1.98,10.35-2.84,11.48-.47.55-2.06.98-4.78,1.29-2.72.31-5.68.51-8.91.59-3.22.08-6.25.08-9.08,0-2.83-.08-4.54-.29-5.13-.64-1.29-.7-2.63-4.31-4.01-10.81-1.39-6.5-2.45-13.84-3.19-22-7.23-6.8-13.47-13.32-18.72-19.57-5.25-6.25-8-10.31-8.23-12.19-.27-1.09.39-2.93,1.99-5.51,1.6-2.58,3.53-5.19,5.8-7.82,2.27-2.64,4.54-4.97,6.83-7,2.29-2.03,3.94-3.08,4.95-3.16,2.27-.12,5.87,1.83,10.81,5.83,4.94,4,10.22,8.7,15.85,14.09,5.66-5.39,10.97-10.12,15.91-14.18,4.94-4.06,8.58-6.01,10.93-5.86.98.08,2.61,1.08,4.89,3.02s4.57,4.15,6.86,6.65c2.29,2.5,4.24,4.98,5.86,7.44,1.62,2.46,2.28,4.24,1.96,5.33Z"/><path class="cls-2" d="m1236.94,80.94c-.74,1.41-4.11,2.22-10.11,2.43-6,.21-10.21-.32-12.63-1.61-1.05-.55-1.94-3.29-2.67-8.23-.72-4.94-1.28-10.45-1.67-16.52-.39-6.07-.62-11.92-.67-17.55s.03-9.39.26-11.31c.2-1.56,1.85-2.75,4.95-3.57s6.49-1.27,10.17-1.35c3.67-.08,7.06.2,10.17.82,3.11.62,4.76,1.58,4.95,2.87.47,3.71.73,8.47.79,14.27s-.06,11.51-.35,17.14-.72,10.62-1.29,14.97c-.57,4.36-1.2,6.91-1.9,7.65Zm-13.89,33.11c-3.13-.51-5.78-1.87-7.97-4.07-2.19-2.21-3.46-4.89-3.81-8.06-.55-4.45.87-8.29,4.25-11.51,3.38-3.22,7.29-4.46,11.75-3.72,4.92.82,8.29,2.84,10.11,6.06s2.39,6.53,1.73,9.93c-.66,3.4-2.41,6.32-5.24,8.76-2.83,2.44-6.44,3.31-10.81,2.61Z"/><path class="cls-1" d="m108.67,37.77c-.27,1.8-2.88,5.73-7.82,11.81-4.94,6.07-10.87,12.45-17.78,19.13-.39,8.2-1.1,15.57-2.14,22.09-1.04,6.52-1.98,10.35-2.84,11.48-.47.55-2.06.98-4.78,1.29-2.72.31-5.68.51-8.91.59-3.22.08-6.25.08-9.08,0-2.83-.08-4.54-.29-5.13-.64-1.29-.7-2.63-4.31-4.01-10.81-1.39-6.5-2.45-13.84-3.19-22-7.23-6.8-13.47-13.32-18.72-19.57-5.25-6.25-8-10.31-8.23-12.19-.27-1.09.39-2.93,1.99-5.51,1.6-2.58,3.53-5.19,5.8-7.82,2.27-2.64,4.54-4.97,6.83-7,2.29-2.03,3.93-3.08,4.95-3.16,2.27-.12,5.87,1.83,10.81,5.83,4.94,4,10.22,8.7,15.85,14.09,5.66-5.39,10.97-10.12,15.91-14.18,4.94-4.06,8.58-6.01,10.93-5.86.98.08,2.61,1.08,4.89,3.02s4.57,4.15,6.86,6.65c2.29,2.5,4.24,4.98,5.86,7.44,1.62,2.46,2.28,4.24,1.96,5.33Z"/><path class="cls-1" d="m205.76,65.78c-2.03,12.3-8,22.23-17.9,29.77-9.9,7.54-21.42,10.21-34.54,8.03s-22.62-8.14-29.88-18.11-9.92-21-7.97-33.11c1.84-11.25,7.27-20.69,16.32-28.33,9.04-7.64,19.56-10.93,31.55-9.87,14.45,1.25,25.69,6.74,33.72,16.46s10.93,21.45,8.7,35.16Zm-33.63-4.98c.55-3.36-.09-6.22-1.9-8.58-1.82-2.36-4.46-3.84-7.94-4.42-3.28-.55-6.17.17-8.67,2.14-2.5,1.97-3.98,4.46-4.45,7.47-.63,3.63.39,6.85,3.05,9.64,2.66,2.79,5.94,3.96,9.84,3.49,2.7-.27,4.94-1.33,6.74-3.16,1.8-1.84,2.91-4.02,3.34-6.56Z"/><path class="cls-1" d="m272.26,19.43c.04-1.05,1.62-1.88,4.75-2.49,3.12-.61,6.59-.92,10.4-.94,3.81-.02,7.38.28,10.72.91,3.34.62,5.3,1.64,5.89,3.05.82,2.07,1.4,5.66,1.73,10.78.33,5.12.39,10.68.18,16.7-.22,6.02-.74,11.92-1.58,17.7-.84,5.78-2.02,10.35-3.54,13.71-3.28,7.19-8.08,13.05-14.38,17.58-6.31,4.53-13.53,7.11-21.65,7.73-10.23.7-19.77-1.81-28.59-7.53-8.83-5.72-14.94-13.33-18.34-22.82-1.13-3.08-1.94-7.52-2.43-13.3-.49-5.78-.71-11.64-.67-17.58.04-5.94.39-11.34,1.05-16.2.66-4.86,1.64-7.94,2.93-9.23,1.09-1.05,3.38-1.76,6.86-2.11,3.48-.35,7.08-.43,10.81-.23,3.73.2,7.05.64,9.96,1.32,2.91.68,4.37,1.55,4.37,2.61-.08,3.05-.33,7.32-.76,12.8-.43,5.49-.54,10.96-.32,16.41.21,5.45,1.03,10.25,2.46,14.41,1.43,4.16,3.97,6.44,7.65,6.83,3.98.47,6.85-1.36,8.58-5.48,1.74-4.12,2.87-9.02,3.4-14.71s.7-11.4.53-17.14-.17-10,.03-12.77Z"/><path class="cls-1" d="m397,49.08v5.74c4.45.08,8.55.26,12.3.56s6.33.62,7.73.97c1.33.39,2.18,1.96,2.55,4.72.37,2.75.41,5.74.12,8.96s-.85,6.19-1.67,8.91c-.82,2.72-1.74,4.19-2.75,4.42-2.34.59-5.21,1-8.58,1.23-3.38.23-6.87.33-10.46.29-.63,9.65-1.54,15.23-2.75,16.76-.86,1.52-4.75,2.37-11.66,2.55s-11.88-.42-14.88-1.79c-.98-.43-2.08-4.15-3.31-11.16-1.23-7.01-2.34-15.04-3.34-24.08-1-9.04-1.72-17.99-2.17-26.84s-.42-15.32.09-19.42c.31-2.26,3.57-3.88,9.79-4.83,6.21-.96,13.1-1.5,20.68-1.64,7.58-.14,14.73-.02,21.45.35,6.72.37,10.76.73,12.13,1.08,1.76.47,2.88,2.43,3.37,5.89.49,3.46.55,7.18.18,11.16-.37,3.98-1.07,7.61-2.11,10.87-1.04,3.26-2.18,4.95-3.43,5.07-2.93.31-6.45.47-10.55.47s-8.34-.08-12.71-.23Z"/><path class="cls-1" d="m469.6,73.1c6.84-.08,13.01-.27,18.52-.59,5.51-.31,8.75.06,9.73,1.11,1.05.86,1.83,4.59,2.31,11.19.49,6.6.3,11.39-.56,14.36-.39,1.25-3.46,2.29-9.2,3.11s-12.19,1.38-19.34,1.67-14,.34-20.57.15-10.84-.72-12.83-1.58c-1.17-.47-2.14-3.62-2.9-9.46-.76-5.84-1.36-12.68-1.79-20.51-.43-7.83-.68-15.82-.76-23.96s0-14.77.23-19.89c0-2.81.23-5.38.7-7.71.47-2.32,1.19-3.78,2.17-4.37.98-.59,4.41-1.09,10.31-1.52,5.9-.43,12.27-.69,19.1-.79,6.84-.1,13.16.02,18.98.35,5.82.33,9.16.93,10.02,1.79,1.05.86,1.65,4.25,1.79,10.17.14,5.92-.23,10.38-1.08,13.39-.43,1.41-3.17,2.28-8.23,2.61-5.06.33-10.97.62-17.72.85,0,.47.02,1.02.06,1.64.04.62.08,1.17.12,1.64,4.41.08,8.01.41,10.78,1,.66.2,1.32,1.36,1.96,3.49.64,2.13,1.09,4.45,1.35,6.97.25,2.52.24,4.85-.03,7-.27,2.15-.96,3.3-2.05,3.46-.78.23-2.2.44-4.25.62s-4.33.3-6.83.38v3.46Z"/><path class="cls-1" d="m581.98,77.91c-4.34,10.2-11.17,17.18-20.51,20.95-9.34,3.77-19.16,5.58-29.47,5.42-3.52-.08-6.9-.32-10.17-.73-3.26-.41-5.62-.93-7.06-1.55-2.27-.94-4.08-5.6-5.45-13.97-1.37-8.38-2.19-17.55-2.46-27.51s0-19.24.82-27.83c.82-8.59,2.34-13.57,4.57-14.94,2.23-1.41,5.62-2.44,10.2-3.11,7.3-1.02,15.21-.92,23.7.29,8.5,1.21,15.69,4.16,21.59,8.85,7.73,6.25,13.02,14.54,15.85,24.87,2.83,10.33,2.29,20.09-1.61,29.27Zm-44.3-26.25c-.66,2.15-.81,5.3-.44,9.46.37,4.16,1.24,6.61,2.61,7.35.62.39,1.88.55,3.75.47,3.05-.08,5.62-.77,7.73-2.08,2.11-1.31,3.28-3.25,3.52-5.83.27-3.16-.87-5.86-3.43-8.09-2.56-2.23-5.24-3.48-8.06-3.75-1.13-.08-2.28,0-3.43.26-1.15.25-1.9.99-2.26,2.2Z"/><path class="cls-1" d="m699.1,101.41c-.43.78-1.86,1.41-4.28,1.88-2.42.47-5.15.76-8.17.88-3.03.12-6.03.06-8.99-.18-2.97-.23-5.21-.68-6.74-1.35-1.6-.7-3.04-6.45-4.31-17.26-1.27-10.8-2.24-21.73-2.9-32.78-5.78-.12-10.76-.42-14.94-.91-4.18-.49-6.48-1.2-6.91-2.14-.74-1.48-1.37-3.88-1.88-7.18-.51-3.3-.84-6.68-1-10.14s-.13-6.58.09-9.38c.21-2.79.71-4.4,1.49-4.83,1.13-.9,4.96-1.62,11.48-2.17,6.52-.55,14.02-.93,22.5-1.14,8.48-.21,17.09-.27,25.84-.18,8.75.1,15.94.32,21.56.67,2.23.16,3.75,2.07,4.57,5.74.82,3.67,1.11,7.7.88,12.07-.23,4.38-.91,8.4-2.02,12.07-1.11,3.67-2.47,5.57-4.07,5.68-1.48.23-3.87.46-7.15.67-3.28.21-6.97.4-11.07.56-.12,11.02-.53,21.63-1.23,31.85-.7,10.22-1.62,16.06-2.75,17.55Z"/><path class="cls-1" d="m824.14,65.78c-2.03,12.3-8,22.23-17.9,29.77-9.9,7.54-21.42,10.21-34.54,8.03s-22.62-8.14-29.88-18.11-9.92-21-7.97-33.11c1.84-11.25,7.27-20.69,16.32-28.33,9.04-7.64,19.56-10.93,31.55-9.87,14.45,1.25,25.69,6.74,33.72,16.46s10.93,21.45,8.7,35.16Zm-33.63-4.98c.55-3.36-.09-6.22-1.9-8.58-1.82-2.36-4.46-3.84-7.94-4.42-3.28-.55-6.17.17-8.67,2.14-2.5,1.97-3.98,4.46-4.45,7.47-.63,3.63.39,6.85,3.05,9.64,2.66,2.79,5.94,3.96,9.84,3.49,2.7-.27,4.94-1.33,6.74-3.16,1.8-1.84,2.91-4.02,3.34-6.56Z"/><path class="cls-1" d="m922.64,65.78c-2.03,12.3-8,22.23-17.9,29.77-9.9,7.54-21.42,10.21-34.54,8.03s-22.62-8.14-29.88-18.11-9.92-21-7.97-33.11c1.84-11.25,7.27-20.69,16.32-28.33,9.04-7.64,19.56-10.93,31.55-9.87,14.45,1.25,25.69,6.74,33.72,16.46s10.93,21.45,8.7,35.16Zm-33.63-4.98c.55-3.36-.09-6.22-1.9-8.58-1.82-2.36-4.46-3.84-7.94-4.42-3.28-.55-6.17.17-8.67,2.14-2.5,1.97-3.98,4.46-4.45,7.47-.63,3.63.39,6.85,3.05,9.64,2.66,2.79,5.94,3.96,9.84,3.49,2.7-.27,4.94-1.33,6.74-3.16,1.8-1.84,2.91-4.02,3.34-6.56Z"/><path class="cls-1" d="m991.77,101.41c-.43.78-1.86,1.41-4.28,1.88-2.42.47-5.15.76-8.17.88-3.03.12-6.03.06-8.99-.18-2.97-.23-5.21-.68-6.74-1.35-1.6-.7-3.04-6.45-4.31-17.26-1.27-10.8-2.24-21.73-2.9-32.78-5.78-.12-10.76-.42-14.94-.91-4.18-.49-6.48-1.2-6.91-2.14-.74-1.48-1.37-3.88-1.88-7.18-.51-3.3-.84-6.68-1-10.14s-.13-6.58.09-9.38c.21-2.79.71-4.4,1.49-4.83,1.13-.9,4.96-1.62,11.48-2.17,6.52-.55,14.02-.93,22.5-1.14,8.48-.21,17.09-.27,25.84-.18,8.75.1,15.94.32,21.56.67,2.23.16,3.75,2.07,4.57,5.74.82,3.67,1.11,7.7.88,12.07-.23,4.38-.91,8.4-2.02,12.07-1.11,3.67-2.47,5.57-4.07,5.68-1.48.23-3.87.46-7.15.67-3.28.21-6.97.4-11.07.56-.12,11.02-.53,21.63-1.23,31.85-.7,10.22-1.62,16.06-2.75,17.55Z"/><path class="cls-1" d="m1061.61,101.35c-.74,1.52-4.42,2.45-11.04,2.78s-11.34-.15-14.15-1.44c-1.25-.59-2.47-4.6-3.66-12.04-1.19-7.44-2.23-15.79-3.11-25.05s-1.54-18.17-1.99-26.75c-.45-8.57-.56-14.31-.32-17.2.23-2.38,2.21-4.2,5.92-5.45,3.71-1.25,7.77-1.94,12.19-2.08,4.41-.14,8.48.26,12.19,1.2,3.71.94,5.68,2.38,5.92,4.34.35,3.32.63,7.26.85,11.81.21,4.55.36,9.35.44,14.38,3.32-.16,6.8-.27,10.43-.35-.16-5-.23-9.74-.21-14.21.02-4.47.15-8.35.38-11.63.12-1.99,2.01-3.47,5.68-4.42,3.67-.96,7.71-1.38,12.13-1.26,4.41.12,8.51.79,12.28,2.02,3.77,1.23,5.83,3.04,6.18,5.42.39,2.89.54,8.62.44,17.2-.1,8.58-.39,17.5-.88,26.78-.49,9.28-1.17,17.63-2.05,25.05-.88,7.42-1.9,11.43-3.08,12.01-2.73,1.33-7.41,1.85-14.03,1.55s-10.34-1.2-11.16-2.72c-.63-.82-1.25-3.19-1.88-7.12-.63-3.93-1.19-8.7-1.7-14.33-2.19.43-4.4.81-6.65,1.14-2.25.33-4.44.64-6.59.91-.31,5.12-.68,9.43-1.11,12.95-.43,3.52-.9,5.68-1.41,6.5Z"/><path class="cls-1" d="m1211.61,37.77c-.27,1.8-2.88,5.73-7.82,11.81-4.94,6.07-10.87,12.45-17.78,19.13-.39,8.2-1.1,15.57-2.14,22.09-1.04,6.52-1.98,10.35-2.84,11.48-.47.55-2.06.98-4.78,1.29-2.72.31-5.68.51-8.91.59-3.22.08-6.25.08-9.08,0-2.83-.08-4.54-.29-5.13-.64-1.29-.7-2.63-4.31-4.01-10.81-1.39-6.5-2.45-13.84-3.19-22-7.23-6.8-13.47-13.32-18.72-19.57-5.25-6.25-8-10.31-8.23-12.19-.27-1.09.39-2.93,1.99-5.51,1.6-2.58,3.53-5.19,5.8-7.82,2.27-2.64,4.54-4.97,6.83-7,2.29-2.03,3.94-3.08,4.95-3.16,2.27-.12,5.87,1.83,10.81,5.83,4.94,4,10.22,8.7,15.85,14.09,5.66-5.39,10.97-10.12,15.91-14.18,4.94-4.06,8.58-6.01,10.93-5.86.98.08,2.61,1.08,4.89,3.02s4.57,4.15,6.86,6.65c2.29,2.5,4.24,4.98,5.86,7.44,1.62,2.46,2.28,4.24,1.96,5.33Z"/><path class="cls-1" d="m1246.94,70.94c-.74,1.41-4.11,2.22-10.11,2.43-6,.21-10.21-.32-12.63-1.61-1.05-.55-1.94-3.29-2.67-8.23-.72-4.94-1.28-10.45-1.67-16.52-.39-6.07-.62-11.92-.67-17.55s.03-9.39.26-11.31c.2-1.56,1.85-2.75,4.95-3.57s6.49-1.27,10.17-1.35c3.67-.08,7.06.2,10.17.82,3.11.62,4.76,1.58,4.95,2.87.47,3.71.73,8.47.79,14.27s-.06,11.51-.35,17.14-.72,10.62-1.29,14.97c-.57,4.36-1.2,6.91-1.9,7.65Zm-13.89,33.11c-3.13-.51-5.78-1.87-7.97-4.07-2.19-2.21-3.46-4.89-3.81-8.06-.55-4.45.87-8.29,4.25-11.51,3.38-3.22,7.29-4.46,11.75-3.72,4.92.82,8.29,2.84,10.11,6.06s2.39,6.53,1.73,9.93c-.66,3.4-2.41,6.32-5.24,8.76-2.83,2.44-6.44,3.31-10.81,2.61Z"/><path class="cls-2" d="m310.78,180.71c-3.96-.22-7.47.2-10.52,1.24-4.22,1.52-7.3,3.96-9.21,7.32-1.92,3.35-2.66,6.76-2.22,10.22.43,3.46,2.05,6.55,4.83,9.28,2.79,2.72,6.79,4.21,12.02,4.47,3.79.04,5.9-1.17,6.34-3.63.43-2.46.83-4.93,1.18-7.41-.17-1.65,1.44-3.07,4.83-4.25,3.4-1.18,7.2-1.96,11.4-2.35,4.2-.39,8.12-.32,11.76.23,3.64.54,5.59,1.69,5.85,3.43.43,3.27.77,7.41,1.01,12.44.24,5.03.34,9.98.29,14.86-.04,4.88-.25,9.19-.62,12.93-.37,3.75-.93,5.94-1.67,6.6-.7.92-4.19,1.46-10.48,1.63-6.29.17-10.77-.13-13.42-.91-.39-.04-.78-.39-1.18-1.04-7.84,1.87-15.55,2.55-23.13,2.02-13.41-1.04-24.65-6.29-33.71-15.74-9.06-9.45-12.83-21.12-11.3-35.01,1.7-15.16,7.22-26.98,16.56-35.47s21.13-13.11,35.37-13.85c9.41-.43,17.95,1.48,25.64,5.75,7.69,4.27,11.62,11.98,11.79,23.13.17,1.7-.89,3.12-3.2,4.28-2.31,1.15-5.04,2.07-8.2,2.74-3.16.68-6.28,1.12-9.37,1.34-3.09.22-5.31.22-6.66,0-1.87-.26-2.78-1-2.71-2.22.07-1.22-.36-1.89-1.27-2.03Z"/><path class="cls-2" d="m455.74,205.08c-2.26,13.72-8.92,24.78-19.96,33.19-11.04,8.41-23.88,11.39-38.51,8.95-14.11-2.35-25.22-9.08-33.32-20.19s-11.06-23.41-8.88-36.91c2.05-12.54,8.11-23.07,18.19-31.58,10.08-8.51,21.81-12.18,35.18-11.01,16.11,1.39,28.65,7.51,37.59,18.36s12.18,23.91,9.7,39.2Zm-37.5-5.55c.61-3.75-.1-6.93-2.12-9.57-2.03-2.63-4.98-4.28-8.85-4.93-3.66-.61-6.88.19-9.67,2.38-2.79,2.2-4.44,4.98-4.96,8.33-.7,4.05.43,7.63,3.4,10.75,2.96,3.11,6.62,4.41,10.97,3.89,3.01-.3,5.51-1.48,7.51-3.53,2-2.05,3.24-4.48,3.72-7.32Z"/><path class="cls-2" d="m565.55,205.08c-2.26,13.72-8.92,24.78-19.96,33.19-11.04,8.41-23.88,11.39-38.51,8.95-14.11-2.35-25.22-9.08-33.32-20.19s-11.06-23.41-8.88-36.91c2.05-12.54,8.11-23.07,18.19-31.58,10.08-8.51,21.81-12.18,35.18-11.01,16.11,1.39,28.65,7.51,37.59,18.36s12.18,23.91,9.7,39.2Zm-37.5-5.55c.61-3.75-.1-6.93-2.12-9.57-2.03-2.63-4.98-4.28-8.85-4.93-3.66-.61-6.88.19-9.67,2.38-2.79,2.2-4.44,4.98-4.96,8.33-.7,4.05.43,7.63,3.4,10.75,2.96,3.11,6.62,4.41,10.97,3.89,3.01-.3,5.51-1.48,7.51-3.53,2-2.05,3.24-4.48,3.72-7.32Z"/><path class="cls-2" d="m659.42,218.6c-4.83,11.37-12.46,19.15-22.86,23.35-10.41,4.2-21.36,6.22-32.86,6.04-3.92-.09-7.7-.36-11.33-.82-3.64-.46-6.26-1.03-7.87-1.73-2.53-1.04-4.55-6.24-6.08-15.58-1.53-9.34-2.44-19.56-2.74-30.67-.3-11.11,0-21.45.91-31.03.91-9.58,2.61-15.13,5.1-16.66,2.48-1.57,6.27-2.72,11.37-3.46,8.14-1.13,16.95-1.02,26.42.33,9.47,1.35,17.5,4.64,24.07,9.86,8.62,6.97,14.51,16.21,17.67,27.73,3.16,11.52,2.56,22.4-1.8,32.63Zm-49.39-29.27c-.74,2.4-.9,5.91-.49,10.55.41,4.64,1.38,7.37,2.91,8.2.7.44,2.09.61,4.18.52,3.4-.09,6.27-.86,8.62-2.32s3.66-3.63,3.92-6.5c.3-3.53-.97-6.53-3.82-9.01-2.85-2.48-5.85-3.88-8.98-4.18-1.26-.09-2.54.01-3.82.29-1.29.28-2.12,1.1-2.52,2.45Z"/><path class="cls-2" d="m807.31,232.32c-3.92,5.4-9.76,9.37-17.51,11.92-7.75,2.55-15.74,3.8-23.97,3.76-8.45-.13-16.65-1.93-24.59-5.39-7.95-3.46-13.14-8.89-15.58-16.3-1.35-4.31-2.2-8.89-2.55-13.75-.35-4.86-.28-9.57.2-14.14,0-3.44,1.84-5.99,5.52-7.64,3.68-1.66,7.71-2.58,12.09-2.78,4.38-.2,8.37.25,11.99,1.34,3.61,1.09,5.36,2.64,5.23,4.64.04,3.18.04,7.27,0,12.28-.04,5.01,2.22,7.56,6.79,7.64,2.96.09,4.78-.89,5.45-2.94.67-2.05,1.12-4.33,1.34-6.86.7-9.8.58-19.31-.36-28.55-.94-9.23-1.25-15.44-.95-18.62.22-2.7,2.22-4.81,6.01-6.34,3.79-1.52,7.96-2.43,12.51-2.71,4.55-.28,8.82.03,12.8.95,3.98.92,6.3,2.46,6.96,4.64.83,3.05,1.73,8.25,2.71,15.61.98,7.36,1.61,15.19,1.89,23.48.28,8.3.02,16.18-.78,23.65-.81,7.47-2.54,12.84-5.19,16.1Z"/><path class="cls-2" d="m920.77,205.08c-2.26,13.72-8.92,24.78-19.96,33.19-11.04,8.41-23.88,11.39-38.51,8.95-14.11-2.35-25.22-9.08-33.32-20.19s-11.06-23.41-8.88-36.91c2.05-12.54,8.11-23.07,18.19-31.58,10.08-8.51,21.81-12.18,35.18-11.01,16.11,1.39,28.65,7.51,37.59,18.36s12.18,23.91,9.7,39.2Zm-37.5-5.55c.61-3.75-.1-6.93-2.12-9.57-2.03-2.63-4.98-4.28-8.85-4.93-3.66-.61-6.88.19-9.67,2.38-2.79,2.2-4.44,4.98-4.96,8.33-.7,4.05.43,7.63,3.4,10.75,2.96,3.11,6.62,4.41,10.97,3.89,3.01-.3,5.51-1.48,7.51-3.53,2-2.05,3.24-4.48,3.72-7.32Z"/><path class="cls-2" d="m984.01,247.41c-1.57.17-4.63.32-9.18.42-4.55.11-9.43.15-14.63.13-5.2-.02-10.12-.17-14.73-.46-4.62-.28-7.73-.77-9.34-1.47-1.52-.61-2.7-5.05-3.53-13.33-.83-8.27-1.37-17.56-1.63-27.86-.26-10.3-.28-20.23-.07-29.79s.63-15.95,1.24-19.17c.39-2.05,2.58-3.85,6.57-5.42,3.98-1.57,8.81-2.65,14.47-3.23,5.66-.59,11.68-.58,18.06.03,6.38.61,12.18,2.05,17.41,4.31,7.62,3.4,12.72,8.97,15.29,16.72,2.57,7.75,1.68,15.03-2.68,21.82l.2.13c5.75,3.49,9.55,8.01,11.4,13.59,1.85,5.58,2.04,11.45.56,17.64-1.61,6.79-5.05,12.64-10.32,17.54-5.27,4.9-11.63,7.7-19.08,8.39Zm-20.64-75.91c-.52,1.83-.6,4.28-.23,7.35.37,3.07,1.19,4.8,2.45,5.19,2.39.78,4.87.33,7.41-1.37s3.82-3.83,3.82-6.4c0-1.7-.73-3.24-2.19-4.64-1.46-1.39-3.69-2.11-6.7-2.16-2.7,0-4.22.68-4.57,2.03Zm1.37,49.58c1.05,2.35,4.2,2.8,9.47,1.34,5.27-1.46,7.51-4.41,6.73-8.85-.57-3.22-2.57-5.72-6.01-7.48-3.44-1.76-6.6-1.99-9.47-.69-1.48.7-2.23,2.93-2.25,6.7-.02,3.77.49,6.76,1.54,8.98Z"/><path class="cls-2" d="m1053.58,210.83c-.83,1.57-4.58,2.47-11.27,2.71-6.69.24-11.38-.36-14.08-1.8-1.18-.61-2.17-3.67-2.97-9.18-.81-5.51-1.43-11.65-1.86-18.42-.44-6.77-.69-13.29-.75-19.57-.07-6.27.03-10.47.29-12.61.22-1.74,2.06-3.07,5.52-3.99,3.46-.91,7.24-1.41,11.33-1.5,4.09-.09,7.87.22,11.33.91,3.46.7,5.3,1.76,5.52,3.2.52,4.14.82,9.44.88,15.91.07,6.47-.07,12.84-.39,19.11s-.81,11.83-1.44,16.69c-.63,4.86-1.34,7.7-2.12,8.53Zm-15.48,36.91c-3.48-.57-6.45-2.08-8.88-4.54-2.44-2.46-3.85-5.45-4.25-8.98-.61-4.96.97-9.24,4.74-12.84,3.77-3.59,8.13-4.97,13.1-4.15,5.49.92,9.24,3.17,11.27,6.76,2.03,3.59,2.67,7.28,1.93,11.07-.74,3.79-2.69,7.04-5.85,9.77-3.16,2.72-7.18,3.69-12.05,2.91Z"/><path class="cls-1" d="m318.78,170.71c-3.96-.22-7.47.2-10.52,1.24-4.22,1.52-7.3,3.96-9.21,7.32-1.92,3.35-2.66,6.76-2.22,10.22.43,3.46,2.05,6.55,4.83,9.28,2.79,2.72,6.79,4.21,12.02,4.47,3.79.04,5.9-1.17,6.34-3.63.43-2.46.83-4.93,1.18-7.41-.17-1.65,1.44-3.07,4.83-4.25,3.4-1.18,7.2-1.96,11.4-2.35,4.2-.39,8.12-.32,11.76.23,3.64.54,5.59,1.69,5.85,3.43.43,3.27.77,7.41,1.01,12.44.24,5.03.34,9.98.29,14.86-.04,4.88-.25,9.19-.62,12.93-.37,3.75-.93,5.94-1.67,6.6-.7.92-4.19,1.46-10.48,1.63-6.29.17-10.77-.13-13.42-.91-.39-.04-.78-.39-1.18-1.04-7.84,1.87-15.55,2.55-23.13,2.02-13.41-1.04-24.65-6.29-33.71-15.74-9.06-9.45-12.83-21.12-11.3-35.01,1.7-15.16,7.22-26.98,16.56-35.47s21.13-13.11,35.37-13.85c9.41-.43,17.95,1.48,25.64,5.75,7.69,4.27,11.62,11.98,11.79,23.13.17,1.7-.89,3.12-3.2,4.28-2.31,1.15-5.04,2.07-8.2,2.74-3.16.68-6.28,1.12-9.37,1.34-3.09.22-5.31.22-6.66,0-1.87-.26-2.78-1-2.71-2.22.07-1.22-.36-1.89-1.27-2.03Z"/><path class="cls-1" d="m463.74,195.08c-2.26,13.72-8.92,24.78-19.96,33.19-11.04,8.41-23.88,11.39-38.51,8.95-14.11-2.35-25.22-9.08-33.32-20.19s-11.06-23.41-8.88-36.91c2.05-12.54,8.11-23.07,18.19-31.58,10.08-8.51,21.81-12.18,35.18-11.01,16.11,1.39,28.65,7.51,37.59,18.36s12.18,23.91,9.7,39.2Zm-37.5-5.55c.61-3.75-.1-6.93-2.12-9.57-2.03-2.63-4.98-4.28-8.85-4.93-3.66-.61-6.88.19-9.67,2.38-2.79,2.2-4.44,4.98-4.96,8.33-.7,4.05.43,7.63,3.4,10.75,2.96,3.11,6.62,4.41,10.97,3.89,3.01-.3,5.51-1.48,7.51-3.53,2-2.05,3.24-4.48,3.72-7.32Z"/><path class="cls-1" d="m573.55,195.08c-2.26,13.72-8.92,24.78-19.96,33.19-11.04,8.41-23.88,11.39-38.51,8.95-14.11-2.35-25.22-9.08-33.32-20.19s-11.06-23.41-8.88-36.91c2.05-12.54,8.11-23.07,18.19-31.58,10.08-8.51,21.81-12.18,35.18-11.01,16.11,1.39,28.65,7.51,37.59,18.36s12.18,23.91,9.7,39.2Zm-37.5-5.55c.61-3.75-.1-6.93-2.12-9.57-2.03-2.63-4.98-4.28-8.85-4.93-3.66-.61-6.88.19-9.67,2.38-2.79,2.2-4.44,4.98-4.96,8.33-.7,4.05.43,7.63,3.4,10.75,2.96,3.11,6.62,4.41,10.97,3.89,3.01-.3,5.51-1.48,7.51-3.53,2-2.05,3.24-4.48,3.72-7.32Z"/><path class="cls-1" d="m667.42,208.6c-4.83,11.37-12.46,19.15-22.86,23.35-10.41,4.2-21.36,6.22-32.86,6.04-3.92-.09-7.7-.36-11.33-.82-3.64-.46-6.26-1.03-7.87-1.73-2.53-1.04-4.55-6.24-6.08-15.58-1.53-9.34-2.44-19.56-2.74-30.67-.3-11.11,0-21.45.91-31.03.91-9.58,2.61-15.13,5.1-16.66,2.48-1.57,6.27-2.72,11.37-3.46,8.14-1.13,16.95-1.02,26.42.33,9.47,1.35,17.5,4.64,24.07,9.86,8.62,6.97,14.51,16.21,17.67,27.73,3.16,11.52,2.56,22.4-1.8,32.63Zm-49.39-29.27c-.74,2.4-.9,5.91-.49,10.55.41,4.64,1.38,7.37,2.91,8.2.7.44,2.09.61,4.18.52,3.4-.09,6.27-.86,8.62-2.32s3.66-3.63,3.92-6.5c.3-3.53-.97-6.53-3.82-9.01-2.85-2.48-5.85-3.88-8.98-4.18-1.26-.09-2.54.01-3.82.29-1.29.28-2.12,1.1-2.52,2.45Z"/><path class="cls-1" d="m815.31,222.32c-3.92,5.4-9.76,9.37-17.51,11.92-7.75,2.55-15.74,3.8-23.97,3.76-8.45-.13-16.65-1.93-24.59-5.39-7.95-3.46-13.14-8.89-15.58-16.3-1.35-4.31-2.2-8.89-2.55-13.75-.35-4.86-.28-9.57.2-14.14,0-3.44,1.84-5.99,5.52-7.64,3.68-1.66,7.71-2.58,12.09-2.78,4.38-.2,8.37.25,11.99,1.34,3.61,1.09,5.36,2.64,5.23,4.64.04,3.18.04,7.27,0,12.28-.04,5.01,2.22,7.56,6.79,7.64,2.96.09,4.78-.89,5.45-2.94.67-2.05,1.12-4.33,1.34-6.86.7-9.8.58-19.31-.36-28.55-.94-9.23-1.25-15.44-.95-18.62.22-2.7,2.22-4.81,6.01-6.34,3.79-1.52,7.96-2.43,12.51-2.71,4.55-.28,8.82.03,12.8.95,3.98.92,6.3,2.46,6.96,4.64.83,3.05,1.73,8.25,2.71,15.61.98,7.36,1.61,15.19,1.89,23.48.28,8.3.02,16.18-.78,23.65-.81,7.47-2.54,12.84-5.19,16.1Z"/><path class="cls-1" d="m928.77,195.08c-2.26,13.72-8.92,24.78-19.96,33.19-11.04,8.41-23.88,11.39-38.51,8.95-14.11-2.35-25.22-9.08-33.32-20.19s-11.06-23.41-8.88-36.91c2.05-12.54,8.11-23.07,18.19-31.58,10.08-8.51,21.81-12.18,35.18-11.01,16.11,1.39,28.65,7.51,37.59,18.36s12.18,23.91,9.7,39.2Zm-37.5-5.55c.61-3.75-.1-6.93-2.12-9.57-2.03-2.63-4.98-4.28-8.85-4.93-3.66-.61-6.88.19-9.67,2.38-2.79,2.2-4.44,4.98-4.96,8.33-.7,4.05.43,7.63,3.4,10.75,2.96,3.11,6.62,4.41,10.97,3.89,3.01-.3,5.51-1.48,7.51-3.53,2-2.05,3.24-4.48,3.72-7.32Z"/><path class="cls-1" d="m992.01,237.41c-1.57.17-4.63.32-9.18.42-4.55.11-9.43.15-14.63.13-5.2-.02-10.12-.17-14.73-.46-4.62-.28-7.73-.77-9.34-1.47-1.52-.61-2.7-5.05-3.53-13.33-.83-8.27-1.37-17.56-1.63-27.86-.26-10.3-.28-20.23-.07-29.79s.63-15.95,1.24-19.17c.39-2.05,2.58-3.85,6.57-5.42,3.98-1.57,8.81-2.65,14.47-3.23,5.66-.59,11.68-.58,18.06.03,6.38.61,12.18,2.05,17.41,4.31,7.62,3.4,12.72,8.97,15.29,16.72,2.57,7.75,1.68,15.03-2.68,21.82l.2.13c5.75,3.49,9.55,8.01,11.4,13.59,1.85,5.58,2.04,11.45.56,17.64-1.61,6.79-5.05,12.64-10.32,17.54-5.27,4.9-11.63,7.7-19.08,8.39Zm-20.64-75.91c-.52,1.83-.6,4.28-.23,7.35.37,3.07,1.19,4.8,2.45,5.19,2.39.78,4.87.33,7.41-1.37s3.82-3.83,3.82-6.4c0-1.7-.73-3.24-2.19-4.64-1.46-1.39-3.69-2.11-6.7-2.16-2.7,0-4.22.68-4.57,2.03Zm1.37,49.58c1.05,2.35,4.2,2.8,9.47,1.34,5.27-1.46,7.51-4.41,6.73-8.85-.57-3.22-2.57-5.72-6.01-7.48-3.44-1.76-6.6-1.99-9.47-.69-1.48.7-2.23,2.93-2.25,6.7-.02,3.77.49,6.76,1.54,8.98Z"/><path class="cls-1" d="m1061.58,200.83c-.83,1.57-4.58,2.47-11.27,2.71-6.69.24-11.38-.36-14.08-1.8-1.18-.61-2.17-3.67-2.97-9.18-.81-5.51-1.43-11.65-1.86-18.42-.44-6.77-.69-13.29-.75-19.57-.07-6.27.03-10.47.29-12.61.22-1.74,2.06-3.07,5.52-3.99,3.46-.91,7.24-1.41,11.33-1.5,4.09-.09,7.87.22,11.33.91,3.46.7,5.3,1.76,5.52,3.2.52,4.14.82,9.44.88,15.91.07,6.47-.07,12.84-.39,19.11s-.81,11.83-1.44,16.69c-.63,4.86-1.34,7.7-2.12,8.53Zm-15.48,36.91c-3.48-.57-6.45-2.08-8.88-4.54-2.44-2.46-3.85-5.45-4.25-8.98-.61-4.96.97-9.24,4.74-12.84,3.77-3.59,8.13-4.97,13.1-4.15,5.49.92,9.24,3.17,11.27,6.76,2.03,3.59,2.67,7.28,1.93,11.07-.74,3.79-2.69,7.04-5.85,9.77-3.16,2.72-7.18,3.69-12.05,2.91Z"/></svg>