<?xml version="1.0" encoding="UTF-8"?><svg id="lose_screen" xmlns="http://www.w3.org/2000/svg" width="1137" height="161" viewBox="0 0 1137 161"><defs><style>.cls-1{fill:#fff;}.cls-2{fill:#104825;}</style></defs><path class="cls-2" d="m80.83,58.54c-4.82-.26-9.08.24-12.78,1.51-5.14,1.85-8.87,4.82-11.2,8.89-2.33,4.08-3.23,8.22-2.7,12.43.53,4.21,2.49,7.97,5.88,11.28,3.39,3.31,8.26,5.12,14.61,5.44,4.61.05,7.17-1.42,7.7-4.41.53-2.99,1-6,1.43-9.01-.21-2.01,1.75-3.73,5.88-5.16,4.13-1.43,8.75-2.38,13.86-2.86,5.11-.48,9.87-.38,14.29.28,4.42.66,6.79,2.05,7.11,4.17.53,3.97.94,9.01,1.23,15.13.29,6.11.41,12.14.36,18.06-.05,5.93-.31,11.17-.75,15.72-.45,4.55-1.13,7.23-2.02,8.02-.85,1.11-5.1,1.77-12.74,1.99-7.65.21-13.09-.16-16.32-1.11-.48-.05-.95-.48-1.43-1.27-9.53,2.28-18.9,3.1-28.11,2.46-16.3-1.27-29.96-7.65-40.97-19.14-11.01-11.49-15.59-25.67-13.74-42.56,2.06-18.42,8.77-32.79,20.13-43.12,11.35-10.32,25.69-15.93,43-16.83,11.43-.53,21.82,1.8,31.17,6.99,9.34,5.19,14.12,14.56,14.33,28.11.21,2.06-1.09,3.8-3.89,5.2-2.81,1.4-6.13,2.51-9.97,3.33-3.84.82-7.64,1.36-11.39,1.63-3.76.27-6.46.27-8.1,0-2.28-.32-3.37-1.22-3.3-2.7.08-1.48-.44-2.3-1.55-2.46Z"/><path class="cls-2" d="m137.2,137.63c-1.01-1.06-1.54-2.35-1.59-3.89-.11-5.13.79-12.86,2.7-23.19s4.29-21.05,7.15-32.2c2.86-11.14,5.89-21.58,9.09-31.33,3.2-9.74,6-16.59,8.38-20.57.95-1.53,3.74-2.92,8.38-4.17,4.63-1.24,9.75-2.1,15.36-2.58,5.61-.48,11.01-.46,16.2.04,5.19.5,8.81,1.71,10.88,3.61,2.96,2.86,6.47,9.13,10.52,18.82,4.05,9.69,8.01,20.24,11.87,31.64,3.86,11.41,7.33,22.35,10.4,32.83,3.07,10.48,5.11,17.89,6.11,22.23.69,3.18.48,5.39-.64,6.63-1.11,1.24-3.04,2.1-5.8,2.58-4.66.79-10.44,1.39-17.35,1.79-6.91.4-11.24.49-12.98.28-.69-.11-1.32-.34-1.91-.71-1.91-1.16-3.75-4.51-5.52-10.04-1.77-5.53-3.51-9.33-5.2-11.39-1.01-1.22-2.33-1.93-3.97-2.14l-13.02-.08c-4.08.11-6.72,1.46-7.94,4.05-1.59,3.33-3.39,7.04-5.4,11.12-2.01,4.08-3.49,6.59-4.45,7.54-.48.58-1.19.98-2.14,1.19-2.17.48-7.29.59-15.36.36-8.07-.24-12.67-1.04-13.78-2.42Zm51.45-70.03c-1.75,1.85-3.48,4.96-5.2,9.33-1.72,4.37-2.34,7.24-1.87,8.62.79,2.33,4.22,3.38,10.28,3.14,6.06-.24,9.36-1.71,9.89-4.41.32-1.64-1.27-5.39-4.76-11.24-3.49-5.85-6.27-7.66-8.34-5.44Z"/><path class="cls-2" d="m332.69,61.56c5.24-7.78,10.31-15.22,15.21-22.31,4.9-7.09,9.22-12.44,12.98-16.04,1.64-1.59,4.84-2.75,9.61-3.49,4.76-.74,9.73-1.08,14.89-1.03,5.16.05,9.85.45,14.05,1.19,4.21.74,6.63,1.77,7.27,3.1,1,2.33,1.8,9.2,2.38,20.6.58,11.41.87,23.73.87,36.96s-.32,25.5-.95,36.8c-.64,11.3-1.67,17.99-3.1,20.05-1.11,1.27-6.51,2.08-16.2,2.42-9.69.35-16.49.12-20.41-.67-1.59-.32-3.04-4.9-4.37-13.74-1.32-8.84-2.22-17.79-2.7-26.84-1.06,1.11-2.95,3.1-5.68,5.96-2.73,2.86-5.65,5.8-8.77,8.81-3.12,3.02-6.13,5.69-9.01,8.02-2.89,2.33-5.02,3.49-6.39,3.49s-3.45-1.11-6.23-3.33c-2.78-2.22-5.67-4.78-8.66-7.66-2.99-2.88-5.8-5.7-8.42-8.46-2.62-2.75-4.43-4.66-5.44-5.72-.64,8.47-1.59,17.04-2.86,25.73-1.27,8.68-2.65,13.26-4.13,13.74-1.96.58-4.87.93-8.73,1.03-3.86.11-7.78.08-11.75-.08-3.97-.16-7.53-.49-10.68-.99-3.15-.5-4.94-1.07-5.36-1.71-1.43-2.01-2.51-8.79-3.26-20.33-.74-11.54-1.14-23.99-1.19-37.36-.05-13.37.16-25.75.64-37.16.48-11.41,1.27-17.98,2.38-19.73.79-1.27,3.31-2.28,7.54-3.02,4.23-.74,8.89-1.12,13.98-1.15,5.08-.03,9.97.33,14.65,1.07,4.68.74,7.87,1.91,9.57,3.49,3.7,3.6,8.06,8.95,13.06,16.04,5,7.09,10.07,14.53,15.21,22.31Z"/><path class="cls-2" d="m471.65,98.08c9.26-.11,17.63-.37,25.09-.79,7.46-.42,11.86.08,13.18,1.51,1.43,1.17,2.47,6.22,3.14,15.17.66,8.95.41,15.43-.75,19.45-.53,1.7-4.68,3.1-12.47,4.21-7.78,1.11-16.52,1.87-26.2,2.26-9.69.4-18.98.46-27.87.2-8.89-.26-14.69-.98-17.39-2.14-1.59-.64-2.9-4.91-3.93-12.82-1.03-7.91-1.84-17.18-2.42-27.79-.58-10.61-.93-21.44-1.03-32.48s0-20.02.32-26.96c0-3.81.32-7.29.95-10.44s1.61-5.12,2.94-5.92c1.32-.79,5.98-1.48,13.98-2.06,7.99-.58,16.62-.94,25.89-1.07,9.26-.13,17.84.03,25.73.48,7.89.45,12.41,1.26,13.58,2.42,1.43,1.17,2.24,5.76,2.42,13.78.18,8.02-.31,14.07-1.47,18.14-.58,1.91-4.3,3.08-11.16,3.53-6.86.45-14.86.83-24.02,1.15,0,.63.03,1.38.08,2.22.05.85.11,1.59.16,2.22,5.98.11,10.85.56,14.61,1.35.9.27,1.79,1.84,2.66,4.72.87,2.89,1.48,6.04,1.83,9.45.34,3.41.33,6.58-.04,9.49-.37,2.91-1.3,4.47-2.78,4.68-1.06.32-2.98.6-5.76.83s-5.86.41-9.25.52v4.68Z"/><path class="cls-2" d="m703.74,88.16c-2.75,16.67-10.84,30.12-24.26,40.34-13.42,10.22-29.02,13.84-46.81,10.88-17.15-2.86-30.65-11.04-40.5-24.54-9.85-13.5-13.45-28.45-10.8-44.86,2.49-15.25,9.86-28.04,22.11-38.39,12.25-10.35,26.51-14.81,42.76-13.38,19.59,1.7,34.82,9.13,45.7,22.31,10.88,13.18,14.81,29.06,11.79,47.64Zm-45.58-6.75c.74-4.55-.12-8.43-2.58-11.63s-6.05-5.2-10.76-6c-4.45-.74-8.36.23-11.75,2.9-3.39,2.67-5.4,6.05-6.03,10.12-.85,4.92.53,9.28,4.13,13.06,3.6,3.79,8.05,5.36,13.34,4.72,3.65-.37,6.7-1.8,9.13-4.29,2.43-2.49,3.94-5.45,4.53-8.89Z"/><path class="cls-2" d="m780.68,70.13c3.92-9,7.94-18,12.07-27,4.13-9,7.81-16.25,11.04-21.76,1.32-2.28,4.55-3,9.69-2.18,5.13.82,10.41,2.48,15.84,4.96,5.43,2.49,10.14,5.48,14.13,8.97,4,3.49,5.54,6.75,4.65,9.77-1.11,3.6-3.89,10.44-8.34,20.53-4.45,10.08-9.32,20.55-14.61,31.4-5.29,10.85-10.43,20.67-15.4,29.46-4.98,8.79-8.55,13.69-10.72,14.69-.95.48-3.12.82-6.51,1.03-3.39.21-7.03.32-10.92.32s-7.54-.12-10.96-.36c-3.41-.24-5.6-.57-6.55-.99-2.17-.95-5.77-5.61-10.8-13.98-5.03-8.36-10.31-17.84-15.84-28.43-5.53-10.59-10.67-21-15.4-31.25-4.74-10.24-7.9-17.72-9.49-22.43-1-3.02.44-6.27,4.33-9.77,3.89-3.49,8.51-6.48,13.86-8.97,5.35-2.49,10.57-4.14,15.68-4.96,5.11-.82,8.35-.09,9.73,2.18,4.39,7.46,8.6,15.44,12.63,23.94,4.02,8.5,7.99,16.77,11.91,24.81Z"/><path class="cls-2" d="m901.61,98.08c9.26-.11,17.63-.37,25.09-.79,7.46-.42,11.86.08,13.18,1.51,1.43,1.17,2.47,6.22,3.14,15.17.66,8.95.41,15.43-.75,19.45-.53,1.7-4.68,3.1-12.47,4.21-7.78,1.11-16.52,1.87-26.2,2.26-9.69.4-18.98.46-27.87.2-8.89-.26-14.69-.98-17.39-2.14-1.59-.64-2.9-4.91-3.93-12.82-1.03-7.91-1.84-17.18-2.42-27.79-.58-10.61-.93-21.44-1.03-32.48s0-20.02.32-26.96c0-3.81.32-7.29.95-10.44s1.61-5.12,2.94-5.92c1.32-.79,5.98-1.48,13.98-2.06,7.99-.58,16.62-.94,25.89-1.07,9.26-.13,17.84.03,25.73.48,7.89.45,12.41,1.26,13.58,2.42,1.43,1.17,2.24,5.76,2.42,13.78.18,8.02-.31,14.07-1.47,18.14-.58,1.91-4.3,3.08-11.16,3.53-6.86.45-14.86.83-24.02,1.15,0,.63.03,1.38.08,2.22.05.85.11,1.59.16,2.22,5.98.11,10.85.56,14.61,1.35.9.27,1.79,1.84,2.66,4.72.87,2.89,1.48,6.04,1.83,9.45.34,3.41.33,6.58-.04,9.49-.37,2.91-1.3,4.47-2.78,4.68-1.06.32-2.98.6-5.76.83s-5.86.41-9.25.52v4.68Z"/><path class="cls-2" d="m1037.3,89.35c5.4,4.5,10.14,8.87,14.21,13.1,4.08,4.24,6.14,7.41,6.19,9.53,0,1.54-.87,3.81-2.62,6.83s-3.76,6.04-6.03,9.05c-2.28,3.02-4.47,5.67-6.59,7.94-2.12,2.28-3.57,3.42-4.37,3.42-3.44.69-8.46-1.1-15.05-5.36-6.59-4.26-11.9-7.08-15.92-8.46-3.92-1.22-6.03-.71-6.35,1.51.05,3.81-.29,6.72-1.03,8.73-.74,2.01-3.33,3.25-7.78,3.73-5.08.53-10.89.82-17.43.87-6.54.05-10.68-.11-12.43-.48-1.22-.21-2.2-.9-2.94-2.06-1.06-1.43-2.2-7.99-3.41-19.69-1.22-11.7-2.17-24.38-2.86-38.03-.69-13.66-.99-26.2-.91-37.64.08-11.43.91-17.6,2.5-18.5,5.77-3.23,13.5-5.56,23.19-6.99,9.69-1.43,19.33-1.18,28.94.75,9.61,1.93,18.21,5.9,25.81,11.91,7.6,6.01,12.24,14.81,13.94,26.4,2.17,15.46-.85,26.6-9.05,33.43Zm-39.94-15.09c4.02-.42,7.15-1.91,9.37-4.45,2.22-2.54,3.32-5.19,3.3-7.94-.03-2.75-1.3-5.13-3.81-7.15-2.51-2.01-6.42-2.73-11.71-2.14-4.34.48-6.05,4.33-5.12,11.55.93,7.23,3.59,10.6,7.98,10.12Z"/><path class="cls-2" d="m1103.92,95.15c-1.01,1.91-5.57,3-13.7,3.29-8.13.29-13.83-.44-17.11-2.18-1.43-.74-2.63-4.46-3.61-11.16-.98-6.7-1.73-14.16-2.26-22.39-.53-8.23-.83-16.16-.91-23.78s.04-12.73.36-15.33c.26-2.12,2.5-3.73,6.71-4.84,4.21-1.11,8.8-1.72,13.78-1.83,4.98-.11,9.57.27,13.78,1.11,4.21.85,6.44,2.14,6.71,3.89.64,5.03.99,11.47,1.07,19.33.08,7.86-.08,15.6-.48,23.23-.4,7.62-.98,14.39-1.75,20.29-.77,5.9-1.63,9.36-2.58,10.36Zm-18.82,44.86c-4.24-.69-7.83-2.53-10.8-5.52-2.97-2.99-4.68-6.63-5.16-10.92-.74-6.04,1.18-11.24,5.76-15.6,4.58-4.37,9.89-6.05,15.92-5.04,6.67,1.11,11.24,3.85,13.7,8.22,2.46,4.37,3.24,8.85,2.34,13.46-.9,4.61-3.27,8.56-7.11,11.87-3.84,3.31-8.72,4.49-14.65,3.53Z"/><path class="cls-1" d="m93.03,47.7c-4.82-.26-9.08.24-12.78,1.51-5.14,1.85-8.87,4.82-11.2,8.89-2.33,4.08-3.23,8.22-2.7,12.43.53,4.21,2.49,7.97,5.88,11.28,3.39,3.31,8.26,5.12,14.61,5.44,4.61.05,7.17-1.42,7.7-4.41.53-2.99,1-6,1.43-9.01-.21-2.01,1.75-3.73,5.88-5.16,4.13-1.43,8.75-2.38,13.86-2.86,5.11-.48,9.87-.38,14.29.28,4.42.66,6.79,2.05,7.11,4.17.53,3.97.94,9.01,1.23,15.13.29,6.11.41,12.14.36,18.06-.05,5.93-.31,11.17-.75,15.72-.45,4.55-1.13,7.23-2.02,8.02-.85,1.11-5.1,1.77-12.74,1.99-7.65.21-13.09-.16-16.32-1.11-.48-.05-.95-.48-1.43-1.27-9.53,2.28-18.9,3.1-28.11,2.46-16.3-1.27-29.96-7.65-40.97-19.14-11.01-11.49-15.59-25.67-13.74-42.56,2.06-18.42,8.77-32.79,20.13-43.12,11.35-10.32,25.69-15.93,43-16.83,11.43-.53,21.82,1.8,31.17,6.99,9.34,5.19,14.12,14.56,14.33,28.11.21,2.06-1.09,3.8-3.89,5.2-2.81,1.4-6.13,2.51-9.97,3.33-3.84.82-7.64,1.36-11.39,1.63-3.76.27-6.46.27-8.1,0-2.28-.32-3.37-1.22-3.3-2.7.08-1.48-.44-2.3-1.55-2.46Z"/><path class="cls-1" d="m149.4,126.78c-1.01-1.06-1.54-2.35-1.59-3.89-.11-5.13.79-12.86,2.7-23.19s4.29-21.05,7.15-32.2c2.86-11.14,5.89-21.58,9.09-31.33,3.2-9.74,6-16.59,8.38-20.57.95-1.53,3.74-2.92,8.38-4.17,4.63-1.24,9.75-2.1,15.36-2.58,5.61-.48,11.01-.46,16.2.04,5.19.5,8.81,1.71,10.88,3.61,2.96,2.86,6.47,9.13,10.52,18.82,4.05,9.69,8.01,20.24,11.87,31.64,3.86,11.41,7.33,22.35,10.4,32.83,3.07,10.48,5.11,17.89,6.11,22.23.69,3.18.48,5.39-.64,6.63-1.11,1.24-3.04,2.1-5.8,2.58-4.66.79-10.44,1.39-17.35,1.79-6.91.4-11.24.49-12.98.28-.69-.11-1.32-.34-1.91-.71-1.91-1.16-3.75-4.51-5.52-10.04-1.77-5.53-3.51-9.33-5.2-11.39-1.01-1.22-2.33-1.93-3.97-2.14l-13.02-.08c-4.08.11-6.72,1.46-7.94,4.05-1.59,3.33-3.39,7.04-5.4,11.12-2.01,4.08-3.49,6.59-4.45,7.54-.48.58-1.19.98-2.14,1.19-2.17.48-7.29.59-15.36.36-8.07-.24-12.67-1.04-13.78-2.42Zm51.45-70.03c-1.75,1.85-3.48,4.96-5.2,9.33-1.72,4.37-2.34,7.24-1.87,8.62.79,2.33,4.22,3.38,10.28,3.14,6.06-.24,9.36-1.71,9.89-4.41.32-1.64-1.27-5.39-4.76-11.24-3.49-5.85-6.27-7.66-8.34-5.44Z"/><path class="cls-1" d="m344.89,50.72c5.24-7.78,10.31-15.22,15.21-22.31,4.9-7.09,9.22-12.44,12.98-16.04,1.64-1.59,4.84-2.75,9.61-3.49,4.76-.74,9.73-1.08,14.89-1.03,5.16.05,9.85.45,14.05,1.19,4.21.74,6.63,1.77,7.27,3.1,1,2.33,1.8,9.2,2.38,20.6.58,11.41.87,23.73.87,36.96s-.32,25.5-.95,36.8c-.64,11.3-1.67,17.99-3.1,20.05-1.11,1.27-6.51,2.08-16.2,2.42-9.69.35-16.49.12-20.41-.67-1.59-.32-3.04-4.9-4.37-13.74-1.32-8.84-2.22-17.79-2.7-26.84-1.06,1.11-2.95,3.1-5.68,5.96-2.73,2.86-5.65,5.8-8.77,8.81-3.12,3.02-6.13,5.69-9.01,8.02-2.89,2.33-5.02,3.49-6.39,3.49s-3.45-1.11-6.23-3.33c-2.78-2.22-5.67-4.78-8.66-7.66-2.99-2.88-5.8-5.7-8.42-8.46-2.62-2.75-4.43-4.66-5.44-5.72-.64,8.47-1.59,17.04-2.86,25.73-1.27,8.68-2.65,13.26-4.13,13.74-1.96.58-4.87.93-8.73,1.03-3.86.11-7.78.08-11.75-.08-3.97-.16-7.53-.49-10.68-.99-3.15-.5-4.94-1.07-5.36-1.71-1.43-2.01-2.51-8.79-3.26-20.33-.74-11.54-1.14-23.99-1.19-37.36-.05-13.37.16-25.75.64-37.16.48-11.41,1.27-17.98,2.38-19.73.79-1.27,3.31-2.28,7.54-3.02,4.23-.74,8.89-1.12,13.98-1.15,5.08-.03,9.97.33,14.65,1.07,4.68.74,7.87,1.91,9.57,3.49,3.7,3.6,8.06,8.95,13.06,16.04,5,7.09,10.07,14.53,15.21,22.31Z"/><path class="cls-1" d="m483.84,87.24c9.26-.11,17.63-.37,25.09-.79,7.46-.42,11.86.08,13.18,1.51,1.43,1.17,2.47,6.22,3.14,15.17.66,8.95.41,15.43-.75,19.45-.53,1.7-4.68,3.1-12.47,4.21-7.78,1.11-16.52,1.87-26.2,2.26-9.69.4-18.98.46-27.87.2-8.89-.26-14.69-.98-17.39-2.14-1.59-.64-2.9-4.91-3.93-12.82-1.03-7.91-1.84-17.18-2.42-27.79-.58-10.61-.93-21.44-1.03-32.48s0-20.02.32-26.96c0-3.81.32-7.29.95-10.44s1.61-5.12,2.94-5.92c1.32-.79,5.98-1.48,13.98-2.06,7.99-.58,16.62-.94,25.89-1.07,9.26-.13,17.84.03,25.73.48,7.89.45,12.41,1.26,13.58,2.42,1.43,1.17,2.24,5.76,2.42,13.78.18,8.02-.31,14.07-1.47,18.14-.58,1.91-4.3,3.08-11.16,3.53-6.86.45-14.86.83-24.02,1.15,0,.63.03,1.38.08,2.22.05.85.11,1.59.16,2.22,5.98.11,10.85.56,14.61,1.35.9.27,1.79,1.84,2.66,4.72.87,2.89,1.48,6.04,1.83,9.45.34,3.41.33,6.58-.04,9.49-.37,2.91-1.3,4.47-2.78,4.68-1.06.32-2.98.6-5.76.83s-5.86.41-9.25.52v4.68Z"/><path class="cls-1" d="m715.93,77.32c-2.75,16.67-10.84,30.12-24.26,40.34-13.42,10.22-29.02,13.84-46.81,10.88-17.15-2.86-30.65-11.04-40.5-24.54-9.85-13.5-13.45-28.45-10.8-44.86,2.49-15.25,9.86-28.04,22.11-38.39,12.25-10.35,26.51-14.81,42.76-13.38,19.59,1.7,34.82,9.13,45.7,22.31,10.88,13.18,14.81,29.06,11.79,47.64Zm-45.58-6.75c.74-4.55-.12-8.43-2.58-11.63s-6.05-5.2-10.76-6c-4.45-.74-8.36.23-11.75,2.9-3.39,2.67-5.4,6.05-6.03,10.12-.85,4.92.53,9.28,4.13,13.06,3.6,3.79,8.05,5.36,13.34,4.72,3.65-.37,6.7-1.8,9.13-4.29,2.43-2.49,3.94-5.45,4.53-8.89Z"/><path class="cls-1" d="m792.87,59.29c3.92-9,7.94-18,12.07-27,4.13-9,7.81-16.25,11.04-21.76,1.32-2.28,4.55-3,9.69-2.18,5.13.82,10.41,2.48,15.84,4.96,5.43,2.49,10.14,5.48,14.13,8.97,4,3.49,5.54,6.75,4.65,9.77-1.11,3.6-3.89,10.44-8.34,20.53-4.45,10.08-9.32,20.55-14.61,31.4-5.29,10.85-10.43,20.67-15.4,29.46-4.98,8.79-8.55,13.69-10.72,14.69-.95.48-3.12.82-6.51,1.03-3.39.21-7.03.32-10.92.32s-7.54-.12-10.96-.36c-3.41-.24-5.6-.57-6.55-.99-2.17-.95-5.77-5.61-10.8-13.98-5.03-8.36-10.31-17.84-15.84-28.43-5.53-10.59-10.67-21-15.4-31.25-4.74-10.24-7.9-17.72-9.49-22.43-1-3.02.44-6.27,4.33-9.77,3.89-3.49,8.51-6.48,13.86-8.97,5.35-2.49,10.57-4.14,15.68-4.96,5.11-.82,8.35-.09,9.73,2.18,4.39,7.46,8.6,15.44,12.63,23.94,4.02,8.5,7.99,16.77,11.91,24.81Z"/><path class="cls-1" d="m913.8,87.24c9.26-.11,17.63-.37,25.09-.79,7.46-.42,11.86.08,13.18,1.51,1.43,1.17,2.47,6.22,3.14,15.17.66,8.95.41,15.43-.75,19.45-.53,1.7-4.68,3.1-12.47,4.21-7.78,1.11-16.52,1.87-26.2,2.26-9.69.4-18.98.46-27.87.2-8.89-.26-14.69-.98-17.39-2.14-1.59-.64-2.9-4.91-3.93-12.82-1.03-7.91-1.84-17.18-2.42-27.79-.58-10.61-.93-21.44-1.03-32.48s0-20.02.32-26.96c0-3.81.32-7.29.95-10.44s1.61-5.12,2.94-5.92c1.32-.79,5.98-1.48,13.98-2.06,7.99-.58,16.62-.94,25.89-1.07,9.26-.13,17.84.03,25.73.48,7.89.45,12.41,1.26,13.58,2.42,1.43,1.17,2.24,5.76,2.42,13.78.18,8.02-.31,14.07-1.47,18.14-.58,1.91-4.3,3.08-11.16,3.53-6.86.45-14.86.83-24.02,1.15,0,.63.03,1.38.08,2.22.05.85.11,1.59.16,2.22,5.98.11,10.85.56,14.61,1.35.9.27,1.79,1.84,2.66,4.72.87,2.89,1.48,6.04,1.83,9.45.34,3.41.33,6.58-.04,9.49-.37,2.91-1.3,4.47-2.78,4.68-1.06.32-2.98.6-5.76.83s-5.86.41-9.25.52v4.68Z"/><path class="cls-1" d="m1049.5,78.51c5.4,4.5,10.14,8.87,14.21,13.1,4.08,4.24,6.14,7.41,6.19,9.53,0,1.54-.87,3.81-2.62,6.83s-3.76,6.04-6.03,9.05c-2.28,3.02-4.47,5.67-6.59,7.94-2.12,2.28-3.57,3.42-4.37,3.42-3.44.69-8.46-1.1-15.05-5.36-6.59-4.26-11.9-7.08-15.92-8.46-3.92-1.22-6.03-.71-6.35,1.51.05,3.81-.29,6.72-1.03,8.73-.74,2.01-3.33,3.25-7.78,3.73-5.08.53-10.89.82-17.43.87-6.54.05-10.68-.11-12.43-.48-1.22-.21-2.2-.9-2.94-2.06-1.06-1.43-2.2-7.99-3.41-19.69-1.22-11.7-2.17-24.38-2.86-38.03-.69-13.66-.99-26.2-.91-37.64.08-11.43.91-17.6,2.5-18.5,5.77-3.23,13.5-5.56,23.19-6.99,9.69-1.43,19.33-1.18,28.94.75,9.61,1.93,18.21,5.9,25.81,11.91,7.6,6.01,12.24,14.81,13.94,26.4,2.17,15.46-.85,26.6-9.05,33.43Zm-39.94-15.09c4.02-.42,7.15-1.91,9.37-4.45,2.22-2.54,3.32-5.19,3.3-7.94-.03-2.75-1.3-5.13-3.81-7.15-2.51-2.01-6.42-2.73-11.71-2.14-4.34.48-6.05,4.33-5.12,11.55.93,7.23,3.59,10.6,7.98,10.12Z"/><path class="cls-1" d="m1116.12,84.3c-1.01,1.91-5.57,3-13.7,3.29-8.13.29-13.83-.44-17.11-2.18-1.43-.74-2.63-4.46-3.61-11.16-.98-6.7-1.73-14.16-2.26-22.39-.53-8.23-.83-16.16-.91-23.78s.04-12.73.36-15.33c.26-2.12,2.5-3.73,6.71-4.84,4.21-1.11,8.8-1.72,13.78-1.83,4.98-.11,9.57.27,13.78,1.11,4.21.85,6.44,2.14,6.71,3.89.64,5.03.99,11.47,1.07,19.33.08,7.86-.08,15.6-.48,23.23-.4,7.62-.98,14.39-1.75,20.29-.77,5.9-1.63,9.36-2.58,10.36Zm-18.82,44.86c-4.24-.69-7.83-2.53-10.8-5.52-2.97-2.99-4.68-6.63-5.16-10.92-.74-6.04,1.18-11.24,5.76-15.6,4.58-4.37,9.89-6.05,15.92-5.04,6.67,1.11,11.24,3.85,13.7,8.22,2.46,4.37,3.24,8.85,2.34,13.46-.9,4.61-3.27,8.56-7.11,11.87-3.84,3.31-8.72,4.49-14.65,3.53Z"/></svg>