<?xml version="1.0" encoding="UTF-8"?><svg id="good_egg_1" xmlns="http://www.w3.org/2000/svg" width="230" height="290" viewBox="0 0 230 290"><defs><style>.cls-1{fill:#83ea71;}.cls-2,.cls-3,.cls-4{fill:#fff;}.cls-3{opacity:.9;}.cls-5{fill:#9bf48c;}.cls-6{fill:#6cd359;}.cls-4{opacity:.2;}.cls-7{opacity:.12;}.cls-8{fill:#7de86d;}</style></defs><g id="egg_1"><path class="cls-8" d="m100.76,4.89C45.96,19.01,2.95,124.93,2.95,190.3c0,70.14,49.02,92,109.5,92,51.13,0,94.08-15.63,106.13-62.86-5.4-61.15-20.54-119.39-55.57-171.94-15.31-22.65-37.74-35.55-62.24-42.61Z"/><path class="cls-5" d="m112.95,3.3c-4.12,0-8.18.56-12.18,1.59,24.5,7.06,46.93,19.96,62.24,42.61,35.03,52.55,50.18,110.79,55.57,171.94,2.2-8.63,3.37-18.31,3.37-29.14C221.95,120.16,173.42,3.3,112.95,3.3Z"/><g class="cls-7"><path d="m123.51,265.19c-60.48,0-109.5-21.86-109.5-92,0-37.99,14.53-89.67,37.46-129.08C22.25,84.52,2.95,146.51,2.95,190.3c0,70.14,49.02,92,109.5,92,45.37,0,84.3-12.31,100.91-48.07-19.79,22.69-52.65,30.97-89.85,30.97Z"/></g><path class="cls-3" d="m130.12,19.2c2.49,1.3,4.2,2.46,5.85,3.58,6.61,4.5,11.05,7.52,10.5,9.99-.7,3.17-9.7,5.64-16.41,3.38-3.67-1.23-6.5-4.96-12.03-12.36-4.16-5.57-6.22-8.38-5.22-9.41,1.87-1.94,11.71,1.9,17.3,4.82Z"/><path class="cls-3" d="m152.09,41.58c2.14-1,7,5.02,9.56,8.94,3.05,4.68,6.37,11.77,4.97,12.82-1.39,1.04-6.72-4.39-8.49-6.19-3.25-3.31-7.66-7.9-7.09-13.05.09-.84.23-2.13,1.06-2.52Z"/><path class="cls-2" d="m208.43,202.61c-1.74-.5-6.28-23.51-8.6-36.99-1.1-6.42-5.15-29.93-4.07-34.59.82-3.55,4.11,5.95,4.32,6.57,4.03,11.78,7.2,33.25,8.34,47.39.22,2.69,1.46,18.04.01,17.62Z"/><path class="cls-6" d="m51.66,174.88c9.09,8.7,12.02,16.08,27.62,38.08,3.71,5.23,5.32,6.22,5.64,11.58.19,3.15-4.94,5.76-7.86,4.78-19.01-6.39-18.08-6.27-28.04-20.91-1.38-2.03-15.39-29.49-10.7-42.41,2-5.5,5.93,1.8,13.34,8.88Z"/><path class="cls-1" d="m40.48,163.62c6.16-1.88,20.97,14.58,29.59,27.1,5.72,8.31,18.36,28.91,15.01,35.02-2.97,5.41-17.14-3.03-26.82-13.06-12.16-12.59-21.63-32.25-20.61-43.2.18-1.98.48-5.14,2.84-5.86Z"/><path class="cls-4" d="m93.95,119.24c2.32-.25,4.49,5.25,8.8,16.14,6.36,16.11,5.26,19.86,3.94,22.01-1.12,1.84-3.65,4.55-6.49,4.34-6.33-.46-11.06-15.16-10.77-27.15.15-5.98,1.63-15.03,4.52-15.35Z"/></g></svg>