<?xml version="1.0" encoding="UTF-8"?><svg id="good_meat_1" xmlns="http://www.w3.org/2000/svg" width="270" height="270" viewBox="0 0 270 270"><defs><style>.cls-1{fill:#ffbf73;}.cls-2{fill:#c17b3d;}.cls-3{fill:#d89456;}.cls-4{fill:#f24646;}.cls-5{fill:#c68646;}.cls-6{fill:#ffc98f;}</style></defs><g id="meat-2"><path class="cls-1" d="m241.95,206.04c-4.97-.77-10.39-1.73-13.72,1.54-6.3,6.18-7.92,10.57-8.23,13.37-.22,2.02-6.1-6.23-6.1-6.23-3.7-4.07-7.53-9.04-12.55-14.98-5.17,2.4-10.34,4.8-15.5,7.2,12.28,10.04,23.58,18.95,24.34,21.24.09.27-.61.28-1.16.23-6.71-.63-18.03,2.2-21.03,6.52-3.18,4.56,4.69,23.35,14.04,26.77,10,3.66,27.24-11.82,28.96-17.09.78-2.39-.63-5.11.61-5.6,1.41-.56,3.31,3.19,6.4,3.43,7.19.55,22.28-14.24,22.86-23.32.54-8.45-9.21-11.59-18.91-13.08Z"/><path class="cls-2" d="m122.81,247.43c7.77,1.34,15.15-.35,25.44-5.4-24.02-9.05-46.23-22.89-67.85-36.94,7.6,15.87,21.89,38.81,42.41,42.35Z"/><path class="cls-5" d="m135.13,47.17c2.62,11.71,2.88,23.56-.28,32.36-20.3,37.73-74.82,67.51-116.69,45.79-.19,3.96.48,7.43,2.27,10.17,7.09,10.88,27.04,4.65,42.16,22.39,8.4,9.86,5.54,15.66,12.04,33.58.91,2.52,2.87,7.57,5.76,13.62,21.62,14.05,43.83,27.89,67.85,36.94,3.25-1.6,6.76-3.51,10.7-5.79,31.22-18.12,65.77-38.24,81.61-61.19-24.06-46.83-61.87-90.28-105.42-127.87Zm35.85,166.68c12.04-5.6,24.09-11.19,36.13-16.79-12.04,5.6-24.09,11.19-36.13,16.79Z"/><path class="cls-3" d="m189.05,79.53c-23.57-22.14-29.65-24.63-48.18-44.77-7.17-7.79-8.37-9.71-12.04-11.19-.99-.4-2.03-.68-3.1-.91,4.26,7.22,7.46,15.82,9.4,24.51,43.55,37.59,81.36,81.05,105.42,127.87,6.21-9,9.64-18.42,8.72-28.35-1.07-11.6-20.79-30.12-60.22-67.16Z"/><path class="cls-4" d="m134.85,79.53c-20.29,37.72-74.8,67.49-116.71,45.78,1.45-29.44,53.18-87.58,89.55-100.51,6.62-2.41,12.83-3.25,18.07-2.13,4.22,7.22,7.41,15.84,9.39,24.51,2.59,11.7,2.83,23.56-.3,32.35Z"/></g><g id="bone"><path class="cls-6" d="m70.85,19.81c-.48-1.87-1.31-3.88-2.64-6.02-3.73-6.01-11.47-9.63-17.8-10.96-6.2-1.3-17.79,0-17.79,0-1.59,1-3.27,2.13-4.77,3.67,19.6-4.23,35.03-.82,42.99,13.32Z"/><path class="cls-1" d="m2.55,39.02c-1.13,4.47-1.72,9.21-1.68,13.35.11,11.23,3.96,14.38,15.47,15.51C5.7,59.66,3.15,49.57,2.55,39.02Z"/><path class="cls-1" d="m88.18,73.94c-.48,6.38-4.22,12.82-8.79,19.2-.42-.17-.9-.45-1.2-.78-1.2-1.23-2.47-2.46-3.67-3.75-12.77-13.04-20.48-23.28-27.76-30.95-.06-.06-.12-.17-.18-.22-.84-1.18-7.83-10.24-7.89-7.67-.12,3.75-5.12,7.22-9.33,10.91-4.58,4.03-6.38,7.84-12.53,7.28-.18,0-.3-.06-.48-.06C5.68,59.67,3.15,49.59,2.55,39.02c2.23-8.73,6.5-16.45,12.29-16.4,3.79,0,6.44,4.87,8.13,3.97,1.39-.73.12-4.03.24-7.56.18-6.27,2.17-9.96,4.64-12.54,19.63-4.25,35.05-.84,43,13.32,1.14,4.48.06,8.11-2.59,10.41-5.42,4.59-8.73,8.67-16.92,8.45-.66,0-1.51.06-1.38.45,1.26,3.36,19.45,16.68,37.4,30.84.3.22.54.39.78.62.12,1.12.12,2.24.06,3.36Z"/><path class="cls-1" d="m91.01,74.72c-.12.5-.24.95-.36,1.46-1.14,5.88-3.55,11.53-7.23,15.95-.96,1.18-2.65,1.51-4.04,1.01,4.58-6.38,8.31-12.82,8.79-19.2.06-1.12.06-2.24-.06-3.36.6.45,1.14.9,1.69,1.29.9.67,1.32,1.79,1.2,2.85Z"/></g></svg>