<?xml version="1.0" encoding="UTF-8"?><svg id="good_egg_2" xmlns="http://www.w3.org/2000/svg" width="230" height="290" viewBox="0 0 230 290"><defs><style>.cls-1{fill:#fc932b;}.cls-2,.cls-3{fill:#fff;}.cls-3{opacity:.9;}.cls-4{fill:#f93;}.cls-5{fill:#ff931e;}.cls-6{fill:#ff8b22;}.cls-7{opacity:.12;}</style></defs><g id="egg_2"><path class="cls-5" d="m104.26,4.39C49.46,18.51,6.45,124.43,6.45,189.8c0,70.14,49.02,92,109.5,92,51.13,0,94.08-15.63,106.13-62.86-5.4-61.15-20.54-119.39-55.57-171.94-15.31-22.65-37.74-35.55-62.24-42.61Z"/><path class="cls-4" d="m116.45,2.8c-4.12,0-8.18.56-12.18,1.59,24.5,7.06,46.93,19.96,62.24,42.61,35.03,52.55,50.18,110.79,55.57,171.94,2.2-8.63,3.37-18.31,3.37-29.14C225.45,119.66,176.92,2.8,116.45,2.8Z"/><g class="cls-7"><path d="m127.01,264.69c-60.48,0-109.5-21.86-109.5-92,0-37.99,14.53-89.67,37.46-129.08C25.75,84.02,6.45,146.01,6.45,189.8c0,70.14,49.02,92,109.5,92,45.37,0,84.3-12.31,100.91-48.07-19.79,22.69-52.65,30.97-89.85,30.97Z"/></g><path class="cls-3" d="m133.62,18.7c2.49,1.3,4.2,2.46,5.85,3.58,6.61,4.5,11.05,7.52,10.5,9.99-.7,3.17-9.7,5.64-16.41,3.38-3.67-1.23-6.5-4.96-12.03-12.36-4.16-5.57-6.22-8.38-5.22-9.41,1.87-1.94,11.71,1.9,17.3,4.82Z"/><path class="cls-3" d="m155.59,41.08c2.14-1,7,5.02,9.56,8.94,3.05,4.68,6.37,11.77,4.97,12.82-1.39,1.04-6.72-4.39-8.49-6.19-3.25-3.31-7.66-7.9-7.09-13.05.09-.84.23-2.13,1.06-2.52Z"/><path class="cls-2" d="m211.93,202.11c-1.74-.5-6.28-23.51-8.6-36.99-1.1-6.42-5.15-29.93-4.07-34.59.82-3.55,4.11,5.95,4.32,6.57,4.03,11.78,7.2,33.25,8.34,47.39.22,2.69,1.46,18.04.01,17.62Z"/><path class="cls-6" d="m50.5,190c7,12,7.49,12.62,19.75,33.92,2.92,5.07,6.37,7.21,4.25,10.08-1.75,2.36-4.35,4.38-7,4-8.88-1.28-17.21-7.83-25-22-1.08-1.96-13.94-31.06-5-40,5.11-5.11,9.08,7.28,13,14Z"/><path class="cls-1" d="m39.47,173.92c5.39-1.4,17.26,14.72,24.01,26.83,4.48,8.04,14.28,27.89,11.08,33.38-2.83,4.86-14.57-3.78-22.37-13.64-9.79-12.38-16.91-31.17-15.47-41.29.26-1.83.68-4.75,2.74-5.28Z"/></g></svg>