<?xml version="1.0" encoding="UTF-8"?><svg id="good_things" xmlns="http://www.w3.org/2000/svg" width="470" height="400" viewBox="0 0 470 400"><defs><style>.cls-1{fill:#fc932b;}.cls-2{fill:#83ea71;}.cls-3,.cls-4,.cls-5{fill:#fff;}.cls-4{opacity:.9;}.cls-6{fill:#f93;}.cls-7{fill:#9bf48c;}.cls-8{fill:#ffbf73;}.cls-9{fill:#c17b3d;}.cls-10{fill:#6cd359;}.cls-11{fill:#d89456;}.cls-12{fill:#a6b702;}.cls-13{fill:#ff931e;}.cls-14{fill:#ff8b22;}.cls-5{opacity:.2;}.cls-15{opacity:.12;}.cls-16{fill:#f24646;}.cls-17{fill:#c68646;}.cls-18{fill:#c1d313;}.cls-19{fill:#7de86d;}.cls-20{fill:#aeca04;}.cls-21{fill:#ffc98f;}</style></defs><g id="good_egg_2_copy"><g id="egg_2"><path class="cls-13" d="m104.76,7.89C49.96,22.01,6.95,127.93,6.95,193.3c0,70.14,49.02,92,109.5,92,51.13,0,94.08-15.63,106.13-62.86-5.4-61.15-20.54-119.39-55.57-171.94-15.31-22.65-37.74-35.55-62.24-42.61Z"/><path class="cls-6" d="m116.95,6.3c-4.12,0-8.18.56-12.18,1.59,24.5,7.06,46.93,19.96,62.24,42.61,35.03,52.55,50.18,110.79,55.57,171.94,2.2-8.63,3.37-18.31,3.37-29.14,0-70.14-48.52-187-109-187Z"/><g class="cls-15"><path d="m127.51,268.19c-60.48,0-109.5-21.86-109.5-92,0-37.99,14.53-89.67,37.46-129.08C26.25,87.52,6.95,149.51,6.95,193.3c0,70.14,49.02,92,109.5,92,45.37,0,84.3-12.31,100.91-48.07-19.79,22.69-52.65,30.97-89.85,30.97Z"/></g><path class="cls-4" d="m134.12,22.2c2.49,1.3,4.2,2.46,5.85,3.58,6.61,4.5,11.05,7.52,10.5,9.99-.7,3.17-9.7,5.64-16.41,3.38-3.67-1.23-6.5-4.96-12.03-12.36-4.16-5.57-6.22-8.38-5.22-9.41,1.87-1.94,11.71,1.9,17.3,4.82Z"/><path class="cls-4" d="m156.09,44.58c2.14-1,7,5.02,9.56,8.94,3.05,4.68,6.37,11.77,4.97,12.82-1.39,1.04-6.72-4.39-8.49-6.19-3.25-3.31-7.66-7.9-7.09-13.05.09-.84.23-2.13,1.06-2.52Z"/><path class="cls-3" d="m212.43,205.61c-1.74-.5-6.28-23.51-8.6-36.99-1.1-6.42-5.15-29.93-4.07-34.59.82-3.55,4.11,5.95,4.32,6.57,4.03,11.78,7.2,33.25,8.34,47.39.22,2.69,1.46,18.04.01,17.62Z"/><path class="cls-14" d="m51,193.5c7,12,7.49,12.62,19.75,33.92,2.92,5.07,6.37,7.21,4.25,10.08-1.75,2.36-4.35,4.38-7,4-8.88-1.28-17.21-7.83-25-22-1.08-1.96-13.94-31.06-5-40,5.11-5.11,9.08,7.28,13,14Z"/><path class="cls-1" d="m39.97,177.42c5.39-1.4,17.26,14.72,24.01,26.83,4.48,8.04,14.28,27.89,11.08,33.38-2.83,4.86-14.57-3.78-22.37-13.64-9.79-12.38-16.91-31.17-15.47-41.29.26-1.83.68-4.75,2.74-5.28Z"/></g></g><g id="good_egg_1_copy"><g id="egg_1"><path class="cls-19" d="m172.76,118.89c-54.8,14.12-97.82,120.04-97.82,185.41,0,70.14,49.02,92,109.5,92,51.13,0,94.08-15.63,106.13-62.86-5.4-61.15-20.54-119.39-55.57-171.94-15.31-22.65-37.74-35.55-62.24-42.61Z"/><path class="cls-7" d="m184.95,117.3c-4.12,0-8.18.56-12.18,1.59,24.5,7.06,46.93,19.96,62.24,42.61,35.03,52.55,50.18,110.79,55.57,171.94,2.2-8.63,3.37-18.31,3.37-29.14,0-70.14-48.52-187-109-187Z"/><g class="cls-15"><path d="m195.51,379.19c-60.48,0-109.5-21.86-109.5-92,0-37.99,14.53-89.67,37.46-129.08-29.22,40.4-48.52,102.4-48.52,146.19,0,70.14,49.02,92,109.5,92,45.37,0,84.3-12.31,100.91-48.07-19.79,22.69-52.65,30.97-89.85,30.97Z"/></g><path class="cls-4" d="m202.12,133.2c2.49,1.3,4.2,2.46,5.85,3.58,6.61,4.5,11.05,7.52,10.5,9.99-.7,3.17-9.7,5.64-16.41,3.38-3.67-1.23-6.5-4.96-12.03-12.36-4.16-5.57-6.22-8.38-5.22-9.41,1.87-1.94,11.71,1.9,17.3,4.82Z"/><path class="cls-4" d="m224.09,155.58c2.14-1,7,5.02,9.56,8.94,3.05,4.68,6.37,11.77,4.97,12.82-1.39,1.04-6.72-4.39-8.49-6.19-3.25-3.31-7.66-7.9-7.09-13.05.09-.84.23-2.13,1.06-2.52Z"/><path class="cls-3" d="m280.43,316.61c-1.74-.5-6.28-23.51-8.6-36.99-1.1-6.42-5.15-29.93-4.07-34.59.82-3.55,4.11,5.95,4.32,6.57,4.03,11.78,7.2,33.25,8.34,47.39.22,2.69,1.46,18.04.01,17.62Z"/><path class="cls-10" d="m123.66,288.88c9.09,8.7,12.02,16.08,27.62,38.08,3.71,5.23,5.32,6.22,5.64,11.58.19,3.15-4.94,5.76-7.86,4.78-19.01-6.39-18.08-6.27-28.04-20.91-1.38-2.03-15.39-29.49-10.7-42.41,2-5.5,5.93,1.8,13.34,8.88Z"/><path class="cls-2" d="m112.48,277.62c6.16-1.88,20.97,14.58,29.59,27.1,5.72,8.31,18.36,28.91,15.01,35.02-2.97,5.41-17.14-3.03-26.82-13.06-12.16-12.59-21.63-32.25-20.61-43.2.18-1.98.48-5.14,2.84-5.86Z"/><path class="cls-5" d="m165.95,233.24c2.32-.25,4.49,5.25,8.8,16.14,6.36,16.11,5.26,19.86,3.94,22.01-1.12,1.84-3.65,4.55-6.49,4.34-6.33-.46-11.06-15.16-10.77-27.15.15-5.98,1.63-15.03,4.52-15.35Z"/></g></g><g id="good_meat_1_copy_2"><g id="meat_copy_2"><path class="cls-8" d="m432.45,213.29c-4.97-.77-10.39-1.73-13.72,1.54-6.3,6.18-7.92,10.57-8.23,13.37-.22,2.02-6.1-6.23-6.1-6.23-3.7-4.07-7.53-9.04-12.55-14.98-5.17,2.4-10.34,4.8-15.5,7.2,12.28,10.04,23.58,18.95,24.34,21.24.09.27-.61.28-1.16.23-6.71-.63-18.03,2.2-21.03,6.52-3.18,4.56,4.69,23.35,14.04,26.77,10,3.66,27.24-11.82,28.96-17.09.78-2.39-.63-5.11.61-5.6,1.41-.56,3.31,3.19,6.4,3.43,7.19.55,22.28-14.24,22.86-23.32.54-8.45-9.21-11.59-18.91-13.08Z"/><path class="cls-9" d="m313.31,254.68c7.77,1.34,15.15-.35,25.44-5.4-24.02-9.05-46.23-22.89-67.85-36.94,7.6,15.87,21.89,38.81,42.41,42.35Z"/><path class="cls-17" d="m325.63,54.42c2.62,11.71,2.88,23.56-.28,32.36-20.3,37.73-74.82,67.51-116.69,45.79-.19,3.96.48,7.43,2.27,10.17,7.09,10.88,27.04,4.65,42.16,22.39,8.4,9.86,5.54,15.66,12.04,33.58.91,2.52,2.87,7.57,5.76,13.62,21.62,14.05,43.83,27.89,67.85,36.94,3.25-1.6,6.76-3.51,10.7-5.79,31.22-18.12,65.77-38.24,81.61-61.19-24.06-46.83-61.87-90.28-105.42-127.87Zm35.85,166.68c12.04-5.6,24.09-11.19,36.13-16.79-12.04,5.6-24.09,11.19-36.13,16.79Z"/><path class="cls-11" d="m379.55,86.78c-23.57-22.14-29.65-24.63-48.18-44.77-7.17-7.79-8.37-9.71-12.04-11.19-.99-.4-2.03-.68-3.1-.91,4.26,7.22,7.46,15.82,9.4,24.51,43.55,37.59,81.36,81.05,105.42,127.87,6.21-9,9.64-18.42,8.72-28.35-1.07-11.6-20.79-30.12-60.22-67.16Z"/><path class="cls-16" d="m325.35,86.78c-20.29,37.72-74.8,67.49-116.71,45.78,1.45-29.44,53.18-87.58,89.55-100.51,6.62-2.41,12.83-3.25,18.07-2.13,4.22,7.22,7.41,15.84,9.39,24.51,2.59,11.7,2.83,23.56-.3,32.35Z"/></g><g id="bone_copy_2"><path class="cls-21" d="m261.35,27.06c-.48-1.87-1.31-3.88-2.64-6.02-3.73-6.01-11.47-9.63-17.8-10.96-6.2-1.3-17.79,0-17.79,0-1.59,1-3.27,2.13-4.77,3.67,19.6-4.23,35.03-.82,42.99,13.32Z"/><path class="cls-8" d="m193.05,46.27c-1.13,4.47-1.72,9.21-1.68,13.35.11,11.23,3.96,14.38,15.47,15.51-10.64-8.22-13.2-18.31-13.79-28.86Z"/><path class="cls-8" d="m278.68,81.19c-.48,6.38-4.22,12.82-8.79,19.2-.42-.17-.9-.45-1.2-.78-1.2-1.23-2.47-2.46-3.67-3.75-12.77-13.04-20.48-23.28-27.76-30.95-.06-.06-.12-.17-.18-.22-.84-1.18-7.83-10.24-7.89-7.67-.12,3.75-5.12,7.22-9.33,10.91-4.58,4.03-6.38,7.84-12.53,7.28-.18,0-.3-.06-.48-.06-10.66-8.23-13.19-18.3-13.79-28.88,2.23-8.73,6.5-16.45,12.29-16.4,3.79,0,6.44,4.87,8.13,3.97,1.39-.73.12-4.03.24-7.56.18-6.27,2.17-9.96,4.64-12.54,19.63-4.25,35.05-.84,43,13.32,1.14,4.48.06,8.11-2.59,10.41-5.42,4.59-8.73,8.67-16.92,8.45-.66,0-1.51.06-1.38.45,1.26,3.36,19.45,16.68,37.4,30.84.3.22.54.39.78.62.12,1.12.12,2.24.06,3.36Z"/><path class="cls-8" d="m281.51,81.97c-.12.5-.24.95-.36,1.46-1.14,5.88-3.55,11.53-7.23,15.95-.96,1.18-2.65,1.51-4.04,1.01,4.58-6.38,8.31-12.82,8.79-19.2.06-1.12.06-2.24-.06-3.36.6.45,1.14.9,1.69,1.29.9.67,1.32,1.79,1.2,2.85Z"/></g></g><g id="yes_copy"><path class="cls-18" d="m339.28,82.69c4.63-10.13,7.49-17.71,6.54-19.24-4.7-7.57,2.14-1.42-42.59-1.55-10.57-.03-42.35,3.44-44.14,3.87-6.93,1.67-12.95,6.33-18.24,12.79,32.52,0,67.4-6.13,98.44,4.12Z"/><path class="cls-12" d="m106.69,94.09c-.48.68-.88,1.4-1.18,2.14-2.38,6,2.47,11.98,8.37,21.77,23.83,39.49,28.45,80.51,49.14,117.79,2.08,3.75,6.31,11.05,14.49,14.49.13.06.27.11.4.16-19.19-54.24-42.07-106.64-71.22-156.35Z"/><path class="cls-18" d="m168.02,97.79c-.13-1.13-.43-2.45-1.11-3.78-6.68-12.99-41.97-13.3-56.13-3.73,18.99-2.34,39.34-.89,57.24,7.52Z"/><path class="cls-20" d="m240.84,78.57c-23.6,28.86-32.57,94.06-42.16,94.08-8.33.01-33.14-45.3-30.66-71.94.05-.51.14-1.58,0-2.91-17.9-8.41-38.25-9.86-57.24-7.52-1.68,1.14-3.09,2.41-4.09,3.82,29.15,49.71,52.03,102.11,71.22,156.35,4.7,1.88,8.98,1.75,16.34,1.52,9.69-.3,14.17-2.37,25.12-1.67,3.03.19,25-.27,25.78-.2,23.47,2.23,20.91-37.21,58.08-97.58,1.47-2.39,24.39-44.26,36.06-69.82-31.04-10.25-65.92-4.12-98.44-4.12Z"/></g></svg>