<?xml version="1.0" encoding="UTF-8"?><svg id="faq_button" xmlns="http://www.w3.org/2000/svg" width="510" height="240" viewBox="0 0 510 240"><defs><style>.cls-1{fill:#fff;}.cls-2{fill:#3b9410;}.cls-3,.cls-4,.cls-5{opacity:.2;}.cls-3,.cls-6{fill:#104825;}.cls-4{fill:#80e54a;}.cls-5{fill:#86d359;}.cls-7{fill:#66bc39;}</style></defs><rect class="cls-2" x="4.81" y="5.72" width="500.38" height="228.57" rx="114.28" ry="114.28"/><rect class="cls-7" x="16.3" y="10.97" width="477.4" height="218.07" rx="109.03" ry="109.03"/><path class="cls-5" d="m459.19,172.99c-12.1,14.73-25.27,22.03-29,24-18.4,9.73-35.61,10.64-44,11-153.58,6.53-198.09-.06-239.02,0-6.93,0-27.63.23-52.98-7-3.91-1.11-8.97-2.29-15-5-6.42-2.88-17.87-9.06-28-21-1.11-1.31-5.23-6.26-10-15-2.1-3.84-12.09-22.17-14-42-4.3-44.69,34.26-78.51,36-80,5.49-4.68,25.4-21.19,53-23,4.88-.32,8.55-.09,10,0,48.25,2.89,216.01-1.9,263.05,0,1.74.07,5.75.25,10.95,1,6.05.88,19.55,2.95,34,11,3.22,1.79,17.07,9.78,29,26,19.07,25.92,19.09,53.62,19,59-.52,32.98-17.88,54.77-23,61Z"/><path class="cls-3" d="m43.88,184.25c1.38,1.97,4.27,4.67,10,10,4.87,4.53,7.3,6.79,10,9,5.54,4.52,10.49,7.82,14,10,5.2,3.22,8.26,5.12,13,7,3.49,1.38,6.99,2.25,14,4,6.24,1.55,8.58,1.85,10,2,3.05.31,5.56.3,9.25.28,4.67-.03,8.16-.24,8.75-.28,8.77-.52,20.64-.12,26,0h168c14,0,28.01-.59,42,0,2.34.1,7.32.35,14,0,4.05-.21,8.13-.62,12-1,4.95-.49,7.43-.74,9-1,2.11-.36,2.36-.52,16-5,4.69-1.54,9.06-2.97,14.29-6.25,0,0,.01,0,.02-.01,6.58-3.62,11.45-7.17,14.69-9.74,2.05-1.63,22.59-23.04,22-24-.46-.75-17.42,12.95-20,14-5.65,2.31-15.91,10.28-27,13-8.53,2.1-14.95,3.35-21,4-45.17,4.82-67,6-67,6-22.9,1.24-34.35,1.86-41,2-50.38,1.07-52.32-5.59-103-6-25.35-.2-50.73-.98-76-3-28.12-2.25-23.49-5.54-45-18-20.6-11.92-29.78-25.08-32-23-2.49,2.33,1.59,11.15,5,16Z"/><path class="cls-4" d="m434.88,37.25c-4.09-3.06-5-2-17-6-16.85-5.62-26.51-6.77-28.69-7.26-7.43-1.66-6.31-1.74-16-2-61.41-1.63-80-1-80-1-35.31.26-79.31-.74-156.31-1.74,0,0-16-1-39,4-4.11.89-16,7-18,8-3.63,1.82-17,14-17,17,0,12.17,39,7,49,7,50.1,0,139.53-4.27,145.31-4.26,47.42.15,118.64,6.58,138,9,8,1,9,1,14,2,3.73.75,9.04,2.26,16.15,5.18,0,0,7.85,4.82,17.85,7.82h0c12.75,3.98,23.74,2.6,24.69,1.26.87-1.24-2.69-10.2-11-21-6.31-8.2-18-15-22-18Z"/><path class="cls-1" d="m120.88,23.25c-.62-.86-2.48-.34-8,1-5.99,1.46-6.15,1.42-12,3-3.43.92-6.23,1.71-9,4-2.04,1.68-2.1,2.56-2,3,.06.27.41,1.37,4,2,5.42.95,18.23.85,25-8,.52-.68,2.88-3.77,2-5Z"/><path class="cls-1" d="m219.88,24.25c8-1,15.56-2.24,19.8-2.25,12.26-.03,14.67,1.33,29.2,2.25,8.46.53,10.8.53,11,2,.12.9.91,2.02-1,3-.68.35-6.46,1.2-10,2-2.79.63-5.15.87-7,1-4.02.28-6.95.1-9,0,0,0-5.64-.26-14,0-9.17.29-14.36,1.38-23,0-2.98-.48-.81-2.99-1-4-.37-1.93,1.2-3.53,5-4Z"/><path class="cls-1" d="m84.88,37.25c-1.97.28-4.14,1.73-4,3,.15,1.3,2.68,1.92,3,2,3.04.75,6.88-.52,7-2,.12-1.41-3.11-3.41-6-3Z"/><path class="cls-1" d="m388.88,30.25c4.42-2.12,8.64.23,17,3,10.37,3.44,9.72,1.78,18,5,7.95,3.09,5.12,3.29,14,7,3.09,1.29,6.78,2.66,8,6,.1.28.81,2.28,0,3-1.13,1.01-4.5-1.12-6-2-.07-.04-6.05-2.03-18-6-7-2.33-13.91-4.95-21-7-9.15-2.64-14.91-3.73-15-6-.06-1.54,2.51-2.76,3-3Z"/><path class="cls-6" d="m95.8,150.28c-.5,1.02-2.96,1.64-7.39,1.86-4.43.22-7.59-.1-9.47-.96-.84-.39-1.65-3.08-2.45-8.06-.8-4.98-1.49-10.57-2.08-16.77-.59-6.2-1.03-12.17-1.33-17.91-.3-5.74-.37-9.58-.22-11.51.16-1.59,1.48-2.81,3.96-3.65s5.2-1.3,8.16-1.39c2.96-.09,5.67.18,8.16.8,2.48.63,3.8,1.6,3.96,2.9.24,2.22.42,4.86.57,7.9.14,3.05.24,6.26.29,9.63,2.22-.1,4.55-.18,6.98-.24-.1-3.35-.15-6.52-.14-9.51.01-2.99.1-5.59.25-7.79.08-1.33,1.35-2.32,3.8-2.96,2.46-.64,5.17-.92,8.12-.84,2.96.08,5.69.53,8.22,1.35,2.52.82,3.9,2.03,4.14,3.63.26,1.94.36,5.77.29,11.51-.07,5.74-.26,11.72-.59,17.93-.33,6.21-.78,11.8-1.37,16.77-.59,4.97-1.27,7.65-2.06,8.04-1.83.89-4.96,1.24-9.4,1.04-4.43-.2-6.92-.8-7.47-1.82-.42-.55-.84-2.14-1.26-4.77-.42-2.63-.8-5.83-1.14-9.59-1.47.29-2.95.54-4.45.77s-2.97.43-4.41.61c-.21,3.43-.46,6.32-.75,8.67-.29,2.35-.6,3.8-.94,4.35Z"/><path class="cls-6" d="m194.14,126.47c-1.36,8.24-5.35,14.88-11.98,19.93-6.63,5.05-14.34,6.84-23.12,5.37-8.47-1.41-15.14-5.45-20.01-12.12-4.86-6.67-6.64-14.06-5.33-22.16,1.23-7.53,4.87-13.85,10.92-18.97,6.05-5.11,13.09-7.32,21.12-6.61,9.68.84,17.2,4.51,22.58,11.02s7.32,14.36,5.83,23.54Zm-22.52-3.33c.37-2.25-.06-4.16-1.27-5.75-1.22-1.58-2.99-2.57-5.32-2.96-2.2-.37-4.13.11-5.81,1.43-1.67,1.32-2.67,2.99-2.98,5-.42,2.43.26,4.58,2.04,6.45,1.78,1.87,3.97,2.65,6.59,2.33,1.8-.18,3.31-.89,4.51-2.12,1.2-1.23,1.95-2.69,2.24-4.39Z"/><path class="cls-6" d="m267.1,150.2c-.21.58-1.36,1.04-3.45,1.39-2.09.35-4.43.55-7.02.59-2.59.04-5.07-.06-7.43-.29-2.37-.24-3.89-.67-4.57-1.29-1.07-.84-2.41-2.26-4.02-4.28-1.61-2.01-2.84-3.6-3.71-4.75-1.02,1.41-2.17,2.99-3.45,4.75-1.28,1.75-2.56,3.18-3.84,4.28-.71.58-2.23.97-4.57,1.2-2.34.22-4.8.31-7.38.25-2.58-.05-4.92-.24-7.02-.57-2.11-.33-3.26-.75-3.47-1.27-1.57-3.71-2.86-8.52-3.88-14.44-1.02-5.91-1.8-11.75-2.33-17.53-.54-5.78-.81-10.9-.82-15.36-.01-4.46.19-7.11.61-7.94.18-.52,1.1-1.03,2.75-1.51,1.65-.48,3.53-.86,5.65-1.12,2.12-.26,4.22-.39,6.32-.37,2.09.01,3.67.25,4.75.73,1.02.47,1.95,3.58,2.8,9.34.85,5.75,1.75,11.89,2.69,18.4.76-.81,2.58-2.8,5.45-5.96,2.88-3.16,4.83-4.79,5.84-4.86.92-.08,2.67,1.54,5.28,4.84,2.6,3.31,4.2,5.33,4.81,6.06.71-6.51,1.46-12.66,2.27-18.44.81-5.78,1.73-8.9,2.75-9.38,1.02-.47,2.56-.71,4.61-.73,2.05-.01,4.12.11,6.2.37,2.08.26,3.94.63,5.59,1.12,1.65.48,2.58.99,2.79,1.51.47.84.75,3.47.82,7.9.08,4.43-.05,9.53-.39,15.3s-.9,11.61-1.67,17.53c-.77,5.92-1.75,10.77-2.92,14.53Z"/><path class="cls-6" d="m347.56,150.32c-.29.52-1.24.94-2.86,1.26-1.62.31-3.45.51-5.47.59-2.03.08-4.03.04-6.02-.12-1.99-.16-3.49-.46-4.51-.9-1.07-.47-2.03-4.32-2.88-11.55-.85-7.23-1.5-14.55-1.94-21.95-3.87-.08-7.21-.28-10-.61-2.8-.33-4.34-.8-4.63-1.43-.5-.99-.92-2.6-1.26-4.81s-.56-4.47-.67-6.79c-.1-2.31-.08-4.41.06-6.28.14-1.87.48-2.95,1-3.24.76-.6,3.32-1.08,7.69-1.45s9.39-.62,15.06-.77c5.67-.14,11.44-.18,17.3-.12,5.86.07,10.67.22,14.44.45,1.49.1,2.51,1.39,3.06,3.84.55,2.46.75,5.15.59,8.08-.16,2.93-.61,5.62-1.35,8.08-.75,2.46-1.65,3.73-2.73,3.81-.99.16-2.59.31-4.79.45-2.2.14-4.67.27-7.41.37-.08,7.38-.35,14.48-.82,21.32-.47,6.84-1.09,10.76-1.84,11.75Z"/><path class="cls-6" d="m431.27,126.47c-1.36,8.24-5.35,14.88-11.98,19.93-6.63,5.05-14.34,6.84-23.12,5.37-8.47-1.41-15.14-5.45-20.01-12.12-4.86-6.67-6.64-14.06-5.33-22.16,1.23-7.53,4.87-13.85,10.92-18.97,6.05-5.11,13.09-7.32,21.12-6.61,9.68.84,17.2,4.51,22.58,11.02s7.32,14.36,5.83,23.54Zm-22.52-3.33c.37-2.25-.06-4.16-1.27-5.75-1.22-1.58-2.99-2.57-5.32-2.96-2.2-.37-4.13.11-5.81,1.43-1.67,1.32-2.67,2.99-2.98,5-.42,2.43.26,4.58,2.04,6.45,1.78,1.87,3.97,2.65,6.59,2.33,1.8-.18,3.31-.89,4.51-2.12,1.2-1.23,1.95-2.69,2.24-4.39Z"/><path class="cls-1" d="m103.8,145.28c-.5,1.02-2.96,1.64-7.39,1.86-4.43.22-7.59-.1-9.47-.96-.84-.39-1.65-3.08-2.45-8.06-.8-4.98-1.49-10.57-2.08-16.77-.59-6.2-1.03-12.17-1.33-17.91-.3-5.74-.37-9.58-.22-11.51.16-1.59,1.48-2.81,3.96-3.65s5.2-1.3,8.16-1.39c2.96-.09,5.67.18,8.16.8,2.48.63,3.8,1.6,3.96,2.9.24,2.22.42,4.86.57,7.9.14,3.05.24,6.26.29,9.63,2.22-.1,4.55-.18,6.98-.24-.1-3.35-.15-6.52-.14-9.51.01-2.99.1-5.59.25-7.79.08-1.33,1.35-2.32,3.8-2.96,2.46-.64,5.17-.92,8.12-.84,2.96.08,5.69.53,8.22,1.35,2.52.82,3.9,2.03,4.14,3.63.26,1.94.36,5.77.29,11.51-.07,5.74-.26,11.72-.59,17.93-.33,6.21-.78,11.8-1.37,16.77-.59,4.97-1.27,7.65-2.06,8.04-1.83.89-4.96,1.24-9.4,1.04-4.43-.2-6.92-.8-7.47-1.82-.42-.55-.84-2.14-1.26-4.77-.42-2.63-.8-5.83-1.14-9.59-1.47.29-2.95.54-4.45.77s-2.97.43-4.41.61c-.21,3.43-.46,6.32-.75,8.67-.29,2.35-.6,3.8-.94,4.35Z"/><path class="cls-1" d="m202.14,121.47c-1.36,8.24-5.35,14.88-11.98,19.93-6.63,5.05-14.34,6.84-23.12,5.37-8.47-1.41-15.14-5.45-20.01-12.12-4.86-6.67-6.64-14.06-5.33-22.16,1.23-7.53,4.87-13.85,10.92-18.97,6.05-5.11,13.09-7.32,21.12-6.61,9.68.84,17.2,4.51,22.58,11.02s7.32,14.36,5.83,23.54Zm-22.52-3.33c.37-2.25-.06-4.16-1.27-5.75-1.22-1.58-2.99-2.57-5.32-2.96-2.2-.37-4.13.11-5.81,1.43-1.67,1.32-2.67,2.99-2.98,5-.42,2.43.26,4.58,2.04,6.45,1.78,1.87,3.97,2.65,6.59,2.33,1.8-.18,3.31-.89,4.51-2.12,1.2-1.23,1.95-2.69,2.24-4.39Z"/><path class="cls-1" d="m275.1,145.2c-.21.58-1.36,1.04-3.45,1.39-2.09.35-4.43.55-7.02.59-2.59.04-5.07-.06-7.43-.29-2.37-.24-3.89-.67-4.57-1.29-1.07-.84-2.41-2.26-4.02-4.28-1.61-2.01-2.84-3.6-3.71-4.75-1.02,1.41-2.17,2.99-3.45,4.75-1.28,1.75-2.56,3.18-3.84,4.28-.71.58-2.23.97-4.57,1.2-2.34.22-4.8.31-7.38.25-2.58-.05-4.92-.24-7.02-.57-2.11-.33-3.26-.75-3.47-1.27-1.57-3.71-2.86-8.52-3.88-14.44-1.02-5.91-1.8-11.75-2.33-17.53-.54-5.78-.81-10.9-.82-15.36-.01-4.46.19-7.11.61-7.94.18-.52,1.1-1.03,2.75-1.51,1.65-.48,3.53-.86,5.65-1.12,2.12-.26,4.22-.39,6.32-.37,2.09.01,3.67.25,4.75.73,1.02.47,1.95,3.58,2.8,9.34.85,5.75,1.75,11.89,2.69,18.4.76-.81,2.58-2.8,5.45-5.96,2.88-3.16,4.83-4.79,5.84-4.86.92-.08,2.67,1.54,5.28,4.84,2.6,3.31,4.2,5.33,4.81,6.06.71-6.51,1.46-12.66,2.27-18.44.81-5.78,1.73-8.9,2.75-9.38,1.02-.47,2.56-.71,4.61-.73,2.05-.01,4.12.11,6.2.37,2.08.26,3.94.63,5.59,1.12,1.65.48,2.58.99,2.79,1.51.47.84.75,3.47.82,7.9.08,4.43-.05,9.53-.39,15.3s-.9,11.61-1.67,17.53c-.77,5.92-1.75,10.77-2.92,14.53Z"/><path class="cls-1" d="m355.56,145.32c-.29.52-1.24.94-2.86,1.26-1.62.31-3.45.51-5.47.59-2.03.08-4.03.04-6.02-.12-1.99-.16-3.49-.46-4.51-.9-1.07-.47-2.03-4.32-2.88-11.55-.85-7.23-1.5-14.55-1.94-21.95-3.87-.08-7.21-.28-10-.61-2.8-.33-4.34-.8-4.63-1.43-.5-.99-.92-2.6-1.26-4.81s-.56-4.47-.67-6.79c-.1-2.31-.08-4.41.06-6.28.14-1.87.48-2.95,1-3.24.76-.6,3.32-1.08,7.69-1.45s9.39-.62,15.06-.77c5.67-.14,11.44-.18,17.3-.12,5.86.07,10.67.22,14.44.45,1.49.1,2.51,1.39,3.06,3.84.55,2.46.75,5.15.59,8.08-.16,2.93-.61,5.62-1.35,8.08-.75,2.46-1.65,3.73-2.73,3.81-.99.16-2.59.31-4.79.45-2.2.14-4.67.27-7.41.37-.08,7.38-.35,14.48-.82,21.32-.47,6.84-1.09,10.76-1.84,11.75Z"/><path class="cls-1" d="m439.27,121.47c-1.36,8.24-5.35,14.88-11.98,19.93-6.63,5.05-14.34,6.84-23.12,5.37-8.47-1.41-15.14-5.45-20.01-12.12-4.86-6.67-6.64-14.06-5.33-22.16,1.23-7.53,4.87-13.85,10.92-18.97,6.05-5.11,13.09-7.32,21.12-6.61,9.68.84,17.2,4.51,22.58,11.02s7.32,14.36,5.83,23.54Zm-22.52-3.33c.37-2.25-.06-4.16-1.27-5.75-1.22-1.58-2.99-2.57-5.32-2.96-2.2-.37-4.13.11-5.81,1.43-1.67,1.32-2.67,2.99-2.98,5-.42,2.43.26,4.58,2.04,6.45,1.78,1.87,3.97,2.65,6.59,2.33,1.8-.18,3.31-.89,4.51-2.12,1.2-1.23,1.95-2.69,2.24-4.39Z"/></svg>