<?xml version="1.0" encoding="UTF-8"?><svg id="life_outline" xmlns="http://www.w3.org/2000/svg" width="384" height="236.25" viewBox="0 0 384 236.25"><defs><style>.cls-1{fill:#3b9410;}.cls-2{fill:#66bc39;}</style></defs><path class="cls-1" d="m373.44,3.7H10.56c-4.16,0-7.56,6.27-7.56,13.94v204.42c0,7.67,3.4,13.94,7.56,13.94h362.88c4.16,0,7.56-6.27,7.56-13.94V17.64c0-7.67-3.4-13.94-7.56-13.94Zm-1.58,202.1c0,7.67-3.4,13.94-7.56,13.94H20.32c-4.16,0-7.56-6.27-7.56-13.94V35.06c0-7.67,3.4-13.94,7.56-13.94h343.98c4.16,0,7.56,6.27,7.56,13.94v170.74Z"/><path class="cls-2" d="m369.03,9.78H14.97c-4.16,0-7.56,6.27-7.56,13.94v192.26c0,7.67,3.4,13.94,7.56,13.94h354.06c4.16,0,7.56-6.27,7.56-13.94V23.72c0-7.67-3.4-13.94-7.56-13.94Zm2.84,196.02c0,7.67-3.4,13.94-7.56,13.94H20.32c-4.16,0-7.56-6.27-7.56-13.94V35.06c0-7.67,3.4-13.94,7.56-13.94h343.98c4.16,0,7.56,6.27,7.56,13.94v170.74Z"/></svg>