<?xml version="1.0" encoding="UTF-8"?><svg id="no" xmlns="http://www.w3.org/2000/svg" width="250" height="250" viewBox="0 0 250 250"><defs><style>.cls-1{fill:#f45656;}.cls-2{fill:#e03f3f;}.cls-3{fill:#f24646;}</style></defs><path class="cls-1" d="m45.25,13.86c-6.6-3.78-16.7-6.87-32.18-3.98,29.56,13.06,55.82,32.5,75.02,58.31-12.16-21.54-27.12-45.32-42.85-54.33Z"/><path class="cls-2" d="m142.04,187.22c10.35,20.6,30.08,51,50.99,59.47-14.92-21.54-31.3-42.3-50.99-59.47Z"/><path class="cls-2" d="m14.52,191.53c-.09.39-.2.78-.28,1.18-4.02,20.81,16.27,51.36,34.88,51.92,1.54.05,3.13-.12,4.75-.46-9.98-20.09-21.79-39.7-39.35-52.64Z"/><path class="cls-2" d="m35,83.5c-3-2-6-3-9-5-5-4-9-9-15-13-2.88-2.4-5.53-4.57-8.06-6.73,1.15,4.14,2.69,7.52,4.32,10.31,10.33,17.58,40.02,38.1,59.22,53.71-7.21-15.19-17.54-28.44-31.49-39.29Z"/><path class="cls-3" d="m176.26,149.02c-2.04-1.4-8.26-5.52-7.75-9.89.52-4.47,7.77-6.85,9.3-7.42,16.73-6.23,56.38-59.12,65.18-94.86-9.91-17.92-30.44-26.88-51.06-30.9-4.2,1.64-8.2,3.72-11.79,6.26-23.01,16.24-48.79,64.64-60.47,86.54-.89,1.68-3.44,6.51-6.98,6.59-3.3.08-5.89-4.01-6.98-5.77-4.72-7.67-10.72-19.17-17.62-31.39C68.89,42.37,42.63,22.93,13.07,9.88c-2.1.39-4.28.88-6.58,1.51C-.3,33.48.09,48.46,2.94,58.77c2.53,2.16,5.18,4.33,8.06,6.73,6,4,10,9,15,13,3,2,6,3,9,5,13.95,10.85,24.28,24.11,31.49,39.29,2.4,1.96,4.65,3.84,6.67,5.63,1.91,1.69,6.25,5.63,5.43,9.07-.82,3.39-6.27,4.58-7.75,4.95-13.31,3.3-50.72,25.8-56.31,49.1,17.57,12.94,29.38,32.54,39.35,52.64,26.82-5.65,62.82-61.7,68.89-73.71.83-1.64,3.77-7.74,6.98-7.42,3.11.31,4.89,6.51,5.43,8.24,1.1,3.53,3.48,9.21,6.86,15.94,19.69,17.17,36.06,37.92,50.99,59.47.35.14.71.29,1.06.42,22.43,8.26,53.9-6.36,55.81-20.6,3.04-22.62-64.77-71.41-73.64-77.47Z"/><path class="cls-1" d="m242.98,36.86c2.59-10.52,2.52-19.56-1.61-25.47-7.7-11.04-30.56-12.8-49.45-5.43,20.62,4.03,41.15,12.99,51.06,30.9Z"/></svg>