<?xml version="1.0" encoding="UTF-8"?><svg id="play_again_button" xmlns="http://www.w3.org/2000/svg" width="730" height="230" viewBox="0 0 730 230"><defs><style>.cls-1{fill:#fff;}.cls-2{fill:#3b9410;}.cls-3{fill:#80e54a;}.cls-3,.cls-4{opacity:.2;}.cls-5{fill:#104825;}.cls-4{fill:#86d359;}.cls-6{fill:#66bc39;}</style></defs><rect class="cls-2" x="7.09" y="3.5" width="716.41" height="212.29" rx="106.15" ry="106.15"/><rect class="cls-6" x="23.54" y="8.37" width="683.51" height="202.55" rx="101.27" ry="101.27"/><path class="cls-4" d="m657.64,158.86c-17.32,13.68-36.18,20.46-41.52,22.29-26.35,9.04-50.99,9.89-63,10.22-219.89,6.07-283.61-.05-342.21,0-9.92,0-39.56.21-75.86-6.5-5.6-1.04-12.84-2.13-21.48-4.64-9.19-2.68-25.59-8.41-40.09-19.5-1.59-1.22-7.49-5.81-14.32-13.93-3-3.57-17.31-20.59-20.04-39.01-6.16-41.51,49.04-72.92,51.54-74.3,7.86-4.34,36.37-19.68,75.88-21.36,6.98-.3,12.25-.08,14.32,0,69.09,2.68,309.28-1.76,376.62,0,2.49.07,8.24.23,15.68.93,8.67.81,28,2.74,48.68,10.22,4.6,1.66,24.44,9.09,41.52,24.15,27.31,24.08,27.33,49.81,27.2,54.8-.75,30.63-25.6,50.87-32.93,56.66Z"/><path class="cls-1" d="m47.72,157.93c1.97,3.21,6.53,7.5,11.45,12.07,1.94,1.8,9.32,8.45,22.91,14.86,7.79,3.68,18.08,6.48,38.66,12.07,16.51,4.49,23.06,5.7,28.63,6.5,9.82,1.41,17.82,1.74,22.91,1.86,47.13,1.11,255.48.94,269.17.93,44.01-.02,66.02-.03,67.29,0,15.38.4,26.02.96,41.52,0,21.22-1.32,45.81-6.5,45.82-6.5,0,0,3-2.01,2.86-2.79-.53-2.96-28.63-1.86-28.63-1.86-52.91,2.08-208.67,8.22-320.71,0-56.2-4.12-85.59-10.7-98.79-13.93-37.79-9.26-64.4-15.78-91.63-30.65-6.4-3.49-18.82-10.72-21.48-9.29-2.48,1.34,3.22,9.59,10.02,16.72Z"/><path class="cls-3" d="m640.46,39.05c-5.85-2.85-10.75-5.52-24.34-10.22-22.45-7.75-35.54-9.77-38.66-10.22-10.64-1.54-18.98-1.77-22.91-1.86-87.9-2.02-114.54-.93-114.54-.93-46.37,1.9-171.99,5.41-226.22,1.86-7.77-.51-33.98-2.47-65.86,2.79-5.84.96-11.57.26-14.32,2.79-3.35,3.08-.33,7.84,0,8.36,6.64,10.45,43.29,11.05,52.97,11.15,71.73.74,193.6.91,201.88.93,67.89.14,169.86,6.11,197.58,8.36,11.45.93,12.89.93,20.04,1.86,5.34.69,12.94,2.1,23.12,4.81,0,0,11.24,4.48,25.56,7.27h0c18.25,3.7,12.97.32,14.32-.93,1.25-1.15.45-3.9-11.45-13.93-9.03-7.61-11.45-9.29-17.18-12.07Z"/><path class="cls-1" d="m624.71,36.26c-8.2-3.38-15.6-4.47-30.07-6.5-17.07-2.4-36.53-5.14-40.09-.93-2.28,2.69,2.88,7.14,4.3,8.36,8.34,7.19,20.38,7.82,48.68,12.07,29.2,4.39,36.6,6.75,38.66,4.64,3-3.08-8.65-12.36-21.48-17.65Z"/><path class="cls-1" d="m540.24,21.4c-5.51-.79-9.91-.94-12.89-.93-1.82,0-3.83.08-5.73.93-.22.1-3.26,1.49-2.86,2.79.39,1.28,3.85,1.45,11.45,2.79,9.19,1.62,11.57,2.7,12.89,1.86,2.13-1.37-1.54-5.89-2.86-7.43Z"/><path class="cls-5" d="m102.04,106.07c-1,4.34-3.88,7.96-8.65,10.87-4.77,2.91-10.46,4.16-17.08,3.75-.26,2.25-.56,4.14-.92,5.68-.36,1.54-.75,2.49-1.18,2.84-.6.76-3.52,1.22-8.77,1.38-5.25.16-8.96-.09-11.13-.73-.97-.29-1.83-2.25-2.59-5.87-.76-3.62-1.37-7.7-1.84-12.23-.47-4.53-.78-8.89-.92-13.08s-.11-7,.09-8.42c.2-1.33,1.85-2.34,4.94-3.05,3.1-.7,6.68-1.14,10.77-1.32,4.08-.18,8.19-.11,12.33.19,4.14.3,7.36.79,9.67,1.45,12.18,3.52,17.28,9.7,15.28,18.54Zm-18.41-3.52c-.66-2.11-2.74-3.29-6.25-3.54-.66-.02-1.18,0-1.58.03-2.74.33-3.98,1.67-3.72,4.01s1.17,3.87,2.74,4.57c.69.33,1.73.41,3.12.23,2.08-.21,3.64-.83,4.69-1.83,1.04-1.01,1.38-2.16,1.01-3.47Z"/><path class="cls-5" d="m135.33,87.44c.14.92.25,2.63.32,5.13.07,2.5.13,5.1.19,7.79.06,2.7.12,5.13.19,7.31.07,2.18.18,3.4.32,3.68.2.45,1.15.7,2.85.75,1.7.05,3.6.03,5.69-.04s4.12-.16,6.06-.25c1.94-.09,3.27-.05,3.98.1,1.03.23,1.86,1.25,2.5,3.06s1.06,3.76,1.24,5.86c.19,2.1.11,4.03-.24,5.8s-1,2.73-1.97,2.89c-1.46.25-4.36.49-8.71.72s-8.95.36-13.8.4c-4.85.04-9.35-.06-13.48-.29-4.14-.23-6.69-.7-7.66-1.41-.97-.7-1.72-2.98-2.25-6.83-.53-3.85-.88-8.08-1.07-12.69-.19-4.61-.26-8.99-.21-13.15s.18-6.91.41-8.26c.11-.8,1.5-1.39,4.15-1.76s5.55-.56,8.69-.57c3.14,0,6.03.14,8.67.45,2.64.31,4.02.75,4.13,1.32Z"/><path class="cls-5" d="m163.7,129.66c-.54-.39-.83-.87-.86-1.44-.06-1.89.43-4.75,1.46-8.55s2.31-7.77,3.85-11.88,3.17-7.96,4.9-11.56,3.23-6.12,4.52-7.59c.51-.57,2.02-1.08,4.52-1.54,2.5-.46,5.26-.78,8.28-.95,3.02-.18,5.94-.17,8.73.01,2.8.19,4.75.63,5.86,1.33,1.6,1.05,3.49,3.37,5.67,6.94s4.32,7.47,6.4,11.67c2.08,4.21,3.95,8.25,5.61,12.11,1.65,3.87,2.75,6.6,3.3,8.2.37,1.17.26,1.99-.34,2.45s-1.64.78-3.12.95c-2.51.29-5.63.51-9.35.66-3.72.15-6.06.18-7,.1-.37-.04-.71-.13-1.03-.26-1.03-.43-2.02-1.67-2.98-3.71-.96-2.04-1.89-3.44-2.8-4.2-.54-.45-1.26-.71-2.14-.79l-7.02-.03c-2.2.04-3.62.54-4.28,1.49-.86,1.23-1.83,2.6-2.91,4.1s-1.88,2.43-2.4,2.78c-.26.21-.64.36-1.16.44-1.17.18-3.93.22-8.28.13-4.35-.09-6.83-.39-7.43-.89Zm27.74-25.84c-.94.68-1.88,1.83-2.8,3.44-.93,1.61-1.26,2.67-1.01,3.18.43.86,2.27,1.25,5.54,1.16,3.27-.09,5.04-.63,5.33-1.63.17-.61-.69-1.99-2.57-4.15s-3.38-2.83-4.49-2.01Z"/><path class="cls-5" d="m294.88,97.4c-.2.9-2.1,2.87-5.71,5.9-3.61,3.04-7.94,6.23-12.99,9.57-.29,4.1-.81,7.78-1.56,11.04-.76,3.26-1.45,5.18-2.08,5.74-.34.27-1.51.49-3.49.64-1.98.16-4.15.25-6.51.29-2.35.04-4.57.04-6.63,0-2.07-.04-3.32-.15-3.75-.32-.94-.35-1.92-2.15-2.93-5.41-1.01-3.25-1.79-6.92-2.33-11-5.28-3.4-9.84-6.66-13.68-9.79-3.84-3.12-5.84-5.16-6.01-6.09-.2-.55.28-1.46,1.46-2.75,1.17-1.29,2.58-2.59,4.24-3.91,1.65-1.32,3.32-2.49,4.99-3.5s2.87-1.54,3.62-1.58c1.65-.06,4.29.91,7.9,2.92,3.61,2,7.47,4.35,11.58,7.05,4.14-2.7,8.01-5.06,11.62-7.09,3.61-2.03,6.27-3.01,7.98-2.93.71.04,1.9.54,3.57,1.51,1.67.97,3.34,2.08,5.01,3.33,1.67,1.25,3.1,2.49,4.28,3.72s1.66,2.12,1.43,2.67Z"/><path class="cls-5" d="m333.09,129.66c-.54-.39-.83-.87-.86-1.44-.06-1.89.43-4.75,1.46-8.55s2.31-7.77,3.85-11.88,3.17-7.96,4.9-11.56c1.73-3.59,3.23-6.12,4.52-7.59.51-.57,2.02-1.08,4.52-1.54,2.5-.46,5.26-.78,8.28-.95,3.02-.18,5.94-.17,8.73.01,2.8.19,4.75.63,5.86,1.33,1.6,1.05,3.49,3.37,5.67,6.94s4.32,7.47,6.4,11.67,3.95,8.25,5.61,12.11c1.65,3.87,2.75,6.6,3.3,8.2.37,1.17.26,1.99-.34,2.45s-1.64.78-3.12.95c-2.51.29-5.63.51-9.35.66s-6.06.18-7,.1c-.37-.04-.71-.13-1.03-.26-1.03-.43-2.02-1.67-2.97-3.71-.96-2.04-1.89-3.44-2.8-4.2-.54-.45-1.26-.71-2.14-.79l-7.02-.03c-2.2.04-3.62.54-4.28,1.49-.86,1.23-1.83,2.6-2.91,4.1s-1.88,2.43-2.4,2.78c-.26.21-.64.36-1.16.44-1.17.18-3.93.22-8.28.13s-6.83-.39-7.43-.89Zm27.74-25.84c-.94.68-1.88,1.83-2.8,3.44-.93,1.61-1.26,2.67-1.01,3.18.43.86,2.28,1.25,5.54,1.16s5.04-.63,5.33-1.63c.17-.61-.68-1.99-2.57-4.15s-3.38-2.83-4.49-2.01Z"/><path class="cls-5" d="m434.73,100.48c-2.6-.1-4.89.09-6.89.56-2.77.68-4.78,1.78-6.04,3.28-1.26,1.5-1.74,3.03-1.46,4.58s1.34,2.94,3.17,4.16c1.83,1.22,4.45,1.89,7.88,2.01,2.48.02,3.87-.52,4.15-1.63s.54-2.21.77-3.33c-.11-.74.94-1.38,3.17-1.9,2.23-.53,4.71-.88,7.47-1.05s5.32-.14,7.71.1c2.38.24,3.66.76,3.83,1.54.28,1.46.51,3.33.66,5.58.16,2.26.22,4.48.19,6.67-.03,2.19-.16,4.12-.41,5.8-.24,1.68-.61,2.67-1.09,2.96-.46.41-2.75.65-6.87.73-4.12.08-7.06-.06-8.8-.41-.26-.02-.51-.18-.77-.47-5.14.84-10.19,1.14-15.15.91-8.79-.47-16.15-2.82-22.09-7.06-5.94-4.24-8.4-9.47-7.41-15.7,1.11-6.8,4.73-12.1,10.85-15.91,6.12-3.81,13.85-5.88,23.18-6.21,6.16-.2,11.76.66,16.8,2.58,5.04,1.91,7.61,5.37,7.73,10.37.11.76-.58,1.4-2.1,1.92-1.51.52-3.3.93-5.37,1.23-2.07.3-4.12.5-6.14.6-2.03.1-3.48.1-4.37,0-1.23-.12-1.82-.45-1.78-1s-.24-.85-.83-.91Z"/><path class="cls-5" d="m464.77,129.66c-.54-.39-.83-.87-.86-1.44-.06-1.89.43-4.75,1.46-8.55s2.31-7.77,3.85-11.88,3.17-7.96,4.9-11.56c1.73-3.59,3.23-6.12,4.52-7.59.51-.57,2.02-1.08,4.52-1.54s5.26-.78,8.28-.95c3.02-.18,5.94-.17,8.73.01,2.8.19,4.75.63,5.86,1.33,1.6,1.05,3.49,3.37,5.67,6.94s4.32,7.47,6.4,11.67,3.95,8.25,5.61,12.11c1.65,3.87,2.75,6.6,3.3,8.2.37,1.17.26,1.99-.34,2.45s-1.64.78-3.12.95c-2.51.29-5.63.51-9.35.66-3.72.15-6.06.18-7,.1-.37-.04-.71-.13-1.03-.26-1.03-.43-2.02-1.67-2.98-3.71s-1.89-3.44-2.8-4.2c-.54-.45-1.26-.71-2.14-.79l-7.02-.03c-2.2.04-3.62.54-4.28,1.49-.86,1.23-1.83,2.6-2.91,4.1s-1.88,2.43-2.4,2.78c-.26.21-.64.36-1.16.44-1.17.18-3.93.22-8.28.13-4.35-.09-6.83-.39-7.43-.89Zm27.74-25.84c-.94.68-1.88,1.83-2.8,3.44s-1.26,2.67-1.01,3.18c.43.86,2.28,1.25,5.54,1.16,3.27-.09,5.04-.63,5.33-1.63.17-.61-.69-1.99-2.57-4.15s-3.38-2.83-4.49-2.01Z"/><path class="cls-5" d="m556.45,129.19c-.6.78-3.58,1.25-8.95,1.39s-9.16-.1-11.39-.75c-1-.29-1.94-2.3-2.82-6.04-.89-3.73-1.64-7.92-2.27-12.57-.63-4.65-1.08-9.13-1.37-13.43-.29-4.31-.3-7.18-.04-8.63.2-1.19,1.8-2.09,4.82-2.71,3.01-.62,6.31-.96,9.89-1.03,3.58-.07,6.86.13,9.84.6,2.98.47,4.56,1.2,4.73,2.2.46,2.81.71,6.42.75,10.81.04,4.39-.06,8.73-.32,13.01s-.64,8.06-1.16,11.34-1.08,5.21-1.71,5.8Z"/><path class="cls-5" d="m627.19,129.19c-.34.47-1.37.81-3.08,1.03-1.71.21-3.6.34-5.67.38-2.07.04-4.05,0-5.95-.12-1.9-.12-3.19-.28-3.87-.5-.97-.29-2.38-1.07-4.24-2.33s-3.75-2.63-5.69-4.1c-1.94-1.47-3.71-2.87-5.31-4.17-1.6-1.31-2.61-2.17-3.04-2.58-.43,3.48-.87,6.46-1.33,8.95-.46,2.49-1.04,3.85-1.75,4.09-2.11.66-5.74.92-10.89.76-5.15-.16-8-.62-8.54-1.41-.63-.59-1.16-2.55-1.61-5.89s-.74-7.18-.9-11.51c-.16-4.34-.15-8.73.02-13.18s.58-8.09,1.24-10.9c.11-.57,1.12-1,3.02-1.3,1.9-.3,4.08-.48,6.55-.53,2.47-.05,4.95.02,7.45.22,2.5.2,4.42.49,5.76.88,1.97.61,4.43,2.22,7.38,4.83,2.95,2.62,5.1,4.6,6.44,5.95-.09-2.09-.18-3.94-.28-5.55-.1-1.61-.09-2.8.02-3.56.06-.94,1.37-1.65,3.94-2.14s5.39-.77,8.45-.83c3.07-.07,5.89.07,8.48.42,2.58.35,3.94.89,4.09,1.61.43,2.87.69,6.54.79,11.02.1,4.47.1,8.88,0,13.21-.1,4.34-.29,8.16-.58,11.47-.29,3.31-.58,5.24-.9,5.79Z"/><path class="cls-5" d="m647.04,100.3c-1.83-.04-3.9-.32-6.23-.83-2.33-.52-4.17-1.18-5.54-1.98-1.57-.86-2.15-1.85-1.76-2.96,1.08-2.6,3.27-4.81,6.57-6.65s6.91-2.88,10.85-3.13c4.71-.27,9,.26,12.86,1.61s6.95,3.14,9.25,5.39c2.3,2.25,3.62,4.76,3.98,7.53.36,2.77-.62,5.43-2.93,7.97-2.37,2.64-6.58,4.49-12.63,5.57-1.46.25-2.11,1.1-1.97,2.55.09.57-.71.99-2.4,1.27-1.68.28-3.55.44-5.59.47-2.04.03-3.9-.07-5.56-.31s-2.43-.61-2.29-1.11c-.6-2.5-.64-4.55-.11-6.15.53-1.6,1.49-2.97,2.89-4.1,1.77-1.43,4.08-2.4,6.93-2.92s4.57-1.14,5.14-1.86c1.11-1.48.05-2.47-3.19-2.94s-5.06-.04-5.46,1.3c-.31.94-1.26,1.37-2.83,1.29Zm6.46,30.32c-3.03.2-5.64-.44-7.83-1.92-2.2-1.47-3.04-3.25-2.53-5.32.4-1.7,1.62-3.08,3.66-4.13s4.34-1.44,6.91-1.14c1.88.23,3.55.72,4.99,1.46s2.38,1.78,2.8,3.11c.63,1.88.14,3.61-1.46,5.21-1.6,1.6-3.78,2.51-6.55,2.72Z"/><path class="cls-1" d="m105.04,102.07c-1,4.34-3.88,7.96-8.65,10.87-4.77,2.91-10.46,4.16-17.08,3.75-.26,2.25-.56,4.14-.92,5.68-.36,1.54-.75,2.49-1.18,2.84-.6.76-3.52,1.22-8.77,1.38-5.25.16-8.96-.09-11.13-.73-.97-.29-1.83-2.25-2.59-5.87-.76-3.62-1.37-7.7-1.84-12.23-.47-4.53-.78-8.89-.92-13.08s-.11-7,.09-8.42c.2-1.33,1.85-2.34,4.94-3.05,3.1-.7,6.68-1.14,10.77-1.32,4.08-.18,8.19-.11,12.33.19,4.14.3,7.36.79,9.67,1.45,12.18,3.52,17.28,9.7,15.28,18.54Zm-18.41-3.52c-.66-2.11-2.74-3.29-6.25-3.54-.66-.02-1.18,0-1.58.03-2.74.33-3.98,1.67-3.72,4.01s1.17,3.87,2.74,4.57c.69.33,1.73.41,3.12.23,2.08-.21,3.64-.83,4.69-1.83,1.04-1.01,1.38-2.16,1.01-3.47Z"/><path class="cls-1" d="m138.33,83.44c.14.92.25,2.63.32,5.13.07,2.5.13,5.1.19,7.79.06,2.7.12,5.13.19,7.31.07,2.18.18,3.4.32,3.68.2.45,1.15.7,2.85.75,1.7.05,3.6.03,5.69-.04s4.12-.16,6.06-.25c1.94-.09,3.27-.05,3.98.1,1.03.23,1.86,1.25,2.5,3.06s1.06,3.76,1.24,5.86c.19,2.1.11,4.03-.24,5.8s-1,2.73-1.97,2.89c-1.46.25-4.36.49-8.71.72s-8.95.36-13.8.4c-4.85.04-9.35-.06-13.48-.29-4.14-.23-6.69-.7-7.66-1.41-.97-.7-1.72-2.98-2.25-6.83-.53-3.85-.88-8.08-1.07-12.69-.19-4.61-.26-8.99-.21-13.15s.18-6.91.41-8.26c.11-.8,1.5-1.39,4.15-1.76s5.55-.56,8.69-.57c3.14,0,6.03.14,8.67.45,2.64.31,4.02.75,4.13,1.32Z"/><path class="cls-1" d="m166.7,125.66c-.54-.39-.83-.87-.86-1.44-.06-1.89.43-4.75,1.46-8.55s2.31-7.77,3.85-11.88,3.17-7.96,4.9-11.56,3.23-6.12,4.52-7.59c.51-.57,2.02-1.08,4.52-1.54,2.5-.46,5.26-.78,8.28-.95,3.02-.18,5.94-.17,8.73.01,2.8.19,4.75.63,5.86,1.33,1.6,1.05,3.49,3.37,5.67,6.94s4.32,7.47,6.4,11.67c2.08,4.21,3.95,8.25,5.61,12.11,1.65,3.87,2.75,6.6,3.3,8.2.37,1.17.26,1.99-.34,2.45s-1.64.78-3.12.95c-2.51.29-5.63.51-9.35.66-3.72.15-6.06.18-7,.1-.37-.04-.71-.13-1.03-.26-1.03-.43-2.02-1.67-2.98-3.71-.96-2.04-1.89-3.44-2.8-4.2-.54-.45-1.26-.71-2.14-.79l-7.02-.03c-2.2.04-3.62.54-4.28,1.49-.86,1.23-1.83,2.6-2.91,4.1s-1.88,2.43-2.4,2.78c-.26.21-.64.36-1.16.44-1.17.18-3.93.22-8.28.13-4.35-.09-6.83-.39-7.43-.89Zm27.74-25.84c-.94.68-1.88,1.83-2.8,3.44-.93,1.61-1.26,2.67-1.01,3.18.43.86,2.27,1.25,5.54,1.16,3.27-.09,5.04-.63,5.33-1.63.17-.61-.69-1.99-2.57-4.15s-3.38-2.83-4.49-2.01Z"/><path class="cls-1" d="m297.88,93.4c-.2.9-2.1,2.87-5.71,5.9-3.61,3.04-7.94,6.23-12.99,9.57-.29,4.1-.81,7.78-1.56,11.04-.76,3.26-1.45,5.18-2.08,5.74-.34.27-1.51.49-3.49.64-1.98.16-4.15.25-6.51.29-2.35.04-4.57.04-6.63,0-2.07-.04-3.32-.15-3.75-.32-.94-.35-1.92-2.15-2.93-5.41-1.01-3.25-1.79-6.92-2.33-11-5.28-3.4-9.84-6.66-13.68-9.79-3.84-3.12-5.84-5.16-6.01-6.09-.2-.55.28-1.46,1.46-2.75,1.17-1.29,2.58-2.59,4.24-3.91,1.65-1.32,3.32-2.49,4.99-3.5s2.87-1.54,3.62-1.58c1.65-.06,4.29.91,7.9,2.92,3.61,2,7.47,4.35,11.58,7.05,4.14-2.7,8.01-5.06,11.62-7.09,3.61-2.03,6.27-3.01,7.98-2.93.71.04,1.9.54,3.57,1.51,1.67.97,3.34,2.08,5.01,3.33,1.67,1.25,3.1,2.49,4.28,3.72s1.66,2.12,1.43,2.67Z"/><path class="cls-1" d="m336.09,125.66c-.54-.39-.83-.87-.86-1.44-.06-1.89.43-4.75,1.46-8.55s2.31-7.77,3.85-11.88,3.17-7.96,4.9-11.56c1.73-3.59,3.23-6.12,4.52-7.59.51-.57,2.02-1.08,4.52-1.54,2.5-.46,5.26-.78,8.28-.95,3.02-.18,5.94-.17,8.73.01,2.8.19,4.75.63,5.86,1.33,1.6,1.05,3.49,3.37,5.67,6.94s4.32,7.47,6.4,11.67,3.95,8.25,5.61,12.11c1.65,3.87,2.75,6.6,3.3,8.2.37,1.17.26,1.99-.34,2.45s-1.64.78-3.12.95c-2.51.29-5.63.51-9.35.66s-6.06.18-7,.1c-.37-.04-.71-.13-1.03-.26-1.03-.43-2.02-1.67-2.97-3.71-.96-2.04-1.89-3.44-2.8-4.2-.54-.45-1.26-.71-2.14-.79l-7.02-.03c-2.2.04-3.62.54-4.28,1.49-.86,1.23-1.83,2.6-2.91,4.1s-1.88,2.43-2.4,2.78c-.26.21-.64.36-1.16.44-1.17.18-3.93.22-8.28.13s-6.83-.39-7.43-.89Zm27.74-25.84c-.94.68-1.88,1.83-2.8,3.44-.93,1.61-1.26,2.67-1.01,3.18.43.86,2.28,1.25,5.54,1.16s5.04-.63,5.33-1.63c.17-.61-.68-1.99-2.57-4.15s-3.38-2.83-4.49-2.01Z"/><path class="cls-1" d="m437.73,96.48c-2.6-.1-4.89.09-6.89.56-2.77.68-4.78,1.78-6.04,3.28-1.26,1.5-1.74,3.03-1.46,4.58s1.34,2.94,3.17,4.16c1.83,1.22,4.45,1.89,7.88,2.01,2.48.02,3.87-.52,4.15-1.63s.54-2.21.77-3.33c-.11-.74.94-1.38,3.17-1.9,2.23-.53,4.71-.88,7.47-1.05s5.32-.14,7.71.1c2.38.24,3.66.76,3.83,1.54.28,1.46.51,3.33.66,5.58.16,2.26.22,4.48.19,6.67-.03,2.19-.16,4.12-.41,5.8-.24,1.68-.61,2.67-1.09,2.96-.46.41-2.75.65-6.87.73-4.12.08-7.06-.06-8.8-.41-.26-.02-.51-.18-.77-.47-5.14.84-10.19,1.14-15.15.91-8.79-.47-16.15-2.82-22.09-7.06-5.94-4.24-8.4-9.47-7.41-15.7,1.11-6.8,4.73-12.1,10.85-15.91,6.12-3.81,13.85-5.88,23.18-6.21,6.16-.2,11.76.66,16.8,2.58,5.04,1.91,7.61,5.37,7.73,10.37.11.76-.58,1.4-2.1,1.92-1.51.52-3.3.93-5.37,1.23-2.07.3-4.12.5-6.14.6-2.03.1-3.48.1-4.37,0-1.23-.12-1.82-.45-1.78-1s-.24-.85-.83-.91Z"/><path class="cls-1" d="m467.77,125.66c-.54-.39-.83-.87-.86-1.44-.06-1.89.43-4.75,1.46-8.55s2.31-7.77,3.85-11.88,3.17-7.96,4.9-11.56c1.73-3.59,3.23-6.12,4.52-7.59.51-.57,2.02-1.08,4.52-1.54s5.26-.78,8.28-.95c3.02-.18,5.94-.17,8.73.01,2.8.19,4.75.63,5.86,1.33,1.6,1.05,3.49,3.37,5.67,6.94s4.32,7.47,6.4,11.67,3.95,8.25,5.61,12.11c1.65,3.87,2.75,6.6,3.3,8.2.37,1.17.26,1.99-.34,2.45s-1.64.78-3.12.95c-2.51.29-5.63.51-9.35.66-3.72.15-6.06.18-7,.1-.37-.04-.71-.13-1.03-.26-1.03-.43-2.02-1.67-2.98-3.71s-1.89-3.44-2.8-4.2c-.54-.45-1.26-.71-2.14-.79l-7.02-.03c-2.2.04-3.62.54-4.28,1.49-.86,1.23-1.83,2.6-2.91,4.1s-1.88,2.43-2.4,2.78c-.26.21-.64.36-1.16.44-1.17.18-3.93.22-8.28.13-4.35-.09-6.83-.39-7.43-.89Zm27.74-25.84c-.94.68-1.88,1.83-2.8,3.44s-1.26,2.67-1.01,3.18c.43.86,2.28,1.25,5.54,1.16,3.27-.09,5.04-.63,5.33-1.63.17-.61-.69-1.99-2.57-4.15s-3.38-2.83-4.49-2.01Z"/><path class="cls-1" d="m559.45,125.19c-.6.78-3.58,1.25-8.95,1.39s-9.16-.1-11.39-.75c-1-.29-1.94-2.3-2.82-6.04-.89-3.73-1.64-7.92-2.27-12.57-.63-4.65-1.08-9.13-1.37-13.43-.29-4.31-.3-7.18-.04-8.63.2-1.19,1.8-2.09,4.82-2.71,3.01-.62,6.31-.96,9.89-1.03,3.58-.07,6.86.13,9.84.6,2.98.47,4.56,1.2,4.73,2.2.46,2.81.71,6.42.75,10.81.04,4.39-.06,8.73-.32,13.01s-.64,8.06-1.16,11.34-1.08,5.21-1.71,5.8Z"/><path class="cls-1" d="m630.19,125.19c-.34.47-1.37.81-3.08,1.03-1.71.21-3.6.34-5.67.38-2.07.04-4.05,0-5.95-.12-1.9-.12-3.19-.28-3.87-.5-.97-.29-2.38-1.07-4.24-2.33s-3.75-2.63-5.69-4.1c-1.94-1.47-3.71-2.87-5.31-4.17-1.6-1.31-2.61-2.17-3.04-2.58-.43,3.48-.87,6.46-1.33,8.95-.46,2.49-1.04,3.85-1.75,4.09-2.11.66-5.74.92-10.89.76-5.15-.16-8-.62-8.54-1.41-.63-.59-1.16-2.55-1.61-5.89s-.74-7.18-.9-11.51c-.16-4.34-.15-8.73.02-13.18s.58-8.09,1.24-10.9c.11-.57,1.12-1,3.02-1.3,1.9-.3,4.08-.48,6.55-.53,2.47-.05,4.95.02,7.45.22,2.5.2,4.42.49,5.76.88,1.97.61,4.43,2.22,7.38,4.83,2.95,2.62,5.1,4.6,6.44,5.95-.09-2.09-.18-3.94-.28-5.55-.1-1.61-.09-2.8.02-3.56.06-.94,1.37-1.65,3.94-2.14s5.39-.77,8.45-.83c3.07-.07,5.89.07,8.48.42,2.58.35,3.94.89,4.09,1.61.43,2.87.69,6.54.79,11.02.1,4.47.1,8.88,0,13.21-.1,4.34-.29,8.16-.58,11.47-.29,3.31-.58,5.24-.9,5.79Z"/><path class="cls-1" d="m650.04,96.3c-1.83-.04-3.9-.32-6.23-.83-2.33-.52-4.17-1.18-5.54-1.98-1.57-.86-2.15-1.85-1.76-2.96,1.08-2.6,3.27-4.81,6.57-6.65s6.91-2.88,10.85-3.13c4.71-.27,9,.26,12.86,1.61s6.95,3.14,9.25,5.39c2.3,2.25,3.62,4.76,3.98,7.53.36,2.77-.62,5.43-2.93,7.97-2.37,2.64-6.58,4.49-12.63,5.57-1.46.25-2.11,1.1-1.97,2.55.09.57-.71.99-2.4,1.27-1.68.28-3.55.44-5.59.47-2.04.03-3.9-.07-5.56-.31s-2.43-.61-2.29-1.11c-.6-2.5-.64-4.55-.11-6.15.53-1.6,1.49-2.97,2.89-4.1,1.77-1.43,4.08-2.4,6.93-2.92s4.57-1.14,5.14-1.86c1.11-1.48.05-2.47-3.19-2.94s-5.06-.04-5.46,1.3c-.31.94-1.26,1.37-2.83,1.29Zm6.46,30.32c-3.03.2-5.64-.44-7.83-1.92-2.2-1.47-3.04-3.25-2.53-5.32.4-1.7,1.62-3.08,3.66-4.13s4.34-1.44,6.91-1.14c1.88.23,3.55.72,4.99,1.46s2.38,1.78,2.8,3.11c.63,1.88.14,3.61-1.46,5.21-1.6,1.6-3.78,2.51-6.55,2.72Z"/></svg>