<?xml version="1.0" encoding="UTF-8"?><svg id="play_button" xmlns="http://www.w3.org/2000/svg" width="520" height="250" viewBox="0 0 520 250"><defs><style>.cls-1{fill:#fff;}.cls-2{fill:#3b9410;}.cls-3,.cls-4,.cls-5{opacity:.2;}.cls-3,.cls-6{fill:#104825;}.cls-4{fill:#80e54a;}.cls-5{fill:#86d359;}.cls-7{fill:#66bc39;}</style></defs><rect class="cls-2" x="7" y="11.73" width="500.38" height="228.57" rx="114.28" ry="114.28"/><rect class="cls-7" x="18.49" y="16.98" width="477.4" height="218.07" rx="109.03" ry="109.03"/><path class="cls-5" d="m461.38,179c-12.1,14.73-25.27,22.03-29,24-18.4,9.73-35.61,10.64-44,11-153.58,6.53-198.09-.06-239.02,0-6.93,0-27.63.23-52.98-7-3.91-1.11-8.97-2.29-15-5-6.42-2.88-17.87-9.06-28-21-1.11-1.31-5.23-6.26-10-15-2.1-3.84-12.09-22.17-14-42-4.3-44.69,34.26-78.51,36-80,5.49-4.68,25.4-21.19,53-23,4.88-.32,8.55-.09,10,0,48.25,2.89,216.01-1.9,263.05,0,1.74.07,5.75.25,10.95,1,6.05.88,19.55,2.95,34,11,3.22,1.79,17.07,9.78,29,26,19.07,25.92,19.09,53.62,19,59-.52,32.98-17.88,54.77-23,61Z"/><path class="cls-3" d="m35.38,178c1.38,3.46,4.56,8.07,8,13,1.35,1.94,6.51,9.09,16,16,5.44,3.96,12.63,6.97,27,13,11.53,4.84,16.11,6.14,20,7,6.86,1.52,12.45,1.87,16,2,32.92,1.2,178.44,1.01,188,1,30.74-.02,46.11-.04,47,0,10.74.43,18.17,1.04,29,0,14.82-1.42,32-7,32-7,0,0,2.1-2.16,2-3-.37-3.19-20-2-20-2-36.95,2.24-145.74,8.85-224,0-39.25-4.44-59.78-11.52-69-15-26.39-9.97-44.98-16.99-64-33-4.47-3.76-13.14-11.54-15-10-1.73,1.44,2.25,10.33,7,18Z"/><path class="cls-4" d="m449.38,50c-4.09-3.06-7.51-5.95-17-11-15.68-8.34-24.82-10.51-27-11-7.43-1.66-13.26-1.9-16-2-61.39-2.18-80-1-80-1-32.39,2.05-120.13,5.83-158,2-5.43-.55-23.73-2.66-46,3-4.08,1.04-8.08.28-10,3-2.34,3.32-.23,8.44,0,9,4.64,11.25,30.24,11.89,37,12,50.1.8,135.22.98,141,1,47.42.15,118.64,6.58,138,9,8,1,9,1,14,2,3.73.75,9.04,2.26,16.15,5.18,0,0,7.85,4.82,17.85,7.82h0c12.75,3.98,9.06.35,10-1,.87-1.24.31-4.2-8-15-6.31-8.2-8-10-12-13Z"/><path class="cls-1" d="m438.38,47c-5.73-3.64-10.9-4.81-21-7-11.92-2.59-25.51-5.53-28-1-1.59,2.9,2.01,7.69,3,9,5.83,7.74,14.24,8.42,34,13,20.4,4.72,25.57,7.27,27,5,2.09-3.31-6.04-13.31-15-19Z"/><path class="cls-1" d="m379.38,31c-3.85-.85-6.92-1.01-9-1-1.27,0-2.68.08-4,1-.15.1-2.28,1.61-2,3,.27,1.38,2.69,1.56,8,3,6.42,1.75,8.08,2.9,9,2,1.49-1.47-1.08-6.34-2-8Z"/><path class="cls-1" d="m369.38,108c.87-1.49-5.01-7.46-10-9-3.01-.93-3.66-.17-4,0-.23.11-.93.95-1,2-.05.73,2.44,2.22,4,3,2,1,2.11.55,3,1l2,1c.29.14,1.68.95,2,1,2.82.4,3.52,1.81,4,1Z"/><path class="cls-6" d="m193.02,124.33c-.92,5.81-3.56,10.66-7.92,14.55-4.37,3.9-9.58,5.57-15.65,5.02-.24,3.01-.52,5.54-.84,7.61-.33,2.07-.69,3.33-1.08,3.8-.55,1.02-3.23,1.63-8.04,1.84-4.81.21-8.21-.12-10.2-.98-.89-.39-1.68-3.01-2.37-7.87-.69-4.85-1.26-10.31-1.69-16.38-.43-6.07-.71-11.91-.84-17.52-.13-5.61-.1-9.37.08-11.28.18-1.78,1.69-3.14,4.53-4.08,2.84-.94,6.13-1.53,9.87-1.77,3.74-.24,7.51-.15,11.3.25,3.79.41,6.75,1.05,8.87,1.94,11.17,4.71,15.83,12.98,14,24.83Zm-16.87-4.71c-.6-2.82-2.51-4.41-5.73-4.75-.6-.03-1.09-.01-1.45.04-2.51.44-3.65,2.24-3.41,5.37s1.07,5.18,2.51,6.12c.63.44,1.58.55,2.86.31,1.91-.29,3.34-1.1,4.3-2.45.95-1.35,1.26-2.9.92-4.65Z"/><path class="cls-6" d="m223.85,99.38c.13,1.23.23,3.52.29,6.86.06,3.35.12,6.83.18,10.43.05,3.61.11,6.87.18,9.79.06,2.92.16,4.56.29,4.92.18.6,1.05.94,2.61,1,1.56.07,3.3.05,5.22-.06,1.92-.1,3.77-.22,5.55-.33,1.78-.12,2.99-.07,3.65.14.94.31,1.71,1.68,2.29,4.1.59,2.42.97,5.03,1.14,7.85.17,2.81.1,5.4-.22,7.77-.31,2.37-.92,3.66-1.8,3.86-1.33.34-4,.66-7.98.96-3.99.3-8.21.48-12.65.53-4.45.05-8.57-.08-12.36-.39-3.79-.31-6.13-.94-7.02-1.88-.89-.94-1.58-3.99-2.06-9.14-.48-5.15-.81-10.81-.98-16.99-.17-6.17-.24-12.04-.2-17.61s.16-9.26.37-11.06c.1-1.07,1.37-1.86,3.81-2.35,2.43-.5,5.09-.75,7.96-.76,2.88-.01,5.52.19,7.94.61,2.42.42,3.68,1.01,3.79,1.77Z"/><path class="cls-6" d="m250.17,155.9c-.5-.52-.76-1.16-.78-1.92-.05-2.54.39-6.35,1.33-11.45s2.12-10.4,3.53-15.91c1.41-5.5,2.91-10.66,4.49-15.48,1.58-4.81,2.96-8.2,4.14-10.16.47-.76,1.85-1.44,4.14-2.06,2.29-.61,4.82-1.04,7.59-1.27,2.77-.24,5.44-.23,8,.02,2.56.25,4.35.84,5.37,1.79,1.46,1.41,3.2,4.51,5.2,9.3,2,4.79,3.96,10,5.86,15.63,1.91,5.64,3.62,11.04,5.14,16.22,1.52,5.18,2.52,8.84,3.02,10.98.34,1.57.24,2.66-.31,3.28-.55.61-1.5,1.04-2.86,1.27-2.3.39-5.16.69-8.57.88-3.41.2-5.55.24-6.41.14-.34-.05-.65-.17-.94-.35-.94-.57-1.85-2.23-2.73-4.96-.88-2.73-1.73-4.61-2.57-5.63-.5-.6-1.15-.95-1.96-1.06l-6.43-.04c-2.01.05-3.32.72-3.92,2-.78,1.65-1.67,3.48-2.67,5.49-.99,2.01-1.73,3.26-2.2,3.73-.24.29-.59.48-1.06.59-1.07.24-3.6.29-7.59.18-3.99-.12-6.26-.52-6.81-1.2Zm25.42-34.6c-.86.92-1.72,2.45-2.57,4.61-.85,2.16-1.16,3.58-.92,4.26.39,1.15,2.09,1.67,5.08,1.55,2.99-.12,4.62-.84,4.88-2.18.16-.81-.63-2.66-2.35-5.55-1.73-2.89-3.1-3.79-4.12-2.69Z"/><path class="cls-6" d="m370.72,112.71c-.18,1.2-1.93,3.84-5.24,7.9-3.31,4.07-7.28,8.34-11.91,12.81-.26,5.49-.74,10.42-1.43,14.79-.69,4.37-1.33,6.93-1.9,7.69-.31.37-1.38.65-3.2.86-1.82.21-3.8.34-5.96.39-2.16.05-4.18.05-6.08,0-1.9-.05-3.04-.2-3.43-.43-.86-.47-1.76-2.88-2.69-7.24-.93-4.35-1.64-9.26-2.14-14.73-4.84-4.55-9.02-8.92-12.53-13.1-3.52-4.18-5.35-6.9-5.51-8.16-.18-.73.26-1.96,1.33-3.69,1.07-1.73,2.37-3.47,3.88-5.24,1.52-1.77,3.04-3.33,4.57-4.69,1.53-1.36,2.63-2.07,3.31-2.12,1.52-.08,3.93,1.22,7.24,3.9,3.31,2.68,6.84,5.83,10.61,9.43,3.79-3.61,7.34-6.77,10.65-9.49,3.31-2.72,5.75-4.03,7.32-3.92.65.05,1.75.73,3.28,2.02s3.06,2.78,4.59,4.45c1.53,1.67,2.84,3.33,3.92,4.98,1.08,1.65,1.52,2.84,1.31,3.57Z"/><path class="cls-1" d="m199.02,119.33c-.92,5.81-3.56,10.66-7.92,14.55-4.37,3.9-9.58,5.57-15.65,5.02-.24,3.01-.52,5.54-.84,7.61-.33,2.07-.69,3.33-1.08,3.8-.55,1.02-3.23,1.63-8.04,1.84-4.81.21-8.21-.12-10.2-.98-.89-.39-1.68-3.01-2.37-7.87-.69-4.85-1.26-10.31-1.69-16.38-.43-6.07-.71-11.91-.84-17.52-.13-5.61-.1-9.37.08-11.28.18-1.78,1.69-3.14,4.53-4.08,2.84-.94,6.13-1.53,9.87-1.77,3.74-.24,7.51-.15,11.3.25,3.79.41,6.75,1.05,8.87,1.94,11.17,4.71,15.83,12.98,14,24.83Zm-16.87-4.71c-.6-2.82-2.51-4.41-5.73-4.75-.6-.03-1.09-.01-1.45.04-2.51.44-3.65,2.24-3.41,5.37s1.07,5.18,2.51,6.12c.63.44,1.58.55,2.86.31,1.91-.29,3.34-1.1,4.3-2.45.95-1.35,1.26-2.9.92-4.65Z"/><path class="cls-1" d="m229.85,94.38c.13,1.23.23,3.52.29,6.86.06,3.35.12,6.83.18,10.43.05,3.61.11,6.87.18,9.79.06,2.92.16,4.56.29,4.92.18.6,1.05.94,2.61,1,1.56.07,3.3.05,5.22-.06,1.92-.1,3.77-.22,5.55-.33,1.78-.12,2.99-.07,3.65.14.94.31,1.71,1.68,2.29,4.1.59,2.42.97,5.03,1.14,7.85.17,2.81.1,5.4-.22,7.77-.31,2.37-.92,3.66-1.8,3.86-1.33.34-4,.66-7.98.96-3.99.3-8.21.48-12.65.53-4.45.05-8.57-.08-12.36-.39-3.79-.31-6.13-.94-7.02-1.88-.89-.94-1.58-3.99-2.06-9.14-.48-5.15-.81-10.81-.98-16.99-.17-6.17-.24-12.04-.2-17.61s.16-9.26.37-11.06c.1-1.07,1.37-1.86,3.81-2.35,2.43-.5,5.09-.75,7.96-.76,2.88-.01,5.52.19,7.94.61,2.42.42,3.68,1.01,3.79,1.77Z"/><path class="cls-1" d="m256.17,150.9c-.5-.52-.76-1.16-.78-1.92-.05-2.54.39-6.35,1.33-11.45s2.12-10.4,3.53-15.91c1.41-5.5,2.91-10.66,4.49-15.48,1.58-4.81,2.96-8.2,4.14-10.16.47-.76,1.85-1.44,4.14-2.06,2.29-.61,4.82-1.04,7.59-1.27,2.77-.24,5.44-.23,8,.02,2.56.25,4.35.84,5.37,1.79,1.46,1.41,3.2,4.51,5.2,9.3,2,4.79,3.96,10,5.86,15.63,1.91,5.64,3.62,11.04,5.14,16.22,1.52,5.18,2.52,8.84,3.02,10.98.34,1.57.24,2.66-.31,3.28-.55.61-1.5,1.04-2.86,1.27-2.3.39-5.16.69-8.57.88-3.41.2-5.55.24-6.41.14-.34-.05-.65-.17-.94-.35-.94-.57-1.85-2.23-2.73-4.96-.88-2.73-1.73-4.61-2.57-5.63-.5-.6-1.15-.95-1.96-1.06l-6.43-.04c-2.01.05-3.32.72-3.92,2-.78,1.65-1.67,3.48-2.67,5.49-.99,2.01-1.73,3.26-2.2,3.73-.24.29-.59.48-1.06.59-1.07.24-3.6.29-7.59.18-3.99-.12-6.26-.52-6.81-1.2Zm25.42-34.6c-.86.92-1.72,2.45-2.57,4.61-.85,2.16-1.16,3.58-.92,4.26.39,1.15,2.09,1.67,5.08,1.55,2.99-.12,4.62-.84,4.88-2.18.16-.81-.63-2.66-2.35-5.55-1.73-2.89-3.1-3.79-4.12-2.69Z"/><path class="cls-1" d="m376.72,107.71c-.18,1.2-1.93,3.84-5.24,7.9-3.31,4.07-7.28,8.34-11.91,12.81-.26,5.49-.74,10.42-1.43,14.79-.69,4.37-1.33,6.93-1.9,7.69-.31.37-1.38.65-3.2.86-1.82.21-3.8.34-5.96.39-2.16.05-4.18.05-6.08,0-1.9-.05-3.04-.2-3.43-.43-.86-.47-1.76-2.88-2.69-7.24-.93-4.35-1.64-9.26-2.14-14.73-4.84-4.55-9.02-8.92-12.53-13.1-3.52-4.18-5.35-6.9-5.51-8.16-.18-.73.26-1.96,1.33-3.69,1.07-1.73,2.37-3.47,3.88-5.24,1.52-1.77,3.04-3.33,4.57-4.69,1.53-1.36,2.63-2.07,3.31-2.12,1.52-.08,3.93,1.22,7.24,3.9,3.31,2.68,6.84,5.83,10.61,9.43,3.79-3.61,7.34-6.77,10.65-9.49,3.31-2.72,5.75-4.03,7.32-3.92.65.05,1.75.73,3.28,2.02s3.06,2.78,4.59,4.45c1.53,1.67,2.84,3.33,3.92,4.98,1.08,1.65,1.52,2.84,1.31,3.57Z"/></svg>