<?xml version="1.0" encoding="UTF-8"?><svg xmlns="http://www.w3.org/2000/svg" width="1400" height="240" viewBox="0 0 1400 240"><defs><style>.cls-1{fill:#ffed4a;}.cls-2{fill:#f7931e;}.cls-3{fill:#b5b5b5;}.cls-4{fill:#c6c6c6;}.cls-5{fill:#fbb03b;}.cls-6{fill:#fcee21;}</style></defs><g id="example_play"><g id="sun_moon_copy"><path class="cls-5" d="m149.44,146.13c-1.63,1.28-3.35,2.47-5.17,3.56l10.73,37.56-29.38-30.37c-.76.15-1.53.29-2.31.42l-10.31,41.21-10.31-41.21c-.78-.13-1.55-.27-2.31-.42l-29.38,30.37,10.73-37.56c-1.82-1.09-3.54-2.28-5.17-3.56l-36.31,10.37,24.62-23.82c-1.8-3.21-3.13-6.62-3.94-10.19l-31.94-7.99,31.85-7.97c.78-3.62,2.1-7.09,3.89-10.35l-24.48-23.68,35.96,10.27c1.7-1.36,3.52-2.62,5.43-3.78l-10.64-37.24,29.08,30.06c.89-.18,1.79-.35,2.7-.5l10.22-40.82,10.22,40.82c.91.15,1.81.32,2.7.5l29.08-30.06-10.64,37.24c1.91,1.16,3.73,2.42,5.43,3.78l35.96-10.27-24.48,23.68c1.79,3.26,3.11,6.73,3.89,10.35l31.85,7.97-31.94,7.99c-.81,3.57-2.14,6.98-3.94,10.19l24.62,23.82-36.31-10.37Z"/></g></g><g id="sun_moon"><path class="cls-5" d="m149.44,146.13c-1.63,1.28-3.35,2.47-5.17,3.56l10.73,37.56-29.38-30.37c-.76.15-1.53.29-2.31.42l-10.31,41.21-10.31-41.21c-.78-.13-1.55-.27-2.31-.42l-29.38,30.37,10.73-37.56c-1.82-1.09-3.54-2.28-5.17-3.56l-36.31,10.37,24.62-23.82c-1.8-3.21-3.13-6.62-3.94-10.19l-31.94-7.99,31.85-7.97c.78-3.62,2.1-7.09,3.89-10.35l-24.48-23.68,35.96,10.27c1.7-1.36,3.52-2.62,5.43-3.78l-10.64-37.24,29.08,30.06c.89-.18,1.79-.35,2.7-.5l10.22-40.82,10.22,40.82c.91.15,1.81.32,2.7.5l29.08-30.06-10.64,37.24c1.91,1.16,3.73,2.42,5.43,3.78l35.96-10.27-24.48,23.68c1.79,3.26,3.11,6.73,3.89,10.35l31.85,7.97-31.94,7.99c-.81,3.57-2.14,6.98-3.94,10.19l24.62,23.82-36.31-10.37Z"/><path class="cls-2" d="m89,143.5c-13-5-26-17-25-33-5,16,9,32,22,36,21,8,55,12,67-15-18,14-42,20-64,12Z"/><path class="cls-1" d="m154,107.5c-13-27-57-36-79-15,26-14,59-7,79,15Z"/><path class="cls-6" d="m182.75,158.5l-24.62-23.82c1.8-3.21,3.13-6.62,3.94-10.19l31.94-7.99-31.85-7.97c-.78-3.62-2.1-7.09-3.89-10.35l24.48-23.68-35.96,10.27c-1.7-1.36-3.52-2.62-5.43-3.78l10.64-37.24-29.08,30.06c-.89-.18-1.79-.35-2.7-.5l-10.22-40.82-10.22,40.82c-.91.15-1.81.32-2.7.5l-29.08-30.06,10.64,37.24c-1.91,1.16-3.73,2.42-5.43,3.78l-35.96-10.27,24.48,23.68c-1.79,3.26-3.11,6.73-3.89,10.35l-31.85,7.97,31.94,7.99c.81,3.57,2.14,6.98,3.94,10.19l-24.62,23.82,36.31-10.37c1.63,1.28,3.35,2.47,5.17,3.56l-10.73,37.56,29.38-30.37c.76.15,1.53.29,2.31.42l10.31,41.21,10.31-41.21c.78-.13,1.55-.27,2.31-.42l29.38,30.37-10.73-37.56c1.82-1.09,3.54-2.28,5.17-3.56l36.31,10.37Zm-28.75-51c-20-22-53-29-79-15,22-21,66-12,79,15Zm-68,39c-13-4-27-20-22-36-1,16,12,28,25,33,22,8,46,2,64-12-12,27-46,23-67,15Z"/><path class="cls-3" d="m377.03,64.38c7.31,50.81-27.96,97.93-78.77,105.24-21.11,3.04-41.59-1.28-58.83-11.01,19.07,29.67,54.28,47.13,91.47,41.78,50.81-7.31,86.08-54.43,78.77-105.24-4.27-29.7-22.15-54.08-46.41-67.76,6.99,10.87,11.81,23.37,13.77,36.99Z"/><path class="cls-4" d="m409.55,94.96c-4.27-29.7-22.15-54.08-46.41-67.76.12.19.24.39.37.59,20.44,14.2,35.15,36.52,38.98,63.09,7.31,50.81-27.96,97.93-78.77,105.24-20.02,2.88-39.45-.86-56.11-9.54,18.1,11.55,40.26,16.92,63.18,13.62,50.81-7.31,86.08-54.43,78.77-105.24Z"/></g></svg>