<?xml version="1.0" encoding="UTF-8"?><svg id="timer_cover" xmlns="http://www.w3.org/2000/svg" width="400" height="180" viewBox="0 0 400 180"><defs><style>.cls-1{fill:#3b9410;}.cls-2{fill:#66bc39;}</style></defs><path class="cls-1" d="m392.24,0H7.76C3.35,0-.25,4.86-.25,10.8v158.4c0,5.94,3.6,10.8,8.01,10.8h384.48c4.41,0,8.01-4.86,8.01-10.8V10.8C400.25,4.86,396.65,0,392.24,0Zm-1.67,156.6c0,5.94-3.6,10.8-8.01,10.8H18.11c-4.41,0-8.01-4.86-8.01-10.8V24.3c0-5.94,3.6-10.8,8.01-10.8h364.46c4.41,0,8.01,4.86,8.01,10.8v132.3Z"/><path class="cls-2" d="m387.57,4.71H12.43c-4.41,0-8.01,4.86-8.01,10.8v148.98c0,5.94,3.6,10.8,8.01,10.8h375.14c4.41,0,8.01-4.86,8.01-10.8V15.51c0-5.94-3.6-10.8-8.01-10.8Zm3,151.89c0,5.94-3.6,10.8-8.01,10.8H18.11c-4.41,0-8.01-4.86-8.01-10.8V24.3c0-5.94,3.6-10.8,8.01-10.8h364.46c4.41,0,8.01,4.86,8.01,10.8v132.3Z"/></svg>