<?xml version="1.0" encoding="UTF-8"?><svg id="feed_toothy-2" xmlns="http://www.w3.org/2000/svg" width="550" height="440" viewBox="0 0 550 440"><defs><style>.cls-1{opacity:.8;}.cls-1,.cls-2{fill:#86d359;}.cls-3{fill:#fff;}.cls-4{fill:#996f45;}.cls-5{fill:#3b9410;}.cls-6{fill:#ba8b5d;}.cls-7{fill:#fff0e3;}.cls-8{fill:#9b8b7c;}.cls-9{fill:#84613e;opacity:.5;}.cls-10{fill:#dbc0a5;}.cls-11,.cls-12{fill:#104825;}.cls-11,.cls-2{opacity:.2;}.cls-13{fill:none;}.cls-14{fill:#66bc39;}.cls-15{fill:#7de86d;}.cls-16{fill:#333232;}.cls-17{fill:#a88051;}</style></defs><g id="logo"><ellipse class="cls-5" cx="278.24" cy="222.52" rx="268.01" ry="214.34"/><g id="Layer_30"><path class="cls-14" d="m48.25,277.5c-4-12-2-4-5-18-3.36-15.69-3.53-27.53-1-50,6.49-57.7,43.73-95.77,50-102,4.86-4.83,21.25-20.54,55-37,24.12-11.76,86.09-41.98,168-32,28.53,3.48,111.09,13.53,164,82,10.12,13.09,47.74,61.77,39,124-4.69,33.43-20.74,56.32-32,72-3.97,5.53-50.3,68.23-130,90-151.49,41.38-295.32-97.64-301-109-1-2-5.93-16.8-7-20Z"/></g><ellipse class="cls-2" cx="278.17" cy="222.92" rx="246.46" ry="197.11"/><path class="cls-13" d="m198.78,256.3c.36,2.11.65,3.78,1.1,5.41,3.69-4.8,8.09-8.61,13.28-11.13,1.51-.73,3.08-1.34,4.67-1.84-6.62-.74-11.36-1.63-11.96-1.75-2.3-.45-4.47-.93-6.54-1.44-.91,3.65-1.16,7.1-.55,10.75Z"/><path class="cls-13" d="m286.93,259.78c.51.12,1.03.25,1.54.39-.51-.14-1.02-.27-1.54-.39Z"/><path class="cls-13" d="m293.55,261.82c.41.16.82.31,1.22.48-.4-.17-.81-.32-1.22-.48Z"/><path class="cls-13" d="m289.17,260.36c.48.14.96.27,1.43.42-.47-.15-.95-.29-1.43-.42Z"/><path class="cls-13" d="m291.39,261.04c.44.15.89.29,1.32.45-.44-.16-.88-.31-1.32-.45Z"/><path class="cls-13" d="m295.93,262.8c-.09-.04-.18-.08-.27-.12.09.04.17.08.26.12,0,0,0,0,0,0Z"/><path class="cls-13" d="m275.41,258.04c-1.17-.08-2.34-.15-3.49-.18.44.01.89.04,1.33.05.72.03,1.44.07,2.16.12Z"/><path class="cls-13" d="m185.87,349.18c-.03-.28-.07-.56-.1-.85-.1-.84-.2-1.69-.29-2.53-.04-.34-.07-.68-.11-1.03-.08-.83-.16-1.67-.24-2.5-.03-.3-.06-.6-.08-.9-.19-2.26-.35-4.53-.48-6.79-.01-.26-.03-.53-.04-.79-.04-.87-.08-1.73-.12-2.6-.01-.33-.02-.66-.04-.99-.03-.84-.05-1.68-.07-2.53,0-.29-.01-.58-.02-.87-.04-2.26-.04-4.5,0-6.73,0-.24.01-.48.02-.72.02-.87.04-1.74.08-2.6.01-.31.02-.62.04-.94.03-.83.08-1.66.12-2.49.02-.28.03-.55.05-.83.13-2.19.31-4.36.52-6.51.02-.22.05-.45.07-.67.09-.84.18-1.67.29-2.5.04-.3.07-.59.11-.89.1-.79.21-1.58.33-2.36.04-.26.08-.53.11-.79,1.54-10.16,4.14-19.5,7.94-27.37-2.17-1.24-3.63-2.32-4.07-2.7-6.64-5.73-8.37-13.43-9.33-18-.81-3.82-1.15-7.84-1.12-11.67-2.43-.97-4.88-1.98-7.45-3.05-3.56,8.91-5.83,14.89-5.24,22.55.31,4.02.52,6.65,1.7,10.03,1.1,3.1,1.37,6.47,2.58,9.53.11.27.37.91.36,1.48,0,.29-.06.56-.24.76-.07.08-.17.14-.27.2-.37.18-.85.18-1.29.11-3.26-.44-6.49-3.23-6.49-3.23-4.34-2.56-7.3-5.14-7.99-5.84-7.08-7.28-8.26-16.24-8.9-21.54-1.13-9.51.32-19.78,2.88-26.71-2.48-2.13-4.4-4.31-6.1-6.69-.67-.95-2.13-2.95-3.42-5.7-11.85-25.1,8.43-56.5,14.21-63.94,5.71-7.35,12.79-12.79,12.79-12.79,0,0,5.23-4.02,11.37-7.1,16.09-8.09,47.99-10.4,74.6-14.21,17.97-2.57,36.06-4.27,53.99-7.1,5.36-.85,11.06-1.79,17.96-.43.63.12,1.28.26,1.93.43,10.09,2.55,17.39,10.66,28.42,22.02,3.39,3.49,6.06,6.49,7.81,8.53,3.1,4.99,5.43,9.39,7.1,12.79,2.85,5.79,4.82,9.8,6.39,15.63.86,3.2,1.48,6.48,2.13,9.95.75,4,1.21,7.06,1.42,8.53,1.12,7.63,1.68,11.44,2.84,21.31,1.73,14.64,4.22,17.89,9.24,42.63,4.14,20.41,2.32,17.58,4.26,23.44,8.69,26.28,30.95,39.89,31.97,40.49,1.83,1.08,12.1,6.98,25.43,9.44,30.86-28.76,49.52-66.15,49.52-107.02,0-90.81-92.05-164.42-205.59-164.42S91.81,122.73,91.81,213.54c0,58.05,37.61,109.06,94.4,138.32-.12-.89-.24-1.78-.34-2.68Z"/><path class="cls-13" d="m271.92,257.87c-1.04-7.31-.98-14.14,1.96-17.08.24-.24-.65-.66-.71-.71-.68-.19-.71-.71-2.13,0,0,0-12.04,5.67-12.08,5.68-4.07,1.87-9.05,2.95-14.31,3.51,9.11,2.52,18.61,7.05,28,12.97-.28-1.46-.53-2.92-.73-4.37Z"/><path class="cls-13" d="m303.59,267.32c.2.16.41.3.61.46-.2-.16-.41-.31-.61-.46Z"/><path class="cls-13" d="m280.08,258.51c.62.08,1.25.17,1.87.27-.62-.1-1.24-.19-1.87-.27Z"/><path class="cls-13" d="m273.17,240.07c.31.09-.13-.1,0,0h0Z"/><path class="cls-13" d="m277.79,258.25c.66.07,1.32.14,1.97.22-.66-.08-1.31-.16-1.97-.22Z"/><path class="cls-13" d="m275.51,258.05c.69.05,1.38.11,2.07.18-.69-.07-1.38-.13-2.07-.18Z"/><path class="cls-13" d="m347.55,352.2c-3.96-15.05-9.04-29.76-15.35-43.9,6.3,14.15,11.39,28.85,15.35,43.9h0Z"/><path class="cls-13" d="m301.67,265.95c.26.18.53.34.79.52-.26-.18-.53-.35-.79-.52Z"/><path class="cls-13" d="m284.66,259.27c.55.11,1.1.23,1.65.35-.55-.13-1.1-.24-1.65-.35Z"/><path class="cls-13" d="m282.37,258.85c.59.1,1.18.2,1.76.31-.59-.11-1.17-.22-1.76-.31Z"/><path class="cls-4" d="m296.79,263.19c-.28-.13-.57-.26-.85-.39,0,0,0,0,0,0,.29.13.58.25.86.38Z"/><path class="cls-4" d="m299.73,264.74c.31.18.62.35.92.53-.3-.19-.61-.36-.92-.53Z"/><path class="cls-4" d="m297.73,263.66c.34.17.68.34,1.02.52-.33-.18-.68-.35-1.02-.52Z"/><path class="cls-17" d="m347.55,352.2c1.73,6.56,3.23,13.19,4.53,19.87,0,0,0,0,0,0-1.3-6.68-2.81-13.3-4.53-19.87h0Z"/><path class="cls-6" d="m396.07,270.62c-1.94-5.86-.12-3.04-4.26-23.44-5.02-24.73-7.51-27.98-9.24-42.63-1.16-9.87-1.72-13.68-2.84-21.31-.21-1.46-.67-4.52-1.42-8.53-.65-3.47-1.27-6.75-2.13-9.95-1.57-5.83-3.54-9.84-6.39-15.63-1.67-3.4-4-7.8-7.1-12.79-1.76-2.03-4.42-5.03-7.81-8.53-11.03-11.36-18.33-19.47-28.42-22.02-.66-.17-1.3-.3-1.93-.43,1.34,1.42,2.67,2.82,4.06,3.98,12.79,9.24,23.44,20.6,30.55,34.81,4.26,9.95,7.81,19.89,10.66,30.55,9.24,42.63,12.79,83.83,30.55,122.91,4.26,10.66,15.63,16.34,26.29,19.89,7.2,2.67,14.69,5.33,22.23,7.21,1.57-1.37,3.11-2.75,4.62-4.16-13.33-2.46-23.6-8.36-25.43-9.44-1.02-.6-23.28-14.21-31.97-40.49Z"/><path class="cls-17" d="m400.34,297.62c-17.76-39.07-21.31-80.28-30.55-122.91-2.84-10.66-6.39-20.6-10.66-30.55-7.1-14.21-17.76-25.58-30.55-34.81-1.4-1.16-2.72-2.56-4.06-3.98-6.9-1.36-12.6-.42-17.96.43-17.93,2.83-36.02,4.53-53.99,7.1-26.61,3.8-58.5,6.12-74.6,14.21-6.14,3.09-11.37,7.1-11.37,7.1,0,0-7.08,5.44-12.79,12.79-5.78,7.44-26.06,38.84-14.21,63.94,1.3,2.75,2.75,4.76,3.42,5.7,1.7,2.38,3.62,4.57,6.1,6.69,1.34-3.63,2.99-6.34,4.73-7.56.61-.43,1.23-.68,1.85-.71.14,0,.24,0,.38.04.25.06.64.21,1.68.52,3.42,1.04,6.5,1.59,12.53,2.65,4.58.81,7.22,1.17,8.54,1.67.57.21.89.45,1.01.77.02.05.04.11.05.16.13.76-.8,1.5-1.24,1.87-2.04,1.74-3.45,5.26-6.27,12.29-.13.33-.25.64-.38.95,2.57,1.07,5.02,2.09,7.45,3.05.07-8.81,2.11-16.66,4.97-18.99.38-.31.79-.53,1.21-.63.06-.01.13-.04.2-.05.32-.05.35.01,1.8.31,3.01.6,5.68.81,10.92,1.2,4.51.34,9.11-.77,11.22-.9.69-.05,1.11.01,1.18.26.03.11-.05.38-.2.74-.7,1.79-3.12,6.01-3.35,6.37-1.42,2.13-1.42,1.42-4.26,7.81-1.7,3.82-3.01,7.19-3.81,10.4,2.08.51,4.24.99,6.54,1.44.6.12,5.33,1.01,11.96,1.75,2.95-.92,6.02-1.46,9.21-1.64-.95-1.35-1.69-2.63-2.22-3.67-4.51-8.88-5.36-20.25-3.28-24.09.26-.48.56-.84.9-1.07.06-.04.12-.09.18-.11.22-.12.25-.07,1.35-.17,2.28-.2,4.23-.63,8.05-1.48,2.63-.58,5.08-1.88,6.72-2.68,1.09-.53,1.82-.84,1.99-.55.06.11.05.48-.01.99-.19,1.71-.89,4.98-.98,5.28-.55,1.96-.7,1.41-1.34,6.97-.82,7.11.6,9.75,2.61,16.57.7,2.37.95,3.2,1.92,5.71.57.14,1.14.29,1.71.45,5.27-.55,10.25-1.63,14.31-3.51.04-.02,12.08-5.68,12.08-5.68,1.42-.71,1.45-.19,2.13,0-.13-.1.31.09,0,0,.06.05.95.47.71.71-2.94,2.94-3,9.77-1.96,17.08,1.16.03,2.32.09,3.49.18.03,0,.07,0,.1,0,.69.05,1.38.11,2.07.18.07,0,.14.01.21.02.66.07,1.32.14,1.97.22.11.01.21.03.32.04.62.08,1.25.17,1.87.27.14.02.28.05.42.07.59.1,1.18.2,1.76.31.18.03.35.07.53.11.55.11,1.1.23,1.65.35.21.05.41.1.62.15.51.12,1.03.25,1.54.39.24.06.47.13.7.2.48.14.96.27,1.43.42.26.08.52.17.78.26.44.15.89.29,1.32.45.28.1.56.21.84.32.41.16.82.31,1.22.48.3.13.6.26.9.39.09.04.18.08.27.12.29.13.57.25.85.39.32.15.63.31.94.47.34.17.68.34,1.02.52.33.18.65.37.98.56.31.18.62.35.92.53.35.22.69.45,1.03.67.26.18.53.34.79.52.39.27.76.56,1.13.85.2.16.41.3.61.46.57.45,1.12.93,1.65,1.42,6.37,5.83,11.94,12.86,16.72,20.48,1.96-3.32,4.55-6.72,8.82-10.1,1.76-1.39,3.63-2.64,5.97-2.56,5.56.2,12.17,7.86,11.1,13.66-1.12,6.05-10.42,8.94-18.26,13.24.68,1.46,1.36,2.91,2.01,4.38,6.3,14.15,11.39,28.85,15.35,43.9,1.73,6.56,3.23,13.19,4.53,19.87,37.7-8.3,71.06-24.97,96.76-47.35-7.53-1.88-15.03-4.54-22.23-7.21-10.66-3.55-22.02-9.24-26.29-19.89Zm-233.02-133.56c-1.93,2.15-4.89,4.2-5.68,3.55-.67-.55.4-2.87.71-3.55,2.28-4.97,7.46-8.68,8.53-7.81.91.74-1.02,5-3.55,7.81Zm17.05-2.84c-.57,2.67-2.23,5.87-3.55,5.68-.79-.11-1.27-1.4-1.42-2.13-.74-3.64,3.84-7.68,4.97-7.1.69.35.24,2.45,0,3.55Zm120.77,10.16c-18.44,0-33.39-11.66-33.39-26.04s14.95-26.04,33.39-26.04,33.39,11.66,33.39,26.04-14.95,26.04-33.39,26.04Z"/><path class="cls-3" d="m274.46,263.39c15.15,9.85,29.93,23.21,42.21,37.4,2.19-3.46,3.61-7.22,5.9-11.11-4.78-7.62-10.35-14.64-16.72-20.48-.53-.49-1.08-.96-1.65-1.42-.2-.16-.41-.31-.61-.46-.37-.29-.74-.58-1.13-.85-.26-.18-.53-.35-.79-.52-.34-.23-.68-.46-1.03-.67-.3-.19-.61-.36-.92-.53-.33-.19-.65-.38-.98-.56-.33-.18-.68-.35-1.02-.52-.31-.16-.62-.32-.94-.47-.28-.13-.57-.26-.86-.38-.09-.04-.17-.08-.26-.12-.3-.13-.59-.27-.9-.39-.4-.17-.81-.32-1.22-.48-.28-.11-.56-.22-.84-.32-.44-.16-.88-.31-1.32-.45-.26-.09-.52-.17-.78-.26-.47-.15-.95-.29-1.43-.42-.23-.07-.47-.13-.7-.2-.51-.14-1.02-.27-1.54-.39-.21-.05-.41-.1-.62-.15-.55-.13-1.1-.24-1.65-.35-.18-.04-.35-.07-.53-.11-.59-.11-1.17-.22-1.76-.31-.14-.02-.28-.05-.42-.07-.62-.1-1.25-.19-1.87-.27-.11-.01-.21-.03-.32-.04-.66-.08-1.31-.16-1.97-.22-.07,0-.14-.01-.21-.02-.69-.07-1.38-.13-2.07-.18-.03,0-.07,0-.1,0-.72-.05-1.44-.09-2.16-.12.4,1.81.8,3.64,1.21,5.47Z"/><path class="cls-3" d="m332.21,308.3c-.65-1.47-1.33-2.93-2.01-4.38-2.59,1.42-5.01,3-6.93,4.89,7.24,9.26,13.29,18.65,17.57,27.47,5.43,11.19,7.98,21.41,8.14,30.74h0c.01.79,0,1.57-.02,2.34,0,.18-.01.36-.02.54-.03.77-.07,1.53-.13,2.28h0c-.02.21-.04.41-.06.62,1.11-.23,2.22-.48,3.33-.72-1.3-6.68-2.81-13.3-4.53-19.87-3.96-15.05-9.04-29.76-15.35-43.9Z"/><path class="cls-9" d="m274.46,263.39c-.41-1.83-.81-3.66-1.21-5.47-.44-.02-.89-.04-1.33-.05.21,1.45.46,2.91.73,4.37.6.38,1.21.76,1.81,1.15Z"/><path class="cls-3" d="m305.14,119.3c-18.44,0-33.39,11.66-33.39,26.04s14.95,26.04,33.39,26.04,33.39-11.66,33.39-26.04-14.95-26.04-33.39-26.04Zm.35,51.46c-17.57,0-31.82-11.11-31.82-24.81s14.25-24.81,31.82-24.81,31.82,11.11,31.82,24.81-14.25,24.81-31.82,24.81Z"/><path d="m305.48,121.14c-17.57,0-31.82,11.11-31.82,24.81s14.25,24.81,31.82,24.81,31.82-11.11,31.82-24.81-14.25-24.81-31.82-24.81Zm9.15,6.13c.12,1.01-1.22,2.12-2.45,2.45-2.27.61-4.99-1.19-4.9-2.45.07-.98,1.82-1.69,3.06-1.84,1.81-.21,4.14.59,4.29,1.84Zm-1.23,4.9c.02.43-1.48,1.27-2.45.61-.43-.3-.81-.92-.61-1.23.38-.61,3.04.05,3.06.61Zm-29.11-3.68c.71-.6,1.34-.95,1.84-1.23,2.15-1.18,3.68-1.84,3.68-1.84.68-.29,2.42-1.03,4.9-1.84,1.71-.56,2.77-.9,4.29-1.23,1.73-.37,3.65-.77,6.13-.61,1.56.1,2.82.38,3.68.61-3.34-.06-6.05.27-7.96.61-1.21.21-2.85.51-4.9,1.23-.44.15-1.31.51-3.06,1.23-2.14.87-3.23,1.32-4.29,1.84-1.79.88-2.45,1.23-2.45,1.23-.29.15-.67.36-1.23.61-.45.2-1.74.78-1.84.61-.09-.14.69-.78,1.23-1.23Zm15.73,40.14c-.11.22-.51.45-3.68,0-2.41-.34-3.62-.52-4.89-.92-.87-.28-3.06-1.04-5.52-2.75-1.07-.74-4.05-2.82-3.68-3.68.4-.93,4.54.08,6.74.61,1.99.48,6.33,1.69,9.8,4.9,1.17,1.08,1.35,1.58,1.23,1.84Zm22.57-2.35c-1.35.85-2.7,1.42-6.74,2.45-4.71,1.2-7.07,1.8-9.8,1.84-3.17.04-5.52-.5-5.51-.61.01-.17,6.03.39,9.8-.61.34-.09,1.19-.34,2.45-.61,1.3-.28,1.66-.3,3.06-.61,1.13-.25,1.71-.38,2.45-.61.76-.24,1.82-.57,3.06-1.23,1-.53,1.24-.82,3.06-1.84,1.12-.63,1.21-.63,1.23-.61.08.11-1.55,1.5-3.06,2.45Zm5.51-29.21c-1.33,2.07-9.78,1.09-12.25-3.68-.9-1.74-1.24-4.44,0-5.51,1.71-1.48,5.61.81,7.35,1.84,1.54.91,4.23,2.54,4.9,5.51.18.79.31,1.36,0,1.84Z"/><path class="cls-3" d="m323.21,129.71c-1.75-1.03-5.64-3.32-7.35-1.84-1.24,1.08-.9,3.77,0,5.51,2.47,4.77,10.93,5.75,12.25,3.68.31-.48.18-1.04,0-1.84-.67-2.97-3.36-4.61-4.9-5.51Z"/><path class="cls-3" d="m310.35,131.55c-.19.3.18.93.61,1.23.97.66,2.47-.18,2.45-.61-.02-.57-2.68-1.22-3.06-.61Z"/><path class="cls-3" d="m307.28,127.26c-.08,1.26,2.63,3.06,4.9,2.45,1.23-.33,2.57-1.44,2.45-2.45-.15-1.25-2.47-2.05-4.29-1.84-1.24.15-3,.86-3.06,1.84Z"/><path class="cls-3" d="m298.8,166.79c-3.48-3.21-7.82-4.42-9.8-4.9-2.2-.54-6.33-1.54-6.74-.61-.37.86,2.61,2.93,3.68,3.68,2.46,1.71,4.65,2.48,5.52,2.75,1.27.41,2.48.58,4.89.92,3.17.45,3.57.22,3.68,0,.12-.26-.06-.76-1.23-1.84Z"/><path class="cls-16" d="m284.91,129.1c.55-.25.94-.46,1.23-.61,0,0,.66-.35,2.45-1.23,1.06-.52,2.15-.96,4.29-1.84,1.75-.72,2.63-1.07,3.06-1.23,2.06-.71,3.69-1.01,4.9-1.23,1.92-.34,4.63-.67,7.96-.61-.85-.23-2.12-.52-3.68-.61-2.47-.15-4.4.24-6.13.61-1.52.32-2.58.67-4.29,1.23-2.49.81-4.22,1.54-4.9,1.84,0,0-1.52.66-3.68,1.84-.5.27-1.12.63-1.84,1.23-.54.45-1.31,1.08-1.23,1.23.1.17,1.39-.41,1.84-.61Z"/><path class="cls-16" d="m324.44,164.44c-1.82,1.02-2.06,1.3-3.06,1.84-1.24.66-2.3.99-3.06,1.23-.74.23-1.32.36-2.45.61-1.41.31-1.77.33-3.06.61-1.26.28-2.11.52-2.45.61-3.77,1.01-9.79.44-9.8.61,0,.11,2.35.65,5.51.61,2.73-.03,5.09-.63,9.8-1.84,4.04-1.03,5.39-1.6,6.74-2.45,1.51-.95,3.14-2.34,3.06-2.45-.01-.02-.11-.01-1.23.61Z"/><path class="cls-4" d="m162.34,164.06c-.31.68-1.38,3-.71,3.55.79.65,3.75-1.41,5.68-3.55,2.54-2.82,4.46-7.08,3.55-7.81-1.06-.86-6.24,2.84-8.53,7.81Z"/><path class="cls-4" d="m184.36,157.66c-1.14-.58-5.71,3.46-4.97,7.1.15.73.63,2.02,1.42,2.13,1.33.18,2.98-3.01,3.55-5.68.24-1.1.69-3.2,0-3.55Z"/><path class="cls-10" d="m178.65,222.74c.45-.37,1.37-1.11,1.24-1.87,0-.05-.03-.11-.05-.16-.12-.31-.45-.55-1.01-.77-1.32-.5-3.96-.86-8.54-1.67-6.03-1.06-9.11-1.62-12.53-2.65-1.04-.31-1.43-.46-1.68-.52-.14-.04-.24-.04-.38-.04-.62.03-1.24.28-1.85.71.41.13.81.24,1.22.37,7.68,2.36,15.32,3.4,23.36,4.39-11.14,17.17-17.64,39.71-7.02,59.04,0-.57-.25-1.21-.36-1.48-1.21-3.06-1.48-6.43-2.58-9.53-1.19-3.37-1.39-6.01-1.7-10.03-.59-7.66,1.68-13.64,5.24-22.55.13-.32.25-.63.38-.95,2.81-7.03,4.22-10.55,6.27-12.29Z"/><path class="cls-3" d="m178.43,220.54c-8.04-.99-15.68-2.02-23.36-4.39-11.6,12.75-9.06,32.47-3.84,47.41,3.36,8.79,11.37,13.25,19.67,16.98.1-.06.19-.12.27-.2.18-.2.24-.47.24-.76-10.62-19.33-4.12-41.86,7.02-59.04Z"/><path class="cls-8" d="m151.24,263.56c-5.22-14.94-7.76-34.66,3.84-47.41-.41-.12-.81-.23-1.22-.37-1.74,1.21-3.38,3.93-4.73,7.56-2.56,6.93-4.01,17.19-2.88,26.71.64,5.3,1.82,14.25,8.9,21.54.69.7,3.65,3.28,7.99,5.84,0,0,3.23,2.79,6.49,3.23.44.06.92.07,1.29-.11-8.3-3.72-16.32-8.19-19.67-16.98Z"/><path class="cls-10" d="m208.93,221.18c-8.63,12.5-14.79,28.19-10.48,42.49.46-.67.94-1.32,1.43-1.96-.46-1.62-.74-3.29-1.1-5.41-.61-3.65-.36-7.1.55-10.75.8-3.21,2.11-6.58,3.81-10.4,2.84-6.39,2.84-5.68,4.26-7.81.23-.36,2.65-4.58,3.35-6.37.15-.36.23-.63.2-.74-.07-.25-.49-.31-1.18-.26-2.1.14-6.71,1.24-11.22.9-5.24-.39-7.91-.6-10.92-1.2-1.46-.29-1.48-.36-1.8-.31-.06.01-.14.04-.2.05-.42.11-.82.32-1.21.63.25.05.5.09.75.13,7.92,1.41,15.84,1.85,23.75,1Z"/><path class="cls-8" d="m182.23,252.86c-2.66-11.28-2.83-22.56,2.95-32.69-.25-.04-.5-.08-.75-.13-2.87,2.34-4.9,10.18-4.97,18.99-.03,3.83.31,7.85,1.12,11.67.97,4.57,2.7,12.27,9.33,18,.44.38,1.9,1.46,4.07,2.7.1-.21.21-.42.31-.63-5.83-4.12-10.3-10.47-12.05-17.92Z"/><path class="cls-3" d="m208.93,221.18c-7.91.85-15.83.41-23.75-1-5.78,10.12-5.61,21.41-2.95,32.69,1.76,7.45,6.22,13.81,12.05,17.92,1.26-2.54,2.65-4.92,4.17-7.12-4.31-14.3,1.85-29.99,10.48-42.49Z"/><path class="cls-8" d="m222.17,219.34c-.21,0-.41,0-.62,0-2.09,3.85-1.23,15.21,3.28,24.09.53,1.04,1.27,2.32,2.22,3.67.34-.02.69-.03,1.03-.04-5.8-7.73-8.27-18.44-5.9-27.73Z"/><path class="cls-3" d="m238.27,215.87c-4.9,2.76-10.41,3.4-16.1,3.47-2.37,9.29.1,20,5.9,27.73,4.29-.14,8.77.35,13.36,1.39-4.81-9.79-5.49-21.78-3.16-32.58Z"/><path class="cls-10" d="m238.27,215.87c-2.33,10.8-1.65,22.8,3.16,32.58.5.11,1,.24,1.5.36-.97-2.51-1.22-3.35-1.92-5.71-2.01-6.81-3.43-9.46-2.61-16.57.63-5.56.79-5.01,1.34-6.97.08-.3.78-3.57.98-5.28.06-.51.07-.88.01-.99-.17-.29-.9.02-1.99.55-1.64.79-4.09,2.1-6.72,2.68-3.82.85-5.77,1.28-8.05,1.48-1.1.1-1.13.05-1.35.17-.07.03-.12.07-.18.11-.34.23-.64.59-.9,1.07.21,0,.41,0,.62,0,5.69-.07,11.2-.71,16.1-3.47Z"/><path class="cls-15" d="m184.3,320.07c-.04,2.23-.04,4.48,0,6.73-.04-2.26-.04-4.5,0-6.73Z"/><path class="cls-15" d="m185.05,341.37c-.19-2.26-.35-4.53-.48-6.79.12,2.26.28,4.53.48,6.79Z"/><path class="cls-15" d="m184.6,312.5c.13-2.19.31-4.36.52-6.51-.22,2.14-.39,4.31-.52,6.51Z"/><path class="cls-15" d="m184.38,330.2c-.03-.84-.05-1.68-.07-2.53.02.84.04,1.68.07,2.53Z"/><path class="cls-15" d="m185.59,301.93c.1-.79.21-1.58.33-2.36-.11.78-.22,1.57-.33,2.36Z"/><path class="cls-15" d="m185.2,305.32c.09-.84.18-1.67.29-2.5-.1.83-.2,1.66-.29,2.5Z"/><path class="cls-15" d="m184.32,319.35c.02-.87.04-1.74.08-2.6-.03.86-.06,1.73-.08,2.6Z"/><path class="cls-15" d="m184.43,315.81c.03-.83.08-1.66.12-2.49-.05.83-.09,1.66-.12,2.49Z"/><path class="cls-15" d="m184.54,333.79c-.04-.87-.08-1.73-.12-2.6.03.87.07,1.73.12,2.6Z"/><path class="cls-15" d="m185.37,344.78c-.08-.83-.16-1.67-.24-2.5.08.83.15,1.67.24,2.5Z"/><path class="cls-15" d="m185.77,348.34c-.1-.84-.2-1.69-.29-2.53.09.85.19,1.69.29,2.53Z"/><path class="cls-15" d="m186.21,351.86h0c-.12-.89-.24-1.78-.35-2.68.11.89.22,1.79.34,2.68Z"/><path class="cls-15" d="m348.94,369.89c-.03.77-.07,1.53-.13,2.28.06-.75.1-1.52.13-2.28Z"/><path class="cls-15" d="m348.98,367.01c.01.79,0,1.56-.02,2.34.02-.77.03-1.55.02-2.34Z"/><path class="cls-15" d="m340.84,336.28c-4.28-8.82-10.33-18.21-17.57-27.47-1.23,1.21-2.25,2.54-2.98,4.05-1.99,4.16-2.56,5.97-2.56,5.97-1.74,5.58-1.09,8.91-3.41,10.24-.12.07-.25.13-.39.19-.74,1.52-1.97,2.85-2.52,2.68-.48-.15-.71-1.54-.61-3.01-1.27-1.69,1.47-6.42.96-6.69-.54-.28-2.9,5.43-6.64,6.62-1.24,1.55-3.73,2.81-4.28,2.34-.38-.33-.02-1.7.67-3.01-.77-1.73,3.94-5.18,3.42-5.94-.46-.67-4.24,1.7-6.94,2.56-1.31,1.18-3.11,1.98-3.57,1.59-.43-.37.08-2.05.94-3.49.44-1.83,1.94-4.49,3.59-6.63,3.74-4.84,7.38-5.95,11.1-8.53,3.03-2.11,5.03-4.45,6.62-6.96-12.28-14.19-27.05-27.54-42.21-37.4-.6-.39-1.21-.77-1.81-1.15-9.39-5.92-18.89-10.46-28-12.97-.57-.16-1.14-.31-1.71-.45-.5-.13-1-.25-1.5-.36-4.59-1.04-9.07-1.52-13.36-1.39-.34.01-.69.02-1.03.04-3.19.18-6.26.72-9.21,1.64-1.6.5-3.16,1.1-4.67,1.84-5.19,2.52-9.59,6.33-13.28,11.13-.49.64-.97,1.29-1.43,1.96-1.52,2.2-2.91,4.58-4.17,7.12-.1.21-.21.41-.31.63-3.8,7.87-6.4,17.21-7.94,27.37.16-1.02.32-2.04.5-3.04-1.42,18.93.31,39.66,4.36,58.47,31.06,15.08,67.52,23.76,106.51,23.76,17.06,0,33.62-1.67,49.47-4.8.83-2,1.54-4.04,2.11-6.14-.16-9.32-2.71-19.54-8.14-30.74Z"/><path class="cls-15" d="m348.75,372.79s0,0,0,0c.02-.21.04-.41.06-.62-.02.21-.05.41-.06.62Z"/><path d="m348.82,372.17c.06-.75.1-1.52.13-2.28,0-.18.01-.36.02-.54.02-.77.03-1.55.02-2.34h0s0,0,0,0c-.57,2.1-1.28,4.15-2.11,6.14.63-.12,1.26-.24,1.89-.37.02-.21.05-.41.06-.62h0Z"/><path d="m186.53,295.74c-.18,1.01-.34,2.02-.5,3.04-.04.26-.08.52-.11.79-.11.78-.22,1.57-.33,2.36-.04.3-.08.59-.11.89-.1.83-.2,1.66-.29,2.5-.02.22-.05.45-.07.67-.22,2.14-.39,4.32-.52,6.51-.02.27-.03.55-.05.83-.05.83-.09,1.66-.12,2.49-.01.31-.03.62-.04.94-.03.86-.06,1.73-.08,2.6,0,.24-.01.48-.02.72-.04,2.23-.04,4.48,0,6.73,0,.29.01.58.02.87.02.84.04,1.68.07,2.53.01.33.02.66.04.99.03.87.07,1.73.12,2.6.01.26.02.53.04.79.12,2.26.28,4.53.48,6.79.03.3.05.6.08.9.08.83.15,1.67.24,2.5.03.34.07.68.11,1.03.09.85.19,1.69.29,2.53.03.28.07.56.1.85.11.89.23,1.79.35,2.68,1.55.8,3.1,1.58,4.68,2.34-4.05-18.81-5.78-39.54-4.36-58.47Z"/><path class="cls-7" d="m294.62,326.08c-.35-.31,0-1.61.67-2.81.02-.12.04-.24.07-.36-.86,1.44-1.36,3.11-.94,3.49.45.4,2.26-.41,3.57-1.59-.2.06-.39.12-.57.16-1.11.87-2.44,1.43-2.8,1.11Z"/><path class="cls-3" d="m294.62,326.08c.36.31,1.69-.24,2.8-1.11-.83.2-1.52.21-1.88-.16-.31-.31-.37-.85-.25-1.54-.66,1.2-1.02,2.5-.67,2.81Z"/><path class="cls-7" d="m301.12,330.87c-.32-.27-.04-1.38.52-2.46-.05-.06-.09-.11-.13-.18,0-.01,0-.02,0-.03-.69,1.31-1.05,2.68-.67,3.01.55.47,3.04-.79,4.28-2.34-.15.05-.29.08-.44.12-1.08,1.27-3.1,2.27-3.55,1.88Z"/><path class="cls-3" d="m301.12,330.87c.45.39,2.47-.61,3.55-1.88-.2.04-.4.08-.6.09-.78.06-1.95-.07-2.43-.67-.55,1.08-.83,2.19-.52,2.46Z"/><path class="cls-7" d="m311.57,331.49c-.38-.12-.58-1.15-.54-2.3-.05-.04-.1-.06-.14-.1-.04-.04-.07-.1-.1-.14-.1,1.47.13,2.86.61,3.01.55.17,1.78-1.16,2.52-2.68-.1.04-.2.07-.3.11-.64,1.22-1.61,2.25-2.06,2.11Z"/><path class="cls-3" d="m311.57,331.49c.45.14,1.42-.89,2.06-2.11-.93.31-1.99.28-2.59-.19-.04,1.15.15,2.18.54,2.3Z"/><path class="cls-4" d="m310.05,307.74c-3.71,2.58-7.36,3.69-11.1,8.53-1.66,2.15-3.15,4.8-3.59,6.63-.03.13-.05.24-.07.36-.12.69-.06,1.23.25,1.54.37.37,1.05.36,1.88.16.18-.04.37-.1.57-.16,2.7-.86,6.48-3.22,6.94-2.56.52.76-4.19,4.21-3.42,5.94,0,.01,0,.02,0,.03.03.07.08.12.13.18.48.6,1.65.73,2.43.67.2-.02.4-.05.6-.09.15-.03.3-.07.44-.12,3.74-1.19,6.1-6.9,6.64-6.62.51.27-2.22,5-.96,6.69.04.05.06.1.1.14.04.04.09.07.14.1.61.48,1.66.5,2.59.19.1-.03.2-.07.3-.11.13-.06.26-.12.39-.19,2.33-1.34,1.67-4.66,3.41-10.24,0,0,.57-1.82,2.56-5.97.72-1.51,1.75-2.85,2.98-4.05,1.92-1.89,4.34-3.47,6.93-4.89,7.84-4.3,17.13-7.19,18.26-13.24,1.08-5.8-5.53-13.46-11.1-13.66-2.35-.08-4.22,1.17-5.97,2.56-4.27,3.38-6.86,6.79-8.82,10.1-2.29,3.89-3.71,7.65-5.9,11.11-1.59,2.5-3.58,4.84-6.62,6.96Z"/><path class="cls-1" d="m109.25,108.5c43-2,79.63-15.14,107-26,49.58-19.68,138.99-34.34,192,4,20.63,14.92,45.49,44.91,58,38,2.38-1.31,4.48-4.06,5-7,.99-5.64-2-11-24-29-13.22-10.82-20.78-15-30-20-11.88-6.44-22-10-30-13-2.97-1.11-16.18-5.71-33-10-3.64-.93-11.72-1.92-21.86-3.77-26.79-4.88-48.57-5.19-53.14-5.23,0,0-47.01.3-88,14-2.82.94-13,6-27,12-7.4,3.17-12.71,6.06-15,7-17.83,7.31-28.02,14.24-33,18-8.77,6.63-13,8-19,16-2.82,3.76,9.46,5.12,12,5Z"/><path class="cls-11" d="m56.25,293.5c-2.12,1.88,10.83,10.68,17,19,5.51,7.42,14.52,14.83,39,35,18.62,15.34,27.93,23.01,38,28,8.73,4.32,9.41,3.06,41,12,29.14,8.24,29.25,9.39,45,13,20.03,4.6,35.55,6.35,42,7,5.82.58,21.51,2.29,37.18,1.58,19.8-.89,45.97-5.3,76.82-19.58,6.77-3.13,42.11-23.05,71-50,2.91-2.71,27.82-31.15,25-35-1.7-2.32-11.63,2.36-13,3-16.54,7.78-22.51,19.78-31,29-5.14,5.58-20.83,12.13-52,25-34.79,14.37-52.23,21.56-54,22-21.96,5.44-39.98,3.96-76,1-42.79-3.52-71.98-11.21-82-14-23.09-6.42-35.04-9.84-50-19-13.93-8.52-29.78-22.78-44-37-2-2-5.32-4.68-13-12-4.56-4.35-15.48-10.35-17-9Z"/></g><path class="cls-12" d="m173.72,82.31c.23.36.55.85.95,1.47.4.62.71,1.11.95,1.47,3.5-2.22,6.83-4.07,9.93-5.6,3.1-1.53,5.3-2.43,6.54-2.82,1.19-.34,2.31.18,3.35,1.54,1.04,1.36,1.87,2.99,2.5,4.86.64,1.88,1.01,3.71,1.13,5.5.13,1.79-.14,2.94-.82,3.45-1.56,1.21-3.52,2.56-5.88,4.08-2.36,1.53-4.79,3.09-7.31,4.72,2.78,5.21,4.06,8.45,3.8,9.75-.04,1.16-2.26,3.23-6.49,6.6-4.21,3.39-7.38,5.72-9.73,6.72-.76.33-2.93-.75-6.61-3.16-3.68-2.41-7.77-5.27-12.27-8.58-4.51-3.31-8.85-6.68-12.98-10.18-4.13-3.5-6.91-6.3-8.29-8.46-.73-1.2,1.06-4.47,5.68-9.42,4.63-4.93,10.2-9.92,16.74-14.69,6.54-4.77,13.02-8.71,19.3-11.94,6.29-3.21,10.2-4.77,11.57-5.2,1.77-.53,3.33.08,4.66,1.8,1.33,1.71,2.3,3.77,2.97,6.13.67,2.36.97,4.66.91,6.88-.05,2.22-.57,3.6-1.59,4.18-2.38,1.37-5.27,2.95-8.64,4.83-3.37,1.88-6.83,3.9-10.36,6.08Z"/><path class="cls-12" d="m238.84,71.31c5.65-1.19,10.78-2.04,15.38-2.72,4.61-.67,7.36-.57,8.21.02.92.47,1.67,2.72,2.24,6.72.57,4,.53,6.93-.04,8.76-.26.79-2.55,1.48-6.8,2.37-4.25.9-8.98,1.87-14.19,3.06-5.21,1.19-10.18,2.48-14.93,3.81-4.75,1.33-7.88,2.18-9.48,2.23-.94.05-2.32-1.48-4.19-4.57-1.88-3.09-3.89-6.77-6.04-11.05-2.15-4.28-4.22-8.7-6.18-13.26-1.96-4.56-3.44-8.33-4.41-11.3-.65-1.59-1.03-3.12-1.12-4.62-.09-1.49.26-2.59,1.07-3.3.8-.69,3.99-2.32,9.67-4.5,5.69-2.17,11.96-4.14,18.8-5.76,6.84-1.62,13.27-2.63,19.2-3.19,5.94-.54,9.37-.4,10.28.05,1.11.44,1.86,2.46,2.23,6.05.38,3.59.2,6.33-.47,8.22-.35.89-2.87,1.57-7.56,2.31-4.68.74-10.13,1.72-16.3,3.15.06.28.14.6.26.97.11.37.22.69.31.96,4.01-.78,7.33-1.12,9.91-1.15.62.03,1.32.64,2.09,1.85.76,1.2,1.35,2.56,1.78,4.05.43,1.49.6,2.91.54,4.24-.06,1.33-.55,2.1-1.46,2.33-.64.24-1.82.53-3.53.93-1.71.39-3.62.81-5.7,1.28.06.3.13.65.21,1.05.08.4.15.74.21,1.02Z"/><path class="cls-12" d="m301.21,70.68c5.68.98,10.79,2.08,15.34,3.16,4.56,1.09,7.11,2.21,7.69,3.07.69.78.56,3.15-.39,7.08-.96,3.93-2.08,6.63-3.29,8.13-.53.63-2.95.42-7.26-.33-4.31-.74-9.09-1.59-14.37-2.4-5.29-.81-10.35-1.44-15.22-1.96-4.86-.51-8.05-.88-9.53-1.43-.87-.3-1.58-2.23-2.16-5.79-.59-3.56-1.08-7.73-1.48-12.5-.4-4.77-.67-9.64-.8-14.61-.12-4.97-.1-9.01.1-12.13-.02-1.72.2-3.28.66-4.7.46-1.42,1.19-2.31,2.19-2.66,1-.34,4.5-.67,10.53-.6,6.02.08,12.54.56,19.48,1.58,6.94,1.02,13.3,2.44,19.04,4.12,5.75,1.69,8.91,3.1,9.6,3.85.88.82.83,2.98-.16,6.45-.98,3.48-2.16,5.95-3.49,7.46-.66.7-3.28.39-7.93-.66-4.65-1.04-10.09-2.14-16.35-3.09-.05.28-.09.61-.12.99-.03.38-.06.72-.07,1,4.02.75,7.23,1.66,9.65,2.59.56.26,1,1.08,1.26,2.49.27,1.4.31,2.87.16,4.42-.16,1.55-.52,2.92-1.07,4.13-.55,1.21-1.29,1.75-2.23,1.63-.69-.02-1.9-.18-3.64-.44-1.74-.27-3.66-.58-5.77-.91-.05.31-.12.66-.19,1.05-.07.4-.14.74-.19,1.02Z"/><path class="cls-12" d="m384.44,116.45c-7.1,1.8-14.11,1.1-21.4-1.64-7.32-2.74-14.19-5.96-21.06-9.84-2.34-1.33-4.57-2.64-6.7-3.94-2.13-1.3-3.65-2.31-4.51-3.1-1.36-1.21-1.54-4.36-.65-9.51.89-5.15,2.26-10.62,4.23-16.37,1.97-5.75,4.22-10.95,6.89-15.53,2.66-4.58,5.25-6.83,7.69-6.71,2.45.1,5.94.91,10.41,2.62,7.13,2.77,14.45,6.86,21.6,12.38,7.15,5.53,12.21,11.67,15.17,17.82,3.84,8.14,4.28,15.64,1.86,22.07-2.43,6.47-7.15,10.13-13.52,11.74Zm-22.44-37.01c-1.2.82-2.27,2.42-3.26,4.78-.99,2.36-1.08,4.04-.28,5.05.35.49,1.25,1.14,2.67,1.98,2.3,1.4,4.43,2.31,6.44,2.73,2.01.42,3.56.08,4.65-1.08,1.33-1.42,1.44-3.38.23-5.87-1.21-2.49-2.93-4.54-5.1-6.09-.89-.61-1.83-1.13-2.84-1.56-1.01-.43-1.86-.4-2.51.07Z"/><path class="cls-3" d="m176.8,80.49c.23.36.55.85.95,1.47.4.62.72,1.11.95,1.47,3.5-2.22,6.82-4.07,9.93-5.6,3.1-1.53,5.3-2.43,6.54-2.82,1.19-.34,2.31.18,3.35,1.54,1.04,1.36,1.87,2.99,2.5,4.86.64,1.88,1.01,3.71,1.13,5.5.12,1.79-.14,2.93-.82,3.45-1.56,1.21-3.53,2.56-5.88,4.08-2.35,1.53-4.79,3.09-7.31,4.72,2.78,5.21,4.06,8.45,3.8,9.75-.03,1.16-2.27,3.23-6.49,6.6-4.21,3.39-7.38,5.72-9.73,6.72-.75.33-2.93-.75-6.61-3.16-3.67-2.41-7.77-5.27-12.27-8.58-4.5-3.31-8.85-6.68-12.98-10.18-4.13-3.5-6.92-6.29-8.29-8.46-.73-1.2,1.06-4.47,5.68-9.42,4.63-4.93,10.2-9.92,16.74-14.69,6.54-4.77,13.02-8.71,19.3-11.94,6.29-3.21,10.2-4.77,11.57-5.2,1.77-.53,3.34.09,4.66,1.8,1.33,1.72,2.3,3.77,2.97,6.13.66,2.37.96,4.66.91,6.88-.06,2.22-.57,3.6-1.59,4.18-2.38,1.37-5.27,2.95-8.64,4.83-3.37,1.88-6.83,3.9-10.36,6.08Z"/><path class="cls-3" d="m241.91,69.49c5.65-1.19,10.78-2.04,15.38-2.72,4.6-.67,7.36-.57,8.21.02.92.47,1.67,2.72,2.24,6.72.56,4.01.53,6.93-.04,8.76-.26.78-2.55,1.48-6.8,2.37-4.25.9-8.98,1.87-14.19,3.06-5.22,1.19-10.18,2.48-14.93,3.81-4.75,1.33-7.88,2.18-9.48,2.23-.93.05-2.31-1.48-4.19-4.57-1.88-3.09-3.89-6.77-6.04-11.05-2.15-4.28-4.22-8.7-6.18-13.26-1.96-4.56-3.44-8.33-4.41-11.3-.65-1.59-1.03-3.12-1.12-4.62-.09-1.49.27-2.6,1.07-3.3.81-.69,3.98-2.32,9.67-4.5,5.69-2.17,11.96-4.14,18.8-5.76,6.83-1.62,13.27-2.63,19.2-3.19,5.94-.54,9.37-.4,10.28.05,1.11.44,1.86,2.46,2.23,6.05.38,3.59.2,6.33-.47,8.22-.34.89-2.88,1.57-7.56,2.31-4.68.75-10.13,1.72-16.3,3.15.05.28.15.6.26.97.12.37.21.69.31.96,4.01-.78,7.33-1.12,9.91-1.15.62.03,1.32.64,2.09,1.85.77,1.2,1.35,2.56,1.78,4.05.43,1.49.6,2.91.54,4.24-.06,1.33-.55,2.1-1.46,2.33-.64.24-1.83.53-3.53.93-1.71.39-3.61.81-5.7,1.28.06.3.13.65.21,1.05.08.4.15.74.21,1.02Z"/><path class="cls-3" d="m304.28,68.85c5.68.98,10.78,2.08,15.34,3.16,4.55,1.09,7.1,2.21,7.69,3.07.68.78.56,3.15-.39,7.08-.96,3.93-2.07,6.63-3.29,8.13-.54.63-2.95.42-7.26-.33-4.31-.74-9.08-1.59-14.37-2.4-5.29-.81-10.35-1.44-15.22-1.96-4.86-.51-8.04-.88-9.53-1.43-.87-.3-1.57-2.23-2.16-5.79-.58-3.56-1.08-7.73-1.48-12.5-.4-4.77-.67-9.64-.8-14.61-.12-4.97-.11-9.01.1-12.13-.01-1.72.2-3.28.66-4.7.46-1.42,1.19-2.31,2.19-2.66.99-.34,4.5-.67,10.53-.6,6.03.08,12.54.56,19.48,1.58,6.94,1.02,13.3,2.44,19.04,4.12,5.75,1.69,8.91,3.1,9.6,3.85.88.82.82,2.98-.16,6.45-.98,3.48-2.16,5.95-3.49,7.46-.65.7-3.28.39-7.93-.66-4.65-1.04-10.09-2.14-16.35-3.09-.05.28-.09.61-.12.99-.03.38-.05.72-.07,1,4.01.75,7.22,1.66,9.65,2.59.57.26.99,1.08,1.26,2.49.26,1.4.32,2.87.16,4.42-.15,1.54-.52,2.92-1.07,4.13-.55,1.21-1.29,1.75-2.23,1.63-.69-.02-1.9-.18-3.64-.44-1.74-.27-3.66-.58-5.77-.91-.05.31-.12.66-.19,1.05-.07.4-.13.74-.19,1.02Z"/><path class="cls-3" d="m387.51,114.62c-7.1,1.8-14.1,1.1-21.4-1.64-7.32-2.74-14.19-5.97-21.06-9.84-2.34-1.33-4.57-2.64-6.7-3.94-2.13-1.3-3.65-2.31-4.51-3.1-1.36-1.21-1.53-4.36-.65-9.51.89-5.15,2.26-10.62,4.23-16.37,1.97-5.75,4.23-10.95,6.89-15.53,2.66-4.58,5.25-6.83,7.69-6.71,2.44.1,5.94.91,10.41,2.62,7.13,2.77,14.45,6.86,21.6,12.38,7.15,5.53,12.21,11.67,15.16,17.82,3.84,8.14,4.28,15.64,1.86,22.07-2.43,6.47-7.16,10.13-13.52,11.74Zm-22.44-37.01c-1.2.82-2.27,2.42-3.26,4.78-.99,2.36-1.08,4.04-.28,5.05.35.49,1.24,1.14,2.67,1.98,2.3,1.4,4.44,2.31,6.44,2.73,2,.42,3.56.08,4.65-1.08,1.33-1.42,1.44-3.38.23-5.87-1.21-2.49-2.93-4.54-5.1-6.09-.89-.61-1.84-1.13-2.84-1.56-1.02-.43-1.85-.4-2.51.07Z"/><path class="cls-12" d="m100.27,357.52c-.57.18-1.79-.2-3.63-1.18-1.85-.98-3.82-2.22-5.93-3.73-2.11-1.51-4.12-3.13-6.03-4.84-1.91-1.71-3.23-3.16-3.97-4.32-.78-1.22.54-4.73,4.05-10.48,3.51-5.75,7.31-11.35,11.38-16.83-3.35-3-6.09-5.78-8.27-8.25-2.17-2.47-3.15-4.06-2.98-4.71.23-1.06.92-2.45,2.07-4.17,1.15-1.72,2.45-3.37,3.87-4.95,1.42-1.59,2.79-2.93,4.12-4.04,1.33-1.1,2.29-1.55,2.87-1.34.98.18,3.25,1.84,6.91,4.78,3.66,2.94,7.82,6.31,12.55,10,4.73,3.69,9.57,7.31,14.53,10.87,4.96,3.56,9.09,6.36,12.3,8.58,1.26.89,1.56,2.44.89,4.68-.66,2.24-1.74,4.48-3.26,6.71-1.52,2.23-3.21,4.11-5.08,5.62-1.87,1.51-3.35,1.98-4.42,1.4-1.03-.47-2.63-1.3-4.79-2.53-2.16-1.24-4.56-2.69-7.18-4.38-3.92,5.53-7.9,10.73-11.95,15.57-4.05,4.84-6.76,7.34-8.07,7.54Z"/><path class="cls-12" d="m199.5,380.69c-3.51,6.87-9.68,11.54-18.78,13.44-9.07,1.89-18.77.07-28.22-5.55-9.11-5.43-14.85-12.58-17.08-20.75-2.23-8.2-.51-15.11,4.46-20.84,4.64-5.34,10.94-8.4,18.72-9.7,7.79-1.3,15.02-.12,22.31,3.54,8.79,4.4,14.88,9.93,18.54,17.31,3.64,7.34,3.94,14.85.05,22.55Zm-23.24-10.83c1.12-1.79,1.29-3.6.56-5.44-.73-1.84-2.21-3.39-4.44-4.7-2.1-1.23-4.22-1.65-6.41-1.29-2.18.37-3.82,1.31-4.91,2.85-1.35,1.84-1.48,3.96-.31,6.36,1.17,2.4,3.24,4.07,6.14,4.95,1.99.64,3.85.67,5.54.12,1.7-.55,2.96-1.51,3.82-2.86Z"/><path class="cls-12" d="m272.99,390.96c-1.57,7.55-6.29,13.67-14.49,17.87-8.18,4.2-17.91,5-28.34,2.09-10.06-2.81-17.32-8.15-21.52-15.41-4.21-7.28-4.33-14.38-1.09-21.23,3.03-6.38,8.21-11.04,15.25-14.37,7.06-3.34,14.22-4.14,22.11-2.53,9.5,1.92,16.76,5.66,22.18,11.82,5.39,6.14,7.63,13.31,5.9,21.75Zm-25.02-4.37c.61-2.02.3-3.82-.87-5.4-1.17-1.58-2.99-2.69-5.44-3.35-2.32-.63-4.44-.48-6.43.46-1.98.93-3.3,2.27-3.94,4.05-.81,2.13-.39,4.21,1.34,6.21,1.73,2,4.12,3.06,7.12,3.15,2.06.09,3.84-.37,5.31-1.35,1.48-.98,2.44-2.24,2.91-3.76Z"/><path class="cls-12" d="m328.78,408.11c-.26.53-1.34,1.12-3.24,1.73-1.91.61-4.08,1.14-6.52,1.57-2.44.43-4.88.71-7.31.86-2.43.15-4.28.07-5.56-.21-1.34-.3-2.86-3.71-4.46-10.24-1.6-6.53-2.9-13.17-3.95-19.91-4.23.28-7.88.3-10.94.13-3.07-.17-4.75-.58-5.08-1.15-.57-.9-1.05-2.36-1.45-4.39-.4-2.02-.68-4.1-.82-6.22-.15-2.13-.15-4.05-.04-5.77.12-1.72.44-2.72.96-2.99.75-.57,3.32-1.06,7.68-1.61,4.36-.56,9.35-1.17,14.98-1.93,5.63-.76,11.34-1.64,17.13-2.63,5.79-1,10.53-1.93,14.27-2.62,1.48-.26,2.76.63,3.87,2.68,1.11,2.05,1.93,4.39,2.45,7.04.52,2.65.68,5.17.45,7.55-.23,2.39-.91,3.76-2.04,4.11-1.02.4-2.69.94-5.01,1.59-2.32.65-4.95,1.32-7.89,1.97,1.19,6.68,2.11,13.15,2.73,19.43.62,6.28.53,9.96-.21,11.02Z"/><path class="cls-12" d="m383.76,392.74c-.23,1.09-2.86,2.74-7.96,4.74-5.1,2-8.91,2.87-11.35,2.8-1.09-.04-2.77-2.12-4.99-6.24-2.22-4.12-4.44-8.83-6.66-14.12-2.22-5.29-4.19-10.44-5.93-15.43-1.75-4.99-2.76-8.37-3.09-10.13-.24-1.46.75-2.89,2.94-4.34,2.19-1.45,4.68-2.68,7.47-3.7,2.8-1.02,5.47-1.71,8.03-2.05,2.56-.34,4.15,0,4.73,1.06.97,1.82,2.04,4,3.2,6.55,1.17,2.55,2.35,5.26,3.54,8.12,2.23-.98,4.55-2.01,6.98-3.1-1.32-2.79-2.51-5.45-3.57-7.99-1.07-2.54-1.93-4.77-2.57-6.69-.41-1.16.43-2.5,2.48-4.06,2.05-1.56,4.43-2.95,7.17-4.2,2.74-1.25,5.42-2.16,8.07-2.71,2.65-.55,4.44-.27,5.36.89,1.1,1.43,2.9,4.46,5.39,9.12,2.49,4.65,4.96,9.57,7.38,14.75,2.42,5.19,4.42,9.96,5.96,14.31,1.55,4.36,1.96,6.94,1.26,7.72-1.63,1.79-4.96,3.91-10.01,6.15-5.06,2.24-8.12,2.96-9.12,2.38-.68-.25-1.75-1.38-3.18-3.38-1.44-2.01-3.04-4.52-4.78-7.53-1.48.93-3,1.83-4.57,2.7-1.56.87-3.11,1.69-4.63,2.46.92,3.02,1.61,5.61,2.07,7.75.46,2.14.58,3.53.37,4.15Z"/><path class="cls-12" d="m461.58,296.47c.62.93.96,4.05.76,9.42-.2,5.37-1,11.45-2.52,18.2,3.06,4.03,5.57,7.85,7.51,11.47,1.94,3.62,2.83,5.95,2.71,6.97-.09.52-.98,1.61-2.66,3.24-1.69,1.63-3.61,3.32-5.77,5.06-2.16,1.74-4.23,3.3-6.21,4.7-1.98,1.4-3.25,2.13-3.78,2.25-1.14.29-3.36-.87-6.59-3.49-3.23-2.63-6.5-5.86-9.82-9.68-7.09-.22-13.3-1.04-18.69-2.26-5.38-1.23-8.35-2.43-9.08-3.33-.51-.48-.65-1.7-.45-3.66.2-1.95.57-4.04,1.1-6.27.53-2.22,1.14-4.29,1.82-6.2.68-1.91,1.29-3.08,1.85-3.51,1.28-.93,4.02-1.3,8.3-1.28,4.29.02,9.06.12,14.37.23,1.31-5.18,2.48-9.87,3.6-14.08,1.11-4.21,2.25-6.82,3.56-7.86.55-.43,1.83-.75,3.85-.98,2.02-.24,4.17-.38,6.45-.43,2.28-.05,4.39.02,6.32.24,1.94.22,3.06.63,3.37,1.28Z"/><path class="cls-3" d="m103.03,355.68c-.58.18-1.79-.2-3.63-1.18-1.84-.98-3.82-2.22-5.93-3.73-2.11-1.51-4.12-3.13-6.02-4.84-1.9-1.71-3.23-3.16-3.97-4.32-.78-1.22.54-4.73,4.05-10.48,3.5-5.75,7.32-11.35,11.38-16.83-3.35-3-6.09-5.78-8.26-8.25-2.17-2.47-3.15-4.06-2.98-4.71.23-1.06.91-2.45,2.07-4.17,1.15-1.72,2.44-3.37,3.87-4.95,1.42-1.59,2.8-2.93,4.12-4.04,1.33-1.1,2.28-1.55,2.87-1.34.98.18,3.25,1.84,6.91,4.78,3.66,2.94,7.82,6.31,12.55,10,4.73,3.69,9.56,7.31,14.53,10.87,4.97,3.55,9.09,6.36,12.3,8.58,1.26.89,1.56,2.44.89,4.68-.66,2.24-1.74,4.48-3.26,6.71-1.52,2.23-3.2,4.11-5.08,5.62-1.87,1.51-3.35,1.97-4.42,1.4-1.03-.47-2.63-1.3-4.79-2.53-2.16-1.24-4.56-2.69-7.18-4.38-3.92,5.53-7.89,10.73-11.95,15.57-4.05,4.84-6.76,7.34-8.07,7.54Z"/><path class="cls-3" d="m202.26,378.86c-3.5,6.87-9.69,11.54-18.78,13.44-9.08,1.89-18.78.07-28.22-5.55-9.11-5.42-14.85-12.58-17.08-20.75-2.24-8.2-.51-15.11,4.46-20.84,4.64-5.34,10.94-8.4,18.72-9.7,7.79-1.3,15.02-.12,22.31,3.54,8.79,4.4,14.88,9.93,18.54,17.31,3.64,7.34,3.94,14.85.05,22.55Zm-23.24-10.83c1.12-1.79,1.29-3.6.56-5.44-.74-1.84-2.21-3.39-4.44-4.7-2.11-1.23-4.22-1.66-6.41-1.29-2.18.37-3.83,1.31-4.91,2.85-1.35,1.84-1.48,3.96-.31,6.36,1.17,2.4,3.23,4.07,6.14,4.95,1.99.64,3.85.67,5.54.12,1.7-.55,2.97-1.51,3.82-2.86Z"/><path class="cls-3" d="m275.75,389.12c-1.58,7.55-6.29,13.66-14.49,17.87-8.19,4.2-17.91,5-28.34,2.09-10.06-2.81-17.32-8.15-21.52-15.41-4.21-7.28-4.33-14.38-1.09-21.23,3.03-6.38,8.21-11.04,15.25-14.37,7.06-3.34,14.22-4.14,22.11-2.53,9.5,1.92,16.77,5.66,22.18,11.82,5.39,6.14,7.63,13.31,5.9,21.75Zm-25.02-4.37c.61-2.02.3-3.81-.87-5.4-1.17-1.58-2.98-2.69-5.44-3.35-2.32-.63-4.44-.48-6.42.46-1.98.93-3.3,2.27-3.94,4.05-.81,2.13-.39,4.21,1.34,6.21,1.73,2,4.13,3.06,7.12,3.15,2.06.09,3.84-.37,5.31-1.35,1.47-.98,2.43-2.24,2.91-3.76Z"/><path class="cls-3" d="m331.54,406.27c-.26.53-1.33,1.12-3.24,1.73-1.91.61-4.08,1.14-6.52,1.57-2.44.43-4.88.71-7.31.86-2.43.15-4.28.07-5.56-.21-1.34-.3-2.86-3.71-4.46-10.24-1.6-6.53-2.9-13.17-3.95-19.91-4.23.28-7.88.3-10.94.13-3.06-.17-4.75-.58-5.08-1.15-.57-.9-1.05-2.36-1.45-4.39-.4-2.02-.68-4.1-.82-6.22-.15-2.13-.16-4.05-.04-5.77.12-1.72.43-2.72.96-2.99.75-.57,3.32-1.06,7.68-1.61,4.36-.56,9.35-1.17,14.98-1.93,5.63-.77,11.33-1.64,17.13-2.63,5.78-1,10.53-1.93,14.27-2.62,1.48-.26,2.76.63,3.87,2.68,1.1,2.05,1.93,4.39,2.45,7.04.52,2.65.68,5.17.45,7.55-.22,2.39-.91,3.76-2.04,4.11-1.02.4-2.69.94-5.01,1.59-2.32.65-4.95,1.32-7.89,1.97,1.19,6.68,2.11,13.15,2.73,19.43.62,6.28.54,9.96-.21,11.02Z"/><path class="cls-3" d="m386.52,390.9c-.24,1.09-2.87,2.74-7.96,4.74-5.1,2-8.91,2.87-11.35,2.8-1.09-.04-2.77-2.12-4.99-6.24-2.22-4.12-4.44-8.83-6.66-14.12-2.21-5.29-4.19-10.44-5.93-15.43-1.74-4.99-2.76-8.37-3.09-10.13-.25-1.46.76-2.89,2.94-4.34,2.19-1.45,4.68-2.68,7.47-3.7,2.8-1.02,5.47-1.71,8.03-2.05,2.56-.34,4.14,0,4.73,1.06.97,1.82,2.04,4,3.2,6.55,1.17,2.55,2.36,5.26,3.54,8.12,2.22-.98,4.55-2.01,6.98-3.1-1.31-2.79-2.51-5.45-3.57-7.99-1.07-2.54-1.92-4.77-2.57-6.69-.41-1.16.44-2.5,2.48-4.06,2.05-1.56,4.43-2.95,7.17-4.2,2.74-1.25,5.42-2.16,8.07-2.71,2.65-.55,4.43-.27,5.36.89,1.1,1.43,2.9,4.46,5.39,9.12,2.49,4.65,4.96,9.57,7.38,14.75,2.42,5.19,4.42,9.96,5.96,14.31,1.55,4.36,1.96,6.94,1.26,7.72-1.63,1.79-4.96,3.91-10.01,6.15-5.06,2.24-8.12,2.96-9.12,2.38-.68-.25-1.75-1.38-3.18-3.38-1.44-2.01-3.04-4.52-4.78-7.53-1.48.93-3,1.83-4.57,2.7-1.57.87-3.11,1.69-4.63,2.46.92,3.02,1.61,5.61,2.07,7.75.46,2.14.58,3.53.37,4.15Z"/><path class="cls-3" d="m464.33,294.63c.63.93.96,4.05.76,9.42-.21,5.37-.99,11.45-2.52,18.2,3.06,4.03,5.57,7.85,7.51,11.47,1.94,3.62,2.83,5.95,2.71,6.97-.09.52-.98,1.61-2.66,3.24-1.69,1.63-3.61,3.32-5.77,5.06-2.16,1.74-4.23,3.3-6.21,4.7-1.98,1.4-3.25,2.13-3.78,2.25-1.14.29-3.36-.87-6.59-3.49-3.24-2.63-6.5-5.86-9.82-9.68-7.09-.22-13.31-1.04-18.69-2.26-5.38-1.23-8.35-2.43-9.08-3.33-.51-.48-.65-1.7-.45-3.66.2-1.95.56-4.04,1.1-6.27.54-2.22,1.13-4.29,1.82-6.2.68-1.91,1.29-3.08,1.85-3.51,1.28-.93,4.02-1.3,8.3-1.28,4.28.02,9.06.12,14.37.23,1.31-5.18,2.48-9.87,3.6-14.08,1.12-4.21,2.25-6.82,3.56-7.86.55-.43,1.83-.74,3.85-.98,2.02-.24,4.17-.38,6.45-.43,2.28-.05,4.38.02,6.32.24,1.93.22,3.06.63,3.37,1.28Z"/></svg>