<?xml version="1.0" encoding="UTF-8"?><svg id="tooth2" xmlns="http://www.w3.org/2000/svg" width="100" height="170" viewBox="0 0 100 170"><defs><style>.cls-1{fill:#fff;}.cls-2{fill:#9b8b7c;}.cls-3{fill:#dbc0a5;}</style></defs><g id="mid_tooth"><path class="cls-3" d="m96.42,9.58c-2.27,5.04-9.8,16.83-10.52,17.82-4.38,5.92-4.28,3.88-13.33,21.85-11.56,22.92-17.83,40.26-15.48,60.14,1.21,10.06,2.01,16.66,5.31,25.01,3.04,7.65,4.07,16.09,7.38,23.61.42.94,1.66,3.7.72,5.35-36-50.06-13.03-109.4,20.64-153.44-22.85,1.34-45.52-1.02-68.07-6.19-.71-.16-1.44-.3-2.14-.47,1.15-.84,2.34-1.4,3.56-1.65.19-.03.39-.08.58-.11.93-.1,1,.09,5.14,1.13,8.55,2.13,16.21,3.12,31.19,4.97,12.91,1.61,26.29-.93,32.34-1.03,1.99-.05,3.18.2,3.35.92.07.31-.2,1.07-.67,2.09Z"/><path class="cls-2" d="m69.42,164.3c-.84.37-1.9.4-2.86.33-8.11-.66-16.36-7.24-16.36-7.24-10.98-5.87-18.58-11.95-20.32-13.61C11.62,126.39,7.71,104.03,5.58,90.78-.32,54.19,8.65,12.31,20.93,3.25c.71.18,1.44.31,2.14.47C5.08,31.99,3.99,64.42,10.05,97.19c6.03,32.59,29.98,58.97,59.37,67.1Z"/><path class="cls-1" d="m70.51,163.35c-.04.08-.07.18-.16.28-.24.32-.58.52-.93.67-29.38-8.14-53.34-34.52-59.37-67.1C3.99,64.42,5.08,31.99,23.08,3.72c22.55,5.17,45.22,7.53,68.07,6.19-33.68,44.04-56.64,103.38-20.64,153.44Z"/></g></svg>