<?xml version="1.0" encoding="UTF-8"?><svg id="tooth3" xmlns="http://www.w3.org/2000/svg" width="110" height="170" viewBox="0 0 110 170"><defs><style>.cls-1{fill:#fff;}.cls-2{fill:#9b8b7c;}.cls-3{fill:#dbc0a5;}</style></defs><g id="small_tooth"><path class="cls-2" d="m40.39,165.33c-6.92-2.5-12.46-10.16-12.46-10.16-8.42-7.9-13.72-15.29-14.87-17.24C1.03,117.48.75,93.25,2.17,80.13,5.99,44.94,25.51,9.43,39.19,2.04c.62.4,1.24.79,1.86,1.19-44.57,40.98-52.37,124.92-.66,162.11Z"/><path class="cls-1" d="m43.07,165.82c-.73.07-1.53-.09-2.22-.32-.14-.04-.31-.12-.45-.16C-11.32,128.15-3.52,44.21,41.05,3.23c17.08,10.84,34.74,19.63,54.67,20.94-37.18,36.81-62.56,90.29-52.66,141.65Z"/><path class="cls-3" d="m108.06,21.27c-.03.44-.8,1.53-1.96,2.92-3.89,4.71-12.33,13.1-13.16,13.83-5.44,4.78-4.83,2.82-17.51,18.16-16.22,19.58-17.14,30.21-24.39,54.41-2.87,9.58-3.62,12.1-6.29,25.06-1.61,7.85-.39,16.28.69,24.17.14,1.04.63,4.25-.91,5.5-.42.35-.94.48-1.47.51-9.89-51.36,15.48-104.84,52.66-141.65-19.93-1.31-37.6-10.1-54.67-20.94-.62-.4-1.24-.79-1.86-1.19,1.7-.91,3.3-1.41,4.75-1.42.26,0,.51-.03.76.02.87.08.89.29,4.35,2.12,7.16,3.83,13.81,6.35,26.82,11.22,8.96,3.37,18.79,4.26,25.21,5.07,4.27.54,7.05,1.03,6.98,2.22Z"/></g></svg>