<?xml version="1.0" encoding="UTF-8"?><svg id="tooth1" xmlns="http://www.w3.org/2000/svg" width="100" height="190" viewBox="0 0 100 190"><defs><style>.cls-1{fill:#fff;}.cls-2{fill:#9b8b7c;}.cls-3{fill:#dbc0a5;}</style></defs><g id="big_tooth"><path class="cls-3" d="m94.59,21.44c-21.98-3.79-42.84-7.66-63.63-15.18-1.1-.4-2.2-.75-3.3-1.17,1.73-1.1,3.47-1.71,5.18-1.72.39,0,.65.02,1.04.15.68.2,1.74.66,4.54,1.65,9.27,3.3,17.67,5.24,34.1,8.96,12.48,2.84,19.69,4.18,23.24,5.72,1.53.66,2.39,1.37,2.69,2.24.06.14.11.3.12.45.26,2.12-2.39,4.02-3.66,4.98-5.85,4.5-10.19,13.99-18.87,32.95-11.65,25.48-19.2,41.99-18.58,63.87.32,11.1.54,18.36,3.35,27.8,2.6,8.67,2.9,17.98,5.81,26.54.27.76.88,2.55.8,4.12-26.62-54.55-5.75-115.65,27.18-161.38Z"/><path class="cls-1" d="m66.66,184.88c-.21.22-.49.38-.76.51-22.33-11.35-43.77-24.69-51.83-49.3C1.72,94.33-2.64,39.77,30.96,6.26c20.79,7.52,41.66,11.39,63.63,15.18-32.92,45.73-53.8,106.83-27.18,161.38-.03.79-.23,1.53-.75,2.06Z"/><path class="cls-2" d="m65.9,185.39c-1.03.45-2.36.37-3.56.14-8.9-1.64-17.41-9.73-17.41-9.73-11.59-7.63-19.39-15.1-21.18-17.12C5.27,137.71,3.21,112.94,2.17,98.28-.62,58.2,13.27,14.13,27.66,5.09c1.1.42,2.2.77,3.3,1.17C-2.64,39.77,1.72,94.33,14.07,136.09c8.06,24.61,29.5,37.95,51.83,49.3Z"/></g></svg>