<?xml version="1.0" encoding="UTF-8"?><svg id="Toothy_copy_3" xmlns="http://www.w3.org/2000/svg" width="600" height="550" viewBox="0 0 600 550"><defs><style>.cls-1{fill:#fff;}.cls-2{fill:#996f45;}.cls-3{fill:#ba8b5d;}.cls-4{fill:#fff0e3;}.cls-5{fill:#9b8b7c;}.cls-6{fill:#84613e;opacity:.5;}.cls-7{fill:#dbc0a5;}.cls-8{fill:#ceb79f;}.cls-9{fill:#f9eadc;}.cls-10{fill:#966f48;}.cls-11{fill:#333232;}.cls-12{fill:#a88051;}</style></defs><g id="toothy_hand_right"><path class="cls-4" d="m423.9,320.21c-.95-.14-2.02.62-2.4,1.49-1.26,2.86,4.19,8.1,5.45,7.43,1.31-.69-.31-8.51-3.05-8.93Z"/><path class="cls-1" d="m424,320.92c-.81-.12-1.72.53-2.05,1.27-1.07,2.44,3.57,6.92,4.65,6.35,1.12-.59-.27-7.27-2.6-7.62Z"/><path class="cls-4" d="m408.27,329.55c-.95-.17-2.03.57-2.44,1.43-1.32,2.83,3.99,8.2,5.27,7.57,1.32-.66-.11-8.52-2.83-9Z"/><path class="cls-1" d="m408.45,330.11c-.84-.15-1.79.5-2.15,1.26-1.17,2.49,3.52,7.23,4.65,6.67,1.17-.58-.09-7.51-2.5-7.94Z"/><path class="cls-4" d="m417.44,328.28c-.96.08-1.82,1.06-2,2-.57,3.07,5.92,6.94,7,6,1.12-.97-2.24-8.22-5-8Z"/><path class="cls-1" d="m417.79,329c-.82.07-1.55.9-1.7,1.7-.49,2.61,5.03,5.89,5.95,5.1.95-.82-1.9-6.98-4.25-6.8Z"/><path class="cls-2" d="m355.07,263.09c-3.42-11.75.87-28.93,6.9-30.48,2.54-.66,5.08,1.55,7.55,4.06,18.1,18.42,19.55,40.48,34.32,53.77,5.07,4.57,9.51,6.11,15.48,15.34,3.89,6.02,7.85,14.38,7.05,16.92-.08.25-.2.44-.37.57-.96.79-1.89.72-4.02.72-1,0-1.37-.74-2-2l-1.67-3.34c-.21-.42-.54-.76-.95-.99-1.16-.67-.51-.67-1.38-.67s-.73,1.98-.81,2.13c0,0,1.77,3.76,1.81,3.87,1,3,4.4,4.25,4.14,7.98-.11,1.64-1.52,2.24-2.48,2.29-4.9.23-10.54-13.28-11.07-12.52-.47.67,4.66,10.39,3.58,13.92-.5,1.64-2.3,1.78-3.75.7-3.07-2.28-3.64-9.29-7.71-20.45,0,0-1.33-3.63-5.12-11.81-10.1-21.75-33.99-21.13-39.5-40.03Z"/></g><g id="tooty_leg_right_copy_4"><path class="cls-12" d="m282.03,363.02c-11.81,10.46,2.76,34.82,6.96,72.13.89,7.91,1.38,16.93,7.84,24.24,2.27,2.57,3.01,4.32,3.96,7.64,1.78,6.24-2.02,8.84-3.29,17.43-1.47,9.93,3.61,18.1,5.19,20.64,1.29,2.07,4,3.17,4,3.17.9,1.14,2.22,2.26,2.65,3.6.88,2.72,4.57,4.67,5.78,4.08,1.88-.92,2.54-6.78-.36-10.3-1.11-1.35-4.5-4.44-4.44-4.52.13-.16,6.11,2.81,10.22,8.6.85,1.2,1.53,2.39,2.22,2.26,1.06-.21,1.77-3.51.95-6.26-1.14-3.84-4.98-5.7-4.87-5.86.58-.86,11.05,3.85,11.13,6.81,0,.22-.03,1.11.44,1.35.47.24,1.2-.32,1.35-.44,1.76-1.36,1.41-4.75,1.39-4.91-.41-3.55-4.55-6.68-8.44-7.68-2.78-.72-5.53-.35-6.69-2.3-.33-.55-.4-1.06-.44-1.35-.45-3.31-1.52-6.53-1.7-9.86-.48-8.7-3.71-11.16-3.84-21.07-.05-3.65.34-6.26.52-7.6.69-5.28,10.7-82.29-12.15-92.77-5.83-2.67-13.86-1.04-18.38,2.97Z"/><path class="cls-9" d="m314.24,510.85s.03-.02.05-.02c.58-.07,1.69,1.73,1.88,3.51.06.58.05,1.65-.48,2.55-.05.09-.28.41-.66.76,0,0-.25.35-.57.46-.04.01-.09.02-.14,0,2.11-1.99,1.94-5.38-.09-7.27Z"/><path class="cls-8" d="m314.35,518.11s0,0-.01.01c0,0-.02,0-.03-.01-.07-.06-.05-.2-.04-.24.05-.35.1-.72.03-1.07-.12-.57-.15-.68-.28-1.11-.32-1.07-.36-1.54-1.08-2.4-.56-.68-.53-.59-.77-.8-.04-.04-.48-.48-.62-.67,2.06,1.12,3.26,3.98,2.81,6.29Z"/><path class="cls-1" d="m312.92,511.42c.57-.22.87-.33,1.18-.5.08-.04.11-.06.14-.08,2.02,1.89,2.2,5.27.1,7.26.45-2.31-.74-5.17-2.81-6.29-.03-.03-.04-.06-.04-.07,0-.13.76-.07,1.42-.32Z"/><path class="cls-9" d="m322.2,506.19s.04-.02.06-.02c.62-.07,1.77,1.82,1.98,3.69.07.61.05,1.74-.5,2.69-.05.09-.3.43-.69.8,0,0-.27.37-.6.48-.05.02-.1.02-.14,0,2.22-2.09,2.04-5.65-.1-7.65Z"/><path class="cls-8" d="m322.31,513.82s0,0-.01.01c0,0-.02,0-.03-.01-.07-.06-.05-.21-.04-.26.05-.37.11-.76.03-1.12-.12-.6-.16-.72-.29-1.16-.34-1.12-.38-1.62-1.13-2.53-.59-.71-.56-.62-.82-.84-.04-.04-.51-.5-.66-.7,2.17,1.17,3.43,4.19,2.95,6.62Z"/><path class="cls-1" d="m320.81,506.79c.6-.23.91-.34,1.25-.52.08-.04.12-.07.15-.08,2.13,1.99,2.31,5.54.11,7.63.47-2.43-.78-5.44-2.95-6.62-.03-.04-.04-.06-.05-.08,0-.14.8-.08,1.5-.34Z"/><path class="cls-9" d="m330.69,501.06s.04-.02.06-.02c.72-.08,2.07,2.13,2.31,4.31.08.71.06,2.03-.59,3.13-.06.11-.35.51-.81.94,0,0-.31.43-.7.56-.05.02-.12.03-.17,0,2.59-2.44,2.38-6.6-.11-8.92Z"/><path class="cls-8" d="m330.82,509.96s0,.01-.02.01c-.01,0-.02,0-.03-.02-.08-.07-.06-.24-.05-.3.06-.43.12-.88.04-1.31-.15-.7-.19-.84-.34-1.36-.39-1.31-.44-1.89-1.32-2.95-.69-.83-.66-.73-.95-.98-.05-.04-.6-.59-.77-.82,2.53,1.37,4,4.89,3.44,7.72Z"/><path class="cls-1" d="m329.07,501.76c.71-.27,1.07-.4,1.45-.61.09-.05.14-.08.17-.09,2.48,2.32,2.7,6.47.13,8.91.55-2.83-.91-6.35-3.44-7.72-.03-.04-.05-.07-.05-.09,0-.16.94-.09,1.74-.4Z"/></g><g id="toothy_body-2"><path class="cls-3" d="m318.98,17c-18,13-33,29-43,49-6,14-11,28-15,43-13,60-18,118-43,173-6,15-22,23-37,28-27,10-57,20-83,9-17-7-33-16-46-30-13-13-20-30-27-47-5.23-14.38-6.47-29.33-6.37-44.52.58-.97,1.06-1.48,1.37-1.48,2.24.05,3.17,26.12,13,51,1.3,3.28,3.42,8.25,7,14,5.22,8.39,10.94,14.3,15,18,2.54,2.54,6.25,6.09,11,10,3.06,2.52,20.84,16.96,38,23,34.68,12.2,70.79-8.51,75-11,1.43-.85,32.77-20.01,45-57,2.73-8.25.17-4.28,6-33,7.07-34.82,10.57-39.39,13-60,1.64-13.89,2.43-19.26,4-30,.3-2.06.94-6.37,2-12,.92-4.88,1.79-9.5,3-14,2.21-8.21,4.99-13.85,9-22,2.35-4.78,5.63-10.98,10-18,2.48-2.86,6.23-7.08,11-12,15.53-16,25.8-27.41,40-31,.92-.23,1.83-.43,2.72-.6-1.89,2-3.75,3.96-5.72,5.6Z"/><path class="cls-12" d="m18.61,197.48c-.1,15.19,1.14,30.14,6.37,44.52,7,17,14,34,27,47,13,14,29,23,46,30,26,11,56,1,83-9,15-5,31-13,37-28,25-55,30-113,43-173,4-15,9-29,15-43,10-20,25-36,43-49,1.97-1.64,3.83-3.6,5.72-5.6,9.72-1.91,17.74-.59,25.28.6,25.24,3.99,50.71,6.38,76,10,37.46,5.36,82.35,8.61,105,20,8.64,4.34,16,10,16,10,0,0,9.96,7.66,18,18,8.14,10.47,36.69,54.67,20,90-1.83,3.87-3.87,6.69-4.82,8.03-6.94,9.75-16.59,17.14-40.18,26.97-16.01,6.67-28.9,11.95-48.28,15.74-2.37.46-50.29,9.51-74.72-1.74-.05-.02-17-8-17-8-2-1-2.04-.27-3,0,.18-.14-.44.12,0,0-.09.07-1.34.66-1,1,4.14,4.14,4.23,13.75,2.76,24.05-17.12.46-35.54,4.67-47.76,15.95-12,11-22,25-30,40-19.83,39.66-32.49,82.89-38.89,127.15-72.58,12.8-157.65,8.38-216.68-37.02-17.1-18.45-36.2-43.58-48.43-77.13-16.59-45.54-3.44-89.09,1.63-97.52Z"/><path class="cls-10" d="m282.09,409.15c-.18,1.25-.38,2.5-.55,3.75-5.45,2.07-10.39,3.71-14.56,5.09-29.25,9.69-52.49,9.29-85,9-17.47-.16-30.66-1.57-45-6-5.04-1.56-17.1-5.61-31-14-4.87-2.94-15.38-9.67-28-22-3.96-3.87-8.2-8.16-12.57-12.87,59.04,45.4,144.1,49.83,216.68,37.02Z"/><path class="cls-1" d="m320.98,282c8-15,18-29,30-40,11.78-10.87,29.31-15.17,45.89-15.88-15.75,72.07-38.22,155.57-114.27,182.94-.17.03-.34.06-.51.09,6.4-44.27,19.06-87.5,38.89-127.15Z"/><path class="cls-1" d="m282.09,409.15c.17-.03.34-.06.51-.09-.18.06-.35.13-.52.19,0-.04.01-.07.02-.11Z"/><path class="cls-6" d="m282.59,409.07c76.05-27.37,98.52-110.88,114.27-182.94.63-.03,1.25-.06,1.88-.08-2.36,16.6-8.76,34.95-8.76,34.95-2.02,10.79-5.56,26.19-12,44-8.89,24.58-17.36,48-38,70-18.66,19.88-39.73,30.59-56.44,37.13-.23-1.11-.42-2.17-.56-3.13-.13.02-.26.04-.38.07Z"/><path class="cls-6" d="m282.07,409.26c.18-.06.35-.13.52-.19.13-.02.26-.04.38-.07.14.96.33,2.02.56,3.13-.67.26-1.34.52-2,.77.17-1.22.36-2.43.53-3.65Z"/></g><g id="toothy_eye"><ellipse class="cls-1" cx="351.98" cy="67.65" rx="47" ry="36.65"/><ellipse cx="351.49" cy="68.51" rx="44.79" ry="34.93"/><path class="cls-1" d="m326.54,45.66c2.46-1.45,7.94-4.67,10.35-2.59,1.75,1.51,1.27,5.31,0,7.76-3.48,6.71-15.38,8.09-17.25,5.17-.43-.68-.25-1.47,0-2.59.95-4.19,4.73-6.48,6.9-7.76Z"/><path class="cls-1" d="m340.33,49.11c-.02.61,2.09,1.79,3.45.86.61-.42,1.13-1.3.86-1.72-.54-.86-4.28.06-4.31.86Z"/><path class="cls-1" d="m338.61,42.21c.21-1.76,3.48-2.89,6.04-2.59,1.75.21,4.22,1.21,4.31,2.59.12,1.77-3.7,4.31-6.9,3.45-1.74-.47-3.62-2.03-3.45-3.45Z"/><path class="cls-1" d="m384.18,90.09c.52,1.2-3.67,4.13-5.17,5.17-3.46,2.41-6.55,3.49-7.77,3.88-1.79.57-3.49.82-6.89,1.3-4.46.63-5.03.31-5.17,0-.18-.37.08-1.07,1.72-2.59,4.89-4.52,11-6.22,13.8-6.9,3.1-.75,8.92-2.17,9.49-.86Z"/><path class="cls-11" d="m346.82,35.31c1.2-.33,2.98-.73,5.17-.86,3.48-.21,6.19.34,8.62.86,2.14.46,3.63.94,6.04,1.72,3.5,1.14,5.94,2.17,6.9,2.59,0,0,2.14.93,5.17,2.59.7.39,1.58.88,2.59,1.72.75.63,1.85,1.52,1.72,1.72-.14.24-1.95-.58-2.59-.86-.78-.35-1.32-.65-1.72-.86,0,0-.92-.49-3.45-1.72-1.49-.73-3.02-1.36-6.04-2.59-2.46-1.01-3.7-1.51-4.31-1.72-2.89-1-5.2-1.42-6.9-1.72-2.7-.48-6.51-.95-11.21-.86"/><path class="cls-11" d="m324.81,94.54c2.57,1.44,2.9,1.84,4.31,2.59,1.74.93,3.24,1.39,4.31,1.72,1.04.32,1.86.51,3.45.86,1.98.44,2.49.46,4.31.86,1.77.39,2.97.73,3.45.86,5.31,1.42,13.78.62,13.8.86.01.15-3.31.92-7.76.86-3.84-.05-7.16-.89-13.8-2.59-5.68-1.45-7.58-2.25-9.49-3.45-2.13-1.34-4.42-3.29-4.31-3.45.02-.03.15-.02,1.72.86Z"/></g><path class="cls-2" d="m540.98,83c1.5-1.21,8.78,4,12,11,.44.96,1.94,4.23,1,5-1.12.91-5.28-1.98-8-5-3.57-3.96-6.28-9.96-5-11Z"/><path class="cls-2" d="m521.98,85c1.6-.82,8.04,4.88,7,10-.21,1.03-.88,2.85-2,3-1.87.26-4.2-4.24-5-8-.33-1.55-.97-4.51,0-5Z"/><g id="toothy_hand_left_copy_4"><path class="cls-2" d="m291,272.22c-1.52-8.16,7.78-18.94,15.62-19.22,3.3-.12,5.94,1.65,8.41,3.6,18.14,14.37,14.83,29.07,30.03,39.65,5.22,3.63,10.36,5.2,15.62,12.01,3.43,4.44,6.39,10.44,4.81,12.01-2.19,2.19-12.32-4.92-13.22-3.6-.74,1.08,5.98,5.99,4.81,8.41-.52,1.07-2.4,1.29-3.6,1.2-6.12-.45-9.98-10.04-10.81-9.61-.74.38,3.37,7.42,1.2,9.61-1,1.02-3.26.89-4.81,0-3.28-1.88-2.35-6.56-4.81-14.42,0,0-.8-2.56-3.6-8.41-7.46-15.57-37.21-18.11-39.65-31.24Z"/><path class="cls-4" d="m362.06,314.5c-.96.08-1.82,1.06-2,2-.57,3.07,5.92,6.94,7,6,1.12-.97-2.24-8.22-5-8Z"/><path class="cls-1" d="m362.37,315c-.85.07-1.61.93-1.76,1.76-.51,2.71,5.22,6.12,6.17,5.29.98-.86-1.98-7.25-4.41-7.06Z"/><path class="cls-4" d="m353.03,321.28c-.96.08-1.82,1.06-2,2-.57,3.07,5.92,6.94,7,6,1.12-.97-2.24-8.22-5-8Z"/><path class="cls-1" d="m353.38,322c-.82.07-1.55.9-1.7,1.7-.49,2.61,5.03,5.89,5.95,5.1.95-.82-1.9-6.98-4.25-6.8Z"/><path class="cls-4" d="m341.82,320.98c-.91-.32-2.1.23-2.64,1.02-1.77,2.57,2.6,8.74,3.97,8.32,1.41-.43,1.28-8.42-1.33-9.34Z"/><path class="cls-1" d="m341.78,321.7c-.78-.27-1.79.19-2.25.87-1.51,2.2,2.22,7.46,3.39,7.1,1.21-.37,1.1-7.19-1.13-7.97Z"/></g><g id="tooty_leg_left_copy_4"><path class="cls-12" d="m215.74,383.04c-13.57,7.78-4.31,34.37-7.71,71.45-.72,7.87-2.06,16.72,2.75,25.12,1.69,2.96,2.06,4.8,2.31,8.22.48,6.42-3.73,8.18-6.69,16.27-3.42,9.35-.13,18.3.9,21.08.84,2.27,3.25,3.88,3.25,3.88.65,1.29,1.7,2.64,1.85,4.03.31,2.82,3.5,5.46,4.8,5.12,2.01-.51,3.83-6.07,1.72-10.07-.81-1.54-3.48-5.22-3.4-5.28.16-.13,5.37,3.95,8.2,10.4.59,1.34,1.01,2.63,1.7,2.64,1.07,0,2.42-3.05,2.18-5.89-.34-3.95-3.69-6.54-3.55-6.67.74-.72,9.96,5.95,9.44,8.85-.04.21-.25,1.07.15,1.4.41.33,1.23-.07,1.4-.15,1.98-.97,2.32-4.33,2.33-4.49.31-3.53-3.08-7.4-6.65-9.16-2.55-1.26-5.3-1.45-6.04-3.58-.21-.6-.17-1.11-.15-1.4.22-3.3-.16-6.65.33-9.92,1.28-8.55-1.36-11.58.5-21.24.68-3.55,1.59-6.02,2.03-7.28,1.73-4.99,26.9-77.78,6.82-92.54-5.13-3.77-13.25-3.79-18.45-.81Z"/><path class="cls-9" d="m235.42,527.68s.04-.01.07,0c.71.07,1.55,2.47,1.33,4.62-.07.7-.36,1.96-1.21,2.89-.08.09-.44.42-.97.73,0,0-.39.35-.79.39-.06,0-.12,0-.16-.03,2.99-1.81,3.65-5.86,1.74-8.61Z"/><path class="cls-8" d="m233.7,536.28s-.01,0-.02.01c0,0-.02-.01-.03-.02-.07-.08,0-.24.01-.3.14-.4.3-.83.31-1.25,0-.71,0-.85-.05-1.38-.11-1.34-.04-1.91-.66-3.11-.49-.94-.48-.83-.71-1.14-.04-.05-.45-.69-.57-.94,2.15,1.84,2.84,5.53,1.72,8.14Z"/><path class="cls-1" d="m233.71,528.02c.73-.11,1.11-.17,1.53-.29.1-.03.15-.05.18-.05,1.91,2.75,1.26,6.78-1.72,8.6,1.12-2.61.43-6.3-1.72-8.14-.02-.05-.03-.08-.03-.1.02-.16.92.11,1.76-.02Z"/><path class="cls-9" d="m226.4,530.28s.04-.01.06,0c.66.05,1.51,2.28,1.36,4.3-.05.66-.29,1.85-1.07,2.74-.08.09-.4.4-.89.71,0,0-.36.34-.73.39-.05,0-.11,0-.15-.02,2.76-1.77,3.28-5.58,1.42-8.11Z"/><path class="cls-8" d="m225,538.38s-.01,0-.02.01c0,0-.02-.01-.03-.02-.06-.08-.01-.23,0-.28.13-.38.26-.78.26-1.18-.01-.66-.03-.79-.08-1.29-.13-1.26-.08-1.79-.7-2.9-.48-.87-.47-.77-.69-1.05-.04-.05-.44-.63-.56-.87,2.06,1.67,2.79,5.11,1.81,7.58Z"/><path class="cls-1" d="m224.81,530.64c.69-.12,1.04-.18,1.42-.3.09-.03.14-.05.17-.06,1.86,2.53,1.35,6.32-1.4,8.1.98-2.47.25-5.91-1.81-7.58-.02-.04-.03-.08-.03-.09.02-.15.87.08,1.65-.06Z"/><path class="cls-9" d="m217.71,531.49s.05-.02.08-.03c.89-.1,2.57,2.65,2.87,5.36.1.89.08,2.52-.73,3.9-.08.13-.44.63-1,1.16,0,0-.39.54-.87.7-.07.02-.14.04-.21,0,3.22-3.03,2.96-8.21-.14-11.1Z"/><path class="cls-8" d="m217.87,542.57s-.01.01-.02.02c-.01,0-.03-.01-.04-.02-.1-.08-.07-.3-.06-.37.07-.53.15-1.1.05-1.63-.18-.88-.23-1.04-.43-1.69-.49-1.63-.55-2.35-1.65-3.67-.86-1.03-.82-.9-1.18-1.22-.06-.05-.74-.73-.95-1.02,3.15,1.71,4.97,6.08,4.28,9.6Z"/><path class="cls-1" d="m215.69,532.36c.88-.33,1.33-.5,1.81-.76.12-.06.18-.1.21-.12,3.09,2.89,3.36,8.05.16,11.08.69-3.52-1.14-7.9-4.28-9.6-.04-.05-.06-.09-.07-.11-.01-.2,1.17-.11,2.17-.49Z"/></g><g id="toothy_teeth_copy_4"><g id="big_tooth"><path class="cls-7" d="m530.33,173.5c11.32-1.39,22.07-2.85,32.88-6.17.57-.18,1.14-.33,1.72-.52-.86-.61-1.73-.96-2.6-1.01-.2,0-.33,0-.54.05-.35.08-.9.3-2.36.73-4.82,1.46-9.15,2.24-17.64,3.73-6.45,1.14-10.16,1.65-12.01,2.35-.8.3-1.26.64-1.43,1.08-.03.07-.06.15-.07.23-.19,1.08,1.12,2.11,1.75,2.64,2.88,2.44,4.86,7.4,8.82,17.3,5.32,13.3,8.76,21.92,7.91,33.08-.44,5.66-.73,9.37-2.4,14.12-1.54,4.36-1.93,9.11-3.63,13.41-.16.38-.51,1.28-.51,2.09,14.95-27.2,5.8-58.93-9.88-83.1Z"/><path class="cls-1" d="m540.54,257.67c.1.12.24.2.38.28,11.69-5.24,22.97-11.52,27.69-23.9,7.35-21.03,10.93-48.78-5.4-66.73-10.81,3.33-21.56,4.78-32.88,6.17,15.68,24.18,24.83,55.9,9.88,83.1,0,.41.08.79.33,1.07Z"/><path class="cls-5" d="m540.91,257.95c.51.25,1.2.25,1.82.16,4.59-.62,9.13-4.54,9.13-4.54,6.11-3.61,10.28-7.23,11.24-8.22,9.96-10.25,11.63-22.86,12.52-30.32,2.42-20.4-3.58-43.25-10.71-48.23-.57.19-1.14.34-1.72.52,16.33,17.95,12.75,45.71,5.4,66.73-4.73,12.37-16.01,18.65-27.69,23.9Z"/></g><g id="mid_tooth"><path class="cls-7" d="m484.83,174.11c.99,2.52,4.39,8.46,4.72,8.96,2,3,2,2,6,11,5.11,11.48,7.76,20.11,6.14,29.77-.83,4.89-1.38,8.1-3.19,12.1-1.67,3.67-2.37,7.77-4.17,11.37-.23.45-.9,1.77-.48,2.6,18.79-23.62,8.97-53.18-6.45-75.51,11.14,1.2,22.28.58,33.43-1.41.35-.06.71-.11,1.06-.18-.54-.44-1.11-.74-1.7-.89-.09-.02-.19-.05-.28-.07-.45-.07-.49.02-2.54.43-4.23.84-8,1.14-15.37,1.69-6.35.48-12.83-1.08-15.79-1.27-.97-.07-1.56.02-1.66.37-.04.15.07.53.28,1.04Z"/><path class="cls-5" d="m494.36,250.4c.4.2.92.24,1.39.23,3.98-.13,8.17-3.15,8.17-3.15,5.51-2.61,9.37-5.4,10.26-6.17,9.34-8.07,11.78-18.91,13.14-25.34,3.75-17.75.36-38.44-5.43-43.16-.35.07-.71.12-1.06.18,8.13,14.25,7.89,30.13,4.15,46.01-3.72,15.79-16.06,28.12-30.62,31.4Z"/><path class="cls-1" d="m493.85,249.91s.03.09.07.14c.11.16.27.27.44.35,14.56-3.28,26.9-15.61,30.62-31.4,3.74-15.88,3.98-31.76-4.15-46.01-11.15,1.99-22.29,2.61-33.43,1.41,15.42,22.33,25.24,51.89,6.45,75.51Z"/></g><g id="small_tooth"><path class="cls-5" d="m433.92,225.73c2.84.67,6.33-.68,6.33-.68,4.5-.8,7.86-2.1,8.66-2.5,8.42-4.18,13.75-12.16,16.12-16.82,6.34-12.5,7.55-28.5,4.61-33.91-.29,0-.58,0-.87,0,5.92,23.23-9.65,52.77-34.84,53.92Z"/><path class="cls-1" d="m432.93,225.31c.23.18.53.3.81.37.06.02.13.03.19.04,25.19-1.15,40.76-30.68,34.84-53.92-8.01-.1-15.77-1-22.67-4.88,4.37,20.25,1.22,43.48-13.17,58.38Z"/><path class="cls-7" d="m442.63,163.3c-.09.15-.06.68.02,1.39.27,2.4,1.26,7.01,1.37,7.43.77,2.76.99,1.98,1.88,9.81,1.15,10-.85,13.73-3.68,23.32-1.12,3.8-1.41,4.8-3.33,9.67-1.16,2.95-3.39,5.49-5.46,7.87-.27.32-1.13,1.27-.89,2.02.06.21.21.36.38.49,14.39-14.9,17.54-38.13,13.17-58.38,6.89,3.88,14.66,4.78,22.67,4.88.29,0,.58,0,.87,0-.37-.67-.79-1.18-1.27-1.5-.09-.06-.16-.12-.26-.16-.31-.16-.36-.1-1.9-.24-3.2-.28-5.95-.88-11.32-2.08-3.7-.82-7.15-2.65-9.46-3.77-1.53-.74-2.56-1.18-2.8-.77Z"/></g></g></svg>