<?xml version="1.0" encoding="UTF-8"?><svg id="yes" xmlns="http://www.w3.org/2000/svg" width="250" height="200" viewBox="0 0 250 200"><defs><style>.cls-1{fill:#a6b702;}.cls-2{fill:#c1d313;}.cls-3{fill:#aeca04;}</style></defs><path class="cls-2" d="m237.28,26.19c4.63-10.13,7.49-17.71,6.54-19.24-4.7-7.57,2.14-1.42-42.59-1.55-10.57-.03-42.35,3.44-44.14,3.87-6.93,1.67-12.95,6.33-18.24,12.79,32.52,0,67.4-6.13,98.44,4.12Z"/><path class="cls-1" d="m4.69,37.59c-.48.68-.88,1.4-1.18,2.14-2.38,6,2.47,11.98,8.37,21.77,23.83,39.49,28.45,80.51,49.14,117.79,2.08,3.75,6.31,11.05,14.49,14.49.13.06.27.11.4.16C56.72,139.7,33.84,87.3,4.69,37.59Z"/><path class="cls-2" d="m66.02,41.29c-.13-1.13-.43-2.45-1.11-3.78-6.68-12.99-41.97-13.3-56.13-3.73,18.99-2.34,39.34-.89,57.24,7.52Z"/><path class="cls-3" d="m138.84,22.07c-23.6,28.86-32.57,94.06-42.16,94.08-8.33.01-33.14-45.3-30.66-71.94.05-.51.14-1.58,0-2.91-17.9-8.41-38.25-9.86-57.24-7.52-1.68,1.14-3.09,2.41-4.09,3.82,29.15,49.71,52.03,102.11,71.22,156.35,4.7,1.88,8.98,1.75,16.34,1.52,9.69-.3,14.17-2.37,25.12-1.67,3.03.19,25-.27,25.78-.2,23.47,2.23,20.91-37.21,58.08-97.58,1.47-2.39,24.39-44.26,36.06-69.82-31.04-10.25-65.92-4.12-98.44-4.12Z"/></svg>